<svg width="321" height="483" viewBox="0 0 321 483" fill="none" xmlns="http://www.w3.org/2000/svg">
<path d="M258.57 448.804C258.57 448.804 263.027 420.961 235.537 386.959C262.295 308.895 266.008 237.805 266.008 237.805C266.008 237.805 321 250.952 321 307.359C320.987 403.967 258.57 448.804 258.57 448.804ZM106.991 414.886C106.991 414.886 70.161 291.956 70.161 240.96C70.161 218.016 72.6491 197.603 76.5211 179.073H244.306C248.205 197.617 250.706 218.043 250.706 240.974C250.706 291.195 213.982 414.886 213.982 414.886H106.991ZM160.36 207.18C141.493 207.18 126.191 223.094 126.191 242.732C126.191 262.355 141.493 278.283 160.36 278.283C179.228 278.283 194.543 262.369 194.543 242.732C194.556 223.094 179.241 207.18 160.36 207.18ZM153.016 48.4079V0H166.321V47.1763C181.53 58.6901 222.684 95.3074 241.299 165.844H79.5016C97.4909 97.2449 136.663 61.0289 153.016 48.4079ZM62.417 448.804C62.417 448.804 0 403.967 0 307.359C0 250.952 54.9925 237.805 54.9925 237.805C54.9925 237.805 58.7047 308.895 85.4492 386.959C57.9463 420.975 62.417 448.804 62.417 448.804ZM182.993 455.945L171.843 444.348L159.961 483L145.83 444.348L136.171 464.428L122.04 428.102H198.574L182.993 455.945Z" fill="url(#paint0_linear_64_860)"/>
<defs>
<linearGradient id="paint0_linear_64_860" x1="160.5" y1="74.9483" x2="263.75" y2="481.234" gradientUnits="userSpaceOnUse">
<stop stop-color="#08B74F"/>
<stop offset="1" stop-color="#00002F"/>
</linearGradient>
</defs>
</svg>
