<svg width="671" height="551" viewBox="0 0 671 551" fill="none" xmlns="http://www.w3.org/2000/svg">
<path d="M641.675 266.76H637.72V270.714H641.675V266.76Z" fill="#F0F0F0"/>
<path d="M641.675 273.394H637.72V277.348H641.675V273.394Z" fill="#F0F0F0"/>
<path d="M641.675 299.92H637.72V303.874H641.675V299.92Z" fill="#F0F0F0"/>
<path d="M641.675 306.536H637.72V310.49H641.675V306.536Z" fill="#F0F0F0"/>
<path d="M641.675 313.16H637.72V317.115H641.675V313.16Z" fill="#F0F0F0"/>
<path d="M641.675 333.062H637.72V337.016H641.675V333.062Z" fill="#F0F0F0"/>
<path d="M641.675 339.696H637.72V343.65H641.675V339.696Z" fill="#F0F0F0"/>
<path d="M635.392 293.286H631.438V297.241H635.392V293.286Z" fill="#F0F0F0"/>
<path d="M635.392 299.92H631.438V303.874H635.392V299.92Z" fill="#F0F0F0"/>
<path d="M635.392 306.536H631.438V310.49H635.392V306.536Z" fill="#F0F0F0"/>
<path d="M635.392 313.16H631.438V317.115H635.392V313.16Z" fill="#F0F0F0"/>
<path d="M635.392 319.794H631.438V323.748H635.392V319.794Z" fill="#F0F0F0"/>
<path d="M635.392 333.062H631.438V337.016H635.392V333.062Z" fill="#F0F0F0"/>
<path d="M635.392 339.696H631.438V343.65H635.392V339.696Z" fill="#F0F0F0"/>
<path d="M629.109 266.76H625.155V270.714H629.109V266.76Z" fill="#F0F0F0"/>
<path d="M629.109 273.394H625.155V277.348H629.109V273.394Z" fill="#F0F0F0"/>
<path d="M629.109 280.019H625.155V283.973H629.109V280.019Z" fill="#F0F0F0"/>
<path d="M629.109 286.652H625.155V290.607H629.109V286.652Z" fill="#F0F0F0"/>
<path d="M629.109 293.286H625.155V297.241H629.109V293.286Z" fill="#F0F0F0"/>
<path d="M629.109 299.92H625.155V303.874H629.109V299.92Z" fill="#F0F0F0"/>
<path d="M629.109 306.536H625.155V310.49H629.109V306.536Z" fill="#F0F0F0"/>
<path d="M629.109 313.16H625.155V317.115H629.109V313.16Z" fill="#F0F0F0"/>
<path d="M629.109 319.794H625.155V323.748H629.109V319.794Z" fill="#F0F0F0"/>
<path d="M629.109 326.428H625.155V330.382H629.109V326.428Z" fill="#F0F0F0"/>
<path d="M629.109 339.696H625.155V343.65H629.109V339.696Z" fill="#F0F0F0"/>
<path d="M622.827 266.76H618.872V270.714H622.827V266.76Z" fill="#F0F0F0"/>
<path d="M622.827 273.394H618.872V277.348H622.827V273.394Z" fill="#F0F0F0"/>
<path d="M622.827 280.019H618.872V283.973H622.827V280.019Z" fill="#F0F0F0"/>
<path d="M622.827 286.652H618.872V290.607H622.827V286.652Z" fill="#F0F0F0"/>
<path d="M622.827 293.286H618.872V297.241H622.827V293.286Z" fill="#F0F0F0"/>
<path d="M622.827 299.92H618.872V303.874H622.827V299.92Z" fill="#F0F0F0"/>
<path d="M622.827 306.536H618.872V310.49H622.827V306.536Z" fill="#F0F0F0"/>
<path d="M622.827 366.222H618.872V370.176H622.827V366.222Z" fill="#F0F0F0"/>
<path d="M616.543 266.76H612.589V270.714H616.543V266.76Z" fill="#F0F0F0"/>
<path d="M616.543 273.394H612.589V277.348H616.543V273.394Z" fill="#F0F0F0"/>
<path d="M616.543 280.019H612.589V283.973H616.543V280.019Z" fill="#F0F0F0"/>
<path d="M616.543 286.652H612.589V290.607H616.543V286.652Z" fill="#F0F0F0"/>
<path d="M616.543 293.286H612.589V297.241H616.543V293.286Z" fill="#F0F0F0"/>
<path d="M616.543 299.92H612.589V303.874H616.543V299.92Z" fill="#F0F0F0"/>
<path d="M616.543 306.536H612.589V310.49H616.543V306.536Z" fill="#F0F0F0"/>
<path d="M616.543 313.16H612.589V317.115H616.543V313.16Z" fill="#F0F0F0"/>
<path d="M616.543 352.954H612.589V356.908H616.543V352.954Z" fill="#F0F0F0"/>
<path d="M616.543 359.588H612.589V363.542H616.543V359.588Z" fill="#F0F0F0"/>
<path d="M616.543 366.222H612.589V370.176H616.543V366.222Z" fill="#F0F0F0"/>
<path d="M616.543 372.837H612.589V376.791H616.543V372.837Z" fill="#F0F0F0"/>
<path d="M616.543 399.363H612.589V403.318H616.543V399.363Z" fill="#F0F0F0"/>
<path d="M610.261 266.76H606.307V270.714H610.261V266.76Z" fill="#F0F0F0"/>
<path d="M610.261 273.394H606.307V277.348H610.261V273.394Z" fill="#F0F0F0"/>
<path d="M610.261 280.019H606.307V283.973H610.261V280.019Z" fill="#F0F0F0"/>
<path d="M610.261 286.652H606.307V290.607H610.261V286.652Z" fill="#F0F0F0"/>
<path d="M610.261 293.286H606.307V297.241H610.261V293.286Z" fill="#F0F0F0"/>
<path d="M610.261 299.92H606.307V303.874H610.261V299.92Z" fill="#F0F0F0"/>
<path d="M610.261 306.536H606.307V310.49H610.261V306.536Z" fill="#F0F0F0"/>
<path d="M610.261 313.16H606.307V317.115H610.261V313.16Z" fill="#F0F0F0"/>
<path d="M610.261 319.794H606.307V323.748H610.261V319.794Z" fill="#F0F0F0"/>
<path d="M610.261 326.428H606.307V330.382H610.261V326.428Z" fill="#F0F0F0"/>
<path d="M610.261 346.32H606.307V350.275H610.261V346.32Z" fill="#F0F0F0"/>
<path d="M610.261 352.954H606.307V356.908H610.261V352.954Z" fill="#F0F0F0"/>
<path d="M610.261 359.588H606.307V363.542H610.261V359.588Z" fill="#F0F0F0"/>
<path d="M610.261 366.222H606.307V370.176H610.261V366.222Z" fill="#F0F0F0"/>
<path d="M610.261 372.837H606.307V376.791H610.261V372.837Z" fill="#F0F0F0"/>
<path d="M610.261 399.363H606.307V403.318H610.261V399.363Z" fill="#F0F0F0"/>
<path d="M603.978 266.76H600.024V270.714H603.978V266.76Z" fill="#F0F0F0"/>
<path d="M603.978 273.394H600.024V277.348H603.978V273.394Z" fill="#F0F0F0"/>
<path d="M603.978 280.019H600.024V283.973H603.978V280.019Z" fill="#F0F0F0"/>
<path d="M603.978 286.652H600.024V290.607H603.978V286.652Z" fill="#F0F0F0"/>
<path d="M603.978 293.286H600.024V297.241H603.978V293.286Z" fill="#F0F0F0"/>
<path d="M603.978 299.92H600.024V303.874H603.978V299.92Z" fill="#F0F0F0"/>
<path d="M603.978 306.536H600.024V310.49H603.978V306.536Z" fill="#F0F0F0"/>
<path d="M603.978 313.16H600.024V317.115H603.978V313.16Z" fill="#F0F0F0"/>
<path d="M603.978 319.794H600.024V323.748H603.978V319.794Z" fill="#F0F0F0"/>
<path d="M603.978 326.428H600.024V330.382H603.978V326.428Z" fill="#F0F0F0"/>
<path d="M603.978 333.062H600.024V337.016H603.978V333.062Z" fill="#F0F0F0"/>
<path d="M603.978 339.696H600.024V343.65H603.978V339.696Z" fill="#F0F0F0"/>
<path d="M603.978 346.32H600.024V350.275H603.978V346.32Z" fill="#F0F0F0"/>
<path d="M603.978 352.954H600.024V356.908H603.978V352.954Z" fill="#F0F0F0"/>
<path d="M603.978 359.588H600.024V363.542H603.978V359.588Z" fill="#F0F0F0"/>
<path d="M603.978 366.222H600.024V370.176H603.978V366.222Z" fill="#F0F0F0"/>
<path d="M603.978 372.837H600.024V376.791H603.978V372.837Z" fill="#F0F0F0"/>
<path d="M603.978 379.462H600.024V383.416H603.978V379.462Z" fill="#F0F0F0"/>
<path d="M597.695 266.76H593.741V270.714H597.695V266.76Z" fill="#F0F0F0"/>
<path d="M597.695 273.394H593.741V277.348H597.695V273.394Z" fill="#F0F0F0"/>
<path d="M597.695 280.019H593.741V283.973H597.695V280.019Z" fill="#F0F0F0"/>
<path d="M597.695 286.652H593.741V290.607H597.695V286.652Z" fill="#F0F0F0"/>
<path d="M597.695 293.286H593.741V297.241H597.695V293.286Z" fill="#F0F0F0"/>
<path d="M597.695 299.92H593.741V303.874H597.695V299.92Z" fill="#F0F0F0"/>
<path d="M597.695 306.536H593.741V310.49H597.695V306.536Z" fill="#F0F0F0"/>
<path d="M597.695 313.16H593.741V317.115H597.695V313.16Z" fill="#F0F0F0"/>
<path d="M597.695 319.794H593.741V323.748H597.695V319.794Z" fill="#F0F0F0"/>
<path d="M597.695 326.428H593.741V330.382H597.695V326.428Z" fill="#F0F0F0"/>
<path d="M597.695 346.32H593.741V350.275H597.695V346.32Z" fill="#F0F0F0"/>
<path d="M597.695 352.954H593.741V356.908H597.695V352.954Z" fill="#F0F0F0"/>
<path d="M597.695 359.588H593.741V363.542H597.695V359.588Z" fill="#F0F0F0"/>
<path d="M597.695 366.222H593.741V370.176H597.695V366.222Z" fill="#F0F0F0"/>
<path d="M591.431 266.76H587.477V270.714H591.431V266.76Z" fill="#F0F0F0"/>
<path d="M591.431 273.394H587.477V277.348H591.431V273.394Z" fill="#F0F0F0"/>
<path d="M591.431 280.019H587.477V283.973H591.431V280.019Z" fill="#F0F0F0"/>
<path d="M591.431 286.652H587.477V290.607H591.431V286.652Z" fill="#F0F0F0"/>
<path d="M591.431 293.286H587.477V297.241H591.431V293.286Z" fill="#F0F0F0"/>
<path d="M591.431 299.92H587.477V303.874H591.431V299.92Z" fill="#F0F0F0"/>
<path d="M591.431 306.536H587.477V310.49H591.431V306.536Z" fill="#F0F0F0"/>
<path d="M591.431 313.16H587.477V317.115H591.431V313.16Z" fill="#F0F0F0"/>
<path d="M591.431 319.794H587.477V323.748H591.431V319.794Z" fill="#F0F0F0"/>
<path d="M591.431 326.428H587.477V330.382H591.431V326.428Z" fill="#F0F0F0"/>
<path d="M591.431 346.32H587.477V350.275H591.431V346.32Z" fill="#F0F0F0"/>
<path d="M591.431 352.954H587.477V356.908H591.431V352.954Z" fill="#F0F0F0"/>
<path d="M591.431 359.588H587.477V363.542H591.431V359.588Z" fill="#F0F0F0"/>
<path d="M520.704 249.547H516.75V253.501H520.704V249.547Z" fill="#F0F0F0"/>
<path d="M520.704 256.171H516.75V260.126H520.704V256.171Z" fill="#F0F0F0"/>
<path d="M520.704 262.806H516.75V266.76H520.704V262.806Z" fill="#F0F0F0"/>
<path d="M520.704 269.439H516.75V273.394H520.704V269.439Z" fill="#F0F0F0"/>
<path d="M520.704 276.073H516.75V280.028H520.704V276.073Z" fill="#F0F0F0"/>
<path d="M520.704 282.707H516.75V286.661H520.704V282.707Z" fill="#F0F0F0"/>
<path d="M520.704 289.323H516.75V293.277H520.704V289.323Z" fill="#F0F0F0"/>
<path d="M520.704 295.947H516.75V299.902H520.704V295.947Z" fill="#F0F0F0"/>
<path d="M520.704 315.849H516.75V319.803H520.704V315.849Z" fill="#F0F0F0"/>
<path d="M520.704 322.473H516.75V326.428H520.704V322.473Z" fill="#F0F0F0"/>
<path d="M514.421 249.547H510.467V253.501H514.421V249.547Z" fill="#F0F0F0"/>
<path d="M514.421 256.171H510.467V260.126H514.421V256.171Z" fill="#F0F0F0"/>
<path d="M514.421 262.806H510.467V266.76H514.421V262.806Z" fill="#F0F0F0"/>
<path d="M514.421 269.439H510.467V273.394H514.421V269.439Z" fill="#F0F0F0"/>
<path d="M514.421 276.073H510.467V280.028H514.421V276.073Z" fill="#F0F0F0"/>
<path d="M514.421 282.707H510.467V286.661H514.421V282.707Z" fill="#F0F0F0"/>
<path d="M514.421 289.323H510.467V293.277H514.421V289.323Z" fill="#F0F0F0"/>
<path d="M514.421 295.947H510.467V299.902H514.421V295.947Z" fill="#F0F0F0"/>
<path d="M514.421 322.473H510.467V326.428H514.421V322.473Z" fill="#F0F0F0"/>
<path d="M508.139 249.547H504.184V253.501H508.139V249.547Z" fill="#F0F0F0"/>
<path d="M508.139 256.171H504.184V260.126H508.139V256.171Z" fill="#F0F0F0"/>
<path d="M508.139 262.806H504.184V266.76H508.139V262.806Z" fill="#F0F0F0"/>
<path d="M508.139 269.439H504.184V273.394H508.139V269.439Z" fill="#F0F0F0"/>
<path d="M508.139 276.073H504.184V280.028H508.139V276.073Z" fill="#F0F0F0"/>
<path d="M508.139 282.707H504.184V286.661H508.139V282.707Z" fill="#F0F0F0"/>
<path d="M508.139 289.323H504.184V293.277H508.139V289.323Z" fill="#F0F0F0"/>
<path d="M508.139 295.947H504.184V299.902H508.139V295.947Z" fill="#F0F0F0"/>
<path d="M501.856 249.547H497.901V253.501H501.856V249.547Z" fill="#F0F0F0"/>
<path d="M501.856 256.171H497.901V260.126H501.856V256.171Z" fill="#F0F0F0"/>
<path d="M501.856 262.806H497.901V266.76H501.856V262.806Z" fill="#F0F0F0"/>
<path d="M501.856 269.439H497.901V273.394H501.856V269.439Z" fill="#F0F0F0"/>
<path d="M501.856 276.073H497.901V280.028H501.856V276.073Z" fill="#F0F0F0"/>
<path d="M501.856 282.707H497.901V286.661H501.856V282.707Z" fill="#F0F0F0"/>
<path d="M501.856 295.947H497.901V299.902H501.856V295.947Z" fill="#F0F0F0"/>
<path d="M501.856 302.581H497.901V306.535H501.856V302.581Z" fill="#F0F0F0"/>
<path d="M501.856 322.473H497.901V326.428H501.856V322.473Z" fill="#F0F0F0"/>
<path d="M501.856 329.107H497.901V333.062H501.856V329.107Z" fill="#F0F0F0"/>
<path d="M501.856 335.741H497.901V339.695H501.856V335.741Z" fill="#F0F0F0"/>
<path d="M501.856 342.375H497.901V346.329H501.856V342.375Z" fill="#F0F0F0"/>
<path d="M501.856 349H497.901V352.954H501.856V349Z" fill="#F0F0F0"/>
<path d="M501.856 355.624H497.901V359.578H501.856V355.624Z" fill="#F0F0F0"/>
<path d="M501.856 362.249H497.901V366.203H501.856V362.249Z" fill="#F0F0F0"/>
<path d="M495.573 249.547H491.619V253.501H495.573V249.547Z" fill="#F0F0F0"/>
<path d="M495.573 256.171H491.619V260.126H495.573V256.171Z" fill="#F0F0F0"/>
<path d="M495.573 262.806H491.619V266.76H495.573V262.806Z" fill="#F0F0F0"/>
<path d="M495.573 269.439H491.619V273.394H495.573V269.439Z" fill="#F0F0F0"/>
<path d="M495.573 276.073H491.619V280.028H495.573V276.073Z" fill="#F0F0F0"/>
<path d="M495.573 282.707H491.619V286.661H495.573V282.707Z" fill="#F0F0F0"/>
<path d="M495.573 302.581H491.619V306.535H495.573V302.581Z" fill="#F0F0F0"/>
<path d="M495.573 309.215H491.619V313.169H495.573V309.215Z" fill="#F0F0F0"/>
<path d="M495.573 315.849H491.619V319.803H495.573V315.849Z" fill="#F0F0F0"/>
<path d="M495.573 322.473H491.619V326.428H495.573V322.473Z" fill="#F0F0F0"/>
<path d="M495.573 329.107H491.619V333.062H495.573V329.107Z" fill="#F0F0F0"/>
<path d="M495.573 335.741H491.619V339.695H495.573V335.741Z" fill="#F0F0F0"/>
<path d="M495.573 342.375H491.619V346.329H495.573V342.375Z" fill="#F0F0F0"/>
<path d="M495.573 349H491.619V352.954H495.573V349Z" fill="#F0F0F0"/>
<path d="M495.573 355.624H491.619V359.578H495.573V355.624Z" fill="#F0F0F0"/>
<path d="M495.573 362.249H491.619V366.203H495.573V362.249Z" fill="#F0F0F0"/>
<path d="M495.573 368.883H491.619V372.837H495.573V368.883Z" fill="#F0F0F0"/>
<path d="M495.573 382.15H491.619V386.105H495.573V382.15Z" fill="#F0F0F0"/>
<path d="M489.29 249.547H485.336V253.501H489.29V249.547Z" fill="#F0F0F0"/>
<path d="M489.29 256.171H485.336V260.126H489.29V256.171Z" fill="#F0F0F0"/>
<path d="M489.29 262.806H485.336V266.76H489.29V262.806Z" fill="#F0F0F0"/>
<path d="M489.29 269.439H485.336V273.394H489.29V269.439Z" fill="#F0F0F0"/>
<path d="M489.29 276.073H485.336V280.028H489.29V276.073Z" fill="#F0F0F0"/>
<path d="M489.29 282.707H485.336V286.661H489.29V282.707Z" fill="#F0F0F0"/>
<path d="M489.29 302.581H485.336V306.535H489.29V302.581Z" fill="#F0F0F0"/>
<path d="M489.29 309.215H485.336V313.169H489.29V309.215Z" fill="#F0F0F0"/>
<path d="M489.29 315.849H485.336V319.803H489.29V315.849Z" fill="#F0F0F0"/>
<path d="M489.29 322.473H485.336V326.428H489.29V322.473Z" fill="#F0F0F0"/>
<path d="M489.29 342.375H485.336V346.329H489.29V342.375Z" fill="#F0F0F0"/>
<path d="M489.29 349H485.336V352.954H489.29V349Z" fill="#F0F0F0"/>
<path d="M489.29 355.624H485.336V359.578H489.29V355.624Z" fill="#F0F0F0"/>
<path d="M489.29 362.249H485.336V366.203H489.29V362.249Z" fill="#F0F0F0"/>
<path d="M489.29 368.883H485.336V372.837H489.29V368.883Z" fill="#F0F0F0"/>
<path d="M489.29 382.15H485.336V386.105H489.29V382.15Z" fill="#F0F0F0"/>
<path d="M489.29 388.775H485.336V392.729H489.29V388.775Z" fill="#F0F0F0"/>
<path d="M432.302 311.201H428.348V315.156H432.302V311.201Z" fill="#F0F0F0"/>
<path d="M432.302 317.826H428.348V321.78H432.302V317.826Z" fill="#F0F0F0"/>
<path d="M432.302 324.46H428.348V328.414H432.302V324.46Z" fill="#F0F0F0"/>
<path d="M432.302 331.075H428.348V335.03H432.302V331.075Z" fill="#F0F0F0"/>
<path d="M432.302 337.709H428.348V341.663H432.302V337.709Z" fill="#F0F0F0"/>
<path d="M432.302 344.343H428.348V348.297H432.302V344.343Z" fill="#F0F0F0"/>
<path d="M432.302 350.967H428.348V354.922H432.302V350.967Z" fill="#F0F0F0"/>
<path d="M432.302 370.869H428.348V374.824H432.302V370.869Z" fill="#F0F0F0"/>
<path d="M432.302 377.494H428.348V381.448H432.302V377.494Z" fill="#F0F0F0"/>
<path d="M432.302 384.127H428.348V388.082H432.302V384.127Z" fill="#F0F0F0"/>
<path d="M426.019 311.201H422.064V315.156H426.019V311.201Z" fill="#F0F0F0"/>
<path d="M426.019 317.826H422.064V321.78H426.019V317.826Z" fill="#F0F0F0"/>
<path d="M426.019 324.46H422.064V328.414H426.019V324.46Z" fill="#F0F0F0"/>
<path d="M426.019 331.075H422.064V335.03H426.019V331.075Z" fill="#F0F0F0"/>
<path d="M426.019 337.709H422.064V341.663H426.019V337.709Z" fill="#F0F0F0"/>
<path d="M426.019 344.343H422.064V348.297H426.019V344.343Z" fill="#F0F0F0"/>
<path d="M426.019 350.967H422.064V354.922H426.019V350.967Z" fill="#F0F0F0"/>
<path d="M419.736 311.201H415.782V315.156H419.736V311.201Z" fill="#F0F0F0"/>
<path d="M419.736 317.826H415.782V321.78H419.736V317.826Z" fill="#F0F0F0"/>
<path d="M419.736 324.46H415.782V328.414H419.736V324.46Z" fill="#F0F0F0"/>
<path d="M419.736 331.075H415.782V335.03H419.736V331.075Z" fill="#F0F0F0"/>
<path d="M419.736 337.709H415.782V341.663H419.736V337.709Z" fill="#F0F0F0"/>
<path d="M419.736 344.343H415.782V348.297H419.736V344.343Z" fill="#F0F0F0"/>
<path d="M419.736 350.967H415.782V354.922H419.736V350.967Z" fill="#F0F0F0"/>
<path d="M413.453 311.201H409.499V315.156H413.453V311.201Z" fill="#F0F0F0"/>
<path d="M413.453 317.826H409.499V321.78H413.453V317.826Z" fill="#F0F0F0"/>
<path d="M413.453 324.46H409.499V328.414H413.453V324.46Z" fill="#F0F0F0"/>
<path d="M413.453 331.075H409.499V335.03H413.453V331.075Z" fill="#F0F0F0"/>
<path d="M413.453 337.709H409.499V341.663H413.453V337.709Z" fill="#F0F0F0"/>
<path d="M413.453 344.343H409.499V348.297H413.453V344.343Z" fill="#F0F0F0"/>
<path d="M413.453 350.967H409.499V354.922H413.453V350.967Z" fill="#F0F0F0"/>
<path d="M413.453 357.602H409.499V361.556H413.453V357.602Z" fill="#F0F0F0"/>
<path d="M413.453 364.235H409.499V368.189H413.453V364.235Z" fill="#F0F0F0"/>
<path d="M413.453 370.869H409.499V374.824H413.453V370.869Z" fill="#F0F0F0"/>
<path d="M413.453 377.494H409.499V381.448H413.453V377.494Z" fill="#F0F0F0"/>
<path d="M407.171 311.201H403.216V315.156H407.171V311.201Z" fill="#F0F0F0"/>
<path d="M407.171 317.826H403.216V321.78H407.171V317.826Z" fill="#F0F0F0"/>
<path d="M407.171 324.46H403.216V328.414H407.171V324.46Z" fill="#F0F0F0"/>
<path d="M407.171 331.075H403.216V335.03H407.171V331.075Z" fill="#F0F0F0"/>
<path d="M407.171 337.709H403.216V341.663H407.171V337.709Z" fill="#F0F0F0"/>
<path d="M407.171 344.343H403.216V348.297H407.171V344.343Z" fill="#F0F0F0"/>
<path d="M407.171 350.967H403.216V354.922H407.171V350.967Z" fill="#F0F0F0"/>
<path d="M407.171 357.602H403.216V361.556H407.171V357.602Z" fill="#F0F0F0"/>
<path d="M407.171 364.235H403.216V368.189H407.171V364.235Z" fill="#F0F0F0"/>
<path d="M407.171 370.869H403.216V374.824H407.171V370.869Z" fill="#F0F0F0"/>
<path d="M407.171 377.494H403.216V381.448H407.171V377.494Z" fill="#F0F0F0"/>
<path d="M407.171 384.127H403.216V388.082H407.171V384.127Z" fill="#F0F0F0"/>
<path d="M407.171 404.011H403.216V407.965H407.171V404.011Z" fill="#F0F0F0"/>
<path d="M407.171 410.645H403.216V414.599H407.171V410.645Z" fill="#F0F0F0"/>
<path d="M400.888 311.201H396.934V315.156H400.888V311.201Z" fill="#F0F0F0"/>
<path d="M400.888 317.826H396.934V321.78H400.888V317.826Z" fill="#F0F0F0"/>
<path d="M400.888 324.46H396.934V328.414H400.888V324.46Z" fill="#F0F0F0"/>
<path d="M400.888 344.343H396.934V348.297H400.888V344.343Z" fill="#F0F0F0"/>
<path d="M400.888 350.967H396.934V354.922H400.888V350.967Z" fill="#F0F0F0"/>
<path d="M400.888 357.602H396.934V361.556H400.888V357.602Z" fill="#F0F0F0"/>
<path d="M400.888 364.235H396.934V368.189H400.888V364.235Z" fill="#F0F0F0"/>
<path d="M400.888 370.869H396.934V374.824H400.888V370.869Z" fill="#F0F0F0"/>
<path d="M400.888 377.494H396.934V381.448H400.888V377.494Z" fill="#F0F0F0"/>
<path d="M400.888 384.127H396.934V388.082H400.888V384.127Z" fill="#F0F0F0"/>
<path d="M400.888 404.011H396.934V407.965H400.888V404.011Z" fill="#F0F0F0"/>
<path d="M400.888 410.645H396.934V414.599H400.888V410.645Z" fill="#F0F0F0"/>
<path d="M400.888 417.269H396.934V421.223H400.888V417.269Z" fill="#F0F0F0"/>
<path d="M335.067 271.407H331.112V275.362H335.067V271.407Z" fill="#F0F0F0"/>
<path d="M335.067 278.042H331.112V281.996H335.067V278.042Z" fill="#F0F0F0"/>
<path d="M335.067 284.666H331.112V288.62H335.067V284.666Z" fill="#F0F0F0"/>
<path d="M335.067 291.3H331.112V295.254H335.067V291.3Z" fill="#F0F0F0"/>
<path d="M335.067 297.934H331.112V301.888H335.067V297.934Z" fill="#F0F0F0"/>
<path d="M335.067 304.567H331.112V308.522H335.067V304.567Z" fill="#F0F0F0"/>
<path d="M335.067 311.201H331.112V315.156H335.067V311.201Z" fill="#F0F0F0"/>
<path d="M335.067 317.826H331.112V321.78H335.067V317.826Z" fill="#F0F0F0"/>
<path d="M335.067 324.46H331.112V328.414H335.067V324.46Z" fill="#F0F0F0"/>
<path d="M335.067 331.075H331.112V335.03H335.067V331.075Z" fill="#F0F0F0"/>
<path d="M335.067 337.709H331.112V341.663H335.067V337.709Z" fill="#F0F0F0"/>
<path d="M335.067 344.343H331.112V348.297H335.067V344.343Z" fill="#F0F0F0"/>
<path d="M335.067 350.967H331.112V354.922H335.067V350.967Z" fill="#F0F0F0"/>
<path d="M335.067 357.602H331.112V361.556H335.067V357.602Z" fill="#F0F0F0"/>
<path d="M335.067 364.235H331.112V368.189H335.067V364.235Z" fill="#F0F0F0"/>
<path d="M335.067 370.869H331.112V374.824H335.067V370.869Z" fill="#F0F0F0"/>
<path d="M335.067 377.494H331.112V381.448H335.067V377.494Z" fill="#F0F0F0"/>
<path d="M335.067 384.127H331.112V388.082H335.067V384.127Z" fill="#F0F0F0"/>
<path d="M335.067 390.762H331.112V394.716H335.067V390.762Z" fill="#F0F0F0"/>
<path d="M335.067 397.376H331.112V401.331H335.067V397.376Z" fill="#F0F0F0"/>
<path d="M335.067 404.011H331.112V407.965H335.067V404.011Z" fill="#F0F0F0"/>
<path d="M335.067 410.645H331.112V414.599H335.067V410.645Z" fill="#F0F0F0"/>
<path d="M335.067 417.269H331.112V421.223H335.067V417.269Z" fill="#F0F0F0"/>
<path d="M328.784 271.407H324.83V275.362H328.784V271.407Z" fill="#F0F0F0"/>
<path d="M328.784 278.042H324.83V281.996H328.784V278.042Z" fill="#F0F0F0"/>
<path d="M328.784 284.666H324.83V288.62H328.784V284.666Z" fill="#F0F0F0"/>
<path d="M328.784 291.3H324.83V295.254H328.784V291.3Z" fill="#F0F0F0"/>
<path d="M328.784 297.934H324.83V301.888H328.784V297.934Z" fill="#F0F0F0"/>
<path d="M328.784 304.567H324.83V308.522H328.784V304.567Z" fill="#F0F0F0"/>
<path d="M328.784 311.201H324.83V315.156H328.784V311.201Z" fill="#F0F0F0"/>
<path d="M328.784 317.826H324.83V321.78H328.784V317.826Z" fill="#F0F0F0"/>
<path d="M328.784 324.46H324.83V328.414H328.784V324.46Z" fill="#F0F0F0"/>
<path d="M328.784 331.075H324.83V335.03H328.784V331.075Z" fill="#F0F0F0"/>
<path d="M328.784 337.709H324.83V341.663H328.784V337.709Z" fill="#F0F0F0"/>
<path d="M328.784 344.343H324.83V348.297H328.784V344.343Z" fill="#F0F0F0"/>
<path d="M328.784 350.967H324.83V354.922H328.784V350.967Z" fill="#F0F0F0"/>
<path d="M328.784 357.602H324.83V361.556H328.784V357.602Z" fill="#F0F0F0"/>
<path d="M328.784 364.235H324.83V368.189H328.784V364.235Z" fill="#F0F0F0"/>
<path d="M328.784 370.869H324.83V374.824H328.784V370.869Z" fill="#F0F0F0"/>
<path d="M328.784 377.494H324.83V381.448H328.784V377.494Z" fill="#F0F0F0"/>
<path d="M328.784 384.127H324.83V388.082H328.784V384.127Z" fill="#F0F0F0"/>
<path d="M328.784 390.762H324.83V394.716H328.784V390.762Z" fill="#F0F0F0"/>
<path d="M322.501 271.407H318.547V275.362H322.501V271.407Z" fill="#F0F0F0"/>
<path d="M322.501 278.042H318.547V281.996H322.501V278.042Z" fill="#F0F0F0"/>
<path d="M322.501 284.666H318.547V288.62H322.501V284.666Z" fill="#F0F0F0"/>
<path d="M322.501 291.3H318.547V295.254H322.501V291.3Z" fill="#F0F0F0"/>
<path d="M322.501 297.934H318.547V301.888H322.501V297.934Z" fill="#F0F0F0"/>
<path d="M322.501 304.567H318.547V308.522H322.501V304.567Z" fill="#F0F0F0"/>
<path d="M322.501 311.201H318.547V315.156H322.501V311.201Z" fill="#F0F0F0"/>
<path d="M322.501 317.826H318.547V321.78H322.501V317.826Z" fill="#F0F0F0"/>
<path d="M322.501 324.46H318.547V328.414H322.501V324.46Z" fill="#F0F0F0"/>
<path d="M322.501 331.075H318.547V335.03H322.501V331.075Z" fill="#F0F0F0"/>
<path d="M322.501 337.709H318.547V341.663H322.501V337.709Z" fill="#F0F0F0"/>
<path d="M322.501 344.343H318.547V348.297H322.501V344.343Z" fill="#F0F0F0"/>
<path d="M322.501 350.967H318.547V354.922H322.501V350.967Z" fill="#F0F0F0"/>
<path d="M322.501 357.602H318.547V361.556H322.501V357.602Z" fill="#F0F0F0"/>
<path d="M322.501 364.235H318.547V368.189H322.501V364.235Z" fill="#F0F0F0"/>
<path d="M322.501 370.869H318.547V374.824H322.501V370.869Z" fill="#F0F0F0"/>
<path d="M322.501 377.494H318.547V381.448H322.501V377.494Z" fill="#F0F0F0"/>
<path d="M322.501 384.127H318.547V388.082H322.501V384.127Z" fill="#F0F0F0"/>
<path d="M322.501 390.762H318.547V394.716H322.501V390.762Z" fill="#F0F0F0"/>
<path d="M316.219 271.407H312.264V275.362H316.219V271.407Z" fill="#F0F0F0"/>
<path d="M316.219 278.042H312.264V281.996H316.219V278.042Z" fill="#F0F0F0"/>
<path d="M316.219 284.666H312.264V288.62H316.219V284.666Z" fill="#F0F0F0"/>
<path d="M316.219 291.3H312.264V295.254H316.219V291.3Z" fill="#F0F0F0"/>
<path d="M316.219 297.934H312.264V301.888H316.219V297.934Z" fill="#F0F0F0"/>
<path d="M316.219 304.567H312.264V308.522H316.219V304.567Z" fill="#F0F0F0"/>
<path d="M316.219 311.201H312.264V315.156H316.219V311.201Z" fill="#F0F0F0"/>
<path d="M316.219 317.826H312.264V321.78H316.219V317.826Z" fill="#F0F0F0"/>
<path d="M316.219 324.46H312.264V328.414H316.219V324.46Z" fill="#F0F0F0"/>
<path d="M316.219 331.075H312.264V335.03H316.219V331.075Z" fill="#F0F0F0"/>
<path d="M316.219 337.709H312.264V341.663H316.219V337.709Z" fill="#F0F0F0"/>
<path d="M316.219 344.343H312.264V348.297H316.219V344.343Z" fill="#F0F0F0"/>
<path d="M316.219 350.967H312.264V354.922H316.219V350.967Z" fill="#F0F0F0"/>
<path d="M316.219 357.602H312.264V361.556H316.219V357.602Z" fill="#F0F0F0"/>
<path d="M316.219 364.235H312.264V368.189H316.219V364.235Z" fill="#F0F0F0"/>
<path d="M309.936 271.407H305.981V275.362H309.936V271.407Z" fill="#F0F0F0"/>
<path d="M309.936 278.042H305.981V281.996H309.936V278.042Z" fill="#F0F0F0"/>
<path d="M309.936 284.666H305.981V288.62H309.936V284.666Z" fill="#F0F0F0"/>
<path d="M309.936 291.3H305.981V295.254H309.936V291.3Z" fill="#F0F0F0"/>
<path d="M309.936 297.934H305.981V301.888H309.936V297.934Z" fill="#F0F0F0"/>
<path d="M309.936 304.567H305.981V308.522H309.936V304.567Z" fill="#F0F0F0"/>
<path d="M309.936 311.201H305.981V315.156H309.936V311.201Z" fill="#F0F0F0"/>
<path d="M309.936 317.826H305.981V321.78H309.936V317.826Z" fill="#F0F0F0"/>
<path d="M309.936 324.46H305.981V328.414H309.936V324.46Z" fill="#F0F0F0"/>
<path d="M309.936 331.075H305.981V335.03H309.936V331.075Z" fill="#F0F0F0"/>
<path d="M309.936 337.709H305.981V341.663H309.936V337.709Z" fill="#F0F0F0"/>
<path d="M309.936 344.343H305.981V348.297H309.936V344.343Z" fill="#F0F0F0"/>
<path d="M309.936 350.967H305.981V354.922H309.936V350.967Z" fill="#F0F0F0"/>
<path d="M303.653 271.407H299.698V275.362H303.653V271.407Z" fill="#F0F0F0"/>
<path d="M303.653 278.042H299.698V281.996H303.653V278.042Z" fill="#F0F0F0"/>
<path d="M303.653 284.666H299.698V288.62H303.653V284.666Z" fill="#F0F0F0"/>
<path d="M303.653 291.3H299.698V295.254H303.653V291.3Z" fill="#F0F0F0"/>
<path d="M303.653 297.934H299.698V301.888H303.653V297.934Z" fill="#F0F0F0"/>
<path d="M303.653 304.567H299.698V308.522H303.653V304.567Z" fill="#F0F0F0"/>
<path d="M303.653 311.201H299.698V315.156H303.653V311.201Z" fill="#F0F0F0"/>
<path d="M303.653 317.826H299.698V321.78H303.653V317.826Z" fill="#F0F0F0"/>
<path d="M303.653 324.46H299.698V328.414H303.653V324.46Z" fill="#F0F0F0"/>
<path d="M303.653 331.075H299.698V335.03H303.653V331.075Z" fill="#F0F0F0"/>
<path d="M303.653 337.709H299.698V341.663H303.653V337.709Z" fill="#F0F0F0"/>
<path d="M303.653 344.343H299.698V348.297H303.653V344.343Z" fill="#F0F0F0"/>
<path d="M670.28 269.439H666.325V273.394H670.28V269.439Z" fill="#F0F0F0"/>
<path d="M670.28 276.073H666.325V280.028H670.28V276.073Z" fill="#F0F0F0"/>
<path d="M670.28 282.707H666.325V286.661H670.28V282.707Z" fill="#F0F0F0"/>
<path d="M670.28 289.323H666.325V293.277H670.28V289.323Z" fill="#F0F0F0"/>
<path d="M670.28 295.947H666.325V299.902H670.28V295.947Z" fill="#F0F0F0"/>
<path d="M670.28 302.581H666.325V306.535H670.28V302.581Z" fill="#F0F0F0"/>
<path d="M670.28 309.215H666.325V313.169H670.28V309.215Z" fill="#F0F0F0"/>
<path d="M670.28 315.849H666.325V319.803H670.28V315.849Z" fill="#F0F0F0"/>
<path d="M670.28 322.473H666.325V326.428H670.28V322.473Z" fill="#F0F0F0"/>
<path d="M670.28 329.107H666.325V333.062H670.28V329.107Z" fill="#F0F0F0"/>
<path d="M670.28 335.741H666.325V339.695H670.28V335.741Z" fill="#F0F0F0"/>
<path d="M670.28 342.375H666.325V346.329H670.28V342.375Z" fill="#F0F0F0"/>
<path d="M670.28 349H666.325V352.954H670.28V349Z" fill="#F0F0F0"/>
<path d="M670.28 355.624H666.325V359.578H670.28V355.624Z" fill="#F0F0F0"/>
<path d="M670.28 362.249H666.325V366.203H670.28V362.249Z" fill="#F0F0F0"/>
<path d="M670.28 368.883H666.325V372.837H670.28V368.883Z" fill="#F0F0F0"/>
<path d="M670.28 375.517H666.325V379.471H670.28V375.517Z" fill="#F0F0F0"/>
<path d="M670.28 388.775H666.325V392.729H670.28V388.775Z" fill="#F0F0F0"/>
<path d="M670.28 395.409H666.325V399.363H670.28V395.409Z" fill="#F0F0F0"/>
<path d="M670.28 402.043H666.325V405.997H670.28V402.043Z" fill="#F0F0F0"/>
<path d="M670.28 408.676H666.325V412.631H670.28V408.676Z" fill="#F0F0F0"/>
<path d="M670.28 415.292H666.325V419.246H670.28V415.292Z" fill="#F0F0F0"/>
<path d="M663.997 269.439H660.043V273.394H663.997V269.439Z" fill="#F0F0F0"/>
<path d="M663.997 276.073H660.043V280.028H663.997V276.073Z" fill="#F0F0F0"/>
<path d="M663.997 282.707H660.043V286.661H663.997V282.707Z" fill="#F0F0F0"/>
<path d="M663.997 289.323H660.043V293.277H663.997V289.323Z" fill="#F0F0F0"/>
<path d="M663.997 295.947H660.043V299.902H663.997V295.947Z" fill="#F0F0F0"/>
<path d="M663.997 302.581H660.043V306.535H663.997V302.581Z" fill="#F0F0F0"/>
<path d="M663.997 309.215H660.043V313.169H663.997V309.215Z" fill="#F0F0F0"/>
<path d="M663.997 315.849H660.043V319.803H663.997V315.849Z" fill="#F0F0F0"/>
<path d="M663.997 322.473H660.043V326.428H663.997V322.473Z" fill="#F0F0F0"/>
<path d="M663.997 329.107H660.043V333.062H663.997V329.107Z" fill="#F0F0F0"/>
<path d="M663.997 335.741H660.043V339.695H663.997V335.741Z" fill="#F0F0F0"/>
<path d="M663.997 342.375H660.043V346.329H663.997V342.375Z" fill="#F0F0F0"/>
<path d="M663.997 349H660.043V352.954H663.997V349Z" fill="#F0F0F0"/>
<path d="M663.997 355.624H660.043V359.578H663.997V355.624Z" fill="#F0F0F0"/>
<path d="M663.997 362.249H660.043V366.203H663.997V362.249Z" fill="#F0F0F0"/>
<path d="M663.997 368.883H660.043V372.837H663.997V368.883Z" fill="#F0F0F0"/>
<path d="M663.997 408.676H660.043V412.631H663.997V408.676Z" fill="#F0F0F0"/>
<path d="M663.997 415.292H660.043V419.246H663.997V415.292Z" fill="#F0F0F0"/>
<path d="M657.733 269.439H653.778V273.394H657.733V269.439Z" fill="#F0F0F0"/>
<path d="M657.733 276.073H653.778V280.028H657.733V276.073Z" fill="#F0F0F0"/>
<path d="M657.733 282.707H653.778V286.661H657.733V282.707Z" fill="#F0F0F0"/>
<path d="M657.733 289.323H653.778V293.277H657.733V289.323Z" fill="#F0F0F0"/>
<path d="M657.733 295.947H653.778V299.902H657.733V295.947Z" fill="#F0F0F0"/>
<path d="M657.733 302.581H653.778V306.535H657.733V302.581Z" fill="#F0F0F0"/>
<path d="M657.733 309.215H653.778V313.169H657.733V309.215Z" fill="#F0F0F0"/>
<path d="M657.733 315.849H653.778V319.803H657.733V315.849Z" fill="#F0F0F0"/>
<path d="M657.733 322.473H653.778V326.428H657.733V322.473Z" fill="#F0F0F0"/>
<path d="M657.733 329.107H653.778V333.062H657.733V329.107Z" fill="#F0F0F0"/>
<path d="M657.733 335.741H653.778V339.695H657.733V335.741Z" fill="#F0F0F0"/>
<path d="M657.733 342.375H653.778V346.329H657.733V342.375Z" fill="#F0F0F0"/>
<path d="M657.733 349H653.778V352.954H657.733V349Z" fill="#F0F0F0"/>
<path d="M657.733 355.624H653.778V359.578H657.733V355.624Z" fill="#F0F0F0"/>
<path d="M657.733 362.249H653.778V366.203H657.733V362.249Z" fill="#F0F0F0"/>
<path d="M657.733 368.883H653.778V372.837H657.733V368.883Z" fill="#F0F0F0"/>
<path d="M657.733 382.15H653.778V386.105H657.733V382.15Z" fill="#F0F0F0"/>
<path d="M657.733 388.775H653.778V392.729H657.733V388.775Z" fill="#F0F0F0"/>
<path d="M657.733 395.409H653.778V399.363H657.733V395.409Z" fill="#F0F0F0"/>
<path d="M657.733 402.043H653.778V405.997H657.733V402.043Z" fill="#F0F0F0"/>
<path d="M657.733 415.292H653.778V419.246H657.733V415.292Z" fill="#F0F0F0"/>
<path d="M548.154 315.849H544.2V319.803H548.154V315.849Z" fill="#F0F0F0"/>
<path d="M548.154 322.473H544.2V326.428H548.154V322.473Z" fill="#F0F0F0"/>
<path d="M548.154 329.107H544.2V333.062H548.154V329.107Z" fill="#F0F0F0"/>
<path d="M548.154 335.741H544.2V339.695H548.154V335.741Z" fill="#F0F0F0"/>
<path d="M548.154 342.375H544.2V346.329H548.154V342.375Z" fill="#F0F0F0"/>
<path d="M548.154 349H544.2V352.954H548.154V349Z" fill="#F0F0F0"/>
<path d="M548.154 355.624H544.2V359.578H548.154V355.624Z" fill="#F0F0F0"/>
<path d="M548.154 362.249H544.2V366.203H548.154V362.249Z" fill="#F0F0F0"/>
<path d="M548.154 368.883H544.2V372.837H548.154V368.883Z" fill="#F0F0F0"/>
<path d="M548.154 375.517H544.2V379.471H548.154V375.517Z" fill="#F0F0F0"/>
<path d="M548.154 382.15H544.2V386.105H548.154V382.15Z" fill="#F0F0F0"/>
<path d="M548.154 388.775H544.2V392.729H548.154V388.775Z" fill="#F0F0F0"/>
<path d="M548.154 395.409H544.2V399.363H548.154V395.409Z" fill="#F0F0F0"/>
<path d="M548.154 408.676H544.2V412.631H548.154V408.676Z" fill="#F0F0F0"/>
<path d="M548.154 415.292H544.2V419.246H548.154V415.292Z" fill="#F0F0F0"/>
<path d="M548.154 421.917H544.2V425.871H548.154V421.917Z" fill="#F0F0F0"/>
<path d="M548.154 428.55H544.2V432.505H548.154V428.55Z" fill="#F0F0F0"/>
<path d="M548.154 441.818H544.2V445.772H548.154V441.818Z" fill="#F0F0F0"/>
<path d="M548.154 448.452H544.2V452.407H548.154V448.452Z" fill="#F0F0F0"/>
<path d="M548.154 455.077H544.2V459.031H548.154V455.077Z" fill="#F0F0F0"/>
<path d="M541.871 315.849H537.917V319.803H541.871V315.849Z" fill="#F0F0F0"/>
<path d="M541.871 322.473H537.917V326.428H541.871V322.473Z" fill="#F0F0F0"/>
<path d="M541.871 329.107H537.917V333.062H541.871V329.107Z" fill="#F0F0F0"/>
<path d="M541.871 335.741H537.917V339.695H541.871V335.741Z" fill="#F0F0F0"/>
<path d="M541.871 342.375H537.917V346.329H541.871V342.375Z" fill="#F0F0F0"/>
<path d="M541.871 349H537.917V352.954H541.871V349Z" fill="#F0F0F0"/>
<path d="M541.871 355.624H537.917V359.578H541.871V355.624Z" fill="#F0F0F0"/>
<path d="M541.871 362.249H537.917V366.203H541.871V362.249Z" fill="#F0F0F0"/>
<path d="M541.871 368.883H537.917V372.837H541.871V368.883Z" fill="#F0F0F0"/>
<path d="M541.871 375.517H537.917V379.471H541.871V375.517Z" fill="#F0F0F0"/>
<path d="M541.871 382.15H537.917V386.105H541.871V382.15Z" fill="#F0F0F0"/>
<path d="M541.871 388.775H537.917V392.729H541.871V388.775Z" fill="#F0F0F0"/>
<path d="M541.871 395.409H537.917V399.363H541.871V395.409Z" fill="#F0F0F0"/>
<path d="M541.871 415.292H537.917V419.246H541.871V415.292Z" fill="#F0F0F0"/>
<path d="M541.871 421.917H537.917V425.871H541.871V421.917Z" fill="#F0F0F0"/>
<path d="M541.871 435.184H537.917V439.139H541.871V435.184Z" fill="#F0F0F0"/>
<path d="M541.871 441.818H537.917V445.772H541.871V441.818Z" fill="#F0F0F0"/>
<path d="M541.871 448.452H537.917V452.407H541.871V448.452Z" fill="#F0F0F0"/>
<path d="M541.871 455.077H537.917V459.031H541.871V455.077Z" fill="#F0F0F0"/>
<path d="M535.589 315.849H531.634V319.803H535.589V315.849Z" fill="#F0F0F0"/>
<path d="M535.589 322.473H531.634V326.428H535.589V322.473Z" fill="#F0F0F0"/>
<path d="M535.589 329.107H531.634V333.062H535.589V329.107Z" fill="#F0F0F0"/>
<path d="M535.589 335.741H531.634V339.695H535.589V335.741Z" fill="#F0F0F0"/>
<path d="M535.589 342.375H531.634V346.329H535.589V342.375Z" fill="#F0F0F0"/>
<path d="M535.589 349H531.634V352.954H535.589V349Z" fill="#F0F0F0"/>
<path d="M535.589 355.624H531.634V359.578H535.589V355.624Z" fill="#F0F0F0"/>
<path d="M535.589 362.249H531.634V366.203H535.589V362.249Z" fill="#F0F0F0"/>
<path d="M535.589 368.883H531.634V372.837H535.589V368.883Z" fill="#F0F0F0"/>
<path d="M535.589 375.517H531.634V379.471H535.589V375.517Z" fill="#F0F0F0"/>
<path d="M535.589 382.15H531.634V386.105H535.589V382.15Z" fill="#F0F0F0"/>
<path d="M535.589 388.775H531.634V392.729H535.589V388.775Z" fill="#F0F0F0"/>
<path d="M535.589 395.409H531.634V399.363H535.589V395.409Z" fill="#F0F0F0"/>
<path d="M535.589 402.043H531.634V405.997H535.589V402.043Z" fill="#F0F0F0"/>
<path d="M535.589 415.292H531.634V419.246H535.589V415.292Z" fill="#F0F0F0"/>
<path d="M535.589 428.55H531.634V432.505H535.589V428.55Z" fill="#F0F0F0"/>
<path d="M535.589 435.184H531.634V439.139H535.589V435.184Z" fill="#F0F0F0"/>
<path d="M535.589 441.818H531.634V445.772H535.589V441.818Z" fill="#F0F0F0"/>
<path d="M535.589 448.452H531.634V452.407H535.589V448.452Z" fill="#F0F0F0"/>
<path d="M535.589 455.077H531.634V459.031H535.589V455.077Z" fill="#F0F0F0"/>
<path d="M573.738 353.656H569.784V357.611H573.738V353.656Z" fill="#F0F0F0"/>
<path d="M573.738 360.281H569.784V364.235H573.738V360.281Z" fill="#F0F0F0"/>
<path d="M573.738 366.915H569.784V370.869H573.738V366.915Z" fill="#F0F0F0"/>
<path d="M573.738 373.53H569.784V377.484H573.738V373.53Z" fill="#F0F0F0"/>
<path d="M573.738 380.164H569.784V384.119H573.738V380.164Z" fill="#F0F0F0"/>
<path d="M573.738 386.798H569.784V390.752H573.738V386.798Z" fill="#F0F0F0"/>
<path d="M573.738 406.69H569.784V410.644H573.738V406.69Z" fill="#F0F0F0"/>
<path d="M573.738 413.324H569.784V417.279H573.738V413.324Z" fill="#F0F0F0"/>
<path d="M573.738 419.958H569.784V423.912H573.738V419.958Z" fill="#F0F0F0"/>
<path d="M573.738 426.583H569.784V430.537H573.738V426.583Z" fill="#F0F0F0"/>
<path d="M573.738 433.216H569.784V437.171H573.738V433.216Z" fill="#F0F0F0"/>
<path d="M573.738 439.832H569.784V443.786H573.738V439.832Z" fill="#F0F0F0"/>
<path d="M573.738 446.465H569.784V450.42H573.738V446.465Z" fill="#F0F0F0"/>
<path d="M567.455 353.656H563.5V357.611H567.455V353.656Z" fill="#F0F0F0"/>
<path d="M567.455 360.281H563.5V364.235H567.455V360.281Z" fill="#F0F0F0"/>
<path d="M567.455 366.915H563.5V370.869H567.455V366.915Z" fill="#F0F0F0"/>
<path d="M567.455 373.53H563.5V377.484H567.455V373.53Z" fill="#F0F0F0"/>
<path d="M567.455 380.164H563.5V384.119H567.455V380.164Z" fill="#F0F0F0"/>
<path d="M567.455 386.798H563.5V390.752H567.455V386.798Z" fill="#F0F0F0"/>
<path d="M567.455 406.69H563.5V410.644H567.455V406.69Z" fill="#F0F0F0"/>
<path d="M567.455 413.324H563.5V417.279H567.455V413.324Z" fill="#F0F0F0"/>
<path d="M567.455 419.958H563.5V423.912H567.455V419.958Z" fill="#F0F0F0"/>
<path d="M567.455 426.583H563.5V430.537H567.455V426.583Z" fill="#F0F0F0"/>
<path d="M567.455 433.216H563.5V437.171H567.455V433.216Z" fill="#F0F0F0"/>
<path d="M567.455 439.832H563.5V443.786H567.455V439.832Z" fill="#F0F0F0"/>
<path d="M567.455 453.099H563.5V457.054H567.455V453.099Z" fill="#F0F0F0"/>
<path d="M358.784 324.46H354.83V328.414H358.784V324.46Z" fill="#F0F0F0"/>
<path d="M358.784 331.075H354.83V335.03H358.784V331.075Z" fill="#F0F0F0"/>
<path d="M358.784 337.709H354.83V341.663H358.784V337.709Z" fill="#F0F0F0"/>
<path d="M358.784 344.343H354.83V348.297H358.784V344.343Z" fill="#F0F0F0"/>
<path d="M358.784 350.967H354.83V354.922H358.784V350.967Z" fill="#F0F0F0"/>
<path d="M358.784 357.602H354.83V361.556H358.784V357.602Z" fill="#F0F0F0"/>
<path d="M358.784 364.235H354.83V368.189H358.784V364.235Z" fill="#F0F0F0"/>
<path d="M358.784 370.869H354.83V374.824H358.784V370.869Z" fill="#F0F0F0"/>
<path d="M358.784 377.494H354.83V381.448H358.784V377.494Z" fill="#F0F0F0"/>
<path d="M358.784 384.127H354.83V388.082H358.784V384.127Z" fill="#F0F0F0"/>
<path d="M358.784 390.762H354.83V394.716H358.784V390.762Z" fill="#F0F0F0"/>
<path d="M358.784 404.011H354.83V407.965H358.784V404.011Z" fill="#F0F0F0"/>
<path d="M358.784 410.645H354.83V414.599H358.784V410.645Z" fill="#F0F0F0"/>
<path d="M358.784 417.269H354.83V421.223H358.784V417.269Z" fill="#F0F0F0"/>
<path d="M358.784 423.903H354.83V427.857H358.784V423.903Z" fill="#F0F0F0"/>
<path d="M358.784 430.537H354.83V434.491H358.784V430.537Z" fill="#F0F0F0"/>
<path d="M358.784 437.171H354.83V441.125H358.784V437.171Z" fill="#F0F0F0"/>
<path d="M358.784 443.795H354.83V447.75H358.784V443.795Z" fill="#F0F0F0"/>
<path d="M358.784 450.429H354.83V454.383H358.784V450.429Z" fill="#F0F0F0"/>
<path d="M352.52 324.46H348.565V328.414H352.52V324.46Z" fill="#F0F0F0"/>
<path d="M352.52 331.075H348.565V335.03H352.52V331.075Z" fill="#F0F0F0"/>
<path d="M352.52 337.709H348.565V341.663H352.52V337.709Z" fill="#F0F0F0"/>
<path d="M352.52 344.343H348.565V348.297H352.52V344.343Z" fill="#F0F0F0"/>
<path d="M352.52 350.967H348.565V354.922H352.52V350.967Z" fill="#F0F0F0"/>
<path d="M352.52 357.602H348.565V361.556H352.52V357.602Z" fill="#F0F0F0"/>
<path d="M352.52 364.235H348.565V368.189H352.52V364.235Z" fill="#F0F0F0"/>
<path d="M352.52 370.869H348.565V374.824H352.52V370.869Z" fill="#F0F0F0"/>
<path d="M352.52 377.494H348.565V381.448H352.52V377.494Z" fill="#F0F0F0"/>
<path d="M352.52 384.127H348.565V388.082H352.52V384.127Z" fill="#F0F0F0"/>
<path d="M352.52 390.762H348.565V394.716H352.52V390.762Z" fill="#F0F0F0"/>
<path d="M352.52 397.376H348.565V401.331H352.52V397.376Z" fill="#F0F0F0"/>
<path d="M352.52 404.011H348.565V407.965H352.52V404.011Z" fill="#F0F0F0"/>
<path d="M352.52 410.645H348.565V414.599H352.52V410.645Z" fill="#F0F0F0"/>
<path d="M352.52 417.269H348.565V421.223H352.52V417.269Z" fill="#F0F0F0"/>
<path d="M352.52 423.903H348.565V427.857H352.52V423.903Z" fill="#F0F0F0"/>
<path d="M352.52 430.537H348.565V434.491H352.52V430.537Z" fill="#F0F0F0"/>
<path d="M352.52 437.171H348.565V441.125H352.52V437.171Z" fill="#F0F0F0"/>
<path d="M352.52 443.795H348.565V447.75H352.52V443.795Z" fill="#F0F0F0"/>
<path d="M352.52 450.429H348.565V454.383H352.52V450.429Z" fill="#F0F0F0"/>
<path d="M389.736 350.274H385.781V354.229H389.736V350.274Z" fill="#F0F0F0"/>
<path d="M389.736 356.908H385.781V360.863H389.736V356.908Z" fill="#F0F0F0"/>
<path d="M389.736 363.533H385.781V367.488H389.736V363.533Z" fill="#F0F0F0"/>
<path d="M389.736 370.167H385.781V374.121H389.736V370.167Z" fill="#F0F0F0"/>
<path d="M389.736 376.801H385.781V380.755H389.736V376.801Z" fill="#F0F0F0"/>
<path d="M389.736 383.435H385.781V387.389H389.736V383.435Z" fill="#F0F0F0"/>
<path d="M389.736 390.059H385.781V394.014H389.736V390.059Z" fill="#F0F0F0"/>
<path d="M389.736 396.684H385.781V400.638H389.736V396.684Z" fill="#F0F0F0"/>
<path d="M389.736 403.308H385.781V407.263H389.736V403.308Z" fill="#F0F0F0"/>
<path d="M389.736 409.942H385.781V413.897H389.736V409.942Z" fill="#F0F0F0"/>
<path d="M383.453 350.274H379.499V354.229H383.453V350.274Z" fill="#F0F0F0"/>
<path d="M383.453 356.908H379.499V360.863H383.453V356.908Z" fill="#F0F0F0"/>
<path d="M383.453 363.533H379.499V367.488H383.453V363.533Z" fill="#F0F0F0"/>
<path d="M383.453 370.167H379.499V374.121H383.453V370.167Z" fill="#F0F0F0"/>
<path d="M383.453 376.801H379.499V380.755H383.453V376.801Z" fill="#F0F0F0"/>
<path d="M383.453 383.435H379.499V387.389H383.453V383.435Z" fill="#F0F0F0"/>
<path d="M383.453 390.059H379.499V394.014H383.453V390.059Z" fill="#F0F0F0"/>
<path d="M383.453 396.684H379.499V400.638H383.453V396.684Z" fill="#F0F0F0"/>
<path d="M383.453 403.308H379.499V407.263H383.453V403.308Z" fill="#F0F0F0"/>
<path d="M420.817 98.6685H414.184V468.455H420.817V98.6685Z" fill="#E0E0E0"/>
<path d="M198.583 432.412H239.486C241.341 432.412 243.12 433.149 244.431 434.461C245.743 435.772 246.48 437.551 246.48 439.406V518.458H191.607V439.471C191.598 438.552 191.769 437.64 192.112 436.788C192.456 435.936 192.964 435.159 193.607 434.504C194.251 433.848 195.018 433.326 195.864 432.967C196.71 432.608 197.618 432.419 198.537 432.412H198.583Z" fill="#F0F0F0"/>
<path d="M246.489 444.118H191.607V450.29H246.489V444.118Z" fill="#E6E6E6"/>
<path d="M222.818 508.129H236.492C237.489 508.129 238.446 508.525 239.151 509.231C239.856 509.936 240.252 510.892 240.252 511.89V518.551H219.002V511.825C219.002 510.828 219.398 509.871 220.103 509.166C220.809 508.461 221.765 508.064 222.762 508.064L222.818 508.129Z" fill="#E0E0E0"/>
<path d="M240.318 518.523H225.11C224.463 518.523 223.842 518.266 223.385 517.809C222.927 517.352 222.67 516.731 222.67 516.084C222.673 515.439 222.931 514.821 223.388 514.365C223.845 513.91 224.464 513.654 225.11 513.654H240.318C240.963 513.654 241.582 513.91 242.039 514.365C242.496 514.821 242.754 515.439 242.757 516.084C242.757 516.731 242.5 517.352 242.042 517.809C241.585 518.266 240.964 518.523 240.318 518.523Z" fill="#E6E6E6"/>
<path d="M483.991 81.3128C504.075 76.5726 516.514 56.4488 511.773 36.3651C507.033 16.2813 486.909 3.84295 466.826 8.58314C446.742 13.3233 434.304 33.4471 439.044 53.5308C443.784 73.6146 463.908 86.053 483.991 81.3128Z" fill="#E0E0E0"/>
<path d="M475.404 76.6787C492.952 76.6787 507.178 62.4529 507.178 44.9045C507.178 27.3561 492.952 13.1304 475.404 13.1304C457.855 13.1304 443.629 27.3561 443.629 44.9045C443.629 62.4529 457.855 76.6787 475.404 76.6787Z" fill="#F0F0F0"/>
<path d="M476.91 23.1274V45.3389L491.619 37.0142" fill="#F0F0F0"/>
<path d="M476.909 46.8819C476.626 46.8841 476.348 46.8073 476.106 46.6601C475.869 46.5191 475.673 46.3189 475.537 46.0791C475.401 45.8394 475.329 45.5684 475.33 45.2927V23.0628C475.36 22.6635 475.54 22.2904 475.834 22.0182C476.128 21.746 476.514 21.5947 476.914 21.5947C477.315 21.5947 477.7 21.746 477.994 22.0182C478.288 22.2904 478.468 22.6635 478.499 23.0628V42.6133L490.842 35.6283C491.21 35.42 491.645 35.3663 492.052 35.4789C492.46 35.5916 492.805 35.8613 493.014 36.2289C493.222 36.5965 493.276 37.0317 493.163 37.4389C493.05 37.8461 492.781 38.1919 492.413 38.4001L477.686 46.7156C477.443 46.8308 477.178 46.8878 476.909 46.8819Z" fill="#E0E0E0"/>
<path d="M117.813 409.628C114.958 404.87 110.264 409.009 110.264 409.009C110.929 399.991 102.642 393.838 102.642 393.838C102.642 393.838 112.278 393.838 113.609 384.654C114.939 375.47 110.264 379.739 105.848 379.674C101.431 379.609 96.8209 392.489 102.679 399.742C108.536 406.995 106.929 419.366 93.4947 431.267C90.2787 434.273 87.8677 438.037 86.482 442.215C87.4891 431.285 88.062 415.874 84.8929 405.6C79.4324 388.147 89.8451 383.425 92.8202 374.694C95.7953 365.963 84.8929 358.571 84.8929 358.571C84.8929 358.571 95.2225 353.813 90.1778 348.501C85.1331 343.188 74.7203 343.881 74.7203 350.875C74.7203 357.869 81.7792 360.586 81.7792 360.586C81.7792 360.586 89.8451 368.975 89.8451 373.28C89.8451 377.586 81.7792 387.093 81.7792 387.093C81.7792 387.093 85.4749 379.055 78.0834 378.722C70.692 378.39 68.3452 388.11 71.3757 392.471C74.4062 396.832 79.4324 393.154 79.4324 393.154C79.7681 398.234 80.5534 403.274 81.7792 408.214C82.5461 410.737 82.195 420.586 81.5574 430.842C80.1554 427.141 77.9129 423.817 75.0067 421.131C61.5635 409.231 60.0113 396.85 65.8321 389.606C71.6529 382.363 66.9962 369.474 62.6537 369.539C58.3112 369.603 53.5345 365.325 54.8834 374.509C56.2324 383.693 65.8598 383.749 65.8598 383.749C65.8598 383.749 57.5444 389.902 58.2281 398.91C58.2281 398.91 53.4698 394.817 50.6795 399.529C45.5794 407.928 57.4058 413.13 59.383 409.055C59.383 409.055 84.4401 426.786 78.4253 452.314L79.8205 454.393C79.6449 456.462 79.534 457.691 79.534 457.691L81.4835 456.85L83.7195 460.084C83.6477 463.789 83.8391 467.494 84.2923 471.171L90.2702 462.32C84.2276 436.792 109.312 419.052 109.312 419.052C111.142 423.238 122.941 418.017 117.813 409.628Z" fill="#E0E0E0"/>
<path opacity="0.2" d="M117.813 409.628C114.958 404.87 110.264 409.009 110.264 409.009C110.929 399.991 102.642 393.838 102.642 393.838C102.642 393.838 112.278 393.838 113.609 384.654C114.939 375.47 110.264 379.739 105.848 379.674C101.431 379.609 96.8209 392.489 102.679 399.742C108.536 406.995 106.929 419.366 93.4947 431.267C90.2787 434.273 87.8677 438.037 86.482 442.215C87.4891 431.285 88.062 415.874 84.8929 405.6C79.4324 388.147 89.8451 383.425 92.8202 374.694C95.7953 365.963 84.8929 358.571 84.8929 358.571C84.8929 358.571 95.2225 353.813 90.1778 348.501C85.1331 343.188 74.7203 343.881 74.7203 350.875C74.7203 357.869 81.7792 360.586 81.7792 360.586C81.7792 360.586 89.8451 368.975 89.8451 373.28C89.8451 377.586 81.7792 387.093 81.7792 387.093C81.7792 387.093 85.4749 379.055 78.0834 378.722C70.692 378.39 68.3452 388.11 71.3757 392.471C74.4062 396.832 79.4324 393.154 79.4324 393.154C79.7681 398.234 80.5534 403.274 81.7792 408.214C82.5461 410.737 82.195 420.586 81.5574 430.842C80.1554 427.141 77.9129 423.817 75.0067 421.131C61.5635 409.231 60.0113 396.85 65.8321 389.606C71.6529 382.363 66.9962 369.474 62.6537 369.539C58.3112 369.603 53.5345 365.325 54.8834 374.509C56.2324 383.693 65.8598 383.749 65.8598 383.749C65.8598 383.749 57.5444 389.902 58.2281 398.91C58.2281 398.91 53.4698 394.817 50.6795 399.529C45.5794 407.928 57.4058 413.13 59.383 409.055C59.383 409.055 84.4401 426.786 78.4253 452.314L79.8205 454.393C79.6449 456.462 79.534 457.691 79.534 457.691L81.4835 456.85L83.7195 460.084C83.6477 463.789 83.8391 467.494 84.2923 471.171L90.2702 462.32C84.2276 436.792 109.312 419.052 109.312 419.052C111.142 423.238 122.941 418.017 117.813 409.628Z" fill="#E0E0E0"/>
<path d="M112.943 518.523H55.5576L49.3765 455.696H119.152L112.943 518.523Z" fill="#E6E6E6"/>
<path d="M122.202 448.766H46.3003V462.634H122.202V448.766Z" fill="#F0F0F0"/>
<path d="M398.584 131.47L359.068 152.756C358.003 153.33 357.605 154.658 358.179 155.722L370.789 179.133C371.363 180.197 372.691 180.596 373.755 180.022L413.272 158.736C414.336 158.162 414.735 156.834 414.161 155.77L401.551 132.359C400.977 131.294 399.649 130.896 398.584 131.47Z" fill="#08B74F"/>
<path opacity="0.7" d="M398.584 131.47L359.068 152.756C358.003 153.33 357.605 154.658 358.179 155.722L370.789 179.133C371.363 180.197 372.691 180.596 373.755 180.022L413.272 158.736C414.336 158.162 414.735 156.834 414.161 155.77L401.551 132.359C400.977 131.294 399.649 130.896 398.584 131.47Z" fill="white"/>
<path opacity="0.2" d="M391.436 158.281C390.949 159.329 390.136 160.192 389.119 160.741C388.102 161.291 386.935 161.497 385.791 161.33L359.616 157.468L385.329 160.008C386.322 160.11 387.324 159.914 388.206 159.445C389.087 158.976 389.81 158.256 390.281 157.375L402.579 134.277L391.436 158.281Z" fill="black"/>
<path d="M421.011 132.087C416.835 122.026 379.434 97.2921 382.114 95.0561C384.793 92.8202 391.519 97.5785 391.519 97.5785C391.519 97.5785 387.759 93.236 391.519 92.9588C395.28 92.6816 403.447 97.7171 403.447 97.7171C403.447 97.7171 399.484 93.1805 403.447 92.9588C407.411 92.737 414.95 100.064 414.95 100.064C414.95 100.064 409.712 92.5246 417.667 97.9665C425.622 103.409 432.154 121.194 432.579 130.018C433.004 138.841 425.188 142.149 421.011 132.087Z" fill="#08B74F"/>
<path opacity="0.4" d="M421.011 132.087C416.835 122.026 379.434 97.2921 382.114 95.0561C384.793 92.8202 391.519 97.5785 391.519 97.5785C391.519 97.5785 387.759 93.236 391.519 92.9588C395.28 92.6816 403.447 97.7171 403.447 97.7171C403.447 97.7171 399.484 93.1805 403.447 92.9588C407.411 92.737 414.95 100.064 414.95 100.064C414.95 100.064 409.712 92.5246 417.667 97.9665C425.622 103.409 432.154 121.194 432.579 130.018C433.004 138.841 425.188 142.149 421.011 132.087Z" fill="white"/>
<path d="M404.279 133.196L401.249 136.596C401.199 136.651 401.137 136.692 401.068 136.718C400.999 136.744 400.925 136.753 400.851 136.744C400.734 136.728 400.628 136.666 400.556 136.573C400.483 136.48 400.45 136.362 400.463 136.245L400.907 132.216L395.659 132.623C395.582 132.632 395.505 132.618 395.436 132.584C395.367 132.549 395.31 132.495 395.271 132.429C395.242 132.383 395.223 132.332 395.215 132.278C395.207 132.225 395.209 132.171 395.222 132.118C395.235 132.066 395.258 132.016 395.29 131.973C395.322 131.929 395.363 131.893 395.409 131.865L400.408 128.696L404.279 133.196Z" fill="#08B74F"/>
<path opacity="0.3" d="M404.279 133.196L401.249 136.596C401.199 136.651 401.137 136.692 401.068 136.718C400.999 136.744 400.925 136.753 400.851 136.744C400.734 136.728 400.628 136.666 400.556 136.573C400.483 136.48 400.45 136.362 400.463 136.245L400.907 132.216L395.659 132.623C395.582 132.632 395.505 132.618 395.436 132.584C395.367 132.549 395.31 132.495 395.271 132.429C395.242 132.383 395.223 132.332 395.215 132.278C395.207 132.225 395.209 132.171 395.222 132.118C395.235 132.066 395.258 132.016 395.29 131.973C395.322 131.929 395.363 131.893 395.409 131.865L400.408 128.696L404.279 133.196Z" fill="white"/>
<path d="M455.539 124.28C459.17 136.975 451.519 151.425 437.134 151.249C422.748 151.074 416.41 137.279 408.492 135.385C400.574 133.491 398.449 129.454 400.333 125.564C402.218 121.674 407.3 121.683 417.694 125.047C426.453 127.865 437.503 128.086 442.031 125.564C450.235 121 453.201 107.141 453.201 107.141C463.651 104.064 470.571 108.822 470.571 108.822C464.182 112.427 458.963 117.792 455.539 124.28Z" fill="#08B74F"/>
<path opacity="0.5" d="M455.539 124.28C459.17 136.975 451.519 151.425 437.134 151.249C422.748 151.074 416.41 137.279 408.492 135.385C400.574 133.491 398.449 129.454 400.333 125.564C402.218 121.674 407.3 121.683 417.694 125.047C426.453 127.865 437.503 128.086 442.031 125.564C450.235 121 453.201 107.141 453.201 107.141C463.651 104.064 470.571 108.822 470.571 108.822C464.182 112.427 458.963 117.792 455.539 124.28Z" fill="white"/>
<path d="M404.99 127.467C405.166 127.487 405.328 127.571 405.446 127.703C405.564 127.835 405.629 128.006 405.629 128.183C405.629 128.36 405.564 128.531 405.446 128.663C405.328 128.795 405.166 128.879 404.99 128.899C404.814 128.879 404.652 128.795 404.534 128.663C404.416 128.531 404.351 128.36 404.351 128.183C404.351 128.006 404.416 127.835 404.534 127.703C404.652 127.571 404.814 127.487 404.99 127.467Z" fill="#2F2E41"/>
<path d="M442.114 128.234C452.952 127.31 487.996 99.3704 489.345 102.66C490.694 105.949 484.051 110.827 484.051 110.827C484.051 110.827 489.382 108.61 488.431 112.259C487.479 115.909 480.18 122.109 480.18 122.109C480.18 122.109 485.779 119.762 484.744 123.596C483.709 127.43 474.452 132.346 474.452 132.346C474.452 132.346 483.211 129.648 475.597 135.515C467.984 141.382 449.034 142.112 440.488 139.802C431.941 137.492 431.258 129.103 442.114 128.234Z" fill="#08B74F"/>
<path opacity="0.4" d="M442.114 128.234C452.952 127.31 487.996 99.3704 489.345 102.66C490.694 105.949 484.051 110.827 484.051 110.827C484.051 110.827 489.382 108.61 488.431 112.259C487.479 115.909 480.18 122.109 480.18 122.109C480.18 122.109 485.779 119.762 484.744 123.596C483.709 127.43 474.452 132.346 474.452 132.346C474.452 132.346 483.211 129.648 475.597 135.515C467.984 141.382 449.034 142.112 440.488 139.802C431.941 137.492 431.258 129.103 442.114 128.234Z" fill="white"/>
<path d="M496.321 101.311C496.183 101.31 496.049 101.261 495.943 101.172C495.837 101.083 495.766 100.959 495.742 100.823C495.717 100.686 495.742 100.546 495.811 100.426C495.879 100.306 495.988 100.213 496.118 100.165C497.605 99.55 499.126 99.0194 500.673 98.576C500.75 98.5465 500.832 98.5331 500.914 98.5367C500.997 98.5403 501.077 98.5608 501.151 98.5969C501.225 98.6329 501.291 98.6839 501.345 98.7465C501.398 98.8091 501.438 98.882 501.462 98.9607C501.486 99.0395 501.494 99.1223 501.485 99.2041C501.476 99.286 501.45 99.365 501.408 99.4364C501.367 99.5077 501.312 99.5699 501.246 99.619C501.18 99.668 501.104 99.703 501.024 99.7216C499.503 100.184 498 100.676 496.515 101.2C496.451 101.209 496.386 101.209 496.321 101.2V101.311Z" fill="#08B74F"/>
<path d="M582.598 229.036C582.447 229.002 582.315 228.911 582.23 228.782C582.146 228.652 582.115 228.495 582.145 228.343C582.175 228.188 582.264 228.05 582.393 227.96C582.523 227.871 582.683 227.835 582.838 227.862C585.945 228.433 589.095 228.742 592.253 228.786C592.399 228.804 592.532 228.875 592.629 228.985C592.726 229.094 592.779 229.236 592.779 229.382C592.779 229.529 592.726 229.67 592.629 229.78C592.532 229.889 592.399 229.96 592.253 229.978C589.014 229.934 585.785 229.619 582.598 229.036ZM601.64 229.498C601.515 229.479 601.398 229.421 601.308 229.331C601.219 229.241 601.16 229.125 601.142 228.999C601.128 228.92 601.131 228.84 601.149 228.763C601.167 228.686 601.2 228.613 601.246 228.548C601.293 228.484 601.351 228.429 601.419 228.387C601.487 228.346 601.562 228.318 601.64 228.306C604.786 227.945 607.91 227.418 611 226.726C611.077 226.706 611.158 226.701 611.237 226.713C611.315 226.725 611.391 226.752 611.459 226.794C611.527 226.836 611.586 226.891 611.632 226.956C611.678 227.021 611.711 227.095 611.727 227.173C611.744 227.251 611.745 227.332 611.73 227.41C611.715 227.488 611.684 227.563 611.639 227.629C611.595 227.695 611.537 227.751 611.47 227.795C611.403 227.838 611.328 227.867 611.249 227.881C608.112 228.6 604.934 229.131 601.733 229.47L601.64 229.498ZM573.571 226.329C573.471 226.324 573.372 226.295 573.285 226.245C570.298 224.95 567.523 223.212 565.053 221.09C564.93 220.984 564.854 220.835 564.842 220.674C564.83 220.512 564.883 220.353 564.988 220.231C565.093 220.108 565.243 220.032 565.404 220.02C565.565 220.008 565.725 220.061 565.847 220.166C568.223 222.214 570.896 223.89 573.775 225.137C573.915 225.205 574.023 225.325 574.075 225.472C574.127 225.619 574.118 225.781 574.052 225.922C574.007 226.026 573.932 226.115 573.837 226.176C573.741 226.237 573.629 226.267 573.516 226.264L573.571 226.329ZM619.768 224.85C619.72 224.701 619.732 224.538 619.801 224.397C619.87 224.256 619.99 224.147 620.138 224.093C623.14 223.095 626.116 221.931 629.007 220.665C629.139 220.619 629.282 220.62 629.412 220.669C629.542 220.718 629.651 220.812 629.719 220.933C629.758 221.001 629.784 221.077 629.795 221.155C629.805 221.234 629.8 221.314 629.779 221.39C629.758 221.466 629.723 221.538 629.674 221.601C629.626 221.663 629.566 221.716 629.497 221.755C626.559 223.039 623.529 224.213 620.516 225.22H620.332C620.212 225.22 620.094 225.186 619.994 225.12C619.894 225.054 619.815 224.96 619.768 224.85ZM637.886 217.551C637.767 217.574 637.643 217.561 637.531 217.513C637.419 217.466 637.324 217.386 637.258 217.283C637.221 217.216 637.197 217.142 637.188 217.066C637.18 216.989 637.186 216.912 637.208 216.838C637.229 216.764 637.265 216.695 637.314 216.635C637.362 216.575 637.422 216.525 637.489 216.489C640.261 214.918 643.033 213.218 645.564 211.453C645.693 211.364 645.852 211.329 646.006 211.357C646.16 211.385 646.297 211.473 646.387 211.601C646.433 211.664 646.465 211.735 646.483 211.811C646.501 211.886 646.504 211.965 646.491 212.041C646.478 212.118 646.45 212.191 646.408 212.257C646.366 212.323 646.312 212.379 646.248 212.423C643.67 214.216 640.917 215.925 638.071 217.514C637.978 217.542 637.878 217.542 637.785 217.514L637.886 217.551ZM559.454 213.92C559.335 213.947 559.21 213.938 559.096 213.893C558.983 213.849 558.885 213.771 558.816 213.671C558.308 212.747 557.837 211.823 557.402 210.899C556.499 208.888 555.784 206.797 555.268 204.653C555.247 204.577 555.242 204.498 555.252 204.42C555.262 204.342 555.288 204.267 555.327 204.199C555.367 204.131 555.42 204.071 555.482 204.024C555.545 203.977 555.617 203.942 555.693 203.923C555.849 203.887 556.012 203.913 556.149 203.996C556.285 204.079 556.384 204.212 556.423 204.367C556.914 206.442 557.604 208.466 558.483 210.409C558.899 211.333 559.361 212.257 559.851 213.07C559.889 213.137 559.913 213.21 559.922 213.286C559.931 213.362 559.926 213.44 559.905 213.513C559.884 213.587 559.849 213.656 559.802 213.717C559.755 213.777 559.696 213.827 559.629 213.865C559.536 213.892 559.436 213.892 559.343 213.865L559.454 213.92ZM653.538 206.593C653.444 206.577 653.356 206.538 653.28 206.48C653.204 206.422 653.144 206.347 653.104 206.261C652.998 206.146 652.939 205.996 652.939 205.84C652.939 205.684 652.998 205.534 653.104 205.42C655.474 203.328 657.697 201.074 659.756 198.675C659.809 198.62 659.873 198.576 659.944 198.547C660.015 198.517 660.09 198.501 660.167 198.501C660.244 198.501 660.32 198.517 660.39 198.547C660.461 198.576 660.525 198.62 660.578 198.675C660.688 198.787 660.75 198.938 660.75 199.096C660.75 199.253 660.688 199.404 660.578 199.516C658.482 201.963 656.219 204.263 653.806 206.399C653.699 206.488 653.566 206.54 653.427 206.547L653.538 206.593ZM554.769 195.506C554.61 195.506 554.457 195.443 554.345 195.33C554.232 195.218 554.169 195.065 554.169 194.906C554.199 191.679 554.508 188.461 555.093 185.287C555.124 185.131 555.215 184.993 555.345 184.902C555.476 184.81 555.637 184.773 555.795 184.798C555.871 184.812 555.944 184.841 556.009 184.884C556.074 184.927 556.131 184.982 556.174 185.046C556.218 185.111 556.249 185.183 556.264 185.259C556.28 185.336 556.281 185.414 556.266 185.491C555.709 188.598 555.418 191.748 555.397 194.906C555.397 194.983 555.382 195.06 555.352 195.132C555.323 195.204 555.279 195.269 555.224 195.324C555.169 195.379 555.104 195.422 555.032 195.452C554.961 195.482 554.884 195.497 554.806 195.497L554.769 195.506ZM557.772 176.658C557.622 176.609 557.496 176.503 557.422 176.364C557.348 176.224 557.331 176.061 557.375 175.909C558.197 173.138 559.223 170.135 560.433 166.809C560.491 166.663 560.603 166.545 560.746 166.479C560.889 166.414 561.051 166.406 561.2 166.458C561.344 166.517 561.459 166.631 561.519 166.774C561.58 166.918 561.581 167.08 561.523 167.224C560.294 170.523 559.296 173.47 558.493 176.251C558.454 176.373 558.378 176.48 558.275 176.556C558.172 176.633 558.048 176.675 557.92 176.676L557.772 176.658ZM564.24 158.632C564.166 158.6 564.1 158.553 564.044 158.496C563.989 158.438 563.945 158.37 563.916 158.295C563.887 158.22 563.872 158.141 563.874 158.061C563.876 157.98 563.893 157.901 563.925 157.828C564.933 155.333 566.3 152.46 567.76 149.291V149.134C567.837 149.007 567.958 148.913 568.1 148.87C568.242 148.827 568.395 148.838 568.529 148.901C568.663 148.964 568.769 149.075 568.827 149.212C568.885 149.349 568.889 149.502 568.841 149.642V149.799C567.399 152.894 566.013 155.814 564.997 158.345C564.953 158.446 564.881 158.531 564.789 158.59C564.697 158.649 564.589 158.68 564.48 158.678L564.24 158.632ZM572.389 141.327C572.316 141.298 572.249 141.254 572.195 141.197C572.052 141.134 571.939 141.017 571.882 140.872C571.825 140.727 571.828 140.564 571.89 140.421C573.313 137.141 574.44 134.24 575.327 131.551C575.378 131.401 575.485 131.276 575.627 131.203C575.768 131.131 575.932 131.116 576.084 131.163C576.234 131.217 576.355 131.329 576.423 131.472C576.49 131.616 576.498 131.781 576.445 131.93C575.521 134.637 574.403 137.575 572.971 140.892C572.922 140.998 572.844 141.088 572.746 141.15C572.647 141.213 572.533 141.245 572.416 141.243L572.389 141.327ZM578.126 123.07C577.974 123.038 577.838 122.95 577.748 122.824C577.657 122.697 577.617 122.541 577.637 122.386C577.898 120.742 578.031 119.08 578.034 117.415C578.044 115.958 577.911 114.503 577.637 113.073C577.627 112.937 577.663 112.801 577.738 112.688C577.813 112.574 577.924 112.489 578.052 112.444C578.128 112.42 578.207 112.41 578.286 112.417C578.365 112.423 578.441 112.445 578.512 112.481C578.582 112.517 578.645 112.567 578.696 112.627C578.747 112.687 578.786 112.757 578.81 112.832C579.098 114.355 579.237 115.902 579.226 117.452C579.226 119.176 579.087 120.897 578.81 122.598C578.787 122.737 578.716 122.864 578.61 122.956C578.504 123.049 578.369 123.102 578.228 123.106L578.126 123.07ZM574.052 105.127C573.95 105.125 573.85 105.098 573.761 105.048C573.672 104.998 573.598 104.927 573.544 104.84C571.52 102.465 569.054 100.507 566.281 99.0749C566.145 98.9986 566.042 98.8732 565.994 98.724C565.946 98.5748 565.956 98.4129 566.023 98.2711C566.101 98.1334 566.229 98.0314 566.381 97.9866C566.532 97.9418 566.696 97.9576 566.836 98.0309C569.744 99.5365 572.335 101.588 574.467 104.073C574.573 104.188 574.632 104.338 574.632 104.494C574.632 104.65 574.573 104.8 574.467 104.914C574.36 105 574.226 105.046 574.089 105.044L574.052 105.127ZM510.069 97.2825C509.937 97.2795 509.81 97.2324 509.708 97.1486C509.606 97.0649 509.534 96.9494 509.506 96.8205C509.488 96.7435 509.485 96.6637 509.499 96.5857C509.512 96.5077 509.54 96.4331 509.582 96.3662C509.624 96.2992 509.679 96.2412 509.744 96.1955C509.808 96.1498 509.881 96.1173 509.958 96.0999C513.127 95.4623 516.306 94.9172 519.475 94.5107C519.551 94.5003 519.629 94.5053 519.704 94.5254C519.778 94.5454 519.848 94.5801 519.909 94.6274C519.97 94.6746 520.021 94.7336 520.059 94.8008C520.097 94.8681 520.122 94.9422 520.131 95.0189C520.141 95.0954 520.136 95.1732 520.116 95.2478C520.096 95.3224 520.061 95.3922 520.014 95.4533C519.967 95.5143 519.908 95.5654 519.841 95.6034C519.773 95.6415 519.699 95.6657 519.623 95.6748C516.435 96.0906 513.275 96.5988 510.235 97.264H510.06L510.069 97.2825ZM557.606 95.9151C554.526 95.221 551.397 94.77 548.246 94.5661C548.091 94.552 547.947 94.4771 547.847 94.3577C547.747 94.2383 547.697 94.0841 547.71 93.9286C547.724 93.7718 547.799 93.6265 547.918 93.5231C548.036 93.4198 548.191 93.3665 548.348 93.3743C551.55 93.595 554.732 94.0583 557.864 94.7602C557.942 94.767 558.017 94.7894 558.086 94.8258C558.154 94.8623 558.215 94.9121 558.264 94.9724C558.313 95.0327 558.35 95.1022 558.372 95.1768C558.393 95.2514 558.4 95.3297 558.391 95.4069C558.372 95.5631 558.293 95.7058 558.171 95.8043C558.048 95.9028 557.892 95.9492 557.735 95.9335L557.606 95.9151ZM529.056 94.8987C528.914 94.8677 528.789 94.7856 528.704 94.668C528.618 94.5505 528.579 94.4057 528.594 94.2612C528.589 94.1845 528.6 94.1075 528.625 94.0349C528.65 93.9623 528.69 93.8956 528.742 93.8387C528.794 93.7818 528.856 93.7359 528.926 93.7037C528.996 93.6715 529.072 93.6537 529.148 93.6514C531.846 93.4574 535.163 93.2634 538.665 93.1895C538.819 93.1895 538.967 93.2508 539.077 93.3599C539.186 93.4691 539.247 93.6172 539.247 93.7715C539.25 93.9293 539.19 94.0816 539.081 94.1957C538.972 94.3098 538.823 94.3765 538.665 94.3813C535.191 94.446 531.902 94.6493 529.148 94.8341L529.056 94.8987Z" fill="#08B74F"/>
<path d="M665.762 191.903C665.637 191.905 665.515 191.87 665.411 191.801C665.348 191.759 665.295 191.706 665.253 191.643C665.211 191.58 665.183 191.509 665.169 191.435C665.155 191.361 665.157 191.285 665.173 191.211C665.189 191.138 665.22 191.068 665.263 191.007C666.032 189.652 666.723 188.255 667.333 186.821C667.399 186.679 667.518 186.567 667.663 186.509C667.809 186.451 667.972 186.45 668.118 186.507C668.261 186.57 668.373 186.687 668.431 186.832C668.488 186.978 668.485 187.14 668.423 187.283C667.796 188.763 667.08 190.204 666.279 191.598C666.228 191.692 666.152 191.771 666.059 191.825C665.966 191.879 665.86 191.906 665.753 191.903H665.762Z" fill="#08B74F"/>
<path d="M131.302 213.283L147.859 388.895H156.332L139.008 212.895L131.302 213.283Z" fill="#C2C4C6"/>
<path d="M154.798 213.283L165.959 386.585H172.898L163.261 212.895L154.798 213.283Z" fill="#C2C4C6"/>
<path d="M153.643 550.26H145.161V401.22H157.874L153.643 550.26Z" fill="#C2C4C6"/>
<path d="M201.78 549.484H193.308L189.843 401.22H202.547L201.78 549.484Z" fill="#C2C4C6"/>
<path d="M214.484 549.872H222.956L226.421 401.599H213.717L214.484 549.872Z" fill="#C2C4C6"/>
<path d="M278.799 549.872H287.272L287.66 402.763H274.946L278.799 549.872Z" fill="#C2C4C6"/>
<path d="M211.019 383.499H143.627V403.521H211.019V383.499Z" fill="#2E3135"/>
<path d="M289.969 383.499H211.019V403.521H289.969V383.499Z" fill="#3F4347"/>
<path d="M219.88 518.292V534.082H237.98V516.37L219.88 518.292Z" fill="#F9B499"/>
<path d="M219.104 548.08V532.927L238.026 532.687L259.175 543.848C259.757 544.157 260.245 544.618 260.585 545.183C260.925 545.748 261.105 546.395 261.106 547.054C261.103 548.009 260.725 548.925 260.052 549.603C259.379 550.281 258.467 550.666 257.512 550.676L222.079 550.999C221.691 551.007 221.305 550.937 220.944 550.793C220.584 550.65 220.255 550.436 219.978 550.164C219.701 549.892 219.481 549.568 219.331 549.21C219.181 548.852 219.103 548.468 219.104 548.08Z" fill="#08B74F"/>
<path d="M303.062 517.913V533.694H321.161V515.982L303.062 517.913Z" fill="#F9B499"/>
<path d="M302.295 547.692V532.54L321.217 532.299L342.329 543.46C342.912 543.768 343.4 544.23 343.741 544.795C344.081 545.36 344.261 546.007 344.26 546.667C344.26 547.622 343.882 548.539 343.209 549.218C342.536 549.896 341.622 550.281 340.666 550.288L305.233 550.621C304.848 550.622 304.466 550.547 304.109 550.401C303.753 550.254 303.429 550.038 303.156 549.766C302.883 549.494 302.667 549.171 302.519 548.815C302.371 548.459 302.295 548.078 302.295 547.692Z" fill="#08B74F"/>
<path d="M93.9473 550.26H99.7219L130.914 319.184H124.751L93.9473 550.26Z" fill="#9EA0A3"/>
<path d="M206.012 550.26H200.237L169.045 319.184H175.208L206.012 550.26Z" fill="#9EA0A3"/>
<path d="M189.076 445.893H109.737V452.055H189.076V445.893Z" fill="#9EA0A3"/>
<path d="M396.259 550.26H402.034L433.235 319.184H427.073L396.259 550.26Z" fill="#9EA0A3"/>
<path d="M508.332 550.26H502.548L471.356 319.184H477.519L508.332 550.26Z" fill="#9EA0A3"/>
<path d="M491.388 445.893H412.049V452.055H491.388V445.893Z" fill="#9EA0A3"/>
<path d="M230.662 192.106L231.429 215.592L128.216 217.902L127.061 195.183L230.662 192.106Z" fill="#2E3135"/>
<path d="M504.479 311.488H112.047C108.643 311.488 105.884 314.247 105.884 317.65C105.884 321.054 108.643 323.813 112.047 323.813H504.479C507.883 323.813 510.642 321.054 510.642 317.65C510.642 314.247 507.883 311.488 504.479 311.488Z" fill="#E1E1E2"/>
<path d="M209.097 525.61H257.622L265.707 419.357C265.707 419.357 266.095 403.955 264.94 396.638C264.94 396.638 284.961 409.73 289.581 412.04L288.168 517.747C288.168 517.747 320.782 525.259 335.796 520.639L341.192 405.489C341.192 405.489 345.036 376.607 322.713 358.119L282.06 323.989L176.602 323.628C176.602 323.628 165.515 365.825 188.272 390.087L210.954 412.687C211.845 413.573 212.541 414.636 212.997 415.807C213.454 416.978 213.661 418.231 213.606 419.487L209.097 525.61Z" fill="#2F2E41"/>
<path opacity="0.2" d="M264.94 396.6C264.94 396.6 266.095 382.741 255.313 366.942L234.515 332.664C234.515 332.664 278.319 367.543 295.633 386.945C299.674 391.474 301.875 397.35 301.805 403.419L300.318 519.835C296.228 519.372 292.17 518.656 288.168 517.691L289.582 412.039L264.94 396.6Z" fill="black"/>
<path d="M237.398 197.576L196.347 207.12C196.347 207.12 176.326 207.508 170.163 229.073L161.108 276.637L182.867 292.233L200.727 311.46H314.611L308.421 236.39C308.421 236.39 302.637 215.482 262.778 206.492L237.398 197.576Z" fill="#08B74F"/>
<path opacity="0.2" d="M202.934 227.918L201.087 260.958L200.763 311.46H229.146C229.146 311.46 211.407 262.196 202.934 227.918Z" fill="black"/>
<path opacity="0.2" d="M282.624 311.46H300.447C300.447 311.46 289.202 272.59 288.814 241.777L282.624 311.46Z" fill="black"/>
<path d="M413.537 199.802H303.505C298.157 199.802 293.822 204.137 293.822 209.485V279.085C293.822 284.433 298.157 288.768 303.505 288.768H413.537C418.884 288.768 423.219 284.433 423.219 279.085V209.485C423.219 204.137 418.884 199.802 413.537 199.802Z" fill="#2F2E41"/>
<path opacity="0.2" d="M413.666 199.802H303.376C298.1 199.802 293.822 204.079 293.822 209.356V279.214C293.822 284.491 298.1 288.768 303.376 288.768H413.666C418.942 288.768 423.219 284.491 423.219 279.214V209.356C423.219 204.079 418.942 199.802 413.666 199.802Z" fill="black"/>
<path d="M365.603 182.229C365.562 182.63 365.386 183.005 365.104 183.292C364.823 183.579 364.457 183.767 364.06 183.827L351.974 185.555C351.974 185.555 355.827 186.322 355.827 188.632C355.827 188.632 356.594 190.175 354.284 191.718C354.728 192.495 354.929 193.389 354.86 194.281C354.791 195.174 354.455 196.026 353.896 196.726C353.896 196.726 354.885 199.202 353.434 199.885L326.169 199.802C326.169 199.802 335.408 182.469 350.431 180.547L363.367 180.224H363.773C364.028 180.226 364.28 180.28 364.513 180.384C364.746 180.487 364.955 180.638 365.126 180.826C365.298 181.015 365.429 181.237 365.511 181.478C365.593 181.719 365.624 181.975 365.603 182.229Z" fill="#F9B499"/>
<path d="M365.603 182.229C365.563 182.63 365.387 183.005 365.104 183.292C364.824 183.579 364.457 183.767 364.06 183.827L351.975 185.555C347.89 185.299 343.833 186.379 340.417 188.632C343.114 183.245 355.052 183.245 355.052 183.245C360.494 182.857 362.6 181.49 363.367 180.224H363.774C364.029 180.226 364.28 180.28 364.513 180.384C364.746 180.487 364.955 180.638 365.127 180.826C365.299 181.015 365.43 181.237 365.512 181.478C365.594 181.719 365.625 181.975 365.603 182.229Z" fill="#F7A48B"/>
<path d="M352.742 192.485L346.949 198.259C346.949 198.259 345.627 199.581 339.557 199.886" stroke="#F7A48B" stroke-miterlimit="10"/>
<path d="M262.63 192.485V208.469C262.63 211.789 261.311 214.974 258.964 217.322C256.616 219.669 253.431 220.988 250.111 220.988C246.791 220.988 243.606 219.669 241.259 217.322C238.911 214.974 237.592 211.789 237.592 208.469V184.012L241.657 182.303L262.63 192.485Z" fill="#F9B499"/>
<path d="M262.63 192.485V203.858C259.203 203.701 250.037 202.149 244.336 190.313L262.63 192.485Z" fill="#F7A48B"/>
<path d="M271.87 177.471C275.697 177.471 278.799 173.073 278.799 167.649C278.799 162.225 275.697 157.828 271.87 157.828C268.043 157.828 264.94 162.225 264.94 167.649C264.94 173.073 268.043 177.471 271.87 177.471Z" fill="#08B74F"/>
<path opacity="0.2" d="M271.103 175.512C273.869 175.512 276.111 172.336 276.111 168.417C276.111 164.498 273.869 161.321 271.103 161.321C268.337 161.321 266.095 164.498 266.095 168.417C266.095 172.336 268.337 175.512 271.103 175.512Z" fill="black"/>
<path d="M270.123 158.521C266.665 149.257 256.351 144.55 247.086 148.008C237.822 151.466 233.115 161.781 236.573 171.045L242.095 185.838C245.553 195.103 255.868 199.81 265.132 196.351C274.397 192.893 279.104 182.579 275.646 173.314L270.123 158.521Z" fill="#F9B499"/>
<path d="M229.026 178.838C229.026 178.838 219.251 166.938 226.255 150.307C226.841 148.871 227.853 147.648 229.156 146.805C229.998 146.218 230.994 145.892 232.021 145.865C233.047 145.839 234.059 146.114 234.93 146.657C234.93 146.657 234.93 146.445 235.014 146.094C235.265 144.672 235.798 143.314 236.58 142.1C237.363 140.886 238.38 139.84 239.571 139.024C240.763 138.207 242.105 137.637 243.52 137.345C244.934 137.053 246.393 137.047 247.81 137.326C252.783 138.22 257.865 138.323 262.87 137.631C263.71 137.519 264.541 137.346 265.356 137.113C268.248 136.319 277.746 134.665 278.392 147.387C278.392 147.387 280.656 154.086 270.474 159.02L268.931 155.749C268.11 154.328 267.065 153.049 265.836 151.961C265.836 151.961 255.294 160.868 242.193 158.558L240.714 163.177L229.026 178.838Z" fill="#2F2E41"/>
<path d="M237 175.512H242.544V186.683H237C235.53 186.683 234.12 186.099 233.08 185.059C232.041 184.019 231.457 182.609 231.457 181.139C231.446 180.404 231.581 179.674 231.855 178.992C232.128 178.31 232.535 177.689 233.051 177.165C233.567 176.642 234.181 176.226 234.859 175.942C235.538 175.658 236.265 175.512 237 175.512Z" fill="#F9B499"/>
<path d="M235.67 164.369C235.67 164.369 233.314 144.967 247.773 137.326L251.053 137.889C251.053 137.889 239.966 149.087 242.627 164.046L235.67 164.369Z" fill="#08B74F"/>
<path d="M239.523 184.788C243.779 184.788 247.229 179.874 247.229 173.812C247.229 167.75 243.779 162.835 239.523 162.835C235.267 162.835 231.817 167.75 231.817 173.812C231.817 179.874 235.267 184.788 239.523 184.788Z" fill="#3F4347"/>
<path d="M235.67 183.246C239.926 183.246 243.376 179.022 243.376 173.812C243.376 168.602 239.926 164.379 235.67 164.379C231.414 164.379 227.964 168.602 227.964 173.812C227.964 179.022 231.414 183.246 235.67 183.246Z" fill="#08B74F"/>
<path opacity="0.2" d="M235.088 180.159C237.96 180.159 240.289 177.144 240.289 173.424C240.289 169.704 237.96 166.688 235.088 166.688C232.215 166.688 229.886 169.704 229.886 173.424C229.886 177.144 232.215 180.159 235.088 180.159Z" fill="black"/>
<path d="M187.718 314.953C203.562 314.953 216.406 302.195 216.406 286.459C216.406 270.722 203.562 257.964 187.718 257.964C171.874 257.964 159.03 270.722 159.03 286.459C159.03 302.195 171.874 314.953 187.718 314.953Z" fill="#08B74F"/>
<path d="M237.98 290.302C237.98 290.302 171.743 326.511 164.065 292.612C164.065 292.612 157.514 266.428 186.396 266.428C186.396 266.428 208.349 266.04 240.317 272.59L273.034 279.344C276.014 279.965 278.687 281.597 280.601 283.964L294.912 301.519C295.061 301.702 295.168 301.916 295.226 302.145C295.284 302.374 295.291 302.613 295.247 302.845C295.203 303.078 295.109 303.297 294.971 303.49C294.834 303.682 294.656 303.842 294.45 303.958C294.152 304.13 293.806 304.202 293.464 304.164C293.122 304.126 292.8 303.979 292.547 303.745L276.489 289.157L279.363 296.816C279.656 297.573 279.771 298.388 279.699 299.197C279.627 300.006 279.369 300.788 278.947 301.482C278.023 302.923 276.295 304.18 273.024 303.413C273.024 303.413 270.715 305.723 266.862 303.413C266.862 303.413 263.619 305.353 255.636 305.676C255.431 305.709 255.22 305.671 255.039 305.57C254.857 305.468 254.716 305.308 254.636 305.115C254.557 304.923 254.546 304.709 254.603 304.509C254.66 304.309 254.783 304.135 254.952 304.013C256.431 302.609 258.759 300.863 261.087 301.094L258.777 295.707C258.777 295.707 243.366 298.008 237.98 290.302Z" fill="#F9B499"/>
<path d="M266.474 283.76C266.474 283.76 274.946 282.984 276.489 289.147" stroke="#F7A48B" stroke-miterlimit="10"/>
<path d="M263.009 285.303L267.702 287.548C268.971 288.151 270.059 289.078 270.857 290.234C271.655 291.39 272.135 292.736 272.248 294.136L273.024 303.375" stroke="#F7A48B" stroke-miterlimit="10"/>
<path d="M266.862 303.403L266.566 297.287C266.528 296.303 266.28 295.339 265.839 294.46C265.398 293.58 264.773 292.805 264.007 292.187L260.311 289.147" stroke="#F7A48B" stroke-miterlimit="10"/>
<path d="M417.334 199.802H313.567C306.489 199.802 300.752 205.54 300.752 212.617V275.953C300.752 283.031 306.489 288.768 313.567 288.768H417.334C424.412 288.768 430.149 283.031 430.149 275.953V212.617C430.149 205.54 424.412 199.802 417.334 199.802Z" fill="#2F2E41"/>
<path d="M389.912 208.663H389.903C388.096 208.663 386.632 210.127 386.632 211.933V225.035C386.632 226.841 388.096 228.305 389.903 228.305H389.912C391.718 228.305 393.183 226.841 393.183 225.035V211.933C393.183 210.127 391.718 208.663 389.912 208.663Z" fill="#08B74F"/>
<path d="M399.927 208.663H399.918C398.111 208.663 396.647 210.127 396.647 211.933V225.035C396.647 226.841 398.111 228.305 399.918 228.305H399.927C401.733 228.305 403.198 226.841 403.198 225.035V211.933C403.198 210.127 401.733 208.663 399.927 208.663Z" fill="#08B74F"/>
<path d="M410.321 208.663H410.312C408.506 208.663 407.042 210.127 407.042 211.933V225.035C407.042 226.841 408.506 228.305 410.312 228.305H410.321C412.128 228.305 413.592 226.841 413.592 225.035V211.933C413.592 210.127 412.128 208.663 410.321 208.663Z" fill="#08B74F"/>
<path d="M351.568 244.096L366.203 307.247H321.559C321.253 307.245 320.949 307.305 320.666 307.421C320.383 307.538 320.126 307.709 319.91 307.926C319.693 308.142 319.522 308.4 319.405 308.683C319.289 308.966 319.229 309.269 319.23 309.575C319.23 310.19 319.475 310.78 319.91 311.215C320.345 311.65 320.935 311.894 321.55 311.894H386.678C387.516 311.898 388.345 311.714 389.104 311.356C389.862 310.999 390.531 310.477 391.062 309.828C391.594 309.179 391.973 308.42 392.174 307.606C392.374 306.792 392.39 305.943 392.221 305.122L379.748 244.475L351.568 244.096Z" fill="#08B74F"/>
<path opacity="0.2" d="M351.587 244.096L351.273 288.62L361.787 288.934L351.587 244.096Z" fill="black"/>
<path d="M62.6353 434.537C52.9154 414.571 35.8411 404.315 16.7526 409.97C-2.3359 415.624 -5.37565 442.363 8.99155 449.108C23.3587 455.852 37.6336 436.172 45.1544 432.107C52.6752 428.042 62.6353 434.537 62.6353 434.537Z" fill="#08B74F"/>
<path d="M72.0409 487.802C72.0409 485.391 71.8838 482.979 71.8007 480.568C71.6344 475.763 71.4619 470.962 71.2833 466.164C70.9691 457.368 70.0175 448.747 66.3864 440.635C63.1601 433.298 57.7872 427.11 50.9752 422.886C48.446 421.356 45.7199 420.178 42.8722 419.385C40.2951 416.768 37.0102 414.96 33.4204 414.183C28.9828 413.272 24.4191 413.153 19.9402 413.832C19.7646 413.832 19.7831 414.118 19.9402 414.081C24.2063 413.536 28.5384 413.85 32.6812 415.005C34.459 415.484 36.181 416.15 37.8183 416.992C38.8519 417.532 39.8433 418.15 40.7841 418.84C36.9167 418.031 32.9201 418.069 29.0686 418.95C27.6784 419.282 26.3185 419.731 25.0033 420.29C23.9609 420.056 22.8924 419.96 21.825 420.004C20.4248 420.056 19.0341 420.257 17.6765 420.604C14.9008 421.378 12.2478 422.538 9.79535 424.051C9.64752 424.051 9.79536 424.337 9.93395 424.254C12.3443 422.914 14.928 421.913 17.6118 421.279C18.9173 420.991 20.2421 420.8 21.5755 420.706C22.305 420.669 23.0358 420.669 23.7653 420.706C18.3088 423.223 13.9218 427.593 11.3845 433.04C11.3845 433.188 11.5324 433.327 11.6063 433.17C13.1266 430.016 15.334 427.243 18.0664 425.054C20.7988 422.865 23.9868 421.316 27.3963 420.521C27.8306 420.429 28.2648 420.373 28.6898 420.29C28.5882 420.928 28.5235 421.574 28.4866 422.212C28.348 423.182 28.1817 424.152 27.9969 425.113C27.6002 427.093 27.0818 429.046 26.4447 430.962C25.7719 432.9 24.9725 434.792 24.0517 436.625C23.1895 438.583 22.0978 440.432 20.7994 442.132C20.7696 442.151 20.7481 442.181 20.7396 442.215C20.731 442.25 20.7359 442.286 20.7532 442.317C20.7794 442.338 20.812 442.349 20.8456 442.349C20.8792 442.349 20.9118 442.338 20.938 442.317C20.9639 442.299 20.9833 442.273 20.9935 442.243C22.1484 440.395 23.4881 438.778 24.5414 436.902C25.5484 435.124 26.4164 433.271 27.1376 431.359C27.8615 429.413 28.4209 427.411 28.8099 425.372C29.031 424.3 29.1975 423.218 29.3089 422.129C29.4471 421.473 29.4938 420.802 29.4475 420.133C31.6962 419.799 33.9786 419.756 36.2384 420.004C35.3884 424.771 34.4829 429.742 31.8035 433.863C31.7203 433.992 31.9606 434.131 32.0437 433.983C33.3094 431.79 34.4268 429.515 35.3884 427.173C36.2747 424.898 36.8376 422.509 37.0607 420.078C41.0121 420.612 44.8271 421.888 48.305 423.838C54.854 427.654 60.0848 433.374 63.3005 440.238C66.6591 447.609 68.5423 455.565 68.8441 463.66C69.4816 473.823 69.6109 484.143 70.6365 494.316C70.6365 494.981 71.7545 495.24 71.8746 494.445C72.1224 492.24 72.1781 490.017 72.0409 487.802Z" fill="#2F2E41"/>
<path d="M49.5799 421.168C48.9323 420.412 48.1901 419.741 47.3717 419.173C46.5679 418.526 45.6994 417.889 44.8955 417.325C43.2038 416.168 41.3299 415.303 39.3519 414.766C39.1856 414.766 39.1117 414.987 39.3519 415.015C41.3303 415.519 43.181 416.431 44.7847 417.694C45.61 418.274 46.3969 418.907 47.1407 419.589C47.8147 420.282 48.5612 420.902 49.3674 421.436C49.4967 421.483 49.6815 421.279 49.5799 421.168Z" fill="#2F2E41"/>
<path d="M39.4814 426.435C39.2725 427.676 38.8997 428.885 38.3727 430.029C37.8386 431.164 37.2145 432.255 36.5063 433.29C36.5063 433.29 36.5063 433.429 36.608 433.29C38.2944 431.365 39.3716 428.982 39.7032 426.444C39.7494 426.333 39.4907 426.268 39.4814 426.435Z" fill="#2F2E41"/>
<path d="M70.6919 435.018C70.6919 435.018 84.4493 417.731 111.068 423.857C136.291 429.696 147.877 475.957 122.442 481.501C97.0056 487.044 101.357 444.266 92.0718 436.939C85.2531 431.618 75.4317 432.763 70.6919 435.018Z" fill="#08B74F"/>
<path d="M131.487 449.136C129.758 447.619 127.931 446.218 126.017 444.941C124.215 443.711 122.254 442.732 120.187 442.031C119.152 440.46 117.996 438.971 116.732 437.578C114.384 435.06 111.675 432.905 108.693 431.184H109.497C110.91 431.11 112.325 431.11 113.738 431.184C116.566 431.36 119.337 432.052 121.915 433.226C122.063 433.226 122.183 433.059 122.035 432.995C119.409 431.862 116.663 431.031 113.849 430.519C112.48 430.277 111.091 430.159 109.701 430.168C108.956 430.146 108.211 430.189 107.474 430.297H107.04C104.596 429.079 102.02 428.148 99.3617 427.525C99.6135 427.479 99.8608 427.411 100.101 427.322C101.396 427.029 102.707 426.81 104.028 426.666C106.67 426.364 109.341 426.404 111.973 426.786C112.149 426.786 112.177 426.564 111.973 426.555C109.311 426.224 106.626 426.11 103.944 426.213C101.691 426.279 99.4495 426.573 97.2551 427.091C95.6527 426.796 94.0321 426.611 92.4045 426.536C83.1651 426.13 73.0572 429.595 67.3011 437.208C61.545 444.821 60.4917 454.975 59.4939 464.178C57.9854 477.001 57.6946 489.938 58.6254 502.817C58.6254 503.565 59.7433 503.436 59.771 502.715C60.1221 491.803 60.5102 480.966 61.545 470.017C62.0347 465 62.5706 459.983 63.3929 454.957C64.0136 450.663 65.2587 446.482 67.0886 442.548C69.0542 438.521 72.1699 435.168 76.0416 432.912C79.9281 430.676 84.2656 429.337 88.7364 428.994C92.7441 428.671 96.7775 429.049 100.655 430.112C100.535 430.896 100.535 431.694 100.655 432.477C100.738 433.46 100.934 434.431 101.237 435.369C101.524 436.262 101.896 437.125 102.346 437.947C102.826 438.871 103.445 439.619 104.018 440.534C104.018 440.673 104.314 440.534 104.212 440.386C103.11 438.826 102.388 437.028 102.106 435.138C101.947 434.249 101.839 433.351 101.782 432.45V430.389C105.997 431.688 109.93 433.766 113.378 436.515C114.022 437.04 114.639 437.598 115.226 438.187C114.347 439.003 113.586 439.936 112.962 440.959C112.054 442.291 111.265 443.701 110.606 445.172C109.366 448.087 108.518 451.154 108.084 454.291C108.084 454.458 108.296 454.513 108.315 454.291C108.805 451.22 109.831 448.259 111.345 445.542C112.046 444.199 112.833 442.903 113.701 441.661C114.135 441.024 114.625 440.386 115.087 439.767C115.346 439.453 115.623 439.12 115.882 438.751C119.008 441.804 121.556 445.397 123.402 449.358C122.147 450.686 121.1 452.197 120.298 453.839C119.346 455.545 118.519 457.317 117.822 459.142C116.536 462.681 115.475 466.298 114.644 469.971C114.632 470.003 114.632 470.038 114.646 470.069C114.66 470.1 114.686 470.125 114.717 470.137C114.751 470.149 114.787 470.149 114.82 470.135C114.853 470.121 114.879 470.095 114.893 470.063C114.902 470.033 114.902 470.001 114.893 469.971C115.726 466.277 117.017 462.701 118.737 459.327C119.54 457.655 120.409 455.982 121.268 454.412C122.182 452.919 123.012 451.377 123.754 449.792C125.517 453.668 126.544 457.838 126.784 462.09C126.784 462.265 127.052 462.247 127.034 462.09C126.541 455.424 124.504 448.965 121.083 443.223C122.719 443.876 124.319 444.613 125.879 445.431C127.881 446.481 129.744 447.778 131.422 449.293C131.45 449.441 131.616 449.293 131.487 449.136Z" fill="#2F2E41"/>
<path d="M112.01 450.106C111.225 452.739 110.218 455.28 109.497 457.922C108.766 460.465 108.371 463.093 108.324 465.739H108.444C109.173 460.439 110.455 455.231 112.269 450.198C112.275 450.181 112.278 450.163 112.277 450.145C112.276 450.127 112.271 450.11 112.264 450.093C112.256 450.077 112.245 450.062 112.232 450.05C112.218 450.038 112.203 450.029 112.186 450.023C112.169 450.017 112.151 450.014 112.133 450.015C112.115 450.016 112.097 450.02 112.081 450.028C112.064 450.036 112.05 450.046 112.038 450.06C112.026 450.073 112.016 450.089 112.01 450.106Z" fill="#2F2E41"/>
<path d="M128.844 443.619C127.792 442.616 126.6 441.769 125.305 441.106C123.997 440.504 122.636 440.022 121.24 439.665C121.092 439.665 121.046 439.868 121.24 439.905C122.632 440.29 123.966 440.862 125.204 441.605C126.456 442.25 127.657 442.988 128.798 443.814C128.798 443.814 128.9 443.684 128.844 443.619Z" fill="#2F2E41"/>
<path d="M83.7471 411.929C83.7471 411.929 86.2971 380.875 109.386 370.823C128.66 362.452 139.701 384.072 126.11 397.34C115.041 408.067 97.3566 403.225 83.7471 411.929Z" fill="#08B74F"/>
<path d="M121.794 376.828C118.279 378.252 114.848 379.878 111.52 381.698C108.756 383.288 106.095 385.053 103.556 386.982C103.944 386.197 104.277 385.31 104.665 384.608C105.258 383.405 105.911 382.233 106.623 381.097C108.023 378.743 109.708 376.57 111.64 374.629C111.76 374.537 111.64 374.352 111.456 374.463C109.514 376.397 107.725 378.479 106.106 380.69C105.312 381.821 104.578 382.993 103.907 384.201C103.231 385.321 102.708 386.527 102.355 387.786L102.105 387.971C98.0742 391.188 94.3782 394.803 91.0736 398.763C91.0959 398.446 91.1644 398.135 91.2768 397.839C91.7111 396.314 92.2008 394.827 92.6812 393.321C93.6719 390.135 95.0726 387.091 96.8482 384.266C96.8563 384.252 96.8616 384.237 96.8637 384.221C96.8658 384.205 96.8646 384.189 96.8603 384.173C96.856 384.158 96.8486 384.143 96.8386 384.131C96.8286 384.118 96.8161 384.107 96.802 384.1C96.7881 384.092 96.7727 384.086 96.7567 384.084C96.7408 384.082 96.7245 384.083 96.709 384.088C96.6935 384.092 96.679 384.099 96.6664 384.109C96.6538 384.119 96.6434 384.132 96.6357 384.146C94.8153 386.975 93.1974 389.93 91.7942 392.988C91.1272 394.486 90.5683 396.03 90.1219 397.608C89.789 398.624 89.5387 399.665 89.3735 400.721C88.3664 401.987 87.3593 403.281 86.4446 404.611C76.5216 418.72 71.5508 435.785 70.3682 452.868C70.0064 457.957 69.9169 463.061 70.1002 468.159C70.1383 473.309 70.5894 478.447 71.4492 483.524C71.4625 483.56 71.4826 483.592 71.5084 483.619C71.5342 483.647 71.5652 483.669 71.5995 483.684C71.6338 483.7 71.6708 483.708 71.7085 483.709C71.7461 483.71 71.7836 483.704 71.8187 483.691C71.8696 483.67 71.9139 483.636 71.9465 483.592C71.9792 483.548 71.9989 483.496 72.0035 483.441C71.9019 478.951 71.4307 474.47 71.3475 470.053C71.2613 465.553 71.4062 461.05 71.7818 456.564C72.5098 447.605 74.1948 438.749 76.808 430.149C79.4797 421.341 83.4234 412.971 88.5143 405.304C89.4844 405.101 90.4545 404.833 91.4154 404.602L94.8709 403.678C97.0985 403.105 99.2646 402.316 101.338 401.322C101.486 401.322 101.338 401.017 101.2 401.1C99.1706 402.221 96.9644 402.987 94.6769 403.364C92.8752 403.715 90.9812 403.946 89.1887 404.362C90.8641 401.898 92.6535 399.545 94.5568 397.303C98.9445 397.706 103.369 397.379 107.649 396.333C109.92 395.777 112.154 395.079 114.338 394.245C116.648 393.321 118.838 392.203 121.12 391.251C121.286 391.251 121.12 390.928 121.018 391.011C116.868 393.281 112.337 394.771 107.649 395.409C103.533 396.066 99.3719 396.406 95.2036 396.425C96.8759 394.577 98.5482 392.729 100.341 390.992C106.367 384.925 113.609 380.202 121.591 377.133C122.035 377.013 121.942 376.764 121.794 376.828Z" fill="#2F2E41"/>
<path d="M103.03 376.93C101.987 378.235 101.042 379.616 100.203 381.06C99.3355 382.582 98.6502 384.201 98.1606 385.883H98.253C99.0291 384.358 99.6759 382.778 100.452 381.263C101.223 379.767 102.152 378.357 103.224 377.059C103.288 376.976 103.104 376.791 103.03 376.93Z" fill="#2F2E41"/>
<path d="M124.437 387.269C122.937 388.095 121.35 388.755 119.707 389.237C118.127 389.765 116.516 390.197 114.884 390.53V390.66C116.594 390.485 118.279 390.122 119.91 389.579C121.489 388.969 123.031 388.269 124.53 387.481C124.761 387.38 124.622 387.186 124.437 387.269Z" fill="#2F2E41"/>
<path d="M65.8783 406.339C65.7489 407.697 62.3858 395.067 42.8723 383.869C25.0588 373.705 3.97461 347.225 21.2707 330.493C35.3145 317.114 72.2719 346.44 65.8783 406.339Z" fill="#08B74F"/>
<path d="M79.2663 478.683C78.9881 465.552 77.9547 452.447 76.1711 439.434C74.6271 427.48 71.8625 415.716 67.9204 404.325C66.4698 400.213 64.8067 396.176 63.0235 392.194C63.1431 390.656 63.1431 389.111 63.0235 387.574C62.9219 385.578 62.7371 383.592 62.5523 381.615C62.3675 379.637 62.1827 377.651 61.9333 375.674C61.6838 373.696 61.2773 371.728 61.1941 369.751C61.1942 369.721 61.1828 369.692 61.1623 369.669C61.1417 369.647 61.1135 369.633 61.0833 369.631C61.0514 369.631 61.0209 369.644 60.9983 369.666C60.9758 369.689 60.9631 369.719 60.9631 369.751C61.352 371.828 61.5806 373.931 61.6469 376.043C61.7947 377.956 61.9148 379.878 61.961 381.799C62.0072 383.721 61.961 385.634 61.961 387.555V389.727C60.1131 385.846 58.1359 382.04 56.0293 378.307C57.3506 370.204 55.6228 361.759 53.9874 353.841C53.9874 353.675 53.701 353.841 53.738 353.841C54.5337 357.964 54.9512 362.152 54.9853 366.351C54.9853 369.696 54.9853 373.05 54.8836 376.394C54.4124 375.59 53.9597 374.805 53.4793 374.02C50.9477 369.868 48.2436 365.824 45.3671 361.889C45.5971 359.972 45.5348 358.031 45.1823 356.132C44.8561 353.998 44.3806 351.89 43.7595 349.822C43.1435 347.758 42.4228 345.729 41.5975 343.733C40.7659 341.673 39.6295 339.733 38.8256 337.672C38.8117 337.644 38.7876 337.623 38.7583 337.613C38.729 337.602 38.6968 337.604 38.6686 337.617C38.654 337.623 38.6408 337.632 38.6297 337.643C38.6185 337.654 38.6097 337.667 38.6037 337.682C38.5977 337.696 38.5946 337.712 38.5947 337.728C38.5947 337.744 38.5978 337.759 38.6039 337.774C39.5936 339.722 40.374 341.769 40.9322 343.881C41.5775 345.876 42.1081 347.905 42.5214 349.961C42.9402 352.012 43.2852 354.075 43.5562 356.151C43.7595 357.518 43.8796 358.923 44.1106 360.327C39.9341 354.71 35.3678 349.393 30.4456 344.417C30.3254 344.297 30.1591 344.417 30.27 344.602C37.7057 352.988 44.3494 362.044 50.1161 371.655L50.7537 372.745C49.6634 372.08 48.4438 371.544 47.409 370.971L41.7176 367.839C39.8697 366.859 38.0218 365.834 36.174 364.817C35.25 364.291 34.3261 363.746 33.3282 363.256C32.1642 362.733 31.0455 362.115 29.9836 361.408C29.845 361.306 29.6787 361.528 29.845 361.611C31.6929 362.646 33.3744 364.189 35.2038 365.307C37.0332 366.425 38.8996 367.598 40.7474 368.652C44.2122 370.592 47.9726 371.996 51.4004 373.983C53.7657 378.122 55.9554 382.354 57.9604 386.715C55.8907 385.397 53.778 384.131 51.6222 382.917C50.2455 382.15 48.8503 381.384 47.4552 380.644C46.0604 379.999 44.7405 379.203 43.5192 378.27C43.3899 378.168 43.2236 378.27 43.3345 378.455C45.6146 380.496 48.1374 382.25 50.846 383.675C53.3592 385.144 55.8723 386.548 58.4962 387.842C60.6479 392.417 62.56 397.102 64.2246 401.876C72.4384 425.132 75.4505 449.847 76.8918 474.368C77.326 481.686 77.5478 488.994 77.6402 496.321C77.7326 503.648 77.3445 510.929 77.363 518.246C77.3726 518.289 77.3966 518.328 77.431 518.355C77.4654 518.383 77.5083 518.398 77.5524 518.398C77.5966 518.398 77.6394 518.383 77.6738 518.355C77.7083 518.328 77.7322 518.289 77.7418 518.246C78.6657 511.779 78.7859 505.154 79.063 498.631C79.3402 492.108 79.3864 485.326 79.2663 478.683Z" fill="#2F2E41"/>
<path d="M43.7594 373.345C40.1961 371.772 36.7339 369.979 33.3929 367.977C30.009 366.073 26.7304 363.988 23.5714 361.731C23.5714 361.731 23.4513 361.731 23.5714 361.814C26.5571 364.271 29.7159 366.51 33.0233 368.513C36.4852 370.435 40.0613 372.145 43.7317 373.631C43.7964 373.631 43.898 373.41 43.7594 373.345Z" fill="#2F2E41"/>
<path d="M49.4412 347.041C49.1455 345.904 48.7944 344.805 48.4064 343.696C48.42 343.681 48.4275 343.661 48.4275 343.641C48.4275 343.62 48.42 343.6 48.4064 343.585C48.1569 342.948 47.9074 342.329 47.6395 341.737C47.6487 341.658 47.6487 341.577 47.6395 341.497L47.4824 341.146L47.6857 341.784C47.7097 341.909 47.7437 342.033 47.7873 342.153C49.0775 346.492 50.0441 350.921 50.6792 355.402C50.6792 355.434 50.6919 355.465 50.7144 355.487C50.7369 355.51 50.7675 355.522 50.7994 355.522C50.8147 355.522 50.8299 355.519 50.844 355.513C50.8581 355.507 50.8708 355.498 50.8812 355.487C50.8916 355.475 50.8996 355.462 50.9046 355.448C50.9096 355.433 50.9115 355.418 50.9102 355.402C50.6866 352.575 50.1948 349.775 49.4412 347.041Z" fill="#2F2E41"/>
<path d="M99.8604 483.405L98.4745 499.925L94.2059 550.279H48.5266L44.2672 499.925L42.8721 483.405H99.8604Z" fill="#2F2E41"/>
<path opacity="0.2" d="M99.8604 483.405L98.4745 499.925H44.2672L42.8721 483.405H99.8604Z" fill="black"/>
<path d="M104.342 476.78H38.3911V492.625H104.342V476.78Z" fill="#2F2E41"/>
<path d="M209.486 110.366H177.231C174.644 110.366 172.547 112.463 172.547 115.05V128.844C172.547 131.432 174.644 133.529 177.231 133.529H209.486C212.073 133.529 214.17 131.432 214.17 128.844V115.05C214.17 112.463 212.073 110.366 209.486 110.366Z" fill="#08B74F"/>
<path d="M197.059 131.773L212.738 144.099L203.018 130.886L197.059 131.773Z" fill="#08B74F"/>
<path d="M202.658 121.924C202.658 121.745 202.693 121.569 202.761 121.404C202.829 121.239 202.929 121.089 203.055 120.963C203.182 120.837 203.331 120.737 203.496 120.669C203.661 120.601 203.837 120.565 204.016 120.565C204.286 120.567 204.55 120.649 204.774 120.801C204.998 120.953 205.172 121.168 205.273 121.418C205.375 121.669 205.4 121.944 205.346 122.209C205.291 122.474 205.159 122.716 204.967 122.906C204.774 123.096 204.53 123.225 204.264 123.276C203.999 123.327 203.724 123.298 203.475 123.193C203.226 123.087 203.013 122.911 202.865 122.685C202.716 122.459 202.637 122.194 202.639 121.924H202.658Z" fill="white"/>
<path d="M195.553 121.924C195.553 121.563 195.696 121.218 195.951 120.963C196.205 120.709 196.551 120.565 196.911 120.565C197.181 120.567 197.445 120.649 197.669 120.801C197.893 120.953 198.067 121.168 198.168 121.418C198.27 121.669 198.295 121.944 198.241 122.209C198.186 122.474 198.055 122.716 197.862 122.906C197.669 123.096 197.425 123.225 197.159 123.276C196.894 123.327 196.619 123.298 196.37 123.193C196.121 123.087 195.908 122.911 195.76 122.685C195.611 122.459 195.532 122.194 195.534 121.924H195.553Z" fill="white"/>
<path d="M188.447 121.924C188.447 121.563 188.59 121.218 188.845 120.963C189.1 120.709 189.445 120.565 189.805 120.565C190.076 120.567 190.34 120.649 190.564 120.801C190.787 120.953 190.961 121.168 191.063 121.418C191.165 121.669 191.19 121.944 191.135 122.209C191.081 122.474 190.949 122.716 190.756 122.906C190.564 123.096 190.319 123.225 190.054 123.276C189.788 123.327 189.513 123.298 189.264 123.193C189.015 123.087 188.803 122.911 188.654 122.685C188.505 122.459 188.427 122.194 188.429 121.924H188.447Z" fill="white"/>
<path d="M181.343 121.924C181.343 121.563 181.486 121.218 181.741 120.963C181.995 120.709 182.341 120.565 182.701 120.565C182.971 120.567 183.235 120.649 183.459 120.801C183.683 120.953 183.857 121.168 183.958 121.418C184.06 121.669 184.086 121.944 184.031 122.209C183.976 122.474 183.845 122.716 183.652 122.906C183.459 123.096 183.215 123.225 182.949 123.276C182.684 123.327 182.409 123.298 182.16 123.193C181.911 123.087 181.698 122.911 181.55 122.685C181.401 122.459 181.322 122.194 181.324 121.924H181.343Z" fill="white"/>
<path d="M18.5816 428.412C16.9723 430.258 15.4788 432.202 14.1098 434.232C12.7785 436.308 11.658 438.512 10.7651 440.811C10.7651 440.811 10.8483 440.903 10.8852 440.811C13.1104 436.464 15.7365 432.335 18.7295 428.476C18.8681 428.458 18.6833 428.273 18.5816 428.412Z" fill="#2F2E41"/>
</svg>
