<svg width="638" height="584" viewBox="0 0 638 584" fill="none" xmlns="http://www.w3.org/2000/svg">
<path d="M439.67 47H216.1C200.835 47 188.46 59.3748 188.46 74.64V555.84C188.46 571.105 200.835 583.48 216.1 583.48H439.67C454.935 583.48 467.31 571.105 467.31 555.84V74.64C467.31 59.3748 454.935 47 439.67 47Z" fill="#08B74F" fill-opacity="0.28"/>
<path d="M433.45 58H220.55C207.058 58 196.12 68.9377 196.12 82.43V550.8C196.12 564.292 207.058 575.23 220.55 575.23H433.45C446.942 575.23 457.88 564.292 457.88 550.8V82.43C457.88 68.9377 446.942 58 433.45 58Z" fill="white"/>
<path d="M442.38 278.92H348.82V489.67H442.38V278.92Z" fill="#08B74F" fill-opacity="0.28"/>
<path d="M298.36 202.36H220.99V239.66H298.36V202.36Z" fill="#08B74F" fill-opacity="0.28"/>
<path d="M403.29 139.36H302.99V239.66H403.29V139.36Z" fill="#08B74F" fill-opacity="0.28"/>
<path d="M327 285.28H220.99V313.87H327V285.28Z" fill="#08B74F" fill-opacity="0.28"/>
<path d="M327 324.33H220.99V352.92H327V324.33Z" fill="#08B74F" fill-opacity="0.28"/>
<path d="M327 361.28H220.99V389.87H327V361.28Z" fill="#08B74F" fill-opacity="0.28"/>
<path d="M327 439.68H220.99V444.06H327V439.68Z" fill="#00002F"/>
<path d="M327 450.99H220.99V455.37H327V450.99Z" fill="#00002F"/>
<path d="M327 462.3H220.99V466.68H327V462.3Z" fill="#00002F"/>
<path d="M327 473.61H220.99V477.99H327V473.61Z" fill="#00002F"/>
<path d="M327 484.92H220.99V489.3H327V484.92Z" fill="#00002F"/>
<path d="M331.01 558.88C339.62 558.88 346.6 551.9 346.6 543.29C346.6 534.68 339.62 527.7 331.01 527.7C322.4 527.7 315.42 534.68 315.42 543.29C315.42 551.9 322.4 558.88 331.01 558.88Z" fill="#00002F"/>
<path d="M315.98 135.5H106.02C99.9338 135.5 95 140.434 95 146.52V196.91C95 202.996 99.9338 207.93 106.02 207.93H315.98C322.066 207.93 327 202.996 327 196.91V146.52C327 140.434 322.066 135.5 315.98 135.5Z" fill="#00002F"/>
<path d="M176.74 150.88H122.9V164.24H176.74V150.88Z" fill="white"/>
<path d="M288.76 171.71H122.9V176.81H288.76V171.71Z" fill="white"/>
<path d="M188.46 185.67H122.9V190.77H188.46V185.67Z" fill="white"/>
<path d="M116.811 221.13V202.36L148.881 204.05L116.811 221.13Z" fill="#00002F"/>
<path d="M491.29 320.55H274.33C269.122 320.55 264.9 324.772 264.9 329.98V381.87C264.9 387.078 269.122 391.3 274.33 391.3H491.29C496.498 391.3 500.72 387.078 500.72 381.87V329.98C500.72 324.772 496.498 320.55 491.29 320.55Z" fill="#00002F"/>
<path d="M288.09 405.44V387.16H322.29L288.09 405.44Z" fill="#00002F"/>
<path d="M348.82 334.1H294.58V345.89H348.82V334.1Z" fill="white"/>
<path d="M461.42 354.74H294.58V359.46H461.42V354.74Z" fill="white"/>
<path d="M461.42 368.89H294.58V373.61H461.42V368.89Z" fill="white"/>
<path d="M589.02 532.828C589.02 532.288 587.19 478.608 578.5 470.128C570.05 461.918 560.33 469.828 559.93 470.128L558.93 468.968C559.03 468.878 570.08 459.858 579.49 468.968C588.65 477.878 590.49 530.468 590.49 532.708L589.02 532.828Z" fill="#2F2E41"/>
<path d="M589.77 543.378C589.77 542.738 583.77 478.878 607.14 452.108L608.26 453.108C585.37 479.398 591.26 542.608 591.26 543.238L589.77 543.378Z" fill="#2F2E41"/>
<path d="M589.05 536.599L587.55 536.499C587.55 535.769 592.06 463.969 575.04 448.259L576.04 447.159C593.65 463.319 589.25 533.599 589.05 536.599Z" fill="#2F2E41"/>
<path d="M591.27 536.599H589.77C589.77 534.599 590.34 488.029 603.59 480.439C604.853 479.619 606.294 479.115 607.793 478.969C609.291 478.823 610.802 479.039 612.2 479.599C620.2 482.919 624.2 497.169 624.37 497.779L622.86 498.179C622.86 498.029 618.86 484.019 611.57 480.979C610.381 480.517 609.1 480.346 607.832 480.479C606.564 480.613 605.346 481.049 604.28 481.749C591.79 488.879 591.27 536.099 591.27 536.599Z" fill="#2F2E41"/>
<path d="M586.14 536.598L584.64 536.518C584.64 536.138 586.64 499.758 576.82 486.908C574.45 483.808 571.88 482.398 569.18 482.528C562.78 482.978 557.4 492.358 557.34 492.468L556.03 491.718C556.27 491.308 561.86 481.538 569.03 481.028C572.28 480.818 575.27 482.528 577.96 486.028C588.14 499.298 586.21 535.098 586.14 536.598Z" fill="#2F2E41"/>
<path d="M588.14 541.599C587.87 538.059 581.7 454.889 592.56 440.219L593.76 441.109C583.24 455.339 589.57 540.619 589.64 541.479L588.14 541.599Z" fill="#2F2E41"/>
<path d="M615.14 488.068C615.14 488.068 608.64 490.458 610.63 496.068C612.62 501.678 633.11 511.068 633.11 511.068C633.11 511.068 641.72 503.168 633.81 490.348C625.9 477.528 615.3 484.008 615.14 488.068Z" fill="#08B74F"/>
<path d="M586.87 477.299C586.87 477.299 593.8 476.999 594.19 482.969C594.58 488.939 579.19 505.429 579.19 505.429C579.19 505.429 568.19 501.429 570.56 486.579C572.93 471.729 585.14 473.599 586.87 477.299Z" fill="#08B74F"/>
<path d="M581.02 448.748C581.02 448.748 585.64 448.258 585.26 445.448C584.88 442.638 567.32 435.398 556.97 447.098C556.97 447.098 563.6 458.498 573.19 458.648C582.78 458.798 581.02 448.748 581.02 448.748Z" fill="#08B74F"/>
<path d="M589.62 441.928C589.62 441.928 585.44 443.929 584.27 441.359C583.1 438.789 594.14 423.309 609.14 427.819C609.14 427.819 609.55 441.008 601.49 446.208C593.43 451.408 589.62 441.928 589.62 441.928Z" fill="#08B74F"/>
<path d="M567.73 485.779C567.73 485.779 570.9 483.209 567.47 481.959C564.04 480.709 547.18 481.059 547 497.769C547 497.769 566.63 501.029 569.07 494.669C571.51 488.309 567.73 485.779 567.73 485.779Z" fill="#08B74F"/>
<path d="M607.81 448.289C607.81 448.289 604.63 445.719 608.07 444.449C611.51 443.179 628.37 443.569 628.55 460.269C628.55 460.269 608.91 463.529 606.47 457.159C604.03 450.789 607.81 448.289 607.81 448.289Z" fill="#08B74F"/>
<path d="M597.44 461.819C597.44 461.819 597.15 458.689 599.68 459.909C602.21 461.129 610.99 470.599 601.87 479.599C601.87 479.599 589.61 470.599 591.87 465.779C594.13 460.959 597.44 461.819 597.44 461.819Z" fill="#08B74F"/>
<path d="M564.92 466.239C564.92 466.239 566.83 463.739 564.03 463.429C561.23 463.119 548.76 466.429 551.67 478.929C551.67 478.929 566.89 477.789 567.54 472.609C568.19 467.429 564.92 466.239 564.92 466.239Z" fill="#08B74F"/>
<path d="M616.34 582.879H564.12L558.48 525.699H621.98L616.34 582.879Z" fill="#2F2E41"/>
<path d="M624.77 519.389H555.7V531.999H624.77V519.389Z" fill="#2F2E41"/>
<path opacity="0.2" d="M624.77 519.389H555.7V531.999H624.77V519.389Z" fill="white"/>
<path opacity="0.1" d="M47.4199 94.2201C73.2613 94.2201 94.2099 73.2715 94.2099 47.4301C94.2099 21.5887 73.2613 0.640137 47.4199 0.640137C21.5785 0.640137 0.629883 21.5887 0.629883 47.4301C0.629883 73.2715 21.5785 94.2201 47.4199 94.2201Z" fill="#08B74F"/>
<path d="M47.42 94.84C38.0408 94.84 28.8722 92.0586 21.0738 86.8476C13.2754 81.6366 7.19751 74.23 3.60869 65.5646C0.0198801 56.8991 -0.918606 47.364 0.911916 38.1652C2.74244 28.9663 7.25976 20.5169 13.8926 13.8855C20.5254 7.25407 28.9757 2.73855 38.175 0.909964C47.3742 -0.918617 56.9091 0.0218837 65.5738 3.61252C74.2385 7.20317 81.6438 13.2827 86.8532 21.0822C92.0626 28.8816 94.842 38.0508 94.84 47.43C94.8374 60.0049 89.8402 72.0638 80.9475 80.9546C72.0548 89.8454 59.9949 94.84 47.42 94.84ZM47.42 1.27002C38.2868 1.25815 29.3552 3.95538 21.7551 9.0205C14.155 14.0856 8.22797 21.291 4.72368 29.7253C1.2194 38.1595 0.295333 47.4436 2.06841 56.4032C3.84149 65.3627 8.23203 73.595 14.6846 80.0588C21.1372 86.5226 29.3619 90.9274 38.3183 92.716C47.2748 94.5046 56.5605 93.5966 65.0008 90.107C73.4411 86.6173 80.6568 80.7027 85.735 73.1115C90.8133 65.5202 93.5261 56.5933 93.53 47.46C93.4957 35.2364 88.6205 23.5241 79.9714 14.8862C71.3223 6.2484 59.6037 1.38848 47.38 1.37002L47.42 1.27002Z" fill="#08B74F"/>
<path d="M59.2498 41.94C58.9148 41.9373 58.5943 41.8024 58.3583 41.5645C58.1223 41.3266 57.9899 41.0051 57.9899 40.67V36.77C57.9899 33.964 56.8752 31.2729 54.8911 29.2888C52.9069 27.3046 50.2159 26.19 47.4099 26.19C44.6039 26.19 41.9128 27.3046 39.9287 29.2888C37.9445 31.2729 36.8299 33.964 36.8299 36.77V40.63C36.8312 40.7954 36.7999 40.9595 36.7378 41.1129C36.6757 41.2663 36.584 41.4059 36.4679 41.5239C36.3519 41.6418 36.2137 41.7357 36.0613 41.8002C35.9089 41.8648 35.7453 41.8987 35.5799 41.9C35.2456 41.8948 34.9267 41.759 34.6912 41.5216C34.4557 41.2843 34.3224 40.9643 34.3199 40.63V36.73C34.2271 34.9909 34.4821 33.2507 35.0699 31.6113C35.6576 29.9719 36.5664 28.4661 37.743 27.1821C38.9196 25.8981 40.3404 24.8615 41.9224 24.1332C43.5043 23.4048 45.2156 22.9991 46.9562 22.9399C48.6968 22.8808 50.4317 23.1693 52.0595 23.7885C53.6872 24.4078 55.1752 25.3455 56.4363 26.5466C57.6973 27.7478 58.7063 29.1883 59.404 30.784C60.1018 32.3798 60.4743 34.0986 60.4998 35.84C60.4998 36.13 60.4998 36.43 60.4998 36.73V40.63C60.5052 40.7984 60.477 40.9662 60.4168 41.1236C60.3566 41.2811 60.2657 41.4249 60.1493 41.5468C60.033 41.6688 59.8935 41.7663 59.7391 41.8338C59.5847 41.9013 59.4184 41.9374 59.2498 41.94Z" fill="#08B74F"/>
<path d="M61.1403 43.73H33.6703C32.8375 43.73 32.0388 44.0608 31.45 44.6497C30.8611 45.2385 30.5303 46.0372 30.5303 46.87V66.73C30.5355 67.5611 30.868 68.3568 31.4557 68.9445C32.0435 69.5322 32.8391 69.8647 33.6703 69.87H61.1403C61.553 69.8713 61.9619 69.791 62.3434 69.6337C62.725 69.4763 63.0717 69.2451 63.3635 68.9532C63.6554 68.6614 63.8866 68.3147 64.0439 67.9332C64.2013 67.5516 64.2816 67.1427 64.2803 66.73V46.87C64.2829 46.4594 64.2045 46.0524 64.0495 45.6722C63.8945 45.292 63.666 44.9461 63.3771 44.6544C63.0882 44.3627 62.7445 44.1309 62.3658 43.9722C61.9871 43.8136 61.5809 43.7313 61.1703 43.73H61.1403ZM48.5403 57.73V62.63H46.3603V57.8C45.5785 57.5324 44.917 56.9962 44.4935 56.2866C44.07 55.5771 43.912 54.7403 44.0476 53.9252C44.1832 53.1101 44.6037 52.3696 45.2341 51.8354C45.8645 51.3012 46.664 51.008 47.4903 51.008C48.3166 51.008 49.1161 51.3012 49.7465 51.8354C50.3769 52.3696 50.7973 53.1101 50.9329 53.9252C51.0685 54.7403 50.9106 55.5771 50.4871 56.2866C50.0636 56.9962 49.4021 57.5324 48.6203 57.8L48.5403 57.73Z" fill="#08B74F"/>
</svg>
