<svg width="763" height="612" viewBox="0 0 763 612" fill="none" xmlns="http://www.w3.org/2000/svg">
<path d="M762.22 578.13H703.29V578.57H762.22V578.13Z" fill="#EBEBEB"/>
<path d="M551.06 582.97H535.6V583.41H551.06V582.97Z" fill="#EBEBEB"/>
<path d="M701.51 561.62H667.37V562.06H701.51V561.62Z" fill="#EBEBEB"/>
<path d="M131.94 564.6H55.0996V565.04H131.94V564.6Z" fill="#EBEBEB"/>
<path d="M159.06 564.6H147.8V565.04H159.06V564.6Z" fill="#EBEBEB"/>
<path d="M362.35 572.11H195.68V572.55H362.35V572.11Z" fill="#EBEBEB"/>
<path d="M493.44 36.69C493.437 34.4126 492.531 32.2292 490.921 30.6188C489.311 29.0085 487.127 28.1026 484.85 28.1C484.014 28.1005 483.183 28.2183 482.38 28.45C482.732 26.092 482.615 23.6879 482.038 21.3749C481.46 19.0619 480.432 16.8853 479.013 14.9696C477.595 13.0538 475.812 11.4364 473.768 10.2096C471.724 8.98286 469.458 8.17085 467.1 7.81996C466.206 7.68339 465.304 7.61652 464.4 7.61996C463.276 7.62009 462.155 7.72049 461.05 7.91996C459.268 4.95076 456.565 2.64417 453.353 1.35034C450.141 0.0565188 446.594 -0.153881 443.251 0.751085C439.908 1.65605 436.952 3.62696 434.831 6.36461C432.711 9.10227 431.541 12.4571 431.5 15.92H431.23C427.342 15.92 423.613 17.4645 420.864 20.2138C418.114 22.9631 416.57 26.6919 416.57 30.58C416.57 34.468 418.114 38.1969 420.864 40.9461C423.613 43.6954 427.342 45.24 431.23 45.24H485.07C487.304 45.1853 489.428 44.2613 490.991 42.6646C492.554 41.0679 493.433 38.9244 493.44 36.69Z" fill="#0699ED" fill-opacity="0.12"/>
<path d="M372.32 80.87C372.32 80.3067 372.209 79.7488 371.993 79.2283C371.778 78.7078 371.462 78.2349 371.063 77.8365C370.665 77.4382 370.192 77.1222 369.672 76.9066C369.151 76.691 368.593 76.58 368.03 76.58C367.613 76.5696 367.197 76.6305 366.8 76.76C366.86 76.3226 366.89 75.8816 366.89 75.44C366.893 74.2463 366.66 73.0638 366.206 71.9599C365.751 70.8561 365.084 69.8525 364.242 69.0066C363.399 68.1606 362.399 67.4889 361.297 67.0296C360.195 66.5704 359.014 66.3326 357.82 66.33C357.253 66.3283 356.687 66.3819 356.13 66.49C355.215 65.0478 353.862 63.9363 352.27 63.3181C350.678 62.7 348.929 62.6077 347.281 63.0548C345.632 63.5018 344.17 64.4647 343.108 65.8026C342.047 67.1405 341.441 68.7831 341.38 70.49H341.25C339.306 70.49 337.441 71.2623 336.067 72.6369C334.692 74.0116 333.92 75.876 333.92 77.82C333.92 79.7641 334.692 81.6285 336.067 83.0031C337.441 84.3778 339.306 85.15 341.25 85.15H368.17C369.284 85.1213 370.343 84.657 371.118 83.8569C371.894 83.0568 372.326 81.9845 372.32 80.87Z" fill="#0699ED" fill-opacity="0.12"/>
<path d="M129.65 225.41C129.655 224.286 129.217 223.205 128.431 222.402C127.645 221.599 126.573 221.138 125.45 221.12C125.036 221.11 124.623 221.171 124.23 221.3V219.98C124.23 217.564 123.27 215.247 121.561 213.538C119.853 211.83 117.536 210.87 115.12 210.87C114.556 210.868 113.993 210.922 113.44 211.03C112.531 209.59 111.184 208.48 109.597 207.863C108.01 207.245 106.267 207.154 104.625 207.602C102.982 208.05 101.526 209.013 100.472 210.351C99.4183 211.688 98.8214 213.328 98.7696 215.03H98.6396C96.6955 215.03 94.8311 215.802 93.4565 217.177C92.0818 218.552 91.3096 220.416 91.3096 222.36C91.3096 224.304 92.0818 226.168 93.4565 227.543C94.8311 228.918 96.6955 229.69 98.6396 229.69H125.45C126.572 229.672 127.641 229.212 128.427 228.411C129.213 227.61 129.652 226.532 129.65 225.41Z" fill="#0699ED" fill-opacity="0.12"/>
<path d="M710.02 227.15C710.02 226.007 709.565 224.911 708.757 224.102C707.949 223.294 706.853 222.84 705.71 222.84C705.292 222.846 704.878 222.914 704.48 223.04C704.539 222.599 704.569 222.155 704.57 221.71C704.571 220.516 704.337 219.334 703.881 218.231C703.426 217.127 702.757 216.125 701.914 215.279C701.071 214.434 700.07 213.764 698.967 213.306C697.865 212.848 696.683 212.611 695.49 212.61C694.923 212.613 694.357 212.667 693.8 212.77C692.911 211.289 691.563 210.138 689.96 209.493C688.358 208.848 686.588 208.744 684.921 209.196C683.254 209.649 681.78 210.634 680.724 212.001C679.668 213.368 679.087 215.043 679.07 216.77H678.93C676.986 216.77 675.121 217.542 673.746 218.917C672.372 220.292 671.6 222.156 671.6 224.1C671.6 226.044 672.372 227.908 673.746 229.283C675.121 230.658 676.986 231.43 678.93 231.43H705.84C706.954 231.394 708.011 230.928 708.79 230.131C709.569 229.333 710.01 228.265 710.02 227.15Z" fill="#0699ED" fill-opacity="0.12"/>
<path d="M257.61 37.0799C257.61 35.5894 257.017 34.1599 255.963 33.106C254.91 32.052 253.48 31.4599 251.99 31.4599C251.441 31.4506 250.894 31.5282 250.37 31.6899C250.46 31.101 250.5 30.5056 250.49 29.9099C250.492 28.3446 250.186 26.794 249.59 25.3468C248.993 23.8996 248.117 22.5841 247.012 21.4753C245.907 20.3666 244.595 19.4864 243.15 18.8849C241.704 18.2835 240.155 17.9725 238.59 17.9699C237.854 17.9679 237.12 18.0416 236.4 18.1899C235.221 16.2526 233.443 14.7523 231.335 13.9161C229.227 13.0799 226.904 12.9535 224.718 13.556C222.532 14.1585 220.602 15.4571 219.22 17.255C217.838 19.053 217.079 21.2523 217.06 23.5199H216.88C214.331 23.5199 211.886 24.5324 210.084 26.3346C208.282 28.1369 207.27 30.5812 207.27 33.1299C207.27 35.6787 208.282 38.123 210.084 39.9252C211.886 41.7274 214.331 42.7399 216.88 42.7399H252.18C253.642 42.6854 255.026 42.0645 256.04 41.0084C257.053 39.9522 257.616 38.5435 257.61 37.0799Z" fill="#0699ED" fill-opacity="0.12"/>
<path d="M678.77 172.26C679.068 171.17 679.242 170.049 679.29 168.92C679.7 161.98 686.29 163.08 691.94 162.14C696.33 161.41 684.7 150.31 693.56 146.71C695.29 146.24 696.801 145.178 697.83 143.71C698.286 142.623 698.344 141.41 697.992 140.284C697.641 139.159 696.903 138.194 695.91 137.56C693.881 136.349 691.54 135.761 689.18 135.87C687.72 134.09 688.91 131.47 690.3 129.68C691.69 127.89 693.42 125.83 692.88 123.68C692.08 120.33 687.42 120.12 683.99 120.86C682.74 118.86 682.76 116.31 682.21 114.01C681.66 111.71 679.79 109.32 677.42 109.6C675.05 109.88 673.86 112.38 671.67 112.89C669.15 113.5 666.96 111.26 664.98 109.58C663 107.9 659.52 106.86 658.17 109.07C657.35 110.39 657.83 112.24 656.98 113.53C655.52 115.79 651.98 114.39 649.86 112.79C647.74 111.19 644.24 109.79 642.75 111.97C642.359 112.697 642.07 113.474 641.89 114.28C640.89 117.28 637.67 118.71 635.18 120.62C632.69 122.53 630.72 126.29 632.82 128.62C633.82 129.76 635.7 130.23 636.22 131.68C636.86 133.46 635.01 135.14 633.53 136.38C631.07 138.46 630.63 144.71 633.87 146.38C635.24 147.11 637.23 147.32 637.55 148.82C637.87 150.32 636.5 151.2 635.55 152.23C634.508 153.572 634.04 155.272 634.248 156.959C634.456 158.645 635.323 160.181 636.66 161.23C636.936 161.44 637.226 161.631 637.53 161.8C638.29 162.17 639.31 162.48 639.53 163.3C639.65 163.894 639.587 164.512 639.35 165.07C639.019 166.226 638.91 167.434 639.03 168.63C639.028 169.035 639.182 169.425 639.46 169.72C639.756 169.915 640.105 170.012 640.46 170C645.14 170.22 647.38 168.56 650.24 172.62C650.495 173.023 650.837 173.364 651.24 173.62C651.637 173.82 652.075 173.929 652.52 173.94C655.74 174.21 657.86 172.16 660.78 171.82C664.85 171.31 665.78 173.4 669.3 175.09C674.91 177.77 677.65 176.11 678.77 172.26Z" fill="#08B74F"/>
<path d="M624.85 166.43C625.139 165.342 625.31 164.225 625.36 163.1C625.77 156.16 632.36 157.26 638.01 156.32C642.41 155.59 630.77 144.49 639.63 140.9C641.36 140.43 642.871 139.368 643.9 137.9C644.356 136.813 644.414 135.6 644.062 134.474C643.711 133.349 642.973 132.384 641.98 131.75C639.963 130.509 637.626 129.89 635.26 129.97C633.8 128.19 634.97 125.58 636.38 123.78C637.79 121.98 639.49 119.94 638.96 117.78C638.16 114.43 633.49 114.31 630.06 114.97C628.81 112.97 628.83 110.41 628.28 108.12C627.73 105.83 625.86 103.42 623.49 103.71C621.12 104 619.94 106.48 617.75 107C615.22 107.58 613.03 105.36 611.04 103.69C609.05 102.02 605.6 100.97 604.23 103.17C603.41 104.49 603.91 106.34 603.05 107.64C601.58 109.9 598.05 108.49 595.94 106.89C593.83 105.29 590.31 103.89 588.82 106.05C588.43 106.788 588.141 107.575 587.96 108.39C586.96 111.39 583.75 112.82 581.26 114.72C578.77 116.62 576.79 120.38 578.89 122.72C579.89 123.86 581.77 124.32 582.29 125.78C582.93 127.56 581.06 129.23 579.6 130.47C577.15 132.56 576.7 138.8 579.94 140.47C581.31 141.2 583.3 141.41 583.62 142.91C583.94 144.41 582.62 145.29 581.67 146.32C580.627 147.661 580.157 149.36 580.363 151.047C580.569 152.733 581.435 154.269 582.77 155.32C583.039 155.54 583.331 155.731 583.64 155.89C584.41 156.27 585.42 156.57 585.64 157.39C585.762 157.988 585.699 158.609 585.46 159.17C585.134 160.327 585.025 161.534 585.14 162.73C585.137 163.138 585.291 163.531 585.57 163.83C585.868 164.021 586.216 164.118 586.57 164.11C591.23 164.33 593.49 162.67 596.36 166.73C596.614 167.134 596.955 167.476 597.36 167.73C597.765 167.931 598.208 168.047 598.66 168.07C601.88 168.32 604 166.29 606.91 165.95C610.99 165.42 611.84 167.54 615.44 169.21C621.06 171.92 623.8 170.29 624.85 166.43Z" fill="#08B74F"/>
<path d="M619.67 132.14C619.952 131.047 620.119 129.928 620.17 128.8C620.58 121.86 627.17 122.96 632.82 122.02C637.21 121.29 625.58 110.19 634.44 106.59C636.173 106.12 637.687 105.059 638.72 103.59C639.161 102.5 639.21 101.291 638.858 100.169C638.506 99.0469 637.775 98.0822 636.79 97.44C634.764 96.2229 632.421 95.638 630.06 95.76C628.62 93.98 629.79 91.35 631.18 89.55C632.57 87.75 634.29 85.73 633.78 83.55C632.98 80.2 628.3 80.09 624.88 80.73C623.64 78.73 623.67 76.2 623.1 73.9C622.53 71.6 620.67 69.19 618.32 69.47C615.97 69.75 614.76 72.25 612.55 72.76C610.03 73.37 607.84 71.13 605.86 69.45C603.88 67.77 600.4 66.73 599.05 68.94C598.23 70.26 598.71 72.11 597.86 73.4C596.4 75.66 592.86 74.26 590.74 72.66C588.62 71.06 585.12 69.66 583.62 71.84C583.241 72.569 582.961 73.3461 582.79 74.15C581.79 77.15 578.55 78.58 576.06 80.49C573.57 82.4 571.6 86.16 573.71 88.49C574.71 89.63 576.58 90.1 577.09 91.55C577.73 93.33 575.88 95.01 574.41 96.25C571.95 98.33 571.51 104.58 574.75 106.25C576.12 106.96 578.11 107.17 578.45 108.67C578.79 110.17 577.38 111.05 576.45 112.1C575.887 112.837 575.489 113.687 575.284 114.592C575.079 115.496 575.071 116.435 575.261 117.343C575.45 118.251 575.833 119.107 576.384 119.854C576.934 120.601 577.639 121.22 578.45 121.67C579.23 122.04 580.23 122.35 580.45 123.17C580.566 123.765 580.503 124.381 580.27 124.94C579.949 126.067 579.841 127.243 579.95 128.41C579.964 128.812 580.116 129.197 580.38 129.5C580.676 129.695 581.026 129.793 581.38 129.78C586.06 130 588.32 128.34 591.16 132.42C591.42 132.82 591.76 133.16 592.16 133.42C592.558 133.62 592.995 133.73 593.44 133.74C596.66 134.01 598.78 131.96 601.7 131.62C605.77 131.11 606.64 133.21 610.24 134.9C615.86 137.62 618.6 136.02 619.67 132.14Z" fill="#08B74F"/>
<path d="M584.19 149.22C584.471 148.127 584.639 147.008 584.69 145.88C585.1 138.96 591.69 140.04 597.34 139.12C601.74 138.37 590.1 127.27 598.96 123.69C600.69 123.208 602.203 122.15 603.25 120.69C603.702 119.602 603.755 118.39 603.4 117.266C603.045 116.143 602.305 115.181 601.31 114.55C599.285 113.329 596.941 112.74 594.58 112.86C593.14 111.08 594.32 108.45 595.7 106.65C597.08 104.85 598.82 102.83 598.28 100.65C597.48 97.3001 592.82 97.1901 589.39 97.8301C588.14 95.8301 588.18 93.3001 587.61 91.0001C587.04 88.7001 585.17 86.2901 582.82 86.5901C580.47 86.8901 579.26 89.3701 577.06 89.8601C574.53 90.4701 572.34 88.2301 570.37 86.5501C568.4 84.8701 564.91 83.8301 563.55 86.0401C562.74 87.3601 563.22 89.2101 562.36 90.5001C560.9 92.7601 557.36 91.3601 555.25 89.7601C553.14 88.1601 549.62 86.7101 548.13 88.9401C547.751 89.6706 547.469 90.4471 547.29 91.2501C546.29 94.2501 543.06 95.6801 540.57 97.5901C538.08 99.5001 536.1 103.26 538.22 105.59C539.22 106.73 541.08 107.2 541.6 108.65C542.24 110.43 540.39 112.11 538.91 113.37C536.46 115.45 536.01 121.68 539.25 123.37C540.62 124.08 542.61 124.29 542.95 125.8C543.29 127.31 541.88 128.19 540.95 129.22C539.907 130.563 539.439 132.264 539.649 133.952C539.859 135.639 540.729 137.174 542.07 138.22C542.337 138.431 542.621 138.618 542.92 138.78C543.69 139.15 544.7 139.46 544.92 140.28C545.04 140.875 544.977 141.492 544.74 142.05C544.429 143.179 544.32 144.354 544.42 145.52C544.44 145.921 544.591 146.304 544.85 146.61C545.148 146.801 545.496 146.898 545.85 146.89C550.53 147.11 552.77 145.45 555.64 149.53C555.894 149.934 556.236 150.276 556.64 150.53C557.037 150.73 557.475 150.84 557.92 150.85C561.14 151.12 563.26 149.07 566.17 148.73C570.25 148.22 571.17 150.32 574.71 152.01C580.39 154.7 583.13 153.07 584.19 149.22Z" fill="#08B74F"/>
<path d="M548.32 141.36C548.603 140.27 548.777 139.154 548.84 138.03C549.25 131.09 555.84 132.2 561.49 131.25C565.89 130.52 554.25 119.42 563.11 115.83C564.834 115.348 566.342 114.289 567.38 112.83C567.839 111.742 567.898 110.526 567.547 109.399C567.195 108.271 566.456 107.305 565.46 106.67C563.431 105.459 561.09 104.871 558.73 104.98C557.27 103.2 558.45 100.59 559.85 98.7899C561.25 96.9899 562.97 94.9499 562.43 92.7399C561.63 89.3899 556.97 89.1799 553.54 89.9299C552.29 87.9299 552.31 85.3699 551.76 83.0799C551.21 80.7899 549.34 78.3799 546.97 78.6699C544.6 78.9599 543.41 81.4399 541.23 81.9599C538.7 82.5399 536.51 80.3199 534.52 78.6499C532.53 76.9799 529.07 75.9099 527.7 78.1299C526.89 79.4499 527.38 81.2999 526.53 82.5999C525.05 84.8599 521.53 83.4499 519.41 81.8499C517.29 80.2499 513.79 78.7899 512.3 81.0099C511.921 81.7509 511.639 82.5373 511.46 83.3499C510.46 86.2999 507.24 87.7799 504.75 89.6799C502.26 91.5799 500.29 95.3399 502.39 97.6799C503.39 98.8199 505.25 99.2799 505.79 100.74C506.43 102.52 504.56 104.19 503.1 105.44C500.64 107.52 500.2 113.76 503.44 115.44C504.79 116.17 506.8 116.38 507.12 117.88C507.44 119.38 506.12 120.26 505.12 121.3C504.08 122.645 503.616 124.347 503.828 126.033C504.039 127.72 504.91 129.254 506.25 130.3C506.51 130.507 506.788 130.691 507.08 130.85C507.86 131.23 508.86 131.53 509.08 132.35C509.202 132.948 509.14 133.569 508.9 134.13C508.579 135.257 508.471 136.433 508.58 137.6C508.578 138.008 508.732 138.401 509.01 138.7C509.305 138.899 509.655 139 510.01 138.99C514.69 139.2 516.95 137.54 519.81 141.6C520.064 142.004 520.406 142.346 520.81 142.6C521.211 142.81 521.657 142.919 522.11 142.92C525.33 143.19 527.45 141.14 530.37 140.82C534.44 140.29 535.3 142.39 538.89 144.08C544.54 146.82 547.32 145.18 548.32 141.36Z" fill="#08B74F"/>
<path d="M547.86 179.68C548.089 178.821 548.22 177.939 548.25 177.05C548.57 171.6 553.79 172.46 558.25 171.71C561.72 171.12 552.55 162.39 559.53 159.56C560.889 159.192 562.078 158.361 562.89 157.21C563.243 156.348 563.278 155.389 562.991 154.503C562.704 153.617 562.111 152.861 561.32 152.37C559.713 151.402 557.853 150.939 555.98 151.04C554.84 149.67 555.77 147.59 556.87 146.16C557.97 144.73 559.33 143.16 558.87 141.39C558.25 138.76 554.56 138.67 551.87 139.19C551.137 137.488 550.652 135.69 550.43 133.85C549.95 132.07 548.51 130.15 546.66 130.38C544.81 130.61 543.85 132.57 542.14 132.96C540.14 133.44 538.42 131.68 536.8 130.35C535.18 129.02 532.52 128.21 531.47 129.95C530.82 130.95 531.22 132.44 530.54 133.51C529.38 135.29 526.64 134.19 524.94 132.93C523.24 131.67 520.51 130.54 519.3 132.28C519.009 132.845 518.788 133.442 518.64 134.06C517.84 136.39 515.31 137.62 513.3 139.06C511.29 140.5 509.74 143.53 511.43 145.34C512.27 146.25 513.69 146.61 514.1 147.76C514.62 149.19 513.16 150.49 512 151.46C510.06 153.1 509.71 158.01 512.27 159.35C513.34 159.92 514.9 160.09 515.17 161.27C515.44 162.45 514.33 163.15 513.62 163.97C512.799 165.035 512.433 166.382 512.602 167.716C512.77 169.05 513.46 170.263 514.52 171.09C514.725 171.25 514.942 171.394 515.17 171.52C515.79 171.8 516.54 172.05 516.77 172.69C516.863 173.169 516.807 173.664 516.61 174.11C516.364 174.998 516.286 175.924 516.38 176.84C516.374 176.996 516.4 177.151 516.455 177.297C516.51 177.443 516.593 177.576 516.7 177.69C516.939 177.859 517.228 177.94 517.52 177.92C521.2 178.08 522.96 176.78 525.22 179.98C525.409 180.31 525.672 180.591 525.99 180.8C526.297 180.967 526.641 181.053 526.99 181.05C529.52 181.27 531.17 179.68 533.48 179.4C536.7 178.99 537.38 180.64 540.21 181.96C544.87 184.06 547.12 182.71 547.86 179.68Z" fill="#08B74F"/>
<path d="M527.78 166.43C528.057 165.34 528.221 164.224 528.27 163.1C528.68 156.16 535.27 157.26 540.92 156.32C545.32 155.59 533.68 144.49 542.54 140.9C544.274 140.428 545.791 139.367 546.83 137.9C547.284 136.811 547.339 135.596 546.984 134.47C546.629 133.345 545.887 132.381 544.89 131.75C542.873 130.509 540.536 129.89 538.17 129.97C536.72 128.19 537.9 125.58 539.29 123.78C540.68 121.98 542.4 119.94 541.88 117.78C541.08 114.43 536.4 114.31 532.99 114.97C531.74 112.97 531.78 110.41 531.21 108.12C530.64 105.83 528.77 103.42 526.42 103.71C524.07 104 522.87 106.48 520.66 107C518.13 107.58 515.94 105.36 513.97 103.69C512 102.02 508.53 100.97 507.16 103.17C506.34 104.49 506.82 106.34 505.98 107.64C504.5 109.9 500.98 108.49 498.86 106.89C496.74 105.29 493.24 103.89 491.75 106.05C491.371 106.791 491.089 107.577 490.91 108.39C489.91 111.39 486.68 112.82 484.19 114.72C481.7 116.62 479.72 120.38 481.84 122.72C482.84 123.86 484.7 124.32 485.22 125.78C485.86 127.56 484.01 129.23 482.53 130.47C480.08 132.56 479.65 138.8 482.87 140.47C484.24 141.2 486.23 141.41 486.57 142.91C486.91 144.41 485.5 145.29 484.57 146.32C483.522 147.675 483.056 149.391 483.274 151.09C483.491 152.789 484.375 154.332 485.73 155.38C485.985 155.578 486.256 155.756 486.54 155.91C487.32 156.29 488.32 156.59 488.54 157.41C488.662 158.008 488.599 158.629 488.36 159.19C488.031 160.346 487.929 161.555 488.06 162.75C488.05 163.156 488.197 163.549 488.47 163.85C488.768 164.041 489.116 164.138 489.47 164.13C494.15 164.35 496.41 162.69 499.26 166.75C499.473 167.164 499.798 167.512 500.197 167.753C500.595 167.995 501.053 168.122 501.52 168.12C504.74 168.37 506.85 166.34 509.77 166C513.85 165.47 514.77 167.59 518.31 169.26C523.99 171.92 526.71 170.29 527.78 166.43Z" fill="#08B74F"/>
<path d="M584.19 107.04C584.471 105.943 584.638 104.821 584.69 103.69C585.1 96.75 591.69 97.86 597.34 96.92C601.74 96.19 590.1 85.08 598.96 81.49C600.691 81.0103 602.205 79.9514 603.25 78.49C603.691 77.3976 603.739 76.1858 603.385 75.0621C603.031 73.9383 602.297 72.9726 601.31 72.33C599.289 71.0897 596.949 70.4707 594.58 70.55C593.14 68.77 594.32 66.16 595.7 64.36C597.08 62.56 598.82 60.52 598.28 58.36C597.48 55.02 592.82 54.8 589.39 55.55C588.14 53.55 588.18 51.01 587.61 48.72C587.04 46.43 585.17 44 582.82 44.29C580.47 44.58 579.26 47.06 577.06 47.58C574.53 48.19 572.34 45.94 570.37 44.27C568.4 42.6 564.91 41.55 563.55 43.76C562.74 45.07 563.22 46.92 562.36 48.22C560.9 50.48 557.36 49.08 555.25 47.47C553.14 45.86 549.62 44.47 548.13 46.66C547.751 47.3906 547.469 48.167 547.29 48.97C546.29 51.92 543.06 53.4 540.57 55.3C538.08 57.2 536.1 60.98 538.22 63.3C539.22 64.44 541.08 64.9 541.6 66.36C542.24 68.14 540.39 69.81 538.91 71.06C536.46 73.14 536.01 79.38 539.25 81.06C540.62 81.77 542.61 81.99 542.95 83.48C543.29 84.97 541.88 85.87 540.95 86.92C539.907 88.2627 539.439 89.9644 539.649 91.6516C539.859 93.3389 540.729 94.874 542.07 95.92C542.339 96.1273 542.623 96.3145 542.92 96.48C543.69 96.85 544.7 97.15 544.92 97.97C545.042 98.5679 544.979 99.1888 544.74 99.75C544.424 100.878 544.315 102.054 544.42 103.22C544.44 103.621 544.591 104.004 544.85 104.31C545.15 104.496 545.497 104.593 545.85 104.59C550.53 104.8 552.77 103.15 555.64 107.21C555.889 107.631 556.231 107.99 556.64 108.26C557.041 108.45 557.476 108.559 557.92 108.58C561.14 108.84 563.26 106.8 566.17 106.46C570.25 105.94 571.17 108.04 574.71 109.73C580.39 112.52 583.13 110.88 584.19 107.04Z" fill="#08B74F"/>
<path d="M630.26 109.33C630.538 108.236 630.702 107.117 630.75 105.99C631.16 99.0699 637.75 100.17 643.4 99.2299C647.8 98.4799 636.16 87.3799 645.02 83.7999C646.75 83.318 648.263 82.2595 649.31 80.7999C649.759 79.7131 649.811 78.5028 649.456 77.3817C649.101 76.2606 648.362 75.3004 647.37 74.6699C645.362 73.41 643.018 72.7893 640.65 72.8899C639.2 71.1099 640.38 68.4699 641.77 66.6899C643.16 64.9099 644.88 62.8499 644.35 60.6299C643.55 57.2999 638.88 57.1799 635.45 57.8199C634.21 55.8199 634.24 53.2799 633.67 50.9799C633.1 48.6799 631.23 46.2899 628.89 46.5699C626.55 46.8499 625.33 49.3499 623.12 49.8599C620.59 50.4499 618.41 48.2099 616.43 46.5399C614.45 44.8699 610.97 43.8099 609.62 46.0199C608.8 47.3599 609.28 49.1899 608.43 50.4899C606.97 52.7499 603.43 51.3399 601.31 49.7599C599.19 48.1799 595.69 46.6999 594.19 48.9199C593.81 49.6489 593.531 50.426 593.36 51.2299C592.36 54.2299 589.12 55.6599 586.63 57.5699C584.14 59.4799 582.16 63.2399 584.28 65.5699C585.28 66.6999 587.15 67.1699 587.66 68.6299C588.3 70.4099 586.45 72.0799 584.98 73.3399C582.52 75.4199 582.08 81.6499 585.31 83.3399C586.68 84.0499 588.68 84.2799 589.01 85.7799C589.34 87.2799 587.95 88.1599 587.01 89.1899C585.968 90.5338 585.501 92.2362 585.713 93.9236C585.925 95.6109 586.798 97.1453 588.14 98.1899C588.401 98.4026 588.683 98.5901 588.98 98.7499C589.75 99.1299 590.76 99.4499 590.98 100.25C591.11 100.846 591.05 101.469 590.81 102.03C590.479 103.186 590.37 104.394 590.49 105.59C590.453 105.919 590.548 106.248 590.755 106.507C590.961 106.766 591.261 106.932 591.59 106.97C591.709 106.985 591.83 106.985 591.95 106.97C596.62 107.18 598.87 105.52 601.73 109.6C601.979 110.008 602.321 110.351 602.73 110.6C603.123 110.811 603.563 110.921 604.01 110.92C607.23 111.19 609.35 109.14 612.27 108.8C616.34 108.29 617.21 110.39 620.81 112.08C626.45 114.87 629.19 113.23 630.26 109.33Z" fill="#08B74F"/>
<path d="M658.22 128.23C658.498 127.139 658.672 126.024 658.74 124.9C659.15 117.96 665.74 119.07 671.39 118.12C675.78 117.39 664.15 106.29 673.01 102.7C674.735 102.22 676.243 101.16 677.28 99.6999C677.707 98.6045 677.742 97.3947 677.377 96.2769C677.012 95.159 676.271 94.2023 675.28 93.5699C673.252 92.329 670.906 91.7102 668.53 91.7899C667.09 90.0099 668.27 87.3999 669.67 85.5999C671.07 83.7999 672.79 81.7599 672.25 79.5499C671.45 76.2099 666.79 75.9899 663.36 76.7399C662.11 74.7399 662.13 72.1799 661.58 69.8899C661.03 67.5999 659.16 65.1899 656.79 65.4799C654.42 65.7699 653.23 68.2499 651.05 68.7699C648.52 69.3699 646.33 67.1299 644.34 65.4599C642.35 63.7899 638.89 62.7399 637.52 64.9399C636.71 66.2599 637.2 68.1099 636.35 69.4099C634.87 71.6699 631.35 70.2599 629.23 68.6599C627.11 67.0599 623.61 65.6599 622.12 67.8299C621.741 68.5674 621.459 69.3505 621.28 70.1599C620.28 73.1599 617.06 74.5899 614.57 76.4899C612.08 78.3899 610.11 82.1699 612.21 84.4899C613.21 85.6299 615.07 86.0899 615.59 87.5499C616.24 89.3299 614.38 90.9999 612.92 92.2499C610.46 94.3299 610.02 100.57 613.26 102.25C614.61 102.98 616.6 103.25 616.94 104.69C617.28 106.13 615.87 107.07 614.94 108.11C613.9 109.455 613.436 111.157 613.647 112.843C613.859 114.53 614.73 116.064 616.07 117.11C616.332 117.317 616.61 117.504 616.9 117.67C617.68 118.04 618.68 118.34 618.9 119.16C619.02 119.76 618.95 120.382 618.7 120.94C618.39 122.1 618.289 123.305 618.4 124.5C618.379 124.69 618.403 124.882 618.468 125.062C618.534 125.242 618.64 125.404 618.778 125.537C618.916 125.669 619.083 125.768 619.265 125.826C619.447 125.883 619.641 125.899 619.83 125.87C624.51 126.08 626.77 124.43 629.62 128.48C629.879 128.88 630.22 129.22 630.62 129.48C631.025 129.679 631.468 129.789 631.92 129.8C635.13 130.05 637.26 128.02 640.18 127.69C644.25 127.15 645.11 129.27 648.7 130.94C654.43 133.77 657.17 132.09 658.22 128.23Z" fill="#08B74F"/>
<path d="M649.74 152.03C649.74 152.03 638.05 168.56 634.01 173.77C629.97 178.98 609.8 211.7 607.01 233.32C606.7 235.63 606.42 237.61 606.13 239.32C614.82 296.59 613.46 515.25 613.13 533.19H577.61C584.37 398.81 583.13 214.19 582.25 208.52C581.35 202.52 569.8 179.79 552.1 170.45C534.4 161.11 519 130.17 519 130.17H524.66C524.66 130.17 535.16 149.17 550.09 159.63C552.231 161.112 554.47 162.448 556.79 163.63C556.757 152.22 558.773 140.897 562.74 130.2L565.8 133.03C561.67 149.91 562.24 160.73 563.47 166.94C569.103 169.588 574.302 173.074 578.89 177.28C594.39 157.14 603.09 111.09 603.09 111.09L607.09 113.26C605.952 122.768 604.239 132.199 601.96 141.5C599.06 153.42 590.52 175.85 586.55 185.98C591.305 192.824 595.229 200.209 598.24 207.98C598.668 207.329 599.171 206.732 599.74 206.2C609.83 197.07 628.79 153.98 628.79 153.98C633.38 143.98 626.37 117.67 626.37 117.67H631.71L634.08 140.67L647.32 126.13L649.74 128.13L635.63 146.27L628.36 169.27L647.36 148.48L649.74 152.03Z" fill="#834701"/>
<path d="M114.58 184.86C114.32 183.834 114.16 182.786 114.1 181.73C113.73 175.2 107.48 176.23 102.18 175.34C98.05 174.65 109.01 164.19 100.67 160.82C99.0589 160.359 97.6499 159.369 96.67 158.01C96.2496 156.987 96.1973 155.849 96.5219 154.791C96.8465 153.734 97.5279 152.821 98.45 152.21C100.361 151.059 102.573 150.509 104.8 150.63C106.15 148.97 105.05 146.48 103.73 144.79C102.41 143.1 100.8 141.23 101.3 139.08C102.06 135.93 106.46 135.83 109.64 136.45C110.81 134.54 110.78 132.16 111.42 129.99C112.06 127.82 113.71 125.56 115.94 125.84C118.17 126.12 119.3 128.46 121.28 128.94C123.66 129.49 125.72 127.39 127.59 125.81C129.46 124.23 132.72 123.25 134.01 125.33C134.78 126.57 134.32 128.33 135.12 129.53C136.51 131.66 139.8 130.35 141.84 128.83C143.88 127.31 147.18 125.97 148.57 128.05C148.93 128.742 149.199 129.478 149.37 130.24C150.37 133.03 153.37 134.42 155.69 136.24C158.01 138.06 159.9 141.58 157.91 143.76C156.91 144.85 155.2 145.28 154.72 146.65C154.1 148.43 155.86 149.9 157.25 151.08C159.55 153.08 159.97 158.92 156.93 160.52C155.65 161.2 153.76 161.4 153.37 162.82C152.98 164.24 154.37 165.06 155.15 166.04C155.644 166.654 156.012 167.36 156.234 168.117C156.455 168.874 156.525 169.667 156.439 170.451C156.354 171.234 156.115 171.994 155.736 172.685C155.357 173.377 154.845 173.986 154.23 174.48L154.15 174.54C153.907 174.737 153.646 174.911 153.37 175.06C152.64 175.42 151.74 175.7 151.47 176.47C151.338 177.067 151.401 177.691 151.65 178.25C151.939 179.307 152.04 180.407 151.95 181.5C151.938 181.872 151.792 182.227 151.54 182.5C151.254 182.716 150.896 182.813 150.54 182.77C146.13 182.97 144.01 181.42 141.32 185.24C141.09 185.636 140.776 185.977 140.4 186.24C140.024 186.428 139.611 186.531 139.19 186.54C136.19 186.79 134.19 184.91 131.41 184.54C127.57 184.04 126.75 186.04 123.41 187.62C118.16 190.04 115.58 188.49 114.58 184.86Z" fill="#08B74F"/>
<path d="M165.32 179.38C165.049 178.35 164.891 177.294 164.85 176.23C164.46 169.72 158.23 170.75 152.93 169.86C148.79 169.17 159.75 158.71 151.4 155.33C149.791 154.87 148.383 153.884 147.4 152.53C146.98 151.507 146.927 150.369 147.252 149.311C147.576 148.254 148.258 147.341 149.18 146.73C151.088 145.581 153.296 145.03 155.52 145.15C156.89 143.49 155.77 141 154.45 139.31C153.13 137.62 151.51 135.75 152.01 133.6C152.78 130.45 157.17 130.35 160.36 130.95C161.53 129.06 161.51 126.68 162.14 124.51C162.77 122.34 164.41 120.08 166.64 120.35C168.87 120.62 170 122.96 171.97 123.46C174.36 124.01 176.42 121.91 178.29 120.33C180.16 118.75 183.43 117.77 184.71 119.85C185.48 121.09 185.02 122.85 185.82 124.05C187.2 126.18 190.5 124.87 192.54 123.35C194.58 121.83 197.88 120.49 199.27 122.57C199.63 123.262 199.899 123.998 200.07 124.76C201.07 127.53 204.07 128.94 206.38 130.76C208.69 132.58 210.6 136.1 208.61 138.29C207.61 139.37 205.9 139.8 205.42 141.17C204.82 142.95 206.56 144.42 207.95 145.6C210.26 147.6 210.67 153.43 207.63 155.04C206.35 155.72 204.46 155.92 204.16 157.34C203.86 158.76 205.16 159.58 205.94 160.56C206.932 161.821 207.384 163.423 207.197 165.017C207.01 166.61 206.198 168.064 204.94 169.06C204.693 169.251 204.432 169.425 204.16 169.58C203.43 169.94 202.54 170.22 202.27 170.99C202.141 171.586 202.197 172.207 202.43 172.77C202.737 173.824 202.843 174.927 202.74 176.02C202.732 176.393 202.586 176.749 202.33 177.02C202.035 177.218 201.684 177.313 201.33 177.29C196.93 177.49 194.8 175.94 192.11 179.76C191.874 180.152 191.561 180.493 191.19 180.76C190.816 180.954 190.401 181.057 189.98 181.06C186.98 181.31 184.98 179.43 182.2 179.06C178.36 178.56 177.56 180.56 174.2 182.14C168.88 184.56 166.37 183.01 165.32 179.38Z" fill="#08B74F"/>
<path d="M170.2 147.07C169.93 146.046 169.769 144.997 169.72 143.94C169.34 137.41 163.1 138.44 157.8 137.55C153.67 136.86 164.63 126.4 156.29 123.03C154.679 122.569 153.27 121.579 152.29 120.22C151.864 119.197 151.808 118.058 152.133 116.999C152.458 115.94 153.143 115.027 154.07 114.42C155.984 113.278 158.194 112.729 160.42 112.84C161.77 111.18 160.67 108.69 159.35 107C158.03 105.31 156.41 103.44 156.91 101.29C157.68 98.1599 162.07 98.0399 165.26 98.6599C166.43 96.7499 166.4 94.3698 167.04 92.1998C167.68 90.0298 169.33 87.7699 171.56 88.0499C173.79 88.3299 174.92 90.6699 176.89 91.1499C179.28 91.6999 181.34 89.5999 183.21 88.0199C185.08 86.4399 188.33 85.4599 189.63 87.5399C190.4 88.7799 189.93 90.5399 190.73 91.7399C192.12 93.8699 195.41 92.5599 197.46 91.0399C199.51 89.5199 202.8 88.1799 204.19 90.2599C204.54 90.9565 204.809 91.6914 204.99 92.4498C205.99 95.2398 208.99 96.6298 211.3 98.4498C213.61 100.27 215.52 103.79 213.53 105.98C212.53 107.06 210.82 107.49 210.34 108.86C209.74 110.64 211.48 112.11 212.87 113.29C215.18 115.29 215.59 121.13 212.55 122.74C211.27 123.41 209.38 123.61 208.99 125.03C208.6 126.45 209.99 127.27 210.77 128.25C211.766 129.513 212.22 131.119 212.033 132.717C211.845 134.314 211.031 135.772 209.77 136.77C209.53 136.951 209.28 137.118 209.02 137.27C208.29 137.63 207.4 137.91 207.12 138.68C206.99 139.276 207.049 139.899 207.29 140.46C207.588 141.523 207.693 142.63 207.6 143.73C207.592 144.103 207.446 144.459 207.19 144.73C206.904 144.946 206.546 145.043 206.19 145C201.77 145.2 199.66 143.65 196.97 147.47C196.739 147.869 196.421 148.211 196.04 148.47C195.664 148.658 195.251 148.761 194.83 148.77C191.83 149.02 189.83 147.14 187.06 146.77C183.22 146.29 182.4 148.27 179.06 149.85C173.77 152.25 171.2 150.7 170.2 147.07Z" fill="#08B74F"/>
<path d="M203.61 163.17C203.352 162.138 203.198 161.083 203.15 160.02C202.76 153.49 196.53 154.52 191.23 153.65C187.08 152.96 198.04 142.5 189.7 139.12C188.082 138.672 186.669 137.68 185.7 136.31C185.274 135.289 185.219 134.151 185.544 133.094C185.869 132.036 186.554 131.126 187.48 130.52C189.388 129.379 191.589 128.823 193.81 128.92C195.18 127.27 194.06 124.78 192.74 123.09C191.42 121.4 189.81 119.53 190.32 117.39C191.07 114.24 195.47 114.14 198.65 114.74C199.82 112.84 199.81 110.45 200.43 108.3C201.05 106.15 202.71 103.87 204.93 104.14C207.15 104.41 208.32 106.77 210.32 107.23C212.68 107.8 214.75 105.69 216.62 104.12C218.49 102.55 221.76 101.54 223.04 103.62C223.8 104.87 223.34 106.62 224.14 107.84C225.53 109.96 228.82 108.64 230.87 107.15C232.92 105.66 236.2 104.26 237.59 106.36C237.96 107.041 238.23 107.772 238.39 108.53C239.39 111.33 242.39 112.71 244.73 114.53C247.07 116.35 248.93 119.87 246.93 122.06C245.93 123.12 244.23 123.57 243.75 124.94C243.14 126.72 244.89 128.18 246.27 129.37C248.59 131.37 249 137.2 245.95 138.8C244.67 139.47 242.79 139.69 242.49 141.09C242.19 142.49 243.49 143.34 244.26 144.31C245.26 145.575 245.716 147.186 245.528 148.787C245.341 150.389 244.525 151.85 243.26 152.85C243.031 153.034 242.787 153.198 242.53 153.34C241.78 153.68 240.89 153.97 240.62 154.73C240.491 155.326 240.547 155.947 240.78 156.51C241.084 157.572 241.186 158.681 241.08 159.78C241.079 160.15 240.94 160.507 240.69 160.78C240.393 160.972 240.043 161.066 239.69 161.05C235.3 161.25 233.16 159.68 230.48 163.52C230.249 163.919 229.931 164.261 229.55 164.52C229.173 164.707 228.76 164.813 228.34 164.83C225.34 165.07 223.34 163.17 220.57 162.83C216.72 162.33 215.92 164.31 212.57 165.91C207.32 168.33 204.63 166.77 203.61 163.17Z" fill="#08B74F"/>
<path d="M237.4 155.77C237.12 154.745 236.959 153.692 236.92 152.63C236.53 146.1 230.3 147.15 225 146.26C220.85 145.56 231.83 135.1 223.47 131.72C221.853 131.272 220.44 130.28 219.47 128.91C219.047 127.89 218.993 126.755 219.318 125.699C219.643 124.644 220.326 123.735 221.25 123.13C223.155 121.982 225.359 121.428 227.58 121.54C228.95 119.89 227.85 117.4 226.53 115.71C225.21 114.02 223.59 112.15 224.09 110C224.84 106.85 229.23 106.74 232.42 107.35C233.59 105.44 233.57 103.08 234.2 100.9C234.83 98.7201 236.49 96.4701 238.7 96.7401C240.91 97.0101 242.08 99.3601 244.13 99.8601C246.51 100.41 248.56 98.3101 250.42 96.7201C252.28 95.1301 255.57 94.1601 256.85 96.2401C257.63 97.4901 257.17 99.2401 257.97 100.44C259.35 102.58 262.65 101.26 264.67 99.7501C266.69 98.2401 270.01 96.8701 271.42 98.9701C271.774 99.6595 272.036 100.392 272.2 101.15C273.2 103.93 276.2 105.32 278.53 107.15C280.86 108.98 282.73 112.49 280.76 114.68C279.76 115.75 278.05 116.19 277.56 117.56C276.95 119.34 278.71 120.82 280.08 121.99C282.4 123.99 282.82 129.82 279.76 131.44C278.48 132.1 276.61 132.31 276.2 133.73C275.79 135.15 277.2 135.98 277.98 136.94C278.479 137.561 278.849 138.275 279.07 139.041C279.29 139.807 279.355 140.608 279.262 141.4C279.169 142.191 278.919 142.956 278.527 143.649C278.136 144.343 277.61 144.952 276.98 145.44C276.735 145.63 276.478 145.804 276.21 145.96C275.48 146.29 274.58 146.6 274.31 147.36C274.189 147.928 274.252 148.52 274.49 149.05C274.778 150.115 274.873 151.222 274.77 152.32C274.77 152.69 274.631 153.047 274.38 153.32C274.084 153.514 273.733 153.605 273.38 153.58C268.99 153.78 266.85 152.23 264.17 156.06C263.943 156.456 263.633 156.797 263.26 157.06C262.877 157.249 262.457 157.352 262.03 157.36C259.03 157.61 257.03 155.72 254.27 155.36C250.43 154.87 249.61 156.86 246.27 158.44C240.97 160.93 238.39 159.36 237.4 155.77Z" fill="#08B74F"/>
<path d="M237.82 191.87C237.647 191.058 237.553 190.23 237.54 189.4C237.24 184.27 232.34 185.07 228.16 184.4C224.91 183.87 233.5 175.63 226.95 172.96C225.673 172.61 224.556 171.83 223.79 170.75C223.46 169.943 223.424 169.046 223.687 168.214C223.95 167.383 224.496 166.67 225.23 166.2C226.732 165.285 228.474 164.843 230.23 164.93C231.3 163.64 230.43 161.68 229.39 160.34C228.35 159 227.08 157.5 227.47 155.86C228.08 153.37 231.53 153.28 234.04 153.78C234.733 152.157 235.187 150.443 235.39 148.69C235.85 147 237.17 145.13 238.95 145.42C240.73 145.71 241.6 147.48 243.22 147.85C244.84 148.22 246.78 146.64 248.22 145.4C249.66 144.16 252.22 143.4 253.27 145.03C253.88 146.03 253.52 147.37 254.15 148.34C255.23 150.01 257.83 148.98 259.48 147.78C261.13 146.58 263.66 145.52 264.82 147.16C265.111 147.721 265.319 148.32 265.44 148.94C266.21 151.13 268.59 152.23 270.44 153.64C272.29 155.05 273.76 157.85 272.21 159.56C271.43 160.42 270.08 160.75 269.71 161.84C269.34 162.93 270.6 164.4 271.71 165.4C273.49 166.95 273.86 171.57 271.46 172.83C270.46 173.35 268.97 173.53 268.72 174.61C268.47 175.69 269.52 176.39 270.18 177.16C270.936 178.153 271.269 179.404 271.108 180.642C270.947 181.879 270.305 183.003 269.32 183.77C269.11 183.941 268.882 184.088 268.64 184.21C268.07 184.5 267.36 184.71 267.15 185.32C267.05 185.773 267.099 186.247 267.29 186.67C267.521 187.502 267.599 188.37 267.52 189.23C267.522 189.534 267.407 189.828 267.2 190.05C266.975 190.198 266.709 190.271 266.44 190.26C262.88 190.41 261.29 189.18 259.18 192.2C259.003 192.506 258.761 192.769 258.47 192.97C258.16 193.128 257.818 193.213 257.47 193.22C255.09 193.41 253.47 191.92 251.35 191.63C248.35 191.26 247.69 192.81 245.02 194.07C240.65 195.93 238.63 194.77 237.82 191.87Z" fill="#08B74F"/>
<path d="M256.76 179.38C256.492 178.349 256.328 177.294 256.27 176.23C255.9 169.72 249.66 170.75 244.35 169.86C240.23 169.17 251.19 158.71 242.84 155.33C241.231 154.87 239.823 153.884 238.84 152.53C238.42 151.507 238.367 150.369 238.692 149.311C239.016 148.254 239.698 147.341 240.62 146.73C242.531 145.579 244.743 145.029 246.97 145.15C248.33 143.49 247.22 141 245.91 139.31C244.6 137.62 242.97 135.75 243.47 133.6C244.23 130.45 248.63 130.35 251.81 130.95C252.99 129.06 252.95 126.68 253.59 124.51C254.23 122.34 255.89 120.08 258.11 120.35C260.33 120.62 261.47 122.96 263.45 123.46C265.83 124.01 267.9 121.91 269.77 120.33C271.64 118.75 274.89 117.77 276.19 119.85C276.95 121.09 276.49 122.85 277.29 124.05C278.68 126.18 281.97 124.87 284.02 123.35C286.07 121.83 289.35 120.49 290.74 122.57C291.1 123.262 291.369 123.998 291.54 124.76C292.54 127.53 295.54 128.94 297.86 130.76C300.18 132.58 302.07 136.1 300.08 138.29C299.08 139.37 297.38 139.8 296.9 141.17C296.29 142.95 298.04 144.42 299.42 145.6C301.74 147.6 302.15 153.43 299.1 155.04C297.82 155.72 295.94 155.92 295.55 157.34C295.16 158.76 296.55 159.58 297.41 160.56C298.393 161.833 298.83 163.445 298.626 165.04C298.422 166.636 297.592 168.085 296.32 169.07C296.077 169.26 295.82 169.431 295.55 169.58C294.82 169.94 293.93 170.22 293.64 170.99C293.508 171.587 293.571 172.211 293.82 172.77C294.119 173.826 294.22 174.927 294.12 176.02C294.136 176.203 294.109 176.387 294.041 176.558C293.974 176.729 293.867 176.882 293.731 177.005C293.594 177.129 293.431 177.218 293.254 177.268C293.077 177.317 292.89 177.325 292.71 177.29C288.3 177.49 286.18 175.94 283.5 179.76C283.261 180.153 282.944 180.493 282.57 180.76C282.194 180.948 281.781 181.051 281.36 181.06C278.36 181.31 276.36 179.43 273.59 179.06C269.74 178.56 268.92 180.56 265.59 182.14C260.32 184.56 257.75 183.01 256.76 179.38Z" fill="#08B74F"/>
<path d="M203.61 123.42C203.352 122.391 203.198 121.339 203.15 120.28C202.76 113.76 196.53 114.8 191.23 113.91C187.08 113.21 198.04 102.75 189.7 99.37C188.088 98.9209 186.678 97.9369 185.7 96.58C185.273 95.5574 185.218 94.4179 185.543 93.3588C185.868 92.2996 186.553 91.3874 187.48 90.78C189.382 89.627 191.588 89.073 193.81 89.19C195.18 87.54 194.06 85.05 192.74 83.36C191.42 81.67 189.81 79.8 190.32 77.65C191.07 74.5 195.47 74.39 198.65 75C199.82 73.11 199.81 70.73 200.43 68.56C201.05 66.39 202.71 64.12 204.93 64.41C207.15 64.7 208.29 67.02 210.27 67.51C212.63 68.06 214.7 65.96 216.57 64.37C218.44 62.78 221.71 61.81 222.99 63.89C223.75 65.14 223.29 66.89 224.09 68.09C225.48 70.23 228.77 68.91 230.82 67.4C232.87 65.89 236.15 64.53 237.54 66.62C237.898 67.297 238.16 68.0206 238.32 68.77C239.32 71.57 242.32 72.96 244.66 74.77C247 76.58 248.86 80.11 246.86 82.3C245.86 83.39 244.16 83.81 243.68 85.18C243.07 86.96 244.82 88.44 246.2 89.61C248.52 91.61 248.93 97.44 245.88 99.06C244.6 99.74 242.72 99.93 242.42 101.36C242.12 102.79 243.42 103.6 244.19 104.58C245.182 105.841 245.634 107.443 245.447 109.037C245.259 110.63 244.448 112.084 243.19 113.08C242.958 113.27 242.71 113.441 242.45 113.59C241.7 113.94 240.81 114.23 240.54 114.99C240.411 115.586 240.467 116.207 240.7 116.77C241.047 117.813 241.193 118.912 241.13 120.01C241.169 120.316 241.087 120.626 240.899 120.871C240.712 121.116 240.435 121.278 240.13 121.32C240.01 121.335 239.889 121.335 239.77 121.32C235.37 121.51 233.24 119.97 230.55 123.79C230.324 124.189 230.009 124.531 229.63 124.79C229.254 124.978 228.84 125.081 228.42 125.09C225.42 125.34 223.42 123.45 220.64 123.09C216.8 122.59 216 124.58 212.64 126.17C207.32 128.6 204.63 127.13 203.61 123.42Z" fill="#08B74F"/>
<path d="M160.24 125.65C159.96 124.622 159.799 123.565 159.76 122.5C159.36 115.97 153.14 117 147.83 116.13C143.69 115.44 154.67 104.97 146.3 101.59C144.682 101.142 143.269 100.15 142.3 98.7799C141.879 97.7597 141.826 96.6248 142.151 95.57C142.476 94.5153 143.158 93.6065 144.08 92.9999C145.987 91.8508 148.196 91.3004 150.42 91.4199C151.79 89.7399 150.68 87.2499 149.42 85.5599C148.16 83.8699 146.48 82.0099 146.98 79.8699C147.73 76.7199 152.14 76.6099 155.31 77.2199C156.48 75.3199 156.46 72.9499 157.09 70.7799C157.72 68.6099 159.38 66.3499 161.59 66.6199C163.8 66.8899 164.97 69.2299 166.92 69.7099C169.31 70.2799 171.37 68.1799 173.24 66.5999C175.11 65.0199 178.36 64.0399 179.64 66.1199C180.43 67.3599 179.97 69.1199 180.77 70.3199C182.15 72.4499 185.44 71.1199 187.47 69.6199C189.5 68.1199 192.81 66.7399 194.22 68.8399C194.578 69.531 194.841 70.2678 195 71.0299C196 73.7999 199 75.1899 201.33 77.0299C203.66 78.8699 205.53 82.3699 203.56 84.5499C202.56 85.6199 200.85 86.0699 200.35 87.4399C199.75 89.2199 201.51 90.6899 202.9 91.8699C205.19 93.8699 205.62 99.6899 202.56 101.3C201.28 101.97 199.41 102.19 199 103.59C198.59 104.99 200 105.85 200.78 106.81C201.775 108.071 202.229 109.676 202.042 111.272C201.854 112.868 201.04 114.324 199.78 115.32C199.537 115.514 199.28 115.688 199.01 115.84C198.28 116.18 197.38 116.48 197.11 117.25C196.988 117.818 197.051 118.41 197.29 118.94C197.578 120.004 197.672 121.112 197.57 122.21C197.569 122.58 197.43 122.937 197.18 123.21C196.884 123.406 196.533 123.501 196.18 123.48C191.77 123.67 189.65 122.11 186.95 125.95C186.726 126.348 186.415 126.69 186.04 126.95C185.663 127.138 185.25 127.241 184.83 127.25C181.83 127.5 179.83 125.6 177.05 125.25C173.21 124.75 172.39 126.73 169.05 128.33C163.81 130.77 161.23 129.28 160.24 125.65Z" fill="#08B74F"/>
<path d="M133.87 143.4C133.607 142.372 133.453 141.32 133.41 140.26C133.01 133.73 126.79 134.76 121.49 133.89C117.34 133.19 128.3 122.73 119.96 119.35C118.342 118.902 116.929 117.91 115.96 116.54C115.535 115.52 115.48 114.384 115.805 113.328C116.13 112.273 116.815 111.364 117.74 110.76C119.646 109.608 121.855 109.054 124.08 109.17C125.45 107.5 124.33 105.01 123.01 103.32C121.69 101.63 120.09 99.7599 120.59 97.6299C121.34 94.4799 125.73 94.37 128.92 94.98C130.09 93.07 130.07 90.7099 130.7 88.5399C131.33 86.3699 132.97 84.11 135.2 84.37C137.43 84.63 138.56 86.9899 140.53 87.4699C142.9 88.0399 144.96 85.9399 146.83 84.3499C148.7 82.7599 151.97 81.79 153.26 83.87C154.02 85.12 153.56 86.8699 154.36 88.0699C155.75 90.2099 159.04 88.8699 161.08 87.3799C163.12 85.8899 166.42 84.4999 167.83 86.5999C168.184 87.2894 168.446 88.0223 168.61 88.7799C169.61 91.5599 172.61 92.9499 174.94 94.7799C177.27 96.6099 179.14 100.12 177.15 102.31C176.15 103.38 174.45 103.82 173.96 105.19C173.36 106.97 175.1 108.45 176.49 109.62C178.8 111.62 179.21 117.45 176.17 119.05C174.89 119.73 173 119.94 172.61 121.35C172.22 122.76 173.61 123.61 174.39 124.57C175.387 125.836 175.842 127.446 175.654 129.047C175.467 130.647 174.652 132.108 173.39 133.11C173.155 133.294 172.908 133.461 172.65 133.61C171.91 133.94 171.02 134.25 170.75 135.01C170.616 135.605 170.672 136.228 170.91 136.79C171.214 137.851 171.316 138.961 171.21 140.06C171.209 140.43 171.07 140.787 170.82 141.06C170.52 141.245 170.172 141.335 169.82 141.32C165.43 141.52 163.29 139.95 160.61 143.8C160.383 144.196 160.072 144.537 159.7 144.8C159.317 144.992 158.897 145.098 158.47 145.11C155.47 145.36 153.47 143.45 150.7 143.11C146.85 142.62 146.05 144.59 142.7 146.19C137.46 148.56 134.88 147.03 133.87 143.4Z" fill="#08B74F"/>
<path d="M141.87 165.84C141.87 165.84 152.87 181.43 156.69 186.37C160.51 191.31 179.49 222.1 182.08 242.45C182.35 244.62 182.62 246.52 182.88 248.13C174.72 302.13 176 520 176.28 536.89H212.86C208.86 369.96 204.63 224.45 205.43 219.13C206.3 213.5 217.12 192.06 233.89 183.26C250.66 174.46 265.06 145.33 265.06 145.33H259.73C259.73 145.33 249.83 163.12 235.73 173.06C233.706 174.459 231.587 175.715 229.39 176.82C229.44 166.073 227.549 155.405 223.81 145.33L220.93 147.98C224.82 163.9 224.31 174.08 223.13 179.98C217.828 182.49 212.939 185.791 208.63 189.77C194.06 170.77 185.86 127.5 185.86 127.5L182.12 129.55C183.18 138.537 184.789 147.45 186.94 156.24C189.66 167.46 197.62 188.6 201.46 198.24C196.99 204.672 193.298 211.61 190.46 218.91C190.065 218.288 189.591 217.719 189.05 217.22C179.55 208.63 161.69 168.04 161.69 168.04C157.32 158.55 163.95 133.77 163.95 133.77H158.95L156.73 155.42L144.32 141.77L142.04 143.67L155.32 160.77L162.04 182.3L144.22 162.51L141.87 165.84Z" fill="#834701"/>
<path d="M710 389.34H72.3096V410.96H710V389.34Z" fill="#E0E0E0"/>
<path d="M695 523.58H725.03V333.97L710.02 323.3L695 333.97V523.58Z" fill="#E6E6E6"/>
<path d="M641.86 523.58H671.89V333.97L656.87 323.3L641.86 333.97V523.58Z" fill="#E6E6E6"/>
<path d="M588.71 523.58H618.74V333.97L603.73 323.3L588.71 333.97V523.58Z" fill="#E6E6E6"/>
<path d="M535.57 523.58H565.6V333.97L550.58 323.3L535.57 333.97V523.58Z" fill="#E6E6E6"/>
<path d="M482.43 523.58H512.46V333.97L497.44 323.3L482.43 333.97V523.58Z" fill="#E6E6E6"/>
<path d="M429.28 523.58H459.31V333.97L444.3 323.3L429.28 333.97V523.58Z" fill="#E6E6E6"/>
<path d="M376.15 523.58H406.19V333.97L391.17 323.3L376.15 333.97V523.58Z" fill="#E6E6E6"/>
<path d="M323.01 523.58H353.04V333.97L338.03 323.3L323.01 333.97V523.58Z" fill="#E6E6E6"/>
<path d="M269.87 523.58H299.9V333.97L284.88 323.3L269.87 333.97V523.58Z" fill="#E6E6E6"/>
<path d="M216.72 523.58H246.76V333.97L231.74 323.3L216.72 333.97V523.58Z" fill="#E6E6E6"/>
<path d="M163.6 523.58H193.61V333.97L178.6 323.3L163.6 333.97V523.58Z" fill="#E6E6E6"/>
<path d="M110.45 523.58H140.49V333.97L125.47 323.3L110.45 333.97V523.58Z" fill="#E6E6E6"/>
<path d="M57.3096 523.58H87.3396V333.97L72.3296 323.3L57.3096 333.97V523.58Z" fill="#E6E6E6"/>
<path d="M80.1397 525.66C80.1397 525.66 75.1397 509.01 85.2297 505.66C95.3197 502.31 101.23 494.56 100.92 485.75C100.61 476.94 111.17 468.37 119.1 476.62C127.03 484.87 125.99 470.27 136.57 466.73C147.15 463.19 156.14 471.73 153.23 479.66C150.32 487.59 160.77 492.46 173.32 485.77C185.87 479.08 199.59 491.25 196.94 500.77C194.29 510.29 196.46 511.35 204.38 508.17C212.3 504.99 226.44 513.99 221.48 525.64C216.52 537.29 80.1397 525.66 80.1397 525.66Z" fill="#E0E0E0"/>
<path d="M614.47 523.26C614.47 523.26 610.63 510.32 618.47 507.74C626.31 505.16 630.93 499.13 630.66 492.28C630.39 485.43 638.66 478.8 644.77 485.16C650.88 491.52 650.11 480.24 658.33 477.48C666.55 474.72 673.52 481.41 671.26 487.48C669 493.55 677.12 497.39 686.83 492.2C696.54 487.01 707.22 496.47 705.17 503.85C703.12 511.23 704.8 512.07 710.94 509.6C717.08 507.13 728.07 514.13 724.23 523.17C720.39 532.21 614.47 523.26 614.47 523.26Z" fill="#E0E0E0"/>
<path d="M421.32 524.77C412.42 515.87 420.43 500.77 429.32 498.97C438.21 497.17 447.11 481.53 447.58 471.57C448.05 461.61 464.02 430.95 488.92 449.88C513.82 468.81 506.32 452.68 524.32 447.38C542.32 442.08 553.71 457.38 545.79 468.83C545.79 468.83 563.9 464.3 571.36 481.2C578.82 498.1 571.36 508.6 571.36 508.6C571.36 508.6 605.36 507.6 602.36 528.6C599.36 549.6 421.32 524.77 421.32 524.77Z" fill="#E0E0E0"/>
<path d="M737.74 525.32V549.7H50.9798V525.32C50.8762 523.399 51.5394 521.515 52.8238 520.082C54.1082 518.65 55.9087 517.786 57.8298 517.68H730.55C731.503 517.688 732.446 517.883 733.323 518.255C734.201 518.628 734.997 519.169 735.666 519.849C736.334 520.528 736.863 521.333 737.22 522.217C737.578 523.101 737.758 524.047 737.75 525C737.74 525.1 737.74 525.21 737.74 525.32Z" fill="#EBEBEB"/>
<path d="M132.82 517.67H90.1196V549.69H132.82V517.67Z" fill="#F5F5F5"/>
<path d="M212.88 517.67H171.96V549.69H212.88V517.67Z" fill="#F5F5F5"/>
<path d="M294.72 517.67H252.02V549.69H294.72V517.67Z" fill="#F5F5F5"/>
<path d="M374.78 517.67H333.86V549.69H374.78V517.67Z" fill="#F5F5F5"/>
<path d="M454.85 517.67H413.93V549.69H454.85V517.67Z" fill="#F5F5F5"/>
<path d="M536.69 517.67H493.99V549.69H536.69V517.67Z" fill="#F5F5F5"/>
<path d="M616.75 517.67H575.83V549.69H616.75V517.67Z" fill="#F5F5F5"/>
<path d="M698.59 517.67H655.89V549.69H698.59V517.67Z" fill="#F5F5F5"/>
<path d="M718.91 425.78H658.81V467.79H718.91V425.78Z" fill="#2F2E41"/>
<path d="M639.49 416.26V611.41H722.49V416.26H639.49ZM713.41 455.51H687.03V439.6C687.029 438.718 687.202 437.845 687.538 437.031C687.875 436.216 688.369 435.476 688.993 434.852C689.616 434.229 690.356 433.735 691.171 433.398C691.986 433.061 692.859 432.889 693.74 432.89H706.74C708.517 432.895 710.22 433.604 711.476 434.862C712.731 436.119 713.438 437.823 713.44 439.6L713.41 455.51Z" fill="#08B74F"/>
<path opacity="0.6" d="M639.49 416.26V611.41H722.49V416.26H639.49ZM713.41 455.51H687.03V439.6C687.029 438.718 687.202 437.845 687.538 437.031C687.875 436.216 688.369 435.476 688.993 434.852C689.616 434.229 690.356 433.735 691.171 433.398C691.986 433.061 692.859 432.889 693.74 432.89H706.74C708.517 432.895 710.22 433.604 711.476 434.862C712.731 436.119 713.438 437.823 713.44 439.6L713.41 455.51Z" fill="white"/>
<path opacity="0.4" d="M675.07 416.26H639.49V611.43H675.07V416.26Z" fill="white"/>
<path d="M724.4 409.25H637.35V422.1H724.4V409.25Z" fill="#08B74F"/>
<path opacity="0.2" d="M677.52 409.25H637.35V422.1H677.52V409.25Z" fill="white"/>
<path d="M40.32 548.08C40.32 548.08 51.22 524.31 38.77 500.86C26.32 477.41 22.77 471.86 30.64 467.06C38.51 462.26 42.25 485.77 42.25 485.77C42.25 485.77 48.94 469.56 43.43 452.61C37.92 435.66 34.43 408.02 41.97 405.07C49.51 402.12 43.41 439.53 49.97 452.29C53.2989 443.329 55.4502 433.975 56.37 424.46C57.28 410.83 55.87 389.09 61.83 383.54C67.79 377.99 71.6 381.76 65.75 411.88C62.2286 429.843 60.2813 448.079 59.93 466.38C59.93 466.38 72.83 426.97 81.55 425.79C90.27 424.61 90.21 437.41 82.79 448.5C75.37 459.59 61.03 479.42 58.68 489.63C58.68 489.63 72.92 459.95 85.68 469.05C98.44 478.15 74.68 496.05 63.97 502.55C53.26 509.05 45.97 549.62 45.97 549.62L40.32 548.08Z" fill="#08B74F"/>
<path opacity="0.2" d="M40.32 548.08C40.32 548.08 51.22 524.31 38.77 500.86C26.32 477.41 22.77 471.86 30.64 467.06C38.51 462.26 42.25 485.77 42.25 485.77C42.25 485.77 48.94 469.56 43.43 452.61C37.92 435.66 34.43 408.02 41.97 405.07C49.51 402.12 43.41 439.53 49.97 452.29C53.2989 443.329 55.4502 433.975 56.37 424.46C57.28 410.83 55.87 389.09 61.83 383.54C67.79 377.99 71.6 381.76 65.75 411.88C62.2286 429.843 60.2813 448.079 59.93 466.38C59.93 466.38 72.83 426.97 81.55 425.79C90.27 424.61 90.21 437.41 82.79 448.5C75.37 459.59 61.03 479.42 58.68 489.63C58.68 489.63 72.92 459.95 85.68 469.05C98.44 478.15 74.68 496.05 63.97 502.55C53.26 509.05 45.97 549.62 45.97 549.62L40.32 548.08Z" fill="black"/>
<path d="M48.9598 557.85C48.9598 557.85 38.2798 533.85 51.0798 510.65C63.8798 487.45 67.4798 481.93 59.5998 477C51.7198 472.07 47.7998 495.58 47.7998 495.58C47.7998 495.58 41.3098 479.28 47.0398 462.4C52.7698 445.52 56.5598 417.92 49.0398 414.87C41.5198 411.82 47.3198 449.32 40.4898 461.97C37.2705 452.992 35.2301 443.633 34.4198 434.13C33.6798 420.5 35.3498 398.76 29.4198 393.13C23.4898 387.5 19.6698 391.35 25.1698 421.42C28.4682 439.422 30.1914 457.678 30.3198 475.98C30.3198 475.98 17.8598 436.36 9.17978 435.06C0.499782 433.76 0.319783 446.53 7.71978 457.77C15.1198 469.01 29.0698 488.96 31.3198 499.21C31.3198 499.21 17.4698 469.32 4.62978 478.21C-8.21022 487.1 15.4098 505.4 25.9798 512.02C36.5498 518.64 43.4498 559.36 43.4498 559.36L48.9598 557.85Z" fill="#08B74F"/>
<path d="M0 540.77H87.67L80.58 603.52H7.1L0 540.77Z" fill="#2F2E41"/>
<path d="M428.73 590.87H437.02L456 473.66L424.71 292.63H417.06L442.12 476.1L428.73 590.87Z" fill="#A7A9AC"/>
<path d="M548.98 477.07L562.65 590.87H554.35L535.67 477.07H548.98Z" fill="#A7A9AC"/>
<path d="M468.1 523.77H468.32C469.639 523.372 470.91 522.828 472.11 522.15C473.059 521.738 473.812 520.975 474.21 520.02C474.31 519.661 474.304 519.281 474.192 518.926C474.08 518.571 473.867 518.256 473.58 518.02C473.423 517.849 473.229 517.717 473.011 517.635C472.794 517.553 472.561 517.524 472.33 517.55C471.27 517.78 470.13 519.21 469.26 520.55C469.478 519.237 469.231 517.889 468.56 516.74C468.356 516.512 468.081 516.36 467.78 516.307C467.479 516.254 467.169 516.305 466.9 516.45C466.657 516.555 466.44 516.715 466.267 516.915C466.094 517.116 465.968 517.354 465.9 517.61C465.36 519.71 467.96 523.21 468.1 523.4L468.28 523.22L468.09 523.42L467.94 523.65L468.1 523.77ZM468.29 522.35C468.218 522.451 468.16 522.562 468.12 522.68C467.098 521.337 466.54 519.698 466.53 518.01C466.56 517.872 466.619 517.741 466.704 517.627C466.788 517.514 466.896 517.419 467.02 517.35H467.19C467.327 517.274 467.485 517.244 467.64 517.266C467.795 517.287 467.939 517.359 468.05 517.47C468.699 519.028 468.791 520.762 468.31 522.38L468.29 522.35ZM468.89 522.85C469.89 520.96 471.41 518.51 472.48 518.34C472.594 518.323 472.711 518.336 472.819 518.376C472.928 518.416 473.024 518.483 473.1 518.57C473.268 518.723 473.394 518.916 473.468 519.131C473.541 519.346 473.559 519.576 473.52 519.8C473.28 520.8 471.66 521.9 468.91 522.85H468.89Z" fill="#08B74F"/>
<path d="M454.63 535.22L466.15 524.85L448.89 495.22L437.4 505.61L454.63 535.22Z" fill="#F9B499"/>
<path d="M466.06 522.65L451.11 531.54C450.855 531.672 450.663 531.9 450.575 532.173C450.487 532.447 450.51 532.744 450.64 533L456.96 545.27C457.32 545.894 457.913 546.35 458.608 546.537C459.304 546.725 460.045 546.629 460.67 546.27C465.83 543.09 468.15 541.27 474.67 537.34C478.67 534.94 486.9 530.56 491.89 526.41C496.88 522.26 492.63 517.41 490.16 518.74C484.25 521.86 474.25 522.74 468.76 522.06C467.82 521.956 466.872 522.164 466.06 522.65Z" fill="#2F2E41"/>
<path d="M383.44 587.77H383.54H383.65C384.943 588.248 386.284 588.583 387.65 588.77C388.667 589.02 389.741 588.87 390.65 588.35C390.947 588.12 391.171 587.808 391.294 587.453C391.416 587.098 391.432 586.714 391.34 586.35C391.323 586.119 391.249 585.897 391.125 585.701C391.001 585.506 390.831 585.344 390.63 585.23C389.63 584.76 387.87 585.23 386.34 585.79C387.309 584.879 387.932 583.659 388.1 582.34C388.074 582.034 387.946 581.745 387.738 581.519C387.53 581.293 387.253 581.142 386.95 581.09C386.69 581.022 386.418 581.015 386.154 581.068C385.891 581.122 385.643 581.236 385.43 581.4C383.73 582.74 383.68 587.11 383.68 587.34C383.593 587.359 383.509 587.39 383.43 587.43L383.44 587.77ZM384.44 586.77L384.11 586.94C384.111 585.252 384.658 583.61 385.67 582.26C385.779 582.166 385.907 582.097 386.045 582.058C386.183 582.018 386.328 582.009 386.47 582.03L386.62 582.11C387.12 582.24 387.23 582.5 387.23 582.72C386.801 584.351 385.823 585.785 384.46 586.78L384.44 586.77ZM384.62 587.54C386.54 586.63 389.25 585.62 390.2 586.13C390.304 586.183 390.393 586.263 390.456 586.361C390.519 586.46 390.555 586.573 390.56 586.69C390.603 586.914 390.588 587.146 390.516 587.363C390.445 587.58 390.319 587.775 390.15 587.93C389.36 588.56 387.39 588.46 384.63 587.55L384.62 587.54Z" fill="#08B74F"/>
<path d="M365.78 588.77L381.23 587.5L385.46 553.47L370.03 554.77L365.78 588.77Z" fill="#F9B499"/>
<path d="M382.49 585.7L365.21 583.7C365.07 583.676 364.927 583.679 364.788 583.71C364.65 583.741 364.519 583.799 364.402 583.881C364.286 583.962 364.188 584.066 364.112 584.186C364.036 584.306 363.984 584.44 363.96 584.58L361.55 598.17C361.473 598.879 361.677 599.59 362.119 600.151C362.56 600.712 363.203 601.077 363.91 601.17C369.91 601.77 372.91 601.75 380.48 602.57C385.13 603.09 394.32 604.57 400.81 604.31C407.3 604.05 406.81 597.61 404.08 597.16C397.49 596.06 388.99 590.72 385.08 586.83C384.371 586.169 383.457 585.77 382.49 585.7Z" fill="#2F2E41"/>
<path d="M108.61 590.87H116.91L135.89 473.66L96.4598 292.63L88.7998 294.59L122.01 476.1L108.61 590.87Z" fill="#A7A9AC"/>
<path d="M201.38 479.25L214.77 590.87H206.47L188.06 479.25H201.38Z" fill="#A7A9AC"/>
<path d="M186.44 464.71V478.7H562.84L547.88 464.71H186.44Z" fill="#D1D3D4"/>
<path d="M120.85 464.71V478.7H217.37L204.33 464.71H120.85Z" fill="#BCBEC0"/>
<path d="M479.92 341.16L489.54 376.66H90.5199L80.8999 341.16H479.92Z" fill="#BCBEC0"/>
<path d="M479.92 341.16L487.24 368.17H93.08L85.77 341.16H479.92Z" fill="#D1D3D4"/>
<path d="M469.86 300.97L479.48 336.47H80.4598L70.8398 300.97H469.86Z" fill="#BCBEC0"/>
<path d="M469.86 300.97L477.17 327.97H83.02L75.71 300.97H469.86Z" fill="#D1D3D4"/>
<path d="M490.79 381.28L500.4 416.77H101.39L91.77 381.28H490.79Z" fill="#BCBEC0"/>
<path d="M490.79 381.28L498.1 408.28H103.95L96.6401 381.28H490.79Z" fill="#D1D3D4"/>
<path d="M501.66 421.39L511.27 456.89H112.26L102.64 421.39H501.66Z" fill="#BCBEC0"/>
<path d="M501.66 421.39L508.97 448.39H114.82L107.51 421.39H501.66Z" fill="#D1D3D4"/>
<path d="M400.32 466.06C401.08 459.33 403.42 438.34 400.76 430.98C395.69 416.98 384.83 401.59 387.32 390.35C389.81 379.11 394.43 375.87 394.43 375.87C391.24 383.44 402.88 399.93 406.35 407.14C410.458 415.654 413.983 424.438 416.9 433.43C419.54 442.1 418.7 462.7 418.67 469.18L400.32 466.06Z" fill="#08B74F"/>
<path d="M414.32 477.77C413.61 480.05 412.8 482.27 412.27 484.31C410.922 489.004 410.477 493.91 410.96 498.77C407.13 499.54 400.91 497.77 397.61 495.77C397.87 488.77 401.3 482.38 402.75 475.71L414.32 477.77Z" fill="#08B74F"/>
<path d="M397.47 465.58L396.22 472.92C395.904 474.792 396.344 476.713 397.442 478.262C398.541 479.81 400.209 480.86 402.08 481.18L411.08 482.71C412.952 483.026 414.873 482.586 416.422 481.488C417.97 480.389 419.02 478.721 419.34 476.85L420.59 469.51C420.906 467.638 420.466 465.717 419.368 464.169C418.269 462.62 416.601 461.57 414.73 461.25L405.73 459.72C404.803 459.562 403.854 459.589 402.937 459.798C402.02 460.007 401.153 460.395 400.386 460.939C399.619 461.483 398.967 462.173 398.466 462.969C397.966 463.766 397.627 464.653 397.47 465.58ZM400.29 466.06C400.481 464.938 401.109 463.937 402.037 463.277C402.965 462.617 404.117 462.352 405.24 462.54L414.24 464.08C415.359 464.266 416.358 464.889 417.018 465.812C417.678 466.734 417.945 467.881 417.76 469C417.76 469 417.76 469 417.76 469.08L416.52 476.42C416.332 477.545 415.704 478.548 414.776 479.21C413.848 479.872 412.695 480.138 411.57 479.95H411.52L402.52 478.41C401.399 478.224 400.397 477.6 399.735 476.676C399.073 475.751 398.805 474.602 398.99 473.48V473.41L400.29 466.06Z" fill="#08B74F"/>
<path d="M408.55 460.2L406.68 471.2C406.603 471.648 406.707 472.109 406.97 472.48C407.232 472.851 407.632 473.103 408.08 473.18C408.528 473.257 408.989 473.153 409.36 472.89C409.731 472.627 409.983 472.228 410.06 471.78L411.93 460.78L408.55 460.2Z" fill="#08B74F"/>
<g opacity="0.2">
<path d="M397.47 465.58L396.22 472.92C395.904 474.792 396.344 476.713 397.442 478.262C398.541 479.81 400.209 480.86 402.08 481.18L411.08 482.71C412.952 483.026 414.873 482.586 416.422 481.488C417.97 480.389 419.02 478.721 419.34 476.85L420.59 469.51C420.906 467.638 420.466 465.717 419.368 464.169C418.269 462.62 416.601 461.57 414.73 461.25L405.73 459.72C404.803 459.562 403.854 459.589 402.937 459.798C402.02 460.007 401.153 460.395 400.386 460.939C399.619 461.483 398.967 462.173 398.466 462.969C397.966 463.766 397.627 464.653 397.47 465.58ZM400.29 466.06C400.481 464.938 401.109 463.937 402.037 463.277C402.965 462.617 404.117 462.352 405.24 462.54L414.24 464.08C415.359 464.266 416.358 464.889 417.018 465.812C417.678 466.734 417.945 467.881 417.76 469C417.76 469 417.76 469 417.76 469.08L416.52 476.42C416.332 477.545 415.704 478.548 414.776 479.21C413.848 479.872 412.695 480.138 411.57 479.95H411.52L402.52 478.41C401.399 478.224 400.397 477.6 399.735 476.676C399.073 475.751 398.805 474.602 398.99 473.48V473.41L400.29 466.06Z" fill="black"/>
<path d="M408.55 460.2L406.68 471.2C406.603 471.648 406.707 472.109 406.97 472.48C407.232 472.851 407.632 473.103 408.08 473.18C408.528 473.257 408.989 473.153 409.36 472.89C409.731 472.628 409.983 472.228 410.06 471.78L411.93 460.78L408.55 460.2Z" fill="black"/>
</g>
<path d="M224 318.44C222.34 307.86 217.59 297.35 219.34 286.93C233.02 279.81 247.77 263.93 262.02 254.05C262.02 254.05 269.79 255.62 269.29 255.05L301.57 266.14C310.29 269.66 322.64 277.26 328.39 284.65C323.74 292.65 324.39 304.87 324.39 314.07C324.48 330.29 319.39 373.69 325.87 432.67C304.09 444.16 283.51 450.16 248.22 437.67C241.42 425.92 252.94 426.84 248.56 413.92C242.56 396.22 238.16 377.8 233.29 359.67C229.15 344.23 226.48 334.25 224 318.44Z" fill="#08B74F"/>
<path opacity="0.5" d="M224 318.44C222.34 307.86 217.59 297.35 219.34 286.93C233.02 279.81 247.77 263.93 262.02 254.05C262.02 254.05 269.79 255.62 269.29 255.05L301.57 266.14C310.29 269.66 322.64 277.26 328.39 284.65C323.74 292.65 324.39 304.87 324.39 314.07C324.48 330.29 319.39 373.69 325.87 432.67C304.09 444.16 283.51 450.16 248.22 437.67C241.42 425.92 252.94 426.84 248.56 413.92C242.56 396.22 238.16 377.8 233.29 359.67C229.15 344.23 226.48 334.25 224 318.44Z" fill="white"/>
<path d="M261.14 258.06C277.98 289.25 280.75 280.52 286.2 281.28C291.25 277.55 300.55 279.88 301.55 267.54C300.55 265.91 300.8 266.22 300.47 263.83C299.808 258.766 300.23 253.618 301.71 248.73L270.83 220.34C269.9 224.16 269.14 228.17 268.53 232.28C267.157 241.149 264.674 249.81 261.14 258.06Z" fill="#FFB278"/>
<path d="M276.64 257.39C281.64 263.78 287.4 264.75 295.05 264.28C296.91 264.16 298.71 264.03 300.47 263.83C299.807 258.766 300.23 253.618 301.71 248.73L270.83 220.34C269.9 224.16 269.14 228.17 268.53 232.28C268.84 234.57 269.17 236.86 269.53 239.09C270.76 245.93 272.44 252.03 276.64 257.39Z" fill="#E5804E"/>
<path d="M284.95 281.16L288.07 280.24C289.211 281.231 290.101 282.478 290.667 283.879C291.234 285.28 291.461 286.795 291.33 288.3C288.33 291.35 287.13 293.39 282.92 292.01C279.87 287.68 278.47 289.01 278.61 284.21C280.03 281.3 284.58 280.86 284.95 281.16Z" fill="#2F2E41"/>
<path d="M283.05 289.24L287.05 287.99C287.98 295.71 314.05 415.63 314.55 420.6C311.55 424.42 309.48 431.55 306.01 434.36C301.24 429.16 300.16 427.89 296.65 422.36C296.32 406.53 286.38 306.1 283.05 289.24Z" fill="#2F2E41"/>
<path d="M256.41 257.68C258.344 256.529 260.348 255.5 262.41 254.6C264.19 260.9 268.79 266.18 272.6 271.38C277.21 277.68 286.22 281.28 286.22 281.28C282.84 283.28 277.84 282.49 273.9 281.28C269.23 279.86 266.95 285.43 262.38 286.28C259.79 278.07 257.01 266.2 256.41 257.68Z" fill="white"/>
<path d="M284 281.96C295 275.83 299.21 268.45 300.71 264.56C302.53 266.23 304.81 267.75 306.78 269.42C306.371 275.387 304.291 281.118 300.78 285.96C298.23 282.96 295.6 281.52 291.64 282.13C289.093 282.298 286.537 282.242 284 281.96Z" fill="white"/>
<path d="M355.26 435.77C343.79 413.38 342.93 387.67 339.47 363.24C335.72 336.84 337.91 309.02 333.47 283.02C326.82 279.93 308.08 273.97 305.61 267.11L302.74 280.03C302.74 308.23 304.23 340.09 302.74 368.31C301.09 399.31 288.06 430.8 293.15 465.14C313.97 465.86 390.15 468.14 407.35 458.93C405.55 455.07 357.21 439.55 355.26 435.77Z" fill="#08B74F"/>
<path d="M317.89 289.14C316.42 286.72 312.84 283.74 310.4 282.19C312.12 280.55 315.33 275.24 317.77 274.97C316.44 267.29 311.31 262.05 306.52 257.92L302.21 258.92C303.7 269.69 301.21 333.25 301.26 354.14C301.26 363.53 302.12 373.01 302.21 382.38C302.29 390.38 301.39 402.22 304.63 409.5C305.84 402.62 306.23 395.19 307.02 388.09C309.37 367.21 312.11 346.16 315.12 325.4C316.4 316.62 317.57 307.97 318.48 299.11C318.89 295.11 319.76 292.23 317.89 289.14Z" fill="#08B74F"/>
<path opacity="0.2" d="M317.89 289.14C316.42 286.72 312.84 283.74 310.4 282.19C312.12 280.55 315.33 275.24 317.77 274.97C316.44 267.29 311.31 262.05 306.52 257.92L302.21 258.92C303.7 269.69 301.21 333.25 301.26 354.14C301.26 363.53 302.12 373.01 302.21 382.38C302.29 390.38 301.39 402.22 304.63 409.5C305.84 402.62 306.23 395.19 307.02 388.09C309.37 367.21 312.11 346.16 315.12 325.4C316.4 316.62 317.57 307.97 318.48 299.11C318.89 295.11 319.76 292.23 317.89 289.14Z" fill="black"/>
<path d="M412.32 421.24C380 406.45 309.14 399.04 309.14 399.04C274 405.17 277.06 451.25 280.23 466.04C291.14 466.55 349.62 465.04 367.81 460.6C367.35 469.6 363.37 558.91 363.97 577.29C365.34 577.71 382.73 576.12 384.1 575.75C394.9 551.75 406.87 471.75 409.3 457.62C410.58 450.05 420.39 424.95 412.32 421.24Z" fill="#2F2E41"/>
<path opacity="0.2" d="M412.32 421.24C380 406.45 309.14 399.04 309.14 399.04C274 405.17 277.06 451.25 280.23 466.04C291.14 466.55 349.62 465.04 367.81 460.6C367.35 469.6 363.37 558.91 363.97 577.29C365.34 577.71 382.73 576.12 384.1 575.75C394.9 551.75 406.87 471.75 409.3 457.62C410.58 450.05 420.39 424.95 412.32 421.24Z" fill="black"/>
<path d="M356.42 380.77C330.54 388.54 296.69 402 281.64 405.9C272.64 408.24 245.92 420.96 246.64 431.73C247.15 439.73 257 452.55 263.15 456.85C277.47 466.9 289.32 465.17 306.32 465.17C320.68 465.17 363.12 426.07 363.83 421.17L356.42 380.77Z" fill="#2F2E41"/>
<path d="M393.37 365.51C356.53 371.87 281.64 405.9 281.64 405.9C285.55 420.26 317.64 438.39 329.35 447.9C344.18 440.73 374.72 417.27 382.94 412.02C388.32 419.18 433.39 512.85 444.88 525.77C446.11 525.3 461.71 509.71 462.43 508.62C454.58 483.93 421.97 407.43 414.61 395.17C410.65 388.61 401.49 364.1 393.37 365.51Z" fill="#2F2E41"/>
<path d="M314.84 226.36C315.321 225.621 315.749 224.849 316.12 224.05C316.25 223.79 316.38 223.51 316.51 223.22L316.67 222.89C317.11 221.89 317.58 220.89 318.05 219.73C319.551 216.258 320.84 212.698 321.91 209.07C322.43 205.548 321.85 201.951 320.25 198.77C320.24 198.734 320.223 198.7 320.2 198.67L320.08 198.45C319.571 197.349 318.679 196.472 317.57 195.98L312.7 197.65L311.45 198.08C311.42 199.049 311.569 200.015 311.89 200.93C311.96 201.23 312.05 201.54 312.13 201.86C312.76 204.2 313.6 206.92 313.85 207.95C314.172 209.464 314.399 210.997 314.53 212.54C314.72 214.44 314.87 216.59 314.95 218.66C314.95 219.21 314.95 219.76 315 220.29V224.66C314.95 225.33 314.9 225.9 314.84 226.36Z" fill="#2F2E41"/>
<path d="M317.529 225.132C318.704 203.973 309.027 186.23 295.914 185.502C282.801 184.773 271.218 201.335 270.042 222.493C268.867 243.652 278.544 261.395 291.657 262.123C304.77 262.852 316.353 246.29 317.529 225.132Z" fill="#F9B499"/>
<path d="M277.39 213.28L276.86 218.08C277.3 218.98 288.78 221.72 291.29 222.48C292.39 220.84 294.94 216.83 293.16 215.72C291.72 213.84 280.94 212.27 277.39 213.28Z" fill="#2F2E41"/>
<path d="M315.61 213.06L316.28 217.84C315.96 218.74 306.58 221.73 304.54 222.53C303.54 220.92 302.27 218.42 302.66 215.83C304.74 212.48 314.17 211.6 315.61 213.06Z" fill="#2F2E41"/>
<path d="M314.66 194.51C313.66 194.41 312.55 194.32 311.49 194.24C302.82 193.61 294.09 194.24 285.44 194.95C276.95 195.68 260.58 219.4 262.73 224.17L267.73 230.26L267.9 230.42L269.61 232.12C269.9 231.12 270.26 230.2 270.61 229.25C270.96 228.3 271.4 227.25 271.75 226.11C272.75 222.74 273.37 218.23 271.75 209.87C271.6 209.202 271.659 208.503 271.92 207.87C273.12 205 278.54 204.2 282.15 203.58C285.95 202.91 286.69 201.2 287.46 197.98C287.46 197.923 287.478 197.867 287.51 197.82C287.56 197.76 287.51 197.61 287.58 197.5C287.636 197.349 287.673 197.191 287.69 197.03C288.07 197.12 288.53 197.24 289.05 197.39C293.89 198.7 304.66 201.62 312.05 201.86C312.892 201.91 313.737 201.91 314.58 201.86L314.66 194.51Z" fill="#2F2E41"/>
<path d="M312.14 194.3L311.49 194.24C310.211 194.48 308.919 194.64 307.62 194.72C303.209 194.974 298.784 194.826 294.4 194.28C291.4 194.46 288.4 194.69 285.47 194.95C276.98 195.68 271.1 197.58 262.67 198.95C262.4 198.95 260.67 198.95 260.5 199.02C260.33 199.09 260.57 199.36 260.09 199.44C259.99 199.44 258.82 200.18 258.71 200.2C258.12 204.96 260.61 219.42 262.76 224.2L267.76 230.29L272.68 236.29C274.17 231.18 274.68 222.87 272.08 208.98C272.01 208.624 271.99 208.261 272.02 207.9C272.37 204.27 278.52 203.39 282.48 202.7C285.9 202.1 286.85 200.7 287.56 198.01C287.561 197.953 287.578 197.897 287.61 197.85C287.67 197.6 287.74 197.34 287.8 197.07C287.86 196.8 287.95 196.47 288.02 196.15C291.77 197.15 303.96 200.66 312.18 200.98L312.14 194.3Z" fill="#2F2E41"/>
<path d="M267.764 236.729C270.741 235.704 271.811 230.971 270.154 226.156C268.497 221.341 264.741 218.268 261.764 219.292C258.787 220.317 257.717 225.05 259.374 229.865C261.031 234.68 264.788 237.753 267.764 236.729Z" fill="#F9B499"/>
<path d="M246.24 204.53C246 212.24 266.19 219.12 291.34 219.9C316.49 220.68 337.06 215.07 337.34 207.36C337.62 199.65 317.34 192.77 292.24 191.99C267.14 191.21 246.48 196.82 246.24 204.53Z" fill="#08B74F"/>
<path opacity="0.2" d="M291.32 219.9C316.46 220.68 337.04 215.06 337.32 207.36C337.327 206.905 337.273 206.451 337.16 206.01C336.52 213.6 316.1 219.1 291.21 218.33C267.53 217.6 248.21 211.45 246.27 204.33V204.56C246 212.24 266.19 219.12 291.32 219.9Z" fill="black"/>
<path d="M265.37 203.52C281.06 215.6 314.95 210.92 320.29 206.09C321.29 205.16 319.87 199.09 318.07 193.23C317.03 189.69 315.74 186.228 314.21 182.87C310.21 175.48 304.93 167.5 296.03 173.25C292.29 175.67 291.19 177.55 286.77 175.25C283.45 173.53 282.85 170.1 277.98 171.25C277.082 171.468 276.224 171.83 275.44 172.32C270.17 175.59 267.44 184.19 265.82 188.99C264.01 194.31 260.85 200.04 265.37 203.52Z" fill="#08B74F"/>
<path opacity="0.2" d="M265.37 203.52C281.06 215.6 314.95 210.92 320.29 206.09C321.29 205.16 319.87 199.09 318.07 193.23C308.39 199.9 292.92 203.4 284.07 194.71C279.6 190.32 276.83 183.84 275.91 177.79C275.657 175.99 275.503 174.177 275.45 172.36C270.18 175.63 267.45 184.23 265.83 189.03C264.01 194.31 260.85 200.04 265.37 203.52Z" fill="black"/>
<path d="M265.37 203.52C270.15 207.2 276.61 209.33 283.45 210.36C299.05 212.74 316.57 209.45 320.29 206.09C320.93 205.5 320.6 202.87 319.81 199.54C315.12 202.88 297.33 205.93 281.95 203.2C275.68 202.09 269.8 200.01 265.37 196.6C264.718 196.114 264.173 195.497 263.77 194.79C262.73 198.15 262.48 201.3 265.37 203.52Z" fill="#2F2E41"/>
<path d="M321.286 226.627C321.723 221.77 319.58 217.608 316.5 217.331C313.42 217.054 310.568 220.766 310.131 225.623C309.695 230.481 311.837 234.643 314.918 234.92C317.998 235.197 320.849 231.484 321.286 226.627Z" fill="#F9B499"/>
<path d="M276.15 323.77C271.15 295.06 260.1 262.69 256.41 257.67C256.41 257.67 212.04 274.48 213.71 285.01C214.82 292.01 217.96 308.29 219 315.28C221.49 331.94 226.93 350.37 230.22 366.83C233.63 383.93 234.63 398.5 237.22 415.83C241.51 444.95 228.76 463.22 230.22 492.44C234.52 500.34 248.71 504.51 258.92 506.08C277.59 508.95 291.92 512.54 305.58 506.8C297.32 464.55 281.88 356.53 276.15 323.77Z" fill="#08B74F"/>
<path d="M223.14 272.77C219.4 277.96 211.77 281.09 209.2 288.77C206.63 296.45 207.62 306.94 207.2 315.21C206.2 332.35 201.55 369.21 203.08 386.21C203.92 395.68 207.42 401.62 219.58 404.78C233.51 408.39 238.01 395.48 240.73 389.78C245.89 379.02 242.48 357.78 246.91 346.98L223.14 272.77Z" fill="#08B74F"/>
<path d="M287.6 381.2C284.17 351.28 275.86 316.14 271.11 286.63C268.55 270.7 265.38 244.83 265.38 244.83C254.19 247.14 238.72 261.66 238.22 273.43C243.36 273.52 248.5 274.83 253.63 274.2C251.91 278.32 248.86 289.31 248.86 289.31C248.86 289.31 278.32 381.23 284.03 404.16C288.03 420.35 291.24 436.11 295.93 451.63C291.67 428.71 290.32 404.77 287.6 381.2Z" fill="#08B74F"/>
<path opacity="0.2" d="M287.6 381.2C284.17 351.28 275.86 316.14 271.11 286.63C268.55 270.7 265.38 244.83 265.38 244.83C254.19 247.14 238.72 261.66 238.22 273.43C243.36 273.52 248.5 274.83 253.63 274.2C251.91 278.32 248.86 289.31 248.86 289.31C248.86 289.31 278.32 381.23 284.03 404.16C288.03 420.35 291.24 436.11 295.93 451.63C291.67 428.71 290.32 404.77 287.6 381.2Z" fill="black"/>
<path d="M230.73 413.77C229.95 402.83 235.06 396.93 235.06 396.93C234.2 404.73 243.06 416.8 248.22 422.46C253.662 428.444 258.621 434.851 263.05 441.62C268.78 450.28 275.77 475.19 275.77 475.19C275.77 475.19 271.32 492.88 268.32 495.99C267.81 496.53 258.95 477.82 258.95 477.82C258.95 477.82 255.06 453.32 249.55 445.87C241.14 434.45 231.51 424.77 230.73 413.77Z" fill="#08B74F"/>
<path opacity="0.2" d="M230.73 413.77C229.95 402.83 235.06 396.93 235.06 396.93C234.2 404.73 243.06 416.8 248.22 422.46C253.662 428.444 258.621 434.851 263.05 441.62C268.78 450.28 275.77 475.19 275.77 475.19C275.77 475.19 271.32 492.88 268.32 495.99C267.81 496.53 258.95 477.82 258.95 477.82C258.95 477.82 255.06 453.32 249.55 445.87C241.14 434.45 231.51 424.77 230.73 413.77Z" fill="black"/>
<path d="M242.39 446.2L246.44 444.53C244.65 440.21 245.1 433.04 246.02 428.22C246.54 425.53 248.71 420.12 249.95 419.53C249.816 419.57 249.674 419.57 249.54 419.53L250.67 415.3C250.151 415.164 249.609 415.141 249.079 415.23C248.55 415.32 248.046 415.521 247.6 415.82C243.82 418.19 241.74 427.29 241.72 427.38C240.63 433.07 240.24 440.99 242.39 446.2Z" fill="#08B74F"/>
<path opacity="0.2" d="M242.39 446.2L246.44 444.53C244.65 440.21 245.1 433.04 246.02 428.22C246.54 425.53 248.71 420.12 249.95 419.53C249.816 419.57 249.674 419.57 249.54 419.53L250.67 415.3C250.151 415.164 249.609 415.141 249.079 415.23C248.55 415.32 248.046 415.521 247.6 415.82C243.82 418.19 241.74 427.29 241.72 427.38C240.63 433.07 240.24 440.99 242.39 446.2Z" fill="white"/>
<path d="M224.5 332.7C219.44 335.3 210.96 341.08 211.82 347.04C212.61 352.59 211.71 360.74 220.87 372.04C240.28 395.98 243.24 357.27 240.87 345.93L224.5 332.7Z" fill="#08B74F"/>
<path opacity="0.2" d="M224.5 332.7C219.44 335.3 210.96 341.08 211.82 347.04C212.61 352.59 211.71 360.74 220.87 372.04C240.28 395.98 243.24 357.27 240.87 345.93L224.5 332.7Z" fill="black"/>
<path d="M228.99 315.65C226.76 323.33 225.6 329.81 222.49 337.65C221.68 339.71 217.91 343.45 218.3 345.34C218.69 347.23 221.3 355.34 227.64 357.48C239.54 361.48 239.64 353.06 243.04 350.75L228.99 315.65Z" fill="#2F2E41"/>
<path d="M400.81 345.94C403.34 333.52 405.21 321.75 403.94 317.77C402.89 314.639 401.22 311.752 399.03 309.28L395.2 323.63C389.95 328.82 385.73 348.76 387.71 354.58C397.03 353.61 399.73 351.21 400.81 345.94Z" fill="#2F2E41"/>
<path d="M388.5 335.39L416.49 381.38L340.41 416.24L322.23 422.94L320.31 423.65L232.61 393.36L214.46 387.09L237.01 314.8L216.13 270.81L206.24 220.65L248.69 223.87L249.05 223.98L334.38 249.24L334.94 249.41L396.19 237.24L425.09 244.64L399.05 292.47L388.5 335.39Z" fill="#E6E7E8"/>
<path opacity="0.05" d="M320.47 255.77L263.62 239.93C263.78 241.49 263.89 243.05 263.95 244.61L320.7 259.41C320.62 258.19 320.55 256.97 320.47 255.77Z" fill="#231F20"/>
<path opacity="0.05" d="M320.47 264.38L263.62 248.57C263.78 250.116 263.89 251.677 263.95 253.25L320.7 268.04C320.62 266.82 320.55 265.6 320.47 264.38Z" fill="#231F20"/>
<path opacity="0.05" d="M320.47 273.01L263.62 257.2C263.78 258.747 263.89 260.307 263.95 261.88L320.7 276.67C320.62 275.45 320.55 274.23 320.47 273.01Z" fill="#231F20"/>
<path opacity="0.05" d="M320.47 281.64L263.62 265.83C263.78 267.377 263.89 268.937 263.95 270.51L320.7 285.3C320.62 284.08 320.55 282.86 320.47 281.64Z" fill="#231F20"/>
<path opacity="0.05" d="M320.47 290.27L263.62 274.46C263.78 276.007 263.89 277.567 263.95 279.14L320.7 293.94C320.62 292.77 320.55 291.49 320.47 290.27Z" fill="#231F20"/>
<path opacity="0.05" d="M320.47 298.91L263.62 283.09C263.78 284.65 263.89 286.21 263.95 287.77L320.7 302.57C320.62 301.35 320.55 300.13 320.47 298.91Z" fill="#231F20"/>
<path opacity="0.05" d="M320.47 307.54L263.62 291.77C263.78 293.33 263.89 294.89 263.95 296.45L320.7 311.25C320.62 309.98 320.55 308.77 320.47 307.54Z" fill="#231F20"/>
<path opacity="0.05" d="M316.61 358.39L259.32 340.51C259.48 342.07 251.32 389.16 251.41 390.73L307.05 414.49C307.76 417.92 316.69 359.61 316.61 358.39Z" fill="#231F20"/>
<path opacity="0.05" d="M341.67 259.75L339.28 309.69L386.41 302.29L400.73 274.55L410.27 252.35L391.78 249.89L341.67 259.75Z" fill="#231F20"/>
<path opacity="0.05" d="M379.13 335.27C380.821 326.399 383.13 317.658 386.04 309.11L339.32 318.32L336.93 368.26L381.08 360.86C381.32 351.85 377.45 344.1 379.13 335.27Z" fill="#231F20"/>
<path d="M237.02 321.25C236.888 320.015 236.973 318.766 237.27 317.56C236.96 318.56 237.81 316.88 237.03 317.84C237.82 316.84 237.03 317.66 237.66 317.26C240.21 315.64 243.24 314.73 245.89 313.26C251.56 310.18 253.84 298.6 241.01 304.52C237.6 306.1 233.96 307.4 231.01 309.77C227.63 312.47 226.86 316.83 227.01 320.93C227.26 327.35 237.27 327.66 237.01 321.22L237.02 321.25Z" fill="#2F2E41"/>
<path d="M238.04 327.39C238.181 326.151 238.518 324.943 239.04 323.81C238.68 324.47 239.71 323.22 238.9 323.81C239 323.74 240.33 323.15 239.43 323.47C242.25 322.47 245.43 322.35 248.24 321.39C258.86 317.83 257.96 309.61 245.86 311.68C242.092 312.228 238.401 313.211 234.86 314.61C230.94 316.28 229.17 320.66 228.46 324.55C227.98 327.23 229.01 329.93 231.84 330.77C234.23 331.48 237.57 330.08 238.06 327.4L238.04 327.39Z" fill="#2F2E41"/>
<path d="M238.32 332.77C238.837 331.773 239.464 330.837 240.19 329.98C240.91 329.22 240.34 329.84 239.88 329.98C241.04 329.57 238.94 329.98 240.2 329.98C240.76 330.05 240.79 330.04 240.3 329.98C240.83 330.07 241.36 330.18 241.88 330.28C243.377 330.568 244.89 330.772 246.41 330.89C252.86 331.36 261.99 321.44 246.69 320.89C243.81 320.79 241.02 319.79 237.9 320.22C234.1 320.73 231.51 324.6 229.77 327.61C226.55 333.2 235.1 338.4 238.32 332.8V332.77Z" fill="#2F2E41"/>
<path d="M243.32 327.21C241.26 327.35 239.18 326.68 237.15 327.36C233.51 328.58 231.64 331.86 230.07 335.14C228.9 337.6 226.46 344.45 228.96 345.96C231.12 347.27 240.46 337.13 240.51 337.13C241.345 337.24 242.189 337.27 243.03 337.22C245.75 337.04 250.84 336 250.92 333.09C251.03 330.56 246.08 327.04 243.32 327.21Z" fill="#2F2E41"/>
<path d="M395.22 320.6C395.318 319.378 395.261 318.148 395.05 316.94C395.27 317.94 394.67 316.2 395.21 317.24C394.67 316.19 395.21 317.07 394.78 316.6C393 314.68 390.87 313.41 389.01 311.66C385.01 307.93 383.47 296.24 392.44 303.66C394.83 305.66 397.37 307.37 399.44 310.07C401.81 313.15 402.34 317.54 402.22 321.56C402.04 327.85 395.03 326.92 395.22 320.56V320.6Z" fill="#2F2E41"/>
<path d="M394.5 326.52C394.406 325.285 394.175 324.064 393.81 322.88C394.07 323.58 393.35 322.21 393.91 322.88C393.85 322.8 392.91 322.05 393.54 322.48C391.54 321.13 389.36 320.63 387.38 319.34C379.95 314.51 380.59 306.53 389.05 310.06C391.799 311.123 394.389 312.556 396.75 314.32C399.5 316.44 400.75 320.98 401.22 324.9C401.56 327.6 400.83 330.13 398.85 330.6C397.17 331.01 394.85 329.22 394.5 326.51V326.52Z" fill="#2F2E41"/>
<path d="M394.32 331.77C393.978 330.733 393.543 329.729 393.02 328.77C392.52 327.93 392.91 328.61 393.23 328.82C392.42 328.28 393.89 328.89 393.01 328.77H392.94L391.83 328.86C390.775 328.95 389.715 328.95 388.66 328.86C384.15 328.53 377.77 317.62 388.47 318.98C390.47 319.23 392.47 318.6 394.63 319.4C397.29 320.4 399.1 324.51 400.31 327.69C402.56 333.6 396.57 337.69 394.31 331.74L394.32 331.77Z" fill="#2F2E41"/>
<path d="M390.78 325.69C392.22 326.08 393.67 325.69 395.09 326.6C397.64 328.26 398.94 331.71 400.09 335.15C400.91 337.71 402.61 344.76 400.86 345.94C399.34 346.94 392.86 335.81 392.78 335.81C392.186 335.808 391.595 335.731 391.02 335.58C389.11 335.07 385.55 333.41 385.5 330.58C385.4 328.03 388.87 325.18 390.78 325.69Z" fill="#2F2E41"/>
</svg>
