<svg width="657" height="643" viewBox="0 0 657 643" fill="none" xmlns="http://www.w3.org/2000/svg">
<path d="M200.09 151.93H57.98C57.1843 151.93 56.4213 152.246 55.8587 152.809C55.296 153.371 54.98 154.134 54.98 154.93V191.42C54.98 192.216 55.296 192.979 55.8587 193.541C56.4213 194.104 57.1843 194.42 57.98 194.42H71.09V206.18L85.87 194.42H200.09C200.886 194.42 201.649 194.104 202.211 193.541C202.774 192.979 203.09 192.216 203.09 191.42V154.93C203.09 154.134 202.774 153.371 202.211 152.809C201.649 152.246 200.886 151.93 200.09 151.93Z" fill="#2F2E41"/>
<path d="M586.32 24.65H444.26C443.464 24.65 442.701 24.9661 442.138 25.5287C441.576 26.0913 441.26 26.8544 441.26 27.65V64.15C441.26 64.9457 441.576 65.7087 442.138 66.2713C442.701 66.834 443.464 67.15 444.26 67.15H558.42L573.2 78.93V67.16H586.32C587.115 67.16 587.878 66.844 588.441 66.2813C589.004 65.7187 589.32 64.9557 589.32 64.16V27.67C589.322 27.2744 589.247 26.8821 589.097 26.5158C588.948 26.1495 588.727 25.8165 588.448 25.5358C588.169 25.2551 587.838 25.0323 587.472 24.8803C587.107 24.7283 586.715 24.65 586.32 24.65Z" fill="#2F2E41"/>
<path d="M489.32 433.09H192.94C191.53 433.09 190.39 435 190.39 437.37C190.39 439.74 191.52 441.67 192.93 441.68H207.09V642.76H213.09V441.68H468.35V642.76H474.44V441.68H489.32C490.73 441.68 491.87 439.76 491.87 437.39C491.87 435.02 490.74 433.09 489.33 433.09H489.32Z" fill="#CCCCCC"/>
<path d="M522.45 597.3C522.45 597.3 521.59 620.18 522.45 626.76C522.45 626.76 532.45 630.48 534.32 630.76C536.19 631.04 545.61 630.76 545.61 630.76V598.76L522.45 597.3Z" fill="#F9B499"/>
<path d="M498.71 641.49C498.712 640.065 499.101 638.668 499.835 637.447C500.57 636.227 501.622 635.229 502.88 634.56L518.73 626.19V618.81C518.729 618.584 518.775 618.36 518.866 618.152C518.956 617.945 519.089 617.758 519.256 617.605C519.422 617.452 519.619 617.335 519.833 617.261C520.047 617.188 520.274 617.161 520.5 617.18L530.72 618.04C530.943 618.057 531.159 618.119 531.356 618.224C531.554 618.328 531.727 618.472 531.866 618.647C532.005 618.821 532.107 619.023 532.164 619.239C532.221 619.454 532.234 619.679 532.2 619.9L531.03 627.62H545.61L546.76 641.49H498.71Z" fill="#08B74F"/>
<path d="M467.34 540.72C467.34 540.72 457.13 561.22 455.21 567.56C455.21 567.56 462.79 575.08 464.37 576.1C465.95 577.12 474.66 580.76 474.66 580.76L487.86 551.57L467.34 540.72Z" fill="#F9B499"/>
<path d="M427.5 571.21C428.089 569.91 429.022 568.795 430.197 567.985C431.372 567.174 432.745 566.699 434.17 566.61L452.05 565.51L455.05 558.79C455.143 558.585 455.278 558.401 455.446 558.25C455.613 558.099 455.81 557.984 456.024 557.913C456.238 557.842 456.465 557.815 456.689 557.836C456.914 557.856 457.132 557.922 457.33 558.03L466.33 563.03C466.525 563.139 466.695 563.287 466.83 563.464C466.965 563.642 467.062 563.845 467.116 564.062C467.169 564.278 467.178 564.503 467.14 564.723C467.103 564.943 467.022 565.153 466.9 565.34L462.67 571.93L475.96 577.93L471.29 591.05L427.5 571.21Z" fill="#08B74F"/>
<path d="M526.09 495.65C515.95 495.33 520.72 480.45 520.97 464.32C521.13 454.17 527.88 444.23 535.22 437.23C538.959 433.929 543.366 431.474 548.14 430.03C560.65 425.76 574.24 425.3 587.29 427.51C587.29 427.46 590.33 497.68 526.09 495.65Z" fill="#CCCCCC"/>
<path opacity="0.3" d="M526.09 495.65C515.95 495.33 520.72 480.45 520.97 464.32C521.13 454.17 527.88 444.23 535.22 437.23C538.959 433.929 543.366 431.474 548.14 430.03C560.65 425.76 574.24 425.3 587.29 427.51C587.29 427.46 590.33 497.68 526.09 495.65Z" fill="black"/>
<path d="M612.11 493.88H606.59V627.32H612.11V493.88Z" fill="#CCCCCC"/>
<path d="M634.81 627.23H583.48C583.48 627.23 592.72 619.14 609.36 619.4C625.28 619.66 634.81 627.23 634.81 627.23Z" fill="#CCCCCC"/>
<path opacity="0.3" d="M634.81 627.23H583.48C583.48 627.23 592.72 619.14 609.36 619.4C625.28 619.66 634.81 627.23 634.81 627.23Z" fill="black"/>
<path d="M618.39 358.35C624.45 357.81 630.62 357.35 636.58 358.52C642.54 359.69 648.33 362.83 651.58 368.02C654.83 373.21 654.87 379.77 654.87 385.84V463.29H585.7L618.39 358.35Z" fill="#CCCCCC"/>
<path d="M654.88 459.72C655.17 474.99 653.88 487.38 643.27 493.39C635.36 497.88 625.79 497.98 616.69 497.97H577.3C573.3 497.97 569.02 497.88 565.76 495.57C562.17 493.04 560.67 488.22 561.3 483.82C562.114 479.47 564.203 475.461 567.3 472.3C578.68 459.67 596.69 455.92 613.4 452.85" fill="#CCCCCC"/>
<path d="M625.03 438.33C625.03 438.33 632.09 483.51 613.6 488.83C593.93 494.51 551.79 505.13 551.79 505.13L548.62 615.82L517.76 614.69L514.81 490.02C514.91 487.859 515.524 485.754 516.601 483.877C517.677 482.001 519.185 480.408 521 479.23L565.58 438.3L625.03 438.33Z" fill="#2F2E41"/>
<path d="M457.14 553.64L486.02 564.76L525.17 483.48C525.17 483.48 591.47 491.31 610.52 488.7C617.32 487.78 625.36 484.23 629.41 479.07C636.79 469.65 637.12 456.77 635.74 444.88L635.19 442.27L586.33 439.66L511.49 450.93C508.208 451.503 505.118 452.875 502.492 454.924C499.866 456.973 497.784 459.637 496.43 462.68L457.14 553.64Z" fill="#2F2E41"/>
<path opacity="0.2" d="M457.14 553.64L486.02 564.76L525.17 483.48C525.17 483.48 591.47 491.31 610.52 488.7C617.32 487.78 625.36 484.23 629.41 479.07C636.79 469.65 637.12 456.77 635.74 444.88L635.19 442.27L586.33 439.66L511.49 450.93C508.208 451.503 505.118 452.875 502.492 454.924C499.866 456.973 497.784 459.637 496.43 462.68L457.14 553.64Z" fill="#231F20"/>
<path d="M612.57 312.74C613.8 314.87 616.85 315.22 619.1 314.26C621.251 313.092 623.169 311.539 624.76 309.68C626.51 307.97 628.68 306.35 631.05 306.22C632.89 306.13 634.87 306.9 636.53 306.07C638.19 305.24 638.78 303.07 639.6 301.28C640.492 299.478 641.749 297.881 643.29 296.59C644.864 295.257 645.941 293.43 646.344 291.407C646.747 289.384 646.453 287.285 645.51 285.45C645.43 285.34 645.37 285.21 645.29 285.08C643.964 282.563 641.757 280.623 639.09 279.63C636.87 278.93 634.24 279.06 632.56 277.49C630.56 275.68 630.75 272.44 629.14 270.29C627.76 268.703 625.839 267.687 623.75 267.44C621.678 267.197 619.632 266.761 617.64 266.14C616.651 265.821 615.766 265.241 615.078 264.461C614.39 263.682 613.924 262.732 613.73 261.71" fill="#2F2E41"/>
<path d="M601.411 268.27C600.649 265.837 599.222 263.665 597.29 262C595.359 260.336 593 259.245 590.481 258.852C587.962 258.459 585.383 258.778 583.036 259.775C580.689 260.771 578.667 262.404 577.2 264.49C575.9 266.27 575.061 268.41 573.291 269.61C571.721 270.61 569.76 270.76 568.07 271.42C566.225 272.202 564.693 273.579 563.719 275.33C562.744 277.082 562.382 279.109 562.69 281.09C563.14 283.42 564.52 285.68 564 287.99C563.29 291.14 559.31 292.99 559.19 296.23C559.12 298.41 560.9 300.15 562.63 301.55C564.36 302.95 566.28 304.34 566.75 306.48C566.85 307.918 566.85 309.362 566.75 310.8C566.928 312.338 567.67 313.755 568.831 314.778C569.993 315.801 571.493 316.358 573.041 316.34C574.691 316.27 576.53 315.56 577.84 316.55C578.324 317.047 578.762 317.586 579.15 318.16C580.68 319.84 583.461 319.79 585.481 318.73C587.41 317.512 589.129 315.989 590.57 314.22C592.031 312.438 594.05 311.201 596.301 310.71" fill="#2F2E41"/>
<path d="M612.93 311.7V334.93C612.93 338.542 611.495 342.007 608.941 344.561C606.386 347.115 602.922 348.55 599.31 348.55C595.699 348.547 592.238 347.111 589.685 344.557C587.133 342.003 585.7 338.541 585.7 334.93V318.13C578.88 313.81 574.59 304.55 575.43 294.23C576.54 280.52 586.28 270.13 597.18 271.02C608.08 271.91 616.01 283.74 614.9 297.45L612.93 311.7Z" fill="#F9B499"/>
<path d="M585.7 318.4C591.282 318.491 596.778 317.022 601.57 314.16C601.57 314.16 597.72 322.31 585.91 321.16L585.7 318.4Z" fill="#F4A48E"/>
<path d="M601.03 265.36C600.961 265.365 600.891 265.351 600.828 265.322C600.765 265.292 600.711 265.247 600.67 265.19L599.95 264.48L601.05 264.9C601.237 264.983 601.431 265.047 601.63 265.09C602.09 265.23 602.52 265.09 602.63 265.33C602.74 265.57 602.24 265.94 601.5 265.76C601.192 265.691 600.921 265.509 600.74 265.25L601.09 264.93C601.14 265.16 601.09 265.32 601.03 265.36Z" fill="#263238"/>
<path d="M600.89 266.71C599.835 267.938 599.1 269.408 598.751 270.989C598.402 272.57 598.45 274.212 598.89 275.77C599.395 277.354 600.267 278.796 601.434 279.98C602.602 281.163 604.033 282.054 605.61 282.58C606.4 282.84 607.32 283.12 607.61 283.89C607.757 284.554 607.642 285.249 607.29 285.83C606.553 287.822 606.495 290.001 607.127 292.029C607.758 294.057 609.042 295.819 610.78 297.04C610.367 299.224 610.509 301.476 611.194 303.591C611.879 305.705 613.085 307.613 614.7 309.14C614.7 307.14 616.23 305.34 617.91 304.06C619.697 302.953 621.372 301.673 622.91 300.24C624.006 299 624.697 297.454 624.89 295.809C625.084 294.165 624.769 292.501 623.99 291.04C623.383 290.242 623 289.296 622.88 288.3C622.88 287.12 623.95 286.24 624.76 285.35C626.513 283.368 627.448 280.794 627.376 278.148C627.303 275.503 626.229 272.984 624.37 271.1C623.47 270.22 622.37 269.51 621.58 268.57C620.632 267.289 619.76 265.954 618.97 264.57C617.472 262.573 615.443 261.036 613.115 260.136C610.786 259.237 608.252 259.009 605.8 259.48C600.88 260.48 597.8 265.28 598.88 270.68" fill="#2F2E41"/>
<path d="M599.57 268.28C599.549 270.504 599.079 272.701 598.19 274.74C597.738 275.75 597.046 276.634 596.175 277.315C595.303 277.997 594.278 278.455 593.19 278.65C591.04 278.9 588.98 277.79 586.89 277.21C584.15 276.44 580.73 276.8 579.15 279.21C578.04 280.86 577.85 284.67 575.24 285.74C573.38 286.5 572.24 284.36 570.42 285.19C567.42 286.57 567.9 291.81 564.85 293.19C565.85 290.66 565.36 287.84 565.33 285.14C565.3 282.44 566.05 279.34 568.44 278.05C569.839 277.537 571.272 277.122 572.73 276.81C574.92 276 576.45 274.03 578.04 272.29C579.63 270.55 581.63 268.88 583.98 268.94C586.33 269 588.24 270.64 590.51 270.53C592.32 270.44 593.86 269.23 595.51 268.43C597.16 267.63 599.43 267.43 600.51 268.82" fill="#2F2E41"/>
<path d="M623.601 271.36C623.288 271.15 622.952 270.975 622.601 270.84C621.708 270.476 620.732 270.365 619.781 270.52C618.358 270.821 616.978 271.294 615.671 271.93C613.965 272.687 612.104 273.03 610.241 272.93C608.373 272.827 606.559 272.274 604.951 271.32C603.652 270.529 602.529 269.481 601.651 268.24C601.054 267.417 600.582 266.511 600.25 265.55C600.099 265.207 600.021 264.835 600.021 264.46C600.565 265.689 601.235 266.859 602.021 267.95C602.913 269.082 604.008 270.038 605.25 270.77C606.779 271.648 608.491 272.158 610.25 272.26C614.07 272.59 617.02 270.18 619.69 270.02C620.723 269.886 621.772 270.079 622.69 270.57C623.4 270.93 623.621 271.33 623.601 271.36Z" fill="#3F3D56"/>
<path opacity="0.2" d="M560.67 294.93C561.412 295.037 562.16 295.094 562.91 295.1C564.962 295.033 566.932 294.276 568.5 292.95C569.553 292.038 570.361 290.875 570.85 289.57C571.362 288.037 571.649 286.436 571.7 284.82C571.8 283.1 571.77 281.26 572.04 279.35C572.23 277.333 572.997 275.413 574.25 273.82C574.919 273.011 575.768 272.371 576.73 271.95C577.681 271.568 578.712 271.43 579.73 271.55C581.73 271.76 583.4 272.47 585.08 272.64C588.105 273.007 591.163 272.299 593.72 270.64C595.437 269.515 596.879 268.018 597.94 266.26C598.68 264.95 598.94 264.26 599 264.26C598.981 264.457 598.93 264.649 598.85 264.83C598.659 265.37 598.429 265.895 598.16 266.4C597.161 268.264 595.727 269.859 593.98 271.05C591.339 272.835 588.146 273.616 584.98 273.25C583.21 273.07 581.47 272.38 579.66 272.19C578.754 272.088 577.837 272.211 576.99 272.55C576.127 272.926 575.366 273.502 574.77 274.23C573.592 275.736 572.87 277.547 572.69 279.45C572.43 281.29 572.44 283.12 572.31 284.87C572.233 286.546 571.896 288.199 571.31 289.77C570.772 291.165 569.871 292.391 568.7 293.32C567.044 294.684 564.955 295.411 562.81 295.37C562.243 295.362 561.68 295.288 561.13 295.15C560.972 295.086 560.819 295.013 560.67 294.93Z" fill="#231F20"/>
<path opacity="0.2" d="M575.19 295.79C575.177 296.413 575.005 297.022 574.69 297.56C573.406 300.311 571.11 302.461 568.28 303.56C567.19 303.95 566.49 304.03 566.46 303.94C568.318 303.094 570.051 301.997 571.61 300.68C573.011 299.213 574.214 297.569 575.19 295.79Z" fill="#231F20"/>
<path opacity="0.2" d="M645.91 294.75C645.882 293.927 645.738 293.112 645.48 292.33C645.179 291.447 644.707 290.631 644.09 289.93C643.254 288.998 642.184 288.308 640.99 287.93C639.494 287.61 637.946 287.61 636.45 287.93C635.567 288.07 634.672 288.11 633.78 288.05C632.795 287.959 631.856 287.591 631.07 286.99C629.48 285.68 628.65 283.8 627.46 282.2C626.915 281.345 626.15 280.652 625.246 280.193C624.342 279.734 623.332 279.526 622.32 279.59C620.222 279.772 618.144 280.137 616.11 280.68C613.407 281.163 610.621 280.841 608.1 279.752C605.578 278.664 603.433 276.859 601.93 274.56C600.684 272.601 599.955 270.358 599.81 268.04C599.76 267.418 599.76 266.792 599.81 266.17C599.812 265.952 599.849 265.736 599.92 265.53C599.92 265.53 599.92 266.43 600.04 268.01C600.291 270.238 601.069 272.373 602.31 274.24C603.782 276.401 605.85 278.089 608.262 279.099C610.674 280.109 613.327 280.398 615.9 279.93C617.971 279.363 620.09 278.988 622.23 278.81C623.358 278.758 624.48 279.009 625.479 279.536C626.478 280.064 627.317 280.849 627.91 281.81C629.13 283.51 629.91 285.36 631.38 286.5C632.097 286.974 632.903 287.296 633.75 287.445C634.596 287.595 635.464 287.569 636.3 287.37C637.874 287.07 639.494 287.111 641.05 287.49C642.151 287.877 643.146 288.516 643.955 289.357C644.764 290.197 645.365 291.216 645.71 292.33C645.886 292.934 645.974 293.561 645.97 294.19C645.973 294.379 645.953 294.567 645.91 294.75Z" fill="#231F20"/>
<path opacity="0.2" d="M637.22 303.19C637.076 303.431 636.874 303.632 636.634 303.777C636.393 303.921 636.121 304.005 635.84 304.02C635.184 304.109 634.516 304.001 633.92 303.71C633.156 303.3 632.522 302.683 632.09 301.93C631.604 301.033 631.196 300.097 630.87 299.13C630.537 298.074 629.982 297.102 629.24 296.28C628.319 295.491 627.162 295.03 625.95 294.97C624.65 294.84 623.28 294.8 621.88 294.72C619.212 294.702 616.566 294.239 614.05 293.35C611.944 292.605 610.151 291.171 608.96 289.28C608.191 287.996 607.841 286.503 607.96 285.01C607.994 284.611 608.078 284.218 608.21 283.84C608.249 283.704 608.31 283.576 608.39 283.46C608.291 283.978 608.238 284.503 608.23 285.03C608.221 286.451 608.631 287.842 609.41 289.03C610.593 290.777 612.314 292.09 614.31 292.77C616.785 293.61 619.378 294.049 621.99 294.07C623.38 294.15 624.75 294.19 626.1 294.33C627.45 294.412 628.733 294.948 629.74 295.85C630.534 296.724 631.118 297.767 631.45 298.9C631.74 299.846 632.108 300.766 632.55 301.65C632.892 302.346 633.427 302.929 634.09 303.33C634.613 303.616 635.205 303.751 635.8 303.72C636.313 303.674 636.803 303.491 637.22 303.19Z" fill="#231F20"/>
<path d="M516.09 369.8L510.79 363.27C507.58 358.41 511.43 355.86 511.79 354.79C512.295 353.117 513.155 351.572 514.31 350.26L513.12 348.26C511.637 346.203 510.301 344.044 509.12 341.8C508.66 340.5 510.91 339.49 511.73 340.59C513.61 343.09 516.84 347.31 518.25 348.77C520.11 350.7 524.6 355.9 525.25 351.29C525.9 346.68 524.81 344.58 524.72 343.29C524.695 343.078 524.716 342.864 524.78 342.661C524.844 342.458 524.951 342.271 525.093 342.112C525.234 341.953 525.408 341.826 525.602 341.739C525.796 341.651 526.007 341.606 526.22 341.606C526.433 341.606 526.643 341.651 526.838 341.739C527.032 341.826 527.206 341.953 527.347 342.112C527.489 342.271 527.595 342.458 527.66 342.661C527.724 342.864 527.744 343.078 527.72 343.29C527.92 344.46 528.54 346.39 528.91 349.21C529.07 350.51 529 352.12 529.13 353.37C529.3 354.84 531.13 359.83 531.3 360.87L516.09 369.8Z" fill="#F9B499"/>
<path d="M564.22 343.36L546.73 387.05L532.45 358.46L514.38 369.24L532.01 405.24C533.43 408.092 535.65 410.468 538.4 412.077C541.149 413.686 544.308 414.459 547.49 414.3C549.88 414.155 552.201 413.445 554.263 412.228C556.324 411.011 558.068 409.322 559.35 407.3C565.78 397.05 575.85 372.48 575.85 372.48C575.86 373.74 564.22 343.36 564.22 343.36Z" fill="#08B74F"/>
<path d="M628.02 378.48L636.84 340.33C627.71 331.54 613.73 330.8 613.73 330.8L609.18 333.86C606.442 335.694 603.201 336.629 599.907 336.536C596.613 336.442 593.43 335.326 590.8 333.34L587.45 330.8C576.64 332.11 568.79 335.74 564.22 343.4L569 381.4L574.55 399.67L563.7 439.33L636.35 442.43L623 396.27C622.42 397.27 628 378.5 628 378.5" fill="#08B74F"/>
<path d="M629.651 385.3C629.539 384.678 629.389 384.063 629.201 383.46C628.881 382.29 628.441 380.58 628.021 378.46C626.896 372.868 626.46 367.159 626.721 361.46C626.829 358.343 627.264 355.246 628.021 352.22C628.635 349.767 629.759 347.47 631.321 345.48C632.397 344.138 633.73 343.023 635.241 342.2C636.311 341.64 636.981 341.46 636.951 341.4C636.921 341.34 636.781 341.4 636.471 341.51C636.02 341.633 635.581 341.797 635.161 342C633.59 342.78 632.2 343.881 631.081 345.23C629.424 347.232 628.229 349.574 627.581 352.09C626.81 355.151 626.371 358.285 626.271 361.44C625.983 367.142 626.443 372.858 627.641 378.44C628.131 380.58 628.641 382.27 628.951 383.44C629.131 384.01 629.301 384.44 629.411 384.74C629.451 384.941 629.533 385.132 629.651 385.3Z" fill="#263238"/>
<path d="M600.09 435.93C596.15 438.629 592.063 441.109 587.85 443.36C582.49 445.9 582.24 445.43 582.03 444.77C581.47 442.96 591.28 439.92 588.76 439.36C586.24 438.8 577.23 444.47 576.76 442.56C576.11 440.08 586.44 437.08 587.29 436.77C588.14 436.46 587.69 435.21 586.94 435.54C585.85 436.01 574.32 440.68 573.65 438.24C573.27 436.94 575.79 436.52 575.79 436.52C575.79 436.52 586.92 432.93 586.56 431.79C586.2 430.65 579.56 432.52 577.42 433.31C575.28 434.1 573.99 433.4 574.42 432.16C574.71 431.32 581.33 428.74 583.49 428.01C585.65 427.28 591.67 425.4 587.89 423.92C584.11 422.44 581.73 420.01 581.55 418.92C581.37 417.83 582.85 417.2 583.77 418.09C584.827 418.954 585.994 419.673 587.24 420.23C588.229 420.709 589.29 421.02 590.38 421.15C591.32 421.27 592.17 421.34 592.91 421.39L600.91 422L604.97 432.64L600.09 435.93Z" fill="#F9B499"/>
<path d="M635.29 338.83C639.858 342.479 643.184 347.454 644.81 353.07C646.59 358.92 651.71 378.67 655.48 393.39C656.653 398.011 656.032 402.905 653.743 407.087C651.453 411.269 647.665 414.428 643.14 415.93L600.58 438.93L593.58 420.93L630.91 396.4L621.91 362.98C620.42 357.9 619.78 352.73 621.65 347.77C623.52 342.81 627.45 337.93 635.29 338.83Z" fill="#08B74F"/>
<path opacity="0.2" d="M645.61 414.93L645.42 415.07L644.79 415.42L642.38 416.73L633.24 421.73L600.76 439.19L600.46 439.36L600.33 439.03C598.18 433.46 595.81 427.4 593.33 421.03L593.23 420.78L593.46 420.64L610.19 409.64L630.79 396.12L630.66 396.47C628.2 387.27 626.37 378.6 624.66 370.85C624.23 368.9 623.82 367.01 623.35 365.2C622.912 363.438 622.578 361.652 622.35 359.85C622.048 356.621 622.322 353.363 623.16 350.23C623.84 347.663 625.226 345.339 627.16 343.52C628.653 342.201 630.492 341.337 632.46 341.03C633.679 340.838 634.924 340.913 636.11 341.25C636.521 341.364 636.917 341.525 637.29 341.73C636.899 341.581 636.498 341.457 636.09 341.36C634.907 341.08 633.679 341.043 632.48 341.25C630.578 341.591 628.811 342.461 627.38 343.76C625.485 345.547 624.131 347.831 623.47 350.35C622.672 353.433 622.428 356.632 622.75 359.8C622.974 361.579 623.308 363.343 623.75 365.08C624.15 366.91 624.57 368.79 625.05 370.72C626.81 378.46 628.69 387.14 631.15 396.3L631.21 396.53L631.02 396.66L610.44 410.2L593.68 421.2L593.81 420.81L600.74 438.81L600.31 438.65L632.93 421.4L642.19 416.56L644.65 415.25L645.29 414.94L645.61 414.93Z" fill="#231F20"/>
<path opacity="0.2" d="M575.85 352.57C575.953 353.141 575.977 353.723 575.92 354.3C575.851 355.873 575.589 357.431 575.14 358.94C574.478 361.156 573.701 363.336 572.81 365.47C571.687 368.048 570.813 370.726 570.2 373.47C569.71 376.229 569.71 379.052 570.2 381.81C570.573 384.082 571.108 386.324 571.8 388.52C572.39 390.4 572.91 391.91 573.26 392.95C573.476 393.486 573.64 394.042 573.75 394.61C573.44 394.126 573.191 393.606 573.01 393.06C572.58 392.06 572.01 390.54 571.34 388.67C570.578 386.466 569.989 384.206 569.58 381.91C569.07 379.076 569.07 376.174 569.58 373.34C570.177 370.553 571.051 367.833 572.19 365.22C573.122 363.089 573.946 360.913 574.66 358.7C575.265 356.703 575.663 354.649 575.85 352.57Z" fill="#231F20"/>
<path opacity="0.2" d="M631.7 396.04C631.7 395.97 632.13 395.78 632.92 395.8C633.941 395.831 634.934 396.137 635.795 396.686C636.656 397.235 637.352 398.007 637.81 398.92C638.15 399.62 638.18 400.1 638.1 400.13C637.484 398.948 636.569 397.949 635.446 397.231C634.323 396.513 633.031 396.103 631.7 396.04Z" fill="#231F20"/>
<path d="M598.67 365.57C598.694 365.51 598.724 365.453 598.76 365.4C598.861 365.237 598.971 365.08 599.09 364.93C599.551 364.386 600.12 363.944 600.76 363.63C601.801 363.104 602.993 362.959 604.13 363.22C604.883 363.399 605.587 363.743 606.19 364.227C606.794 364.711 607.282 365.324 607.62 366.02C608.033 366.872 608.218 367.816 608.157 368.761C608.096 369.706 607.79 370.619 607.27 371.41L603.81 376.55L595.81 388.29V388.39H595.71L594.79 388.74L587.16 391.62L586.7 391.79V382.41C590.15 377.41 593.07 373.27 595.17 370.17L597.73 366.72C597.999 366.304 598.304 365.913 598.64 365.55C598.431 366.006 598.18 366.441 597.89 366.85L595.59 370.38L587.31 382.75V391.31L586.87 391L594.43 388.14L595.34 387.8L595.17 387.92C598.03 383.75 600.73 379.8 603.17 376.17L606.66 371.07C607.138 370.36 607.426 369.54 607.496 368.687C607.566 367.835 607.416 366.978 607.06 366.2C606.523 365.06 605.56 364.176 604.379 363.738C603.197 363.301 601.89 363.344 600.74 363.86C599.945 364.289 599.242 364.87 598.67 365.57Z" fill="#E0E0E0"/>
<path d="M595.64 388.02C592.684 386.505 589.946 384.598 587.5 382.35C590.459 383.86 593.198 385.768 595.64 388.02Z" fill="#E0E0E0"/>
<path d="M590.09 390.13C589.91 390.21 589.47 389.53 588.79 388.91C588.11 388.29 587.3 387.91 587.34 387.74C587.38 387.57 588.34 387.64 589.22 388.38C590.1 389.12 590.24 390.08 590.09 390.13Z" fill="#E0E0E0"/>
<path d="M607.18 370.93C604.336 369.413 601.723 367.497 599.42 365.24C602.261 366.764 604.873 368.679 607.18 370.93Z" fill="#E0E0E0"/>
<path d="M591.57 384.85C591.968 383.927 592.468 383.052 593.06 382.24C594.06 380.7 595.46 378.58 597.06 376.29C598.66 374 600.06 371.9 601.17 370.41C601.717 369.579 602.325 368.79 602.99 368.05C603.21 368.19 600.79 372.05 597.62 376.66C596.04 378.97 594.62 381.04 593.47 382.51C592.932 383.362 592.294 384.148 591.57 384.85Z" fill="#E0E0E0"/>
<path opacity="0.2" d="M546.59 395.13C546.171 392.392 546.219 389.602 546.73 386.88C547.129 389.62 547.081 392.406 546.59 395.13Z" fill="#231F20"/>
<path d="M591.66 495.65C581.52 495.33 586.3 480.45 586.55 464.32C586.7 454.17 593.45 444.23 600.8 437.23C604.538 433.933 608.941 431.478 613.71 430.03C626.22 425.76 639.81 425.3 652.86 427.51C652.86 427.46 655.9 497.68 591.66 495.65Z" fill="#CCCCCC"/>
<path d="M384.67 428.39H297.59V433.09H384.67V428.39Z" fill="#2F2E41"/>
<path d="M228.09 241.13H454.09C455.782 241.13 457.405 241.802 458.602 242.999C459.798 244.195 460.47 245.818 460.47 247.51V402.13H221.74V247.51C221.74 245.823 222.408 244.205 223.598 243.009C224.788 241.814 226.403 241.138 228.09 241.13Z" fill="#2F2E41"/>
<path d="M221.74 402.13V403.93C221.743 405.949 222.547 407.885 223.976 409.312C225.404 410.739 227.341 411.54 229.36 411.54H306.7V428.42H375.56V411.51H452.09C454.335 411.51 456.488 410.619 458.076 409.033C459.664 407.446 460.558 405.295 460.56 403.05V402.13H221.74Z" fill="#2F2E41"/>
<path opacity="0.2" d="M221.74 402.13V403.93C221.743 405.949 222.547 407.885 223.976 409.312C225.404 410.739 227.341 411.54 229.36 411.54H306.7V428.42H375.56V411.51H452.09C454.335 411.51 456.488 410.619 458.076 409.033C459.664 407.446 460.558 405.295 460.56 403.05V402.13H221.74Z" fill="#231F20"/>
<path d="M454.93 248.34H228.21V397.39H454.93V248.34Z" fill="#3F3D56"/>
<path opacity="0.2" d="M454.93 248.34H228.21V397.39H454.93V248.34Z" fill="#231F20"/>
<path d="M449.83 252.66H232.92V393.61H449.83V252.66Z" fill="#FFFDFD"/>
<path d="M404.25 365.62H239.99V369.6H404.25V365.62Z" fill="#3F3D56"/>
<path d="M371.37 374.59H261.07C260.153 374.59 259.41 375.333 259.41 376.25V376.6C259.41 377.517 260.153 378.26 261.07 378.26H371.37C372.287 378.26 373.03 377.517 373.03 376.6V376.25C373.03 375.333 372.287 374.59 371.37 374.59Z" fill="#E4E4E4"/>
<path d="M305.04 381.67H261.07C260.153 381.67 259.41 382.413 259.41 383.33V383.68C259.41 384.597 260.153 385.34 261.07 385.34H305.04C305.957 385.34 306.7 384.597 306.7 383.68V383.33C306.7 382.413 305.957 381.67 305.04 381.67Z" fill="#E4E4E4"/>
<path d="M361.17 381.67H317.2C316.283 381.67 315.54 382.413 315.54 383.33V383.68C315.54 384.597 316.283 385.34 317.2 385.34H361.17C362.087 385.34 362.83 384.597 362.83 383.68V383.33C362.83 382.413 362.087 381.67 361.17 381.67Z" fill="#E4E4E4"/>
<path d="M253.81 374.59H239.99V385.35H253.81V374.59Z" fill="#E4E4E4"/>
<path d="M413.29 252.66H410.15V391.22H413.29V252.66Z" fill="#3F3D56"/>
<path d="M445.07 271.29H418.42V297.94H445.07V271.29Z" fill="#E4E4E4"/>
<path d="M428.92 280.64L435.29 284.02C435.407 284.082 435.506 284.173 435.577 284.285C435.648 284.397 435.689 284.525 435.695 284.658C435.701 284.79 435.673 284.922 435.612 285.04C435.551 285.158 435.461 285.258 435.35 285.33L428.98 289.49C428.866 289.566 428.733 289.609 428.596 289.616C428.459 289.622 428.323 289.592 428.202 289.527C428.081 289.463 427.98 289.366 427.909 289.249C427.838 289.132 427.8 288.997 427.8 288.86V281.31C427.8 281.179 427.834 281.049 427.898 280.935C427.963 280.82 428.057 280.725 428.17 280.657C428.282 280.59 428.411 280.553 428.542 280.55C428.674 280.547 428.804 280.578 428.92 280.64Z" fill="#2F2E41"/>
<path d="M445.07 337.19H418.42V363.84H445.07V337.19Z" fill="#E4E4E4"/>
<path d="M428.92 346.54L435.29 349.93C435.407 349.992 435.507 350.083 435.578 350.195C435.649 350.307 435.689 350.435 435.695 350.568C435.701 350.7 435.673 350.832 435.612 350.95C435.552 351.068 435.461 351.168 435.35 351.24L428.98 355.41C428.865 355.486 428.731 355.53 428.594 355.536C428.456 355.542 428.319 355.51 428.198 355.445C428.076 355.379 427.975 355.281 427.905 355.162C427.835 355.044 427.799 354.908 427.8 354.77V347.23C427.796 347.097 427.828 346.965 427.891 346.848C427.955 346.73 428.048 346.632 428.161 346.562C428.275 346.492 428.404 346.453 428.538 346.449C428.671 346.446 428.803 346.477 428.92 346.54Z" fill="#2F2E41"/>
<path d="M445.07 309.9H418.42V327.05H445.07V309.9Z" fill="#E4E4E4"/>
<path d="M445.07 371.39H418.42V388.54H445.07V371.39Z" fill="#E4E4E4"/>
<mask id="mask0_58_140" style="mask-type:luminance" maskUnits="userSpaceOnUse" x="293" y="36" width="116" height="116">
<path d="M350.98 151.89C382.885 151.89 408.75 126.025 408.75 94.12C408.75 62.2145 382.885 36.35 350.98 36.35C319.074 36.35 293.21 62.2145 293.21 94.12C293.21 126.025 319.074 151.89 350.98 151.89Z" fill="white"/>
</mask>
<g mask="url(#mask0_58_140)">
<path d="M313.55 143.79C313.55 143.79 333.55 126.95 350.19 121.79C366.83 116.63 404.99 129.71 404.99 129.71C404.99 129.71 400.86 144.71 375.77 152.32C350.68 159.93 339.77 159.42 326.26 153.96C312.75 148.5 313.55 143.79 313.55 143.79Z" fill="#08B74F"/>
<path d="M340.95 115.57C342.794 120.702 344.337 125.938 345.57 131.25C347.38 139.34 350.85 144.45 356.63 138.35C362.41 132.25 363.89 120.03 363.89 116.26C363.89 112.49 363.56 105.2 363.56 105.2C363.56 105.2 355.64 117.42 351.34 118.57C347.04 119.72 340.95 115.57 340.95 115.57Z" fill="#F9B499"/>
<path d="M340.95 115.57C342.794 120.702 344.337 125.938 345.57 131.25C347.38 139.34 350.85 144.45 356.63 138.35C362.41 132.25 363.89 120.03 363.89 116.26C363.89 112.49 363.56 105.2 363.56 105.2C363.56 105.2 355.64 117.42 351.34 118.57C347.04 119.72 340.95 115.57 340.95 115.57Z" fill="#F4A48E"/>
<path d="M330.22 92.32C330.22 92.32 328.07 88.86 326.42 92C324.77 95.14 327.08 99.76 328.74 101.74C330.4 103.72 333.02 105.2 333.36 103.37C333.7 101.54 330.22 92.32 330.22 92.32Z" fill="#F9B499"/>
<path d="M317.81 62.62C317.81 62.62 313.89 64.12 313.38 67.92C313.085 70.1927 313.668 72.4924 315.01 74.35C315.01 74.35 312.24 77.09 312.86 80.56C313.48 84.03 317.59 85.65 317.59 85.65C317.59 85.65 316.48 89.1 318.45 91.55C320.42 94 323.27 92.31 323.27 92.31C323.287 93.0555 323.517 93.7806 323.934 94.3991C324.351 95.0177 324.936 95.5039 325.62 95.8C328.07 96.87 331.29 95.88 331.29 95.88C332.233 96.2111 333.221 96.3999 334.22 96.44C336.41 96.64 338.7 94.07 338.7 94.07L373.98 88.83C374.892 88.6505 375.749 88.2617 376.485 87.6942C377.221 87.1268 377.815 86.3962 378.22 85.56C379.42 82.8 376.22 76.18 376.22 76.18C376.22 76.18 379.49 74.84 378.52 69.98C377.55 65.12 376.09 64.06 376.09 64.06C376.09 64.06 378.09 57.32 374.32 54.33C370.55 51.34 368.15 52.86 368.15 52.86C368.15 52.86 365.15 46.41 360.38 46.69C355.61 46.97 354.27 48 354.27 48C354.27 48 350.77 44.88 347.12 45.33C346.139 45.3888 345.189 45.7018 344.365 46.2382C343.541 46.7747 342.871 47.5162 342.42 48.39C342.42 48.39 335.57 45.87 332.36 48.26C330.514 49.5939 328.964 51.2965 327.81 53.26C327.81 53.26 323.62 52.51 321.97 55.09C320.938 56.8264 320.373 58.8005 320.33 60.82C320.33 60.82 318.64 60.38 317.81 62.62Z" fill="#2F2E41"/>
<path d="M327.25 82.56C328.715 90.2954 330.757 97.9101 333.36 105.34C337.45 116.89 342.93 121.18 348.54 123C354.15 124.82 362.54 113.42 364.72 106.16C366.9 98.9 366.72 97.57 366.72 97.57C366.72 97.57 372.66 96.09 374.31 90.31C375.96 84.53 371.85 80.9 368.53 82.22C365.21 83.54 364.53 87.84 364.53 87.84C364.53 87.84 358.92 84.84 356.77 81.07C355.527 79.097 354.894 76.8012 354.95 74.47C354.95 74.47 349.51 70.01 339.28 71.83C336.444 72.2425 333.791 73.4795 331.653 75.3872C329.514 77.295 327.983 79.7893 327.25 82.56Z" fill="#F9B499"/>
<path d="M369.17 95.76C368.722 103.58 366.819 111.248 363.56 118.37C360.022 125.494 355.523 132.099 350.19 138C350.19 138 344.58 137.35 336.83 125.13C332.169 117.81 329.282 109.503 328.4 100.87" stroke="#3F3D56" stroke-miterlimit="10"/>
<path d="M370.99 92.93C370.99 92.93 372.14 89.46 370.83 88.64C369.52 87.82 368.18 90.13 368.51 91.28L368.84 92.44C368.84 92.44 368.68 95.57 369.17 95.71C369.66 95.85 370.99 92.93 370.99 92.93Z" stroke="#3F3D56" stroke-miterlimit="10"/>
<path d="M350.19 138.01C350.19 138.01 351.83 151.71 354.65 159.28" stroke="#3F3D56" stroke-linecap="round" stroke-linejoin="round"/>
<path d="M365.71 113.09C365.71 113.09 360.42 115.73 360.92 117.71C360.995 118.028 361.132 118.328 361.324 118.592C361.516 118.856 361.759 119.08 362.038 119.249C362.317 119.418 362.628 119.53 362.951 119.579C363.274 119.627 363.603 119.61 363.92 119.53C364.096 119.49 364.267 119.429 364.43 119.35C365.58 118.85 368.72 117.71 368.72 117.71L370.87 122.01C370.87 122.01 367.23 119.69 365.42 120.37C364.153 120.887 362.981 121.61 361.95 122.51C361.72 122.373 361.464 122.284 361.199 122.248C360.934 122.212 360.665 122.229 360.406 122.299C360.148 122.369 359.906 122.49 359.696 122.655C359.485 122.82 359.31 123.026 359.18 123.26V123.33C358.512 124.315 358.059 125.429 357.85 126.6C357.3 127.036 356.852 127.586 356.538 128.214C356.224 128.841 356.05 129.529 356.03 130.23C356.03 132.54 356.03 134.32 357.52 135.68C358.155 136.401 359.028 136.87 359.98 137L361.29 137.82C361.29 137.82 358.02 145.08 359.98 148.87C361.94 152.66 362.98 152.34 362.98 152.34L366.93 159.61L377.5 157L372.06 144.78C372.06 144.78 381.13 126.13 380.14 123.16C379.15 120.19 375.05 116.39 372.59 113.92C371.748 112.956 370.579 112.338 369.309 112.185C368.039 112.032 366.757 112.354 365.71 113.09Z" fill="#F9B499"/>
</g>
<path d="M350.98 151.89C382.885 151.89 408.75 126.025 408.75 94.12C408.75 62.2145 382.885 36.35 350.98 36.35C319.074 36.35 293.21 62.2145 293.21 94.12C293.21 126.025 319.074 151.89 350.98 151.89Z" stroke="#CCCCCC" stroke-width="2" stroke-miterlimit="10"/>
<path d="M332.09 157.65C332.09 157.65 273.66 166.93 278.71 205.23C278.88 206.877 279.457 208.455 280.389 209.824C281.32 211.192 282.577 212.308 284.046 213.072C285.515 213.835 287.15 214.222 288.806 214.197C290.461 214.172 292.084 213.737 293.53 212.93C295.482 212.016 297.018 210.4 297.834 208.405C298.649 206.409 298.683 204.18 297.93 202.16C296.79 199.4 294.03 197.06 287.75 197.74C271.64 199.51 262.04 217.14 269.38 231.6C271.417 235.501 274.105 239.025 277.33 242.02C282.161 246.54 287.785 250.131 293.92 252.61C301.76 255.84 318.92 265.01 325.14 285.12" stroke="#3F3D56" stroke-width="2" stroke-miterlimit="10"/>
<mask id="mask1_58_140" style="mask-type:luminance" maskUnits="userSpaceOnUse" x="1" y="209" width="143" height="143">
<path d="M72.37 351.92C111.787 351.92 143.74 319.967 143.74 280.55C143.74 241.133 111.787 209.18 72.37 209.18C32.9534 209.18 1 241.133 1 280.55C1 319.967 32.9534 351.92 72.37 351.92Z" fill="white"/>
</mask>
<g mask="url(#mask1_58_140)">
<path d="M53.4398 316.28C53.4398 316.28 58.2798 334.62 63.1598 342.72C68.0398 350.82 70.8998 353.8 70.8998 353.8C58.5698 352.31 47.3798 349.49 37.0498 342.58C14.0498 329.31 6.7998 308.75 6.7998 308.75L37.9698 296.75L53.4398 316.28Z" fill="#08B74F"/>
<path d="M61.7397 314.8C61.0907 316.676 60.671 318.623 60.4897 320.6C60.2797 323.51 60.4897 327.24 59.2397 326.41C57.9897 325.58 54.6797 318.52 54.6797 318.52L61.7397 314.8Z" fill="#08B74F"/>
<path d="M50.3198 300.9L61.7298 314.8L51.9898 322.47L44.5098 308.99L50.3198 300.9Z" fill="#08B74F"/>
<path opacity="0.2" d="M50.3198 300.9L61.7298 314.8L51.9898 322.47L44.5098 308.99L50.3198 300.9Z" fill="#231F20"/>
<path d="M50.3197 270.61C50.3197 270.61 47.2097 280.99 44.7297 286.61C43.4399 289.368 42.3309 292.208 41.4097 295.11C41.9821 298.291 43.027 301.368 44.5097 304.24C47.2097 309.84 49.5097 313.57 49.6997 312.95C49.8897 312.33 48.4597 308.18 54.4697 300.71C60.4797 293.24 63.3897 289.93 63.3897 289.93L50.3197 270.61Z" fill="#F9B499"/>
<path d="M41.1996 288.86C41.9006 293.817 43.6679 298.562 46.3796 302.77C48.7971 306.383 51.432 309.846 54.2696 313.14L42.2696 327.48C41.7496 322.111 40.4002 316.855 38.2696 311.9C36.2194 307.419 34.8219 302.668 34.1196 297.79L41.1996 288.86Z" fill="#08B74F"/>
<path opacity="0.2" d="M41.1996 288.86C41.9006 293.817 43.6679 298.562 46.3796 302.77C48.7971 306.383 51.432 309.846 54.2696 313.14L42.2696 327.48C41.7496 322.111 40.4002 316.855 38.2696 311.9C36.2194 307.419 34.8219 302.668 34.1196 297.79L41.1996 288.86Z" fill="#231F20"/>
<path d="M98.6597 260.24C98.6597 260.24 92.8497 281.81 85.1797 293.43C77.5097 305.05 71.2797 306.29 65.8797 304.01C60.4797 301.73 54.4697 289.49 52.5997 284.72C50.7297 279.95 49.6997 277.25 49.6997 277.25C49.6997 277.25 46.1797 283.25 42.0297 276C37.8797 268.75 38.7097 261.89 41.4097 259C42.9386 257.302 44.9713 256.138 47.2097 255.68C47.2097 255.68 56.1397 254.44 54.6797 249.68C53.2197 244.92 68.5797 233.29 86.2097 237.03C103.84 240.77 98.6597 260.24 98.6597 260.24Z" fill="#F9B499"/>
<path d="M59.0896 259.82C58.5001 260.185 57.993 260.669 57.6005 261.24C57.208 261.812 56.9387 262.459 56.8096 263.14C56.3896 265.43 57.2196 269.78 53.6896 270.2C50.1596 270.62 46.2296 267.08 44.7796 266.46C43.3296 265.84 41.4596 269.16 38.7796 260.24C36.0996 251.32 41.0596 236.39 46.4496 234.31C51.8396 232.23 58.8996 232.65 58.8996 232.65C58.8996 232.65 63.6696 227.05 80.0596 227.05C96.4496 227.05 108.68 234.93 105.78 237.05C102.88 239.17 101.22 239.33 101.22 239.33C101.22 239.33 110.35 246.38 109.93 254.68C109.51 262.98 102.26 264.22 96.2396 261.73C90.2196 259.24 85.0396 249.73 85.0396 249.73C85.0396 249.73 88.5696 259.73 84.2096 258.24C79.8496 256.75 75.0896 249.32 68.4496 247.03C61.8096 244.74 60.5596 245.78 60.5596 245.78C60.5596 245.78 70.7196 249.52 66.5596 254.09C62.3996 258.66 59.0896 259.82 59.0896 259.82Z" fill="#2F2E41"/>
<path d="M43.48 260.44C43.48 260.44 48.09 232.65 54.68 229.93C61.27 227.21 62.98 229.1 62.98 229.1C62.98 229.1 51.37 243.41 47.63 259.39L43.48 260.44Z" fill="#3F3D56"/>
<path opacity="0.2" d="M43.48 260.44C43.48 260.44 48.09 232.65 54.68 229.93C61.27 227.21 62.98 229.1 62.98 229.1C62.98 229.1 51.37 243.41 47.63 259.39L43.48 260.44Z" fill="#231F20"/>
<path d="M70.6499 293.64C70.2873 293.643 69.9292 293.72 69.5974 293.866C69.2656 294.013 68.967 294.225 68.7199 294.49C50.3299 288.68 49.4999 276.1 49.4699 275.54C49.4673 275.384 49.4339 275.23 49.3717 275.086C49.3095 274.943 49.2196 274.813 49.1072 274.704C48.9949 274.596 48.8622 274.51 48.7168 274.453C48.5714 274.396 48.4161 274.367 48.2599 274.37H48.1999C48.0401 274.375 47.8829 274.412 47.7374 274.478C47.5918 274.544 47.4609 274.639 47.3521 274.756C47.2433 274.873 47.1588 275.011 47.1035 275.161C47.0482 275.311 47.0232 275.47 47.0299 275.63C47.0299 276.24 47.8899 290.45 68.0299 296.82C68.1267 297.321 68.3642 297.785 68.7148 298.156C69.0653 298.528 69.5142 298.792 70.0092 298.917C70.5042 299.043 71.0247 299.025 71.5099 298.866C71.9952 298.707 72.425 298.413 72.7493 298.018C73.0735 297.623 73.2788 297.145 73.341 296.638C73.4033 296.131 73.32 295.617 73.1008 295.156C72.8817 294.694 72.5358 294.305 72.1035 294.033C71.6713 293.761 71.1705 293.618 70.6599 293.62L70.6499 293.64Z" fill="#3F3D56"/>
<path d="M45.8698 278.09C50.7409 278.09 54.6898 273.631 54.6898 268.13C54.6898 262.629 50.7409 258.17 45.8698 258.17C40.9986 258.17 37.0498 262.629 37.0498 268.13C37.0498 273.631 40.9986 278.09 45.8698 278.09Z" fill="#3F3D56"/>
<path opacity="0.2" d="M45.8698 278.09C50.7409 278.09 54.6898 273.631 54.6898 268.13C54.6898 262.629 50.7409 258.17 45.8698 258.17C40.9986 258.17 37.0498 262.629 37.0498 268.13C37.0498 273.631 40.9986 278.09 45.8698 278.09Z" fill="#231F20"/>
<path d="M70.0298 355.46L79.4298 331.03C79.7199 330.249 80.2129 329.56 80.8579 329.032C81.5029 328.505 82.2767 328.159 83.0998 328.03L135.56 319.66C136.02 319.591 136.488 319.707 136.863 319.982C137.238 320.258 137.488 320.671 137.56 321.13C137.611 321.471 137.559 321.819 137.41 322.13L127.41 342.94L70.0298 355.46Z" fill="#2F2E41"/>
</g>
<path d="M72.37 351.92C111.787 351.92 143.74 319.967 143.74 280.55C143.74 241.133 111.787 209.18 72.37 209.18C32.9534 209.18 1 241.133 1 280.55C1 319.967 32.9534 351.92 72.37 351.92Z" stroke="#CCCCCC" stroke-width="2" stroke-miterlimit="10"/>
<path d="M151.67 287.84C151.67 287.84 178.94 264.41 200.32 275.38C202.559 276.481 204.515 278.083 206.036 280.062C207.557 282.041 208.602 284.343 209.09 286.79C209.82 290.84 208.94 295.14 201.93 295.21C200.066 295.237 198.263 294.546 196.895 293.28C195.527 292.014 194.698 290.27 194.58 288.41C194.32 283.97 196.89 279.23 210.73 282.16C214.046 282.98 217.314 283.982 220.52 285.16C222.68 285.94 224.8 286.84 226.89 287.81C235.89 292.02 273.39 308.31 290.55 298.27" stroke="#3F3D56" stroke-width="2" stroke-miterlimit="10"/>
<path d="M530.6 189.54C530.6 189.54 527 237.15 496.6 246.93C493.465 247.994 490.127 248.323 486.845 247.891C483.563 247.46 480.423 246.279 477.67 244.44C473.18 241.32 469.98 236.44 476.49 229.8C478.216 228.028 480.555 226.986 483.026 226.89C485.498 226.793 487.912 227.649 489.77 229.28C494.19 233.22 496.23 240.08 480.48 250.28C476.599 252.623 472.593 254.753 468.48 256.66C465.71 257.96 462.88 259.11 460.01 260.16C447.57 264.7 357.64 275.87 350.95 301.41" stroke="#3F3D56" stroke-width="2" stroke-miterlimit="10"/>
<mask id="mask2_58_140" style="mask-type:luminance" maskUnits="userSpaceOnUse" x="522" y="84" width="127" height="127">
<path d="M585.98 210.13C620.774 210.13 648.98 181.924 648.98 147.13C648.98 112.336 620.774 84.13 585.98 84.13C551.187 84.13 522.98 112.336 522.98 147.13C522.98 181.924 551.187 210.13 585.98 210.13Z" fill="white"/>
</mask>
<g mask="url(#mask2_58_140)">
<path d="M578.14 107.08C574.498 107.618 570.821 107.879 567.14 107.86C560.76 107.86 549.2 108.44 548.58 120.42C547.96 132.4 558.25 135.12 564.04 134.95C567.174 134.958 570.273 134.297 573.13 133.01C573.13 133.01 576.61 150.4 570.04 159.49C563.47 168.58 555.52 172.63 553.22 183.49C550.92 194.35 552.22 197.6 552.22 197.6C552.22 197.6 583.15 209.6 604.41 202.6C625.67 195.6 627.98 197.77 639.41 180.95C650.84 164.13 638.06 159.5 630.71 152.76C623.36 146.02 614.29 139.41 616.6 129.93C618.91 120.45 621.09 116.36 612.6 108.23C604.11 100.1 595.21 100.49 590.39 103.4C585.57 106.31 578.14 107.08 578.14 107.08Z" fill="#2F2E41"/>
<path d="M557.14 119.93C559.28 119.803 561.384 120.521 563 121.93C569.65 126.93 576.27 128.36 584.17 122.53C588.493 119.439 592.511 115.943 596.17 112.09" stroke="white" stroke-linecap="round" stroke-linejoin="round"/>
<path d="M552.6 122.76C553.106 122.049 553.74 121.438 554.47 120.96" stroke="white" stroke-linecap="round" stroke-linejoin="round"/>
<path d="M623.44 186.98C622.513 188.03 621.342 188.837 620.03 189.33" stroke="white" stroke-linecap="round" stroke-linejoin="round"/>
<path d="M597.95 121.93C597.95 121.93 592.95 128.6 596.28 134.42C599.61 140.24 611.28 141.08 621.67 154.42C628.28 162.89 629.17 173.54 626.79 180.9" stroke="white" stroke-linecap="round" stroke-linejoin="round"/>
<path d="M622.91 151.06C622.91 151.06 641.63 163.96 634.98 181.81" stroke="white" stroke-linecap="round" stroke-linejoin="round"/>
<path d="M538.45 188.67C538.45 188.67 557.52 184.33 567.45 177.67C577.38 171.01 584.31 171.72 588.83 174.01C593.35 176.3 608.83 194.16 616.57 197.59L624.37 201.02C624.37 201.02 615.95 212.02 591.29 211.33C566.63 210.64 554.29 206.27 547.52 201.02C543.405 197.829 540.263 193.552 538.45 188.67Z" fill="#08B74F"/>
<path d="M581.42 164.11C580.21 168.44 578.592 172.645 576.59 176.67C573.11 183.82 571.76 189.43 576.98 189.81C582.2 190.19 589.74 182.08 591.5 177.64C593.26 173.2 597.3 155.43 597.3 155.43L581.42 164.11Z" fill="#F9B499"/>
<path d="M568.48 127.19C568.48 127.19 566.15 144.58 565.77 154.25C565.39 163.92 570.6 169.33 574.86 169.13C579.12 168.93 596.89 158.51 597.09 157.93C597.29 157.35 599.98 155.81 599.98 155.81C599.98 155.81 600.76 158.32 603.65 156.19C606.54 154.06 608.29 145.75 607.52 143.44C606.75 141.13 605.98 141.5 605.2 141.89C604.42 142.28 601.34 144.4 597.85 144.01C594.36 143.62 587.85 139.74 587.03 132.8C586.21 125.86 586.84 123.53 586.84 123.53C586.84 123.53 578.14 132.21 568.48 127.19Z" fill="#F9B499"/>
<path d="M606.57 136.47C606.57 136.47 609.14 128.83 602.51 117.91C597.51 109.6 588.79 106.12 585.51 106.31C582.23 106.5 578.16 107.08 578.16 107.08L589.75 102.26C589.75 102.26 600.38 103.8 605.75 112.26C611.12 120.72 611.16 131.79 610.02 135.65L608.86 139.52L606.57 136.47Z" fill="#3F3D56"/>
<path opacity="0.2" d="M606.57 136.47C606.57 136.47 609.14 128.83 602.51 117.91C597.51 109.6 588.79 106.12 585.51 106.31C582.23 106.5 578.16 107.08 578.16 107.08L589.75 102.26C589.75 102.26 600.38 103.8 605.75 112.26C611.12 120.72 611.16 131.79 610.02 135.65L608.86 139.52L606.57 136.47Z" fill="black" stroke="#263238" stroke-width="0.25" stroke-miterlimit="10"/>
<path d="M585.54 166.17C585.838 166.178 586.131 166.25 586.398 166.382C586.665 166.513 586.902 166.7 587.09 166.93C602.09 161.81 602.74 150.86 602.76 150.36C602.76 150.095 602.866 149.84 603.053 149.653C603.241 149.465 603.495 149.36 603.76 149.36C603.899 149.366 604.035 149.4 604.161 149.46C604.287 149.519 604.399 149.603 604.492 149.706C604.585 149.809 604.657 149.93 604.703 150.061C604.749 150.192 604.768 150.331 604.76 150.47C604.76 151.02 604.05 163.47 587.67 169C587.593 169.521 587.336 169.999 586.943 170.349C586.55 170.7 586.047 170.902 585.52 170.92C584.935 170.866 584.39 170.595 583.994 170.16C583.597 169.725 583.377 169.158 583.377 168.57C583.377 167.982 583.597 167.415 583.994 166.98C584.39 166.545 584.935 166.274 585.52 166.22L585.54 166.17Z" fill="#3F3D56"/>
<path d="M605.73 152.55C609.696 152.55 612.91 148.655 612.91 143.85C612.91 139.045 609.696 135.15 605.73 135.15C601.765 135.15 598.55 139.045 598.55 143.85C598.55 148.655 601.765 152.55 605.73 152.55Z" fill="#3F3D56"/>
<path opacity="0.2" d="M605.73 152.55C609.696 152.55 612.91 148.655 612.91 143.85C612.91 139.045 609.696 135.15 605.73 135.15C601.765 135.15 598.55 139.045 598.55 143.85C598.55 148.655 601.765 152.55 605.73 152.55Z" fill="#231F20"/>
<path d="M607.32 147.19C607.32 147.19 606.32 145.6 605.62 149.96C604.92 154.32 604.84 164.84 604.84 164.84C604.84 164.84 602.91 165.05 600.4 159.49C597.89 153.93 598.27 152.56 597.3 155.74C596.33 158.92 599.62 165.05 600.58 167.03C601.026 167.991 601.544 168.917 602.13 169.8C602.13 169.8 594.44 174.8 594.02 178.32C593.6 181.84 595.95 210.42 595.95 210.42L606.38 208.42L601.94 184.25C601.94 184.25 615.86 168.59 617.21 165.62C618.56 162.65 613.53 153.36 611.99 147.99C610.45 142.62 608.51 142.99 608.32 144.42C608.196 145.415 608.132 146.417 608.13 147.42C608.13 147.42 607.73 158.92 608.51 163.27L607.32 147.19Z" fill="#F9B499"/>
<path d="M611.96 147.87C611.96 147.87 612.74 158.51 613.67 162.18" stroke="#263238" stroke-linecap="round" stroke-linejoin="round"/>
</g>
<path d="M585.98 210.13C620.774 210.13 648.98 181.924 648.98 147.13C648.98 112.336 620.774 84.13 585.98 84.13C551.187 84.13 522.98 112.336 522.98 147.13C522.98 181.924 551.187 210.13 585.98 210.13Z" stroke="#CCCCCC" stroke-width="2" stroke-miterlimit="10"/>
<path d="M75.1401 167.05H174.47" stroke="white" stroke-width="1.18" stroke-miterlimit="10"/>
<path d="M75.1401 177.24H115.6" stroke="white" stroke-width="1.18" stroke-miterlimit="10"/>
<path d="M306.95 3.00002V39.49C306.95 40.2857 306.634 41.0487 306.071 41.6113C305.509 42.1739 304.746 42.49 303.95 42.49H290.82V54.26L276.09 42.5H161.88C161.084 42.5 160.321 42.1839 159.759 41.6213C159.196 41.0587 158.88 40.2957 158.88 39.5V3.00002C158.88 2.20437 159.196 1.44131 159.759 0.878696C160.321 0.316087 161.084 1.66682e-05 161.88 1.66682e-05H303.94C304.335 -0.00129936 304.726 0.0753267 305.091 0.225502C305.456 0.375676 305.788 0.596447 306.068 0.875154C306.347 1.15386 306.569 1.48502 306.721 1.84965C306.872 2.21428 306.95 2.60521 306.95 3.00002Z" fill="#CCCCCC"/>
<path d="M286.79 15.14H187.45" stroke="white" stroke-width="1.18" stroke-miterlimit="10"/>
<path d="M286.79 25.34H246.33" stroke="white" stroke-width="1.18" stroke-miterlimit="10"/>
<path d="M569.16 39.8002H469.83" stroke="white" stroke-width="1.18" stroke-miterlimit="10"/>
</svg>
