<?xml version="1.0" ?><!-- Uploaded to: SVG Repo, www.svgrepo.com, Generator: SVG Repo Mixer Tools -->
<svg fill="#000000" width="800px" height="800px" viewBox="0 0 32 32" id="Outline" xmlns="http://www.w3.org/2000/svg"><path d="M27,28.75H5A.76.76,0,0,1,4.25,28V14.5a.75.75,0,0,1,.35-.63S7.49,12,8.09,9.11A6,6,0,0,0,7,4.42a.75.75,0,0,1,.62-1.17h4.94a.75.75,0,0,1,.61.31.72.72,0,0,1,.1.68,6.05,6.05,0,0,0-.3,1.93c0,2.41,1.4,4.44,3.07,4.44s3.07-2,3.07-4.44a6.05,6.05,0,0,0-.3-1.93.72.72,0,0,1,.1-.68.75.75,0,0,1,.61-.31h4.94A.75.75,0,0,1,25,4.42a6,6,0,0,0-1.13,4.69c.6,2.88,3.46,4.74,3.49,4.76a.75.75,0,0,1,.35.63V28A.76.76,0,0,1,27,28.75ZM5.75,27.25h20.5V14.89a9.76,9.76,0,0,1-3.81-5.46,7.1,7.1,0,0,1,.67-4.68H20.44a7.43,7.43,0,0,1,.13,1.42c0,3.28-2.05,5.94-4.57,5.94s-4.57-2.66-4.57-5.94a7.43,7.43,0,0,1,.13-1.42H8.89a7.1,7.1,0,0,1,.67,4.68,9.76,9.76,0,0,1-3.81,5.46Z"/><path d="M13.4,24.51h-3a.73.73,0,0,1-.54-.23L8.6,23a.73.73,0,0,1-.21-.52v-6.1a.74.74,0,0,1,.27-.57l1.25-1a.74.74,0,0,1,.48-.17h3a.74.74,0,0,1,.48.17l1.25,1a.74.74,0,0,1,.27.57v6.1a.73.73,0,0,1-.21.52l-1.25,1.3A.74.74,0,0,1,13.4,24.51ZM10.71,23h2.37l.82-.85V16.71l-.77-.64H10.66l-.77.64v5.45Z"/><path d="M22.86,20.29H18.09a.75.75,0,1,1,0-1.5h4V16.42l-.58-.35H18.09a.75.75,0,1,1,0-1.5h3.65a.77.77,0,0,1,.39.11l1.12.68a.74.74,0,0,1,.36.64v3.54A.74.74,0,0,1,22.86,20.29Z"/><path d="M21.74,24.51H18.09a.75.75,0,0,1,0-1.5h3.44l.58-.35V19.54a.75.75,0,0,1,1.5,0v3.54a.73.73,0,0,1-.36.64l-1.12.68A.68.68,0,0,1,21.74,24.51Z"/></svg>