<svg width="581" height="603" viewBox="0 0 581 603" fill="none" xmlns="http://www.w3.org/2000/svg">
<path d="M447.707 0.0108032H233.335C232.098 0.0108032 231.095 1.00315 231.095 2.22727V389.584C231.095 390.808 232.098 391.801 233.335 391.801H447.707C448.944 391.801 449.947 390.808 449.947 389.584V2.22727C449.947 1.00315 448.944 0.0108032 447.707 0.0108032Z" fill="#08B74F"/>
<path opacity="0.5" d="M447.707 0.0108032H233.335C232.098 0.0108032 231.095 1.00315 231.095 2.22727V389.584C231.095 390.808 232.098 391.801 233.335 391.801H447.707C448.944 391.801 449.947 390.808 449.947 389.584V2.22727C449.947 1.00315 448.944 0.0108032 447.707 0.0108032Z" fill="white"/>
<path opacity="0.19" d="M438.673 10.7238H243.899C240.209 10.7238 237.217 13.702 237.217 17.3758V366.784C237.217 370.457 240.209 373.436 243.899 373.436H438.673C442.363 373.436 445.355 370.457 445.355 366.784V17.3758C445.355 13.702 442.363 10.7238 438.673 10.7238Z" fill="#08B74F"/>
<path d="M457.227 117.854H263.605C262.554 117.854 261.703 118.69 261.703 119.721V330.247C261.703 331.278 262.554 332.114 263.605 332.114H457.227C458.277 332.114 459.129 331.278 459.129 330.247V119.721C459.129 118.69 458.277 117.854 457.227 117.854Z" fill="#08B74F"/>
<path opacity="0.46" d="M457.227 117.854H263.605C262.554 117.854 261.703 118.69 261.703 119.721V330.247C261.703 331.278 262.554 332.114 263.605 332.114H457.227C458.277 332.114 459.129 331.278 459.129 330.247V119.721C459.129 118.69 458.277 117.854 457.227 117.854Z" fill="white"/>
<path d="M148.451 86.4293V178.575C148.451 179.972 147.891 181.312 146.895 182.299C145.898 183.287 144.546 183.842 143.136 183.842H111.088V208.149L84.1784 183.803H25.2108C24.5128 183.803 23.8216 183.667 23.1767 183.402C22.5319 183.138 21.9459 182.75 21.4523 182.261C20.9588 181.772 20.5672 181.191 20.3001 180.552C20.033 179.913 19.8955 179.228 19.8955 178.536V86.3905C19.8955 85.6988 20.033 85.0139 20.3001 84.3749C20.5672 83.7359 20.9588 83.1553 21.4523 82.6662C21.9459 82.1772 22.5319 81.7892 23.1767 81.5245C23.8216 81.2598 24.5128 81.1236 25.2108 81.1236H143.136C143.837 81.1236 144.532 81.2611 145.179 81.5282C145.827 81.7953 146.414 82.1867 146.909 82.6799C147.403 83.1731 147.793 83.7583 148.058 84.4018C148.323 85.0453 148.457 85.7344 148.451 86.4293Z" fill="#08B74F"/>
<path opacity="0.4" d="M148.451 86.4293V178.575C148.451 179.972 147.891 181.312 146.895 182.299C145.898 183.287 144.546 183.842 143.136 183.842H111.088V208.149L84.1784 183.803H25.2108C24.5128 183.803 23.8216 183.667 23.1767 183.402C22.5319 183.138 21.9459 182.75 21.4523 182.261C20.9588 181.772 20.5672 181.191 20.3001 180.552C20.033 179.913 19.8955 179.228 19.8955 178.536V86.3905C19.8955 85.6988 20.033 85.0139 20.3001 84.3749C20.5672 83.7359 20.9588 83.1553 21.4523 82.6662C21.9459 82.1772 22.5319 81.7892 23.1767 81.5245C23.8216 81.2598 24.5128 81.1236 25.2108 81.1236H143.136C143.837 81.1236 144.532 81.2611 145.179 81.5282C145.827 81.7953 146.414 82.1867 146.909 82.6799C147.403 83.1731 147.793 83.7583 148.058 84.4018C148.323 85.0453 148.457 85.7344 148.451 86.4293Z" fill="white"/>
<path d="M427.687 390.27L462.19 593.817H449.25L414.747 390.27H427.687Z" fill="#D1D3D4"/>
<path d="M410.155 592.287L395.402 393.331H381.077L397.515 592.287H410.155Z" fill="#BCBEC0"/>
<path d="M111.721 587.696L145.789 390.27H159.165L125.516 587.696H111.721Z" fill="#BCBEC0"/>
<path d="M128.556 592.287L105.413 483.627L99.4775 485.392L121.676 592.287H128.556Z" fill="#D1D3D4"/>
<path d="M102.539 583.105L88.6717 489.748L82.6436 491.316L95.6008 583.105H102.539Z" fill="#D1D3D4"/>
<path d="M44.3822 490.999L32.3429 583.105H26.0171L38.9655 489.748L44.3822 490.999Z" fill="#D1D3D4"/>
<path d="M6.95307 590.757L29.0782 485.408L22.1251 483.627L0 590.757H6.95307Z" fill="#D1D3D4"/>
<path d="M63.5124 494.34C93.5182 494.34 117.843 482.349 117.843 467.557C117.843 452.765 93.5182 440.775 63.5124 440.775C33.5066 440.775 9.18213 452.765 9.18213 467.557C9.18213 482.349 33.5066 494.34 63.5124 494.34Z" fill="#D1D3D4"/>
<mask id="mask0_58_3" style="mask-type:luminance" maskUnits="userSpaceOnUse" x="9" y="442" width="109" height="53">
<path d="M63.4497 494.866C93.2235 494.866 117.36 483.061 117.36 468.5C117.36 453.938 93.2235 442.133 63.4497 442.133C33.676 442.133 9.53955 453.938 9.53955 468.5C9.53955 483.061 33.676 494.866 63.4497 494.866Z" fill="white"/>
</mask>
<g mask="url(#mask0_58_3)">
<path d="M102.361 465.269C102.361 465.269 102.449 482.284 59.5614 481.954C59.5614 481.954 27.0263 481.954 10.562 473.612L-3.03857 490.103C-3.03857 490.103 103.955 505.527 105.559 503.956C107.163 502.384 130.772 467.908 130.772 467.908L102.361 465.269Z" fill="#BCBEC0"/>
</g>
<path d="M224.722 278.733L202.495 316.81L189.773 306.589L210.483 271.627C210.672 271.308 210.972 271.071 211.325 270.962C211.678 270.854 212.058 270.881 212.391 271.039L224.006 276.313C224.22 276.414 224.411 276.559 224.566 276.74C224.72 276.92 224.835 277.132 224.903 277.361C224.971 277.589 224.989 277.83 224.958 278.067C224.927 278.303 224.846 278.531 224.722 278.733Z" fill="#2F2E41"/>
<path d="M223.442 277.892L200.89 316.81L189.773 307.83L210.535 272.427L223.442 277.892Z" fill="#E6E7E8"/>
<path d="M102.539 378.032C102.539 384.785 184.383 390.27 285.416 390.27C386.448 390.27 468.312 384.785 468.312 378.032C468.312 371.278 386.468 365.783 285.416 365.783C184.363 365.783 102.539 371.268 102.539 378.032Z" fill="#D1D3D4"/>
<path d="M102.539 378.058V385.319C102.535 386.334 102.861 387.32 103.461 388.114C104.062 388.908 104.902 389.462 105.843 389.687C119.589 392.985 156.174 396.014 156.174 396.014C220.608 400.942 338.38 399.126 338.38 399.126C431.815 397.467 458.105 392.643 465.462 390.216C466.291 389.943 467.015 389.398 467.528 388.66C468.041 387.923 468.315 387.032 468.312 386.118V378.027C468.312 385.205 386.464 391.035 285.406 391.035C184.348 391.035 102.539 385.236 102.539 378.058Z" fill="#BCBEC0"/>
<path d="M128.846 224.984C128.846 224.984 146.379 240.126 135.965 253.801C135.965 253.801 142.218 287.867 131.794 300.9C131.794 300.9 124.174 309.939 113.49 309.103L94.8867 285.971C94.8867 285.971 122.199 255.055 125.32 242.235C125.33 242.235 129.857 233.819 128.846 224.984Z" fill="#2F2E41"/>
<path opacity="0.2" d="M128.846 224.984C128.846 224.984 146.379 240.126 135.965 253.801C135.965 253.801 142.218 287.867 131.794 300.9C131.794 300.9 124.174 309.939 113.49 309.103L94.8867 285.971C94.8867 285.971 122.199 255.055 125.32 242.235C125.33 242.235 129.857 233.819 128.846 224.984Z" fill="black"/>
<path d="M105.6 292.323C105.6 292.323 117.207 296.775 121.888 313.981L131.853 339.029C131.853 339.029 143.728 375.175 133.743 374.883C133.743 374.883 128.469 377.172 114.664 357.755L105.6 292.323Z" fill="#08B74F"/>
<path opacity="0.2" d="M105.6 292.323C105.6 292.323 117.207 296.775 121.888 313.981L131.853 339.029C131.853 339.029 143.728 375.175 133.743 374.883C133.743 374.883 128.469 377.172 114.664 357.755L105.6 292.323Z" fill="black"/>
<path d="M95.0643 256.145C95.3443 259.42 96.1215 262.638 97.3713 265.699C99.6584 271.211 103.454 275.185 108.217 276.532C108.696 276.667 109.183 276.772 109.676 276.847C120.292 278.577 131.178 267.007 134.005 251.053C136.831 235.099 130.499 220.74 119.883 219.03C109.266 217.32 98.3701 228.87 95.5536 244.824C94.8805 248.562 94.716 252.367 95.0643 256.145Z" fill="#F9B499"/>
<path d="M82.6436 282.643L91.015 282.957C92.5741 282.656 94.1777 282.656 95.7367 282.957C96.8754 283.084 97.9514 283.537 98.833 284.258C99.7145 284.98 100.363 285.939 100.7 287.018C100.767 287.208 100.796 287.313 100.796 287.313C101.412 289.521 102.495 291.576 103.973 293.343C108.801 299.306 113.252 304.566 113.252 304.566C113.098 302.74 111.167 299.373 109.177 296.358C107.044 293.115 104.881 290.299 104.881 290.299C100.748 285.287 108.521 278.229 108.743 278.058C101.762 276.032 96.963 267.986 96.0264 257.771L94.6553 255.592C84.9996 279.979 82.6436 282.643 82.6436 282.643Z" fill="#F9B499"/>
<path d="M129.144 224.047C129.144 224.047 117.599 247.316 94.4789 241.393C94.4789 241.393 88.006 251.694 88.4369 268.134C88.5878 271.884 87.5897 275.589 85.5775 278.75C84.7244 280.115 83.6899 281.356 82.5027 282.44C82.5027 282.44 65.1406 294.541 57.3261 321.401C57.3261 321.401 43.4698 313.934 39.1806 301.96C39.1806 301.96 37.2221 306.751 38.5441 310.578C38.5441 310.578 26.9498 303.554 39.5234 290.626C39.5234 290.626 54.9759 276.576 63.5542 269.423C64.471 268.658 65.4542 267.976 66.4919 267.387C68.3035 266.403 73.1214 261.238 77.9295 235.372C78.3379 233.139 79.0427 230.972 80.0252 228.927C84.2163 220.279 97.0641 203.199 129.174 219.581C129.174 219.581 152.676 234.909 140.22 254.065C140.22 254.065 146.36 289.189 132.17 300.897C136.074 291.857 137.605 281.962 136.616 272.158L136.322 252.884C136.322 252.884 147.035 241.235 129.144 224.047Z" fill="#2F2E41"/>
<path d="M94.5376 247.069C95.6521 243.176 94.6983 239.504 92.4072 238.867C90.1161 238.229 87.3553 240.868 86.2407 244.761C85.1262 248.654 86.08 252.327 88.3711 252.964C90.6622 253.601 93.423 250.962 94.5376 247.069Z" fill="#F9B499"/>
<path opacity="0.2" d="M86.9553 254.21C86.9553 254.21 85.2564 271.761 76.4108 278.081C78.7205 277.681 80.8302 276.517 82.4033 274.773C81.2411 277.888 79.3949 280.701 77.0018 283.002C76.557 283.385 76.1317 283.79 75.7275 284.216C74.2225 285.865 70.7323 290.072 70.3999 293.853C70.3999 293.853 76.457 285.661 81.4799 282.548C81.4799 282.548 82.6895 282.122 84.8963 278.322C86.4132 275.701 87.1442 272.695 87.0015 269.667C86.7602 264.404 87.3555 259.137 88.7651 254.062C88.7651 254.062 88.6081 254.396 86.9553 254.21Z" fill="black"/>
<path opacity="0.2" d="M67.3391 299.975C67.3391 299.975 59.6906 302.784 56.0423 306.998C57.6145 306.417 59.2835 306.119 60.967 306.116C60.967 306.116 50.9165 312.005 50.5044 317.052C52.602 318.656 54.8191 320.11 57.1378 321.401C57.1378 321.401 58.4042 313.371 67.3391 299.975Z" fill="black"/>
<path opacity="0.2" d="M61.217 275.488C61.217 275.488 41.8447 290.076 44.7506 310.688C42.3526 307.971 40.4586 304.825 39.1624 301.407C39.1624 301.407 37.4114 303.974 38.557 309.807C38.557 309.807 31.2645 305.889 38.1752 297.355C38.1938 297.336 51.0931 281.542 61.217 275.488Z" fill="black"/>
<path d="M91.1101 375.867C87.7867 380.186 85.9788 385.451 85.959 390.869C85.959 390.869 85.368 403.078 83.5952 406.559L145.812 399.674C145.812 399.674 180.018 392.43 185.455 413.521L235.686 534.057C235.686 534.057 219.701 543.812 196.053 541.601C196.053 541.601 179.102 543.182 173.35 547.905L155.13 461.881C155.13 461.881 146.6 468.592 97.8075 469.222C97.8075 469.222 19.2901 482.129 11.6176 449.081C11.6176 449.081 -0.201367 416.033 28.2331 383.625C28.2331 383.625 42.7705 369.147 48.4534 358.131C48.4042 358.131 75.5583 382.442 91.1101 375.867Z" fill="#2F2E41"/>
<path opacity="0.2" d="M93.3561 405.991L74.3778 426.388C73.1516 427.705 71.496 428.589 69.678 428.899L53.8594 431.59C53.7966 431.598 53.7327 431.584 53.68 431.551C53.6272 431.517 53.5892 431.466 53.5733 431.408C53.5573 431.349 53.5645 431.287 53.5934 431.233C53.6224 431.179 53.6711 431.138 53.7303 431.116L67.8596 426.549C69.3062 426.088 70.5873 425.248 71.5559 424.124C75.6596 419.387 86.1424 406.588 78.1238 408.312C78.1238 408.312 65.614 414.802 59.8709 415.474C59.5772 415.517 59.2772 415.464 59.0185 415.325C58.7598 415.186 58.5573 414.969 58.4431 414.707C58.3289 414.446 58.3095 414.156 58.3882 413.883C58.4669 413.61 58.639 413.37 58.8772 413.2C60.477 412.101 63.8454 410.567 70.7312 408.549L85.2779 402.514L84.0359 406.986L93.3561 405.991Z" fill="black"/>
<path opacity="0.2" d="M171.408 422.664C171.408 422.664 160.607 422.091 159.78 422.664C158.953 423.237 67.3389 472.914 67.3389 472.914C67.3389 472.914 92.5218 472.301 97.9028 470.351C97.9028 470.351 110.553 470.27 119.359 469.527C119.359 469.527 137.331 439.236 155.362 429.237C155.343 429.247 164.636 424.332 171.408 422.664Z" fill="black"/>
<path opacity="0.2" d="M182.121 466.159L156.515 468.322L155.121 461.958C152.481 463.13 149.737 464.074 146.921 464.779L161.369 448.427L158.476 461.137L182.121 466.159Z" fill="black"/>
<path d="M163.427 359.662L195.89 324.205C195.89 324.205 220.456 309.731 220.147 301.758V295.587C220.147 295.587 221.421 291.189 218.029 292.603C218.029 292.603 212.221 300.625 207.377 301.564C203.19 302.378 200.127 305.982 197.71 308.84C197.568 309.005 197.394 309.142 197.198 309.241C197.001 309.34 196.787 309.4 196.566 309.417C196.346 309.434 196.124 309.408 195.914 309.341C195.704 309.273 195.51 309.165 195.343 309.024L191.902 306.118C191.902 306.118 190.46 305.004 192.608 302.078C190.632 303.977 189.078 306.251 188.041 308.759C187.005 311.267 186.508 313.955 186.581 316.658C186.591 317.34 186.423 318.014 186.093 318.616C185.762 319.217 185.28 319.727 184.691 320.097L151.512 341.323L156.306 348.792L151.512 353.927L157.748 351.824L163.427 359.662Z" fill="#F9B499"/>
<path d="M215.791 301.505C215.631 302.307 215.4 303.083 215.104 303.819C214.805 304.539 214.456 305.222 214.059 305.859C213.652 306.487 213.209 307.076 212.732 307.618C212.251 308.172 211.729 308.647 211.2 309.158C211.502 308.99 211.798 308.806 212.086 308.612C212.375 308.419 212.657 308.181 212.918 307.909C213.458 307.406 213.943 306.815 214.361 306.15C214.777 305.481 215.117 304.741 215.372 303.951C215.63 303.176 215.772 302.347 215.791 301.505Z" fill="#F7A48B"/>
<path d="M203.547 285.485V284.419C203.549 284.231 203.476 284.045 203.332 283.875C203.189 283.705 202.98 283.554 202.719 283.434C202.459 283.314 202.153 283.227 201.825 283.18C201.497 283.134 201.154 283.128 200.822 283.163C200.274 283.222 199.783 283.39 199.441 283.635C199.099 283.879 198.928 284.184 198.96 284.494L199.466 289.262L203.547 285.485Z" fill="#F9B499"/>
<path d="M197.425 291.829V288.343C197.425 287.775 197.345 287.23 197.202 286.828C197.059 286.427 196.865 286.201 196.663 286.201C196.56 286.201 196.458 286.259 196.364 286.371C196.269 286.483 196.184 286.648 196.112 286.854C196.04 287.061 195.984 287.306 195.947 287.575C195.91 287.844 195.892 288.131 195.895 288.419L196.013 298.445L197.425 291.829Z" fill="#F9B499"/>
<path d="M194.365 297.227V295.145C194.363 294.803 194.283 294.476 194.143 294.235C194.002 293.993 193.811 293.856 193.612 293.854C193.416 293.845 193.225 293.967 193.08 294.194C192.935 294.421 192.847 294.736 192.834 295.072V301.505L194.365 297.227Z" fill="#F9B499"/>
<path d="M164.56 320.701L154.69 339.977L151.663 341.93C151.663 341.93 145.531 355.601 134.678 339.791L154.418 312.938L169.563 286.632C170.043 285.776 170.709 285.038 171.51 284.474L184.164 275.773C184.494 275.546 184.896 275.45 185.293 275.502C185.69 275.554 186.054 275.752 186.315 276.056C186.455 276.218 186.562 276.405 186.629 276.608C186.697 276.811 186.724 277.025 186.708 277.238C186.693 277.452 186.635 277.66 186.54 277.851C186.444 278.042 186.311 278.212 186.149 278.351L174.05 288.946C174.05 288.946 188.067 295.537 183.161 304.355C183.161 304.355 182.927 308.895 176.854 309.862C176.854 309.901 170.731 317.176 164.56 320.701Z" fill="#F9B499"/>
<path d="M179.06 297.849C179.06 297.849 174.306 293.805 171.508 296.076L163.756 304.566L176.031 298.814L179.06 297.849Z" fill="#F7A48B"/>
<path d="M179.06 291.756C179.06 291.756 173.634 291.856 169.877 293.853L174.385 289.262L179.06 291.756Z" fill="#F7A48B"/>
<path d="M178.317 303.036C178.317 303.036 183.433 305.386 178.317 306.633C178.317 306.633 169.752 317.969 163.756 318.34C163.756 318.34 170.847 305.097 172.167 304.499C174.182 303.874 176.237 303.385 178.317 303.036Z" fill="#F7A48B"/>
<path d="M214.379 541.783C214.379 541.783 225.361 556.601 244.869 555.292C244.869 555.292 236.882 573.691 219.73 562.85L190.998 548.706L188.243 543.449C188.243 543.449 194.233 542.09 196.399 542.259C202.379 543.07 208.451 542.909 214.379 541.783Z" fill="#F9B499"/>
<path d="M244.027 555.415C244.027 555.415 268.146 552.434 264.361 560.416C264.361 560.416 237.207 589.83 227.098 581.003C227.098 581.003 214.45 572.389 213.205 573.021C213.205 573.021 211.259 573.856 216.435 580.158C216.435 580.158 227.312 591.296 222.885 593.394C222.885 593.394 220.998 595.084 219.315 591.714C219.315 591.714 204.575 571.972 198.475 571.545C198.475 571.545 182.908 570.36 190.176 546.374L191.528 548.967L219.529 562.815C219.529 562.815 234.006 574.37 244.027 555.415Z" fill="#08B74F"/>
<mask id="mask1_58_3" style="mask-type:luminance" maskUnits="userSpaceOnUse" x="187" y="545" width="79" height="49">
<path d="M244.047 554.826C244.047 554.826 268.443 551.848 264.615 559.822C264.615 559.822 237.148 589.206 226.923 580.388C226.923 580.388 214.129 571.783 212.87 572.414C212.87 572.414 210.901 573.248 216.137 579.544C216.137 579.544 227.139 590.67 222.662 592.766C222.662 592.766 220.752 594.454 219.05 591.088C219.05 591.088 204.14 571.366 197.97 570.939C197.97 570.939 182.224 569.756 189.575 545.795L190.943 548.385L219.266 562.218C219.266 562.218 233.91 573.762 244.047 554.826Z" fill="white"/>
</mask>
<g mask="url(#mask1_58_3)">
<path opacity="0.2" d="M263.827 556.155L238.417 576.401C238.417 576.401 233.95 581.251 223.734 573.044C223.734 573.044 213.726 566.118 197.537 564.44C196.268 564.013 189.467 564.236 187.696 558.144L180.128 559.192C180.128 559.192 202.064 593.823 205.046 595.705C208.028 597.587 232.296 604.31 232.296 604.31C232.296 604.31 268.709 569.261 269.132 568.417C269.555 567.573 275.932 550.16 275.932 550.16L263.827 556.155Z" fill="black"/>
</g>
<path d="M246.323 495.614C246.323 495.614 222.339 488.312 212.73 477.505L222.349 499.521C222.349 499.521 233.115 507.431 240.721 501.008C241.739 500.119 242.837 499.312 244 498.596C245.296 497.82 246.752 496.679 246.323 495.614Z" fill="#F9B499"/>
<path d="M245.505 495.87C245.505 495.87 271.158 497.102 263.251 504.25L242.513 517.396C242.513 517.396 235.185 521.54 229.76 520.023L221.912 500.126C221.912 500.126 231.918 508.72 239.992 501.745C241.187 500.475 242.552 499.388 244.043 498.517C244.043 498.517 246.054 497.194 245.505 495.87Z" fill="#08B74F"/>
<path opacity="0.2" d="M263.575 500.461L238.259 515.548C238.259 515.548 231.203 518.936 224.973 509.896L229.189 520.049C229.189 520.049 235.747 522.097 245.256 515.627L263.197 504.794C263.197 504.794 266.456 502.431 263.575 500.461Z" fill="black"/>
<path d="M350.703 371.452L366.557 311.779C366.557 311.779 370.101 303.556 361.74 303.036H253.761L235.103 371.452H182.121V381.088H351.542V373.826C351.546 373.134 351.355 372.454 350.989 371.864L350.703 371.452Z" fill="#08B74F"/>
<path d="M255.582 303.036C254.168 303.029 252.791 303.448 251.665 304.229C250.54 305.009 249.73 306.106 249.362 307.35L231.095 368.844H235.957L255.582 303.036Z" fill="#08B74F"/>
<path opacity="0.2" d="M255.582 303.036C254.168 303.029 252.791 303.448 251.665 304.229C250.54 305.009 249.73 306.106 249.362 307.35L231.095 368.844H235.957L255.582 303.036Z" fill="white"/>
<path opacity="0.2" d="M348.938 368.844H244.869" stroke="black" stroke-miterlimit="10"/>
<path d="M48.9741 357.93C48.9741 357.93 75.847 381.806 91.407 375.407L101.546 363.211C101.546 363.211 109.795 362.065 115.334 356.765C115.334 356.765 131.599 369.925 140.955 373.382C142.133 373.812 143.403 373.949 144.65 373.782C145.896 373.616 147.081 373.15 148.098 372.427L163.756 361.559L156.906 352.133L150.77 354.195L155.487 349.134L150.77 341.77C150.77 341.77 146.288 348.456 140.397 344.53C140.397 344.53 127.91 337.635 126.491 328.428C126.491 328.428 119.073 308.315 109.355 296.912C111.371 299.939 113.328 303.32 113.485 305.154C113.485 305.154 108.973 299.873 104.08 293.884C102.582 292.11 101.485 290.047 100.86 287.83C100.86 287.83 100.86 287.724 100.763 287.533C100.433 286.444 99.7788 285.474 98.8831 284.748C97.9875 284.022 96.8908 283.572 95.7325 283.455C94.1524 283.153 92.5272 283.153 90.9471 283.455L82.4625 283.14C82.4625 283.14 76.0721 287.619 69.1728 296.979C62.013 306.825 57.2197 318.12 55.1492 330.023C53.5834 339.068 50.8629 353.336 48.9741 357.93Z" fill="#08B74F"/>
<path d="M128.556 224.984C128.556 224.984 125.22 248.448 93.356 244.413C93.6085 243.622 93.9537 242.867 94.3838 242.163C94.3838 242.163 114.903 249.749 128.556 224.984Z" fill="#2F2E41"/>
<path opacity="0.2" d="M128.556 224.984C128.556 224.984 125.22 248.448 93.356 244.413C93.6085 243.622 93.9537 242.867 94.3838 242.163C94.3838 242.163 114.903 249.749 128.556 224.984Z" fill="black"/>
<path d="M105.157 283.14C106.079 281.119 107.261 279.282 108.66 277.696C104.634 276.28 101.426 272.101 99.4933 266.306C99.1303 274.08 105.157 283.14 105.157 283.14Z" fill="#F7A48B"/>
<path d="M102.539 245.062C102.539 245.062 96.1878 262.526 102.42 277.019C102.42 277.019 91.5403 275.351 92.7415 262.28C92.7415 262.28 90.9003 269.034 92.7415 273.026C92.7415 273.026 88.7242 272.397 87.6608 270.201C87.6608 270.201 85.0515 259.582 92.7415 244.88C95.9978 245.166 99.2726 245.227 102.539 245.062Z" fill="#2F2E41"/>
<path d="M162.226 319.871C162.226 319.871 170.726 315.738 173.187 308.202C173.187 308.202 176.617 303.816 179.32 302.459C179.571 302.347 179.798 302.182 179.99 301.974C180.181 301.766 180.333 301.518 180.436 301.246C180.539 300.974 180.592 300.682 180.591 300.388C180.59 300.094 180.535 299.802 180.429 299.531C179.954 298.468 178.668 297.799 175.424 299.4L162.226 306.257" fill="#F9B499"/>
<path d="M189.773 393.331L153.687 599.939H142.33L176.795 393.331H189.773Z" fill="#D1D3D4"/>
<path d="M84.9388 172.949C94.659 172.949 102.539 165.07 102.539 155.349C102.539 145.629 94.659 137.749 84.9388 137.749C75.2186 137.749 67.3389 145.629 67.3389 155.349C67.3389 165.07 75.2186 172.949 84.9388 172.949Z" fill="white"/>
<path d="M65.3352 106.631C64.9898 107.232 64.4656 107.716 63.8316 108.021C63.031 108.398 62.148 108.578 61.2595 108.547H59.1508V113.263H56.626V101.021H61.2595C62.1187 100.999 62.9719 101.166 63.756 101.509C64.3959 101.802 64.9323 102.273 65.2973 102.863C65.6438 103.458 65.8201 104.132 65.808 104.816C65.8049 105.449 65.6425 106.072 65.3352 106.631ZM62.7063 106.096C62.8799 105.925 63.0144 105.72 63.1007 105.495C63.1871 105.269 63.2235 105.029 63.2075 104.788C63.2075 103.591 62.5267 102.992 61.1555 102.992H59.1508V106.631H61.1555C61.73 106.672 62.298 106.49 62.7347 106.124L62.7063 106.096Z" fill="#2F2E41"/>
<path d="M68.37 112.594C67.5767 112.161 66.9251 111.507 66.4938 110.711C66.0279 109.851 65.7922 108.884 65.8097 107.905C65.7903 106.924 66.0332 105.955 66.5133 105.1C66.9749 104.3 67.6524 103.647 68.4678 103.217C69.2953 102.767 70.2239 102.538 71.165 102.55C72.109 102.539 73.0403 102.768 73.8719 103.217C74.6872 103.647 75.3648 104.3 75.8264 105.1C76.2986 105.958 76.5379 106.925 76.5202 107.905C76.5425 108.888 76.2958 109.859 75.8068 110.711C75.3452 111.511 74.6677 112.163 73.8524 112.594C73.0142 113.044 72.0762 113.273 71.1259 113.261C70.1647 113.286 69.214 113.056 68.37 112.594ZM72.3865 110.632C72.8061 110.388 73.1457 110.027 73.3637 109.592C73.6288 109.071 73.7566 108.49 73.7351 107.905C73.7628 107.494 73.7088 107.081 73.5763 106.69C73.4437 106.299 73.2353 105.939 72.9631 105.63C72.7196 105.372 72.4252 105.169 72.0987 105.032C71.7723 104.895 71.4209 104.828 71.0672 104.835C70.7177 104.827 70.3705 104.894 70.0487 105.031C69.7269 105.168 69.4378 105.372 69.2007 105.63C68.7121 106.287 68.4482 107.085 68.4482 107.905C68.4482 108.725 68.7121 109.524 69.2007 110.181C69.4347 110.44 69.7218 110.645 70.0424 110.782C70.3629 110.919 70.7092 110.985 71.0574 110.975C71.5223 110.976 71.9796 110.858 72.3865 110.632Z" fill="#2F2E41"/>
<path d="M80.0317 112.746C79.4731 112.476 78.985 112.05 78.6137 111.507C78.2731 111.011 78.0768 110.408 78.0518 109.78H80.3775C80.3999 109.974 80.4575 110.161 80.5468 110.329C80.636 110.497 80.755 110.642 80.8962 110.756C81.2236 111.027 81.623 111.165 82.0288 111.146C82.3914 111.17 82.7514 111.064 83.0577 110.844C83.1722 110.763 83.2666 110.651 83.3317 110.518C83.3968 110.385 83.4305 110.235 83.4294 110.083C83.4288 109.92 83.3847 109.761 83.303 109.627C83.2212 109.494 83.1056 109.39 82.9712 109.332C82.5058 109.1 82.0225 108.917 81.5274 108.785C80.9584 108.64 80.4004 108.444 79.8587 108.2C79.423 108.008 79.0367 107.696 78.7348 107.293C78.4028 106.824 78.2337 106.234 78.2593 105.635C78.2567 105.075 78.411 104.529 78.7002 104.074C79.0393 103.566 79.5018 103.179 80.0317 102.962C80.6389 102.675 81.2928 102.535 81.951 102.552C82.8912 102.517 83.8114 102.863 84.5448 103.528C84.8666 103.836 85.128 104.216 85.3126 104.644C85.4972 105.072 85.6008 105.539 85.6168 106.015H83.4035C83.3921 105.826 83.3462 105.642 83.2689 105.474C83.1915 105.307 83.0843 105.158 82.9539 105.04C82.6395 104.786 82.2591 104.659 81.8732 104.679C81.5345 104.657 81.1978 104.749 80.9049 104.942C80.7983 105.019 80.7112 105.126 80.6521 105.253C80.5931 105.379 80.564 105.521 80.5677 105.664C80.5661 105.832 80.6088 105.997 80.6904 106.137C80.772 106.278 80.8888 106.388 81.0259 106.454C81.4846 106.699 81.966 106.885 82.4611 107.01C83.0172 107.158 83.5633 107.35 84.0952 107.586C84.5277 107.784 84.9106 108.099 85.2105 108.502C85.5412 108.97 85.7157 109.553 85.7033 110.151C85.7102 110.724 85.5558 111.284 85.2623 111.751C84.9473 112.249 84.5123 112.635 84.0087 112.863C82.7456 113.415 81.3419 113.394 80.0922 112.804L80.0317 112.746Z" fill="#2F2E41"/>
<path d="M91.0604 105.497V110.253C91.0479 110.381 91.0638 110.511 91.1072 110.633C91.1505 110.756 91.2204 110.868 91.3123 110.964C91.5548 111.134 91.855 111.213 92.155 111.185H93.3561V113.263H91.7288C89.5397 113.263 88.4549 112.247 88.4549 110.225V105.525H87.2344V103.494H88.4549V101.019H91.0604V103.429H93.3561V105.46L91.0604 105.497Z" fill="#2F2E41"/>
<path d="M105.527 108.671H97.6501C97.674 109.339 97.9663 109.972 98.4654 110.436C98.9489 110.861 99.5841 111.089 100.239 111.074C100.688 111.097 101.134 110.99 101.52 110.766C101.905 110.542 102.211 110.212 102.399 109.818H105.334C105.03 110.805 104.4 111.669 103.54 112.28C102.599 112.945 101.456 113.29 100.289 113.261C99.3146 113.273 98.353 113.043 97.4973 112.594C96.684 112.156 96.0189 111.503 95.5814 110.711C95.1023 109.849 94.8635 108.883 94.8885 107.906C94.8677 106.924 95.1024 105.953 95.5712 105.081C95.9993 104.288 96.6627 103.636 97.4769 103.207C98.3408 102.761 99.309 102.535 100.289 102.55C101.248 102.535 102.195 102.755 103.041 103.188C103.841 103.597 104.497 104.225 104.926 104.993C105.386 105.818 105.617 106.744 105.599 107.68C105.602 108.012 105.579 108.343 105.527 108.671ZM102.786 106.964C102.789 106.657 102.722 106.353 102.59 106.074C102.458 105.794 102.264 105.546 102.022 105.346C101.521 104.933 100.877 104.716 100.218 104.738C99.5937 104.718 98.9852 104.929 98.5163 105.326C98.0336 105.753 97.7323 106.336 97.6705 106.964H102.786Z" fill="#2F2E41"/>
<path d="M106.28 106.099C106.708 105.428 107.375 104.863 108.203 104.472C109.031 104.081 109.985 103.879 110.956 103.889C111.725 103.884 112.485 104.016 113.178 104.275C113.829 104.509 114.397 104.862 114.833 105.303V101.019H117.843V113.116H114.833V111.771C114.449 112.232 113.912 112.604 113.278 112.85C112.564 113.134 111.77 113.276 110.967 113.262C110.009 113.268 109.069 113.063 108.257 112.67C107.424 112.267 106.752 111.695 106.313 111.017C105.827 110.249 105.584 109.404 105.602 108.55C105.572 107.703 105.805 106.863 106.28 106.099ZM114.388 107.136C114.129 106.761 113.741 106.448 113.268 106.23C112.794 106.013 112.252 105.899 111.7 105.902C111.166 105.898 110.641 106.004 110.179 106.211C109.71 106.432 109.326 106.745 109.068 107.119C108.769 107.554 108.619 108.041 108.635 108.533C108.619 109.03 108.768 109.523 109.068 109.963C109.322 110.349 109.705 110.674 110.179 110.906C110.637 111.121 111.164 111.234 111.7 111.231C112.243 111.235 112.776 111.125 113.244 110.914C113.719 110.695 114.103 110.377 114.355 109.998C114.633 109.551 114.777 109.062 114.777 108.567C114.777 108.072 114.633 107.583 114.355 107.136H114.388Z" fill="#2F2E41"/>
<path d="M243.812 10.7238H438.751C439.618 10.7225 440.478 10.8904 441.28 11.2179C442.081 11.5453 442.81 12.0259 443.424 12.632C444.037 13.2381 444.524 13.9579 444.855 14.75C445.186 15.5422 445.356 16.3912 445.355 17.2484V64.2888H237.217V17.2484C237.216 16.392 237.385 15.5438 237.716 14.7523C238.047 13.9607 238.532 13.2414 239.145 12.6354C239.757 12.0294 240.485 11.5487 241.286 11.2206C242.086 10.8926 242.945 10.7238 243.812 10.7238Z" fill="white"/>
<path d="M404.895 75.0019H257.78C256.566 75.0019 255.582 75.9493 255.582 77.118V100.433C255.582 101.602 256.566 102.55 257.78 102.55H404.895C406.11 102.55 407.094 101.602 407.094 100.433V77.118C407.094 75.9493 406.11 75.0019 404.895 75.0019Z" fill="white"/>
<path opacity="0.19" d="M418.572 91.8366C419.84 91.8366 420.868 91.1514 420.868 90.3062C420.868 89.4609 419.84 88.7757 418.572 88.7757C417.305 88.7757 416.277 89.4609 416.277 90.3062C416.277 91.1514 417.305 91.8366 418.572 91.8366Z" fill="#08B74F"/>
<path opacity="0.19" d="M428.52 85.7149C430.211 85.7149 431.581 84.6871 431.581 83.4192C431.581 82.1514 430.211 81.1236 428.52 81.1236C426.83 81.1236 425.459 82.1514 425.459 83.4192C425.459 84.6871 426.83 85.7149 428.52 85.7149Z" fill="#08B74F"/>
<path opacity="0.19" d="M428.52 97.9583C430.211 97.9583 431.581 96.5879 431.581 94.8975C431.581 93.207 430.211 91.8366 428.52 91.8366C426.83 91.8366 425.459 93.207 425.459 94.8975C425.459 96.5879 426.83 97.9583 428.52 97.9583Z" fill="#08B74F"/>
<g opacity="0.19">
<path d="M419.812 88.3085L419.684 88.0951L425.825 84.6319L425.943 84.8453L419.812 88.3085Z" fill="#08B74F"/>
</g>
<g opacity="0.19">
<path d="M425.528 94.7691L420.282 91.2963L420.42 91.0926L425.656 94.5654L425.528 94.7691Z" fill="#08B74F"/>
</g>
<path d="M285.465 153.909C284.347 153.524 283.377 152.885 282.663 152.062C281.968 151.23 281.596 150.237 281.599 149.219H286.149C286.17 149.88 286.501 150.507 287.068 150.962C287.711 151.412 288.532 151.639 289.365 151.597C290.201 151.637 291.027 151.425 291.696 151C291.969 150.808 292.187 150.565 292.332 150.291C292.478 150.017 292.548 149.718 292.537 149.418C292.55 148.936 292.345 148.469 291.965 148.11C291.561 147.758 291.071 147.483 290.531 147.305C289.948 147.115 289.164 146.897 288.144 146.651C286.997 146.382 285.873 146.047 284.782 145.646C283.9 145.302 283.131 144.782 282.54 144.13C281.884 143.343 281.56 142.391 281.621 141.429C281.594 140.448 281.923 139.482 282.562 138.662C283.214 137.856 284.129 137.227 285.196 136.852C286.424 136.419 287.744 136.206 289.074 136.227C290.974 136.151 292.848 136.625 294.386 137.573C295.066 138.026 295.62 138.601 296.007 139.256C296.394 139.912 296.606 140.631 296.627 141.363H291.954C291.942 141.067 291.853 140.778 291.694 140.514C291.536 140.251 291.311 140.02 291.035 139.837C290.394 139.422 289.601 139.207 288.794 139.231C288.076 139.199 287.37 139.391 286.81 139.771C286.557 139.968 286.358 140.211 286.23 140.482C286.103 140.752 286.048 141.044 286.07 141.335C286.06 141.556 286.104 141.776 286.201 141.982C286.297 142.187 286.444 142.374 286.631 142.529C287.03 142.859 287.502 143.12 288.02 143.296C288.787 143.557 289.569 143.785 290.363 143.978C291.511 144.251 292.634 144.593 293.725 145.002C294.606 145.355 295.375 145.881 295.966 146.537C296.626 147.32 296.954 148.268 296.896 149.228C296.903 150.167 296.6 151.089 296.022 151.891C295.404 152.741 294.509 153.422 293.445 153.852C292.19 154.36 290.812 154.61 289.421 154.582C288.062 154.585 286.717 154.357 285.465 153.909Z" fill="#2F2E41"/>
<path d="M310.713 140.21C311.671 140.718 312.445 141.475 312.939 142.388C313.496 143.464 313.769 144.647 313.735 145.84V154.584H309.713V146.357C309.784 145.364 309.437 144.384 308.746 143.622C308.414 143.291 308.008 143.031 307.557 142.859C307.106 142.688 306.62 142.608 306.133 142.627C305.639 142.608 305.147 142.688 304.689 142.859C304.231 143.031 303.817 143.291 303.477 143.622C302.777 144.38 302.426 145.362 302.498 146.357V154.584H298.434V134.689H302.498V141.553C303.048 140.89 303.769 140.367 304.595 140.031C305.509 139.656 306.499 139.469 307.498 139.483C308.62 139.463 309.728 139.713 310.713 140.21Z" fill="#2F2E41"/>
<path d="M316.16 142.886C316.697 141.786 317.532 140.861 318.567 140.219C319.592 139.588 320.772 139.263 321.972 139.281C322.967 139.262 323.951 139.49 324.839 139.943C325.608 140.351 326.277 140.928 326.796 141.632V139.518H330.573V154.335H326.835V152.172C326.333 152.901 325.661 153.495 324.878 153.9C323.973 154.375 322.963 154.609 321.943 154.582C320.747 154.586 319.576 154.243 318.567 153.594C317.532 152.934 316.699 151.997 316.16 150.888C315.551 149.638 315.246 148.26 315.27 146.867C315.246 145.487 315.551 144.122 316.16 142.886ZM326.277 144.585C325.953 143.958 325.457 143.437 324.849 143.084C324.266 142.744 323.604 142.565 322.931 142.565C322.258 142.565 321.596 142.744 321.013 143.084C320.416 143.436 319.928 143.949 319.604 144.566C319.227 145.275 319.038 146.072 319.056 146.877C319.039 147.689 319.228 148.491 319.604 149.208C319.928 149.847 320.423 150.381 321.033 150.749C321.601 151.1 322.255 151.285 322.921 151.283C323.608 151.289 324.284 151.108 324.878 150.759C325.486 150.41 325.982 149.893 326.307 149.268C326.655 148.539 326.835 147.74 326.835 146.931C326.835 146.123 326.655 145.324 326.307 144.595L326.277 144.585Z" fill="#2F2E41"/>
<path d="M339.868 139.955C340.768 139.494 341.786 139.261 342.816 139.281V143.303H341.72C340.656 143.229 339.602 143.532 338.772 144.147C338.398 144.549 338.117 145.017 337.945 145.521C337.774 146.026 337.716 146.558 337.775 147.083V154.584H333.633V139.502H337.775V141.845C338.29 141.064 339.009 140.414 339.868 139.955Z" fill="#2F2E41"/>
<path d="M359.526 148.063H348.284C348.321 149.014 348.741 149.913 349.454 150.571C350.141 151.179 351.047 151.505 351.98 151.48C352.621 151.517 353.259 151.366 353.809 151.047C354.359 150.728 354.795 150.255 355.06 149.693H359.249C358.821 151.1 357.922 152.332 356.693 153.198C355.353 154.144 353.723 154.631 352.062 154.581C350.667 154.592 349.294 154.251 348.079 153.593C346.912 152.971 345.956 152.039 345.327 150.907C344.682 149.658 344.347 148.283 344.347 146.888C344.347 145.494 344.682 144.118 345.327 142.869C345.943 141.743 346.889 140.816 348.048 140.203C349.277 139.596 350.639 139.28 352.021 139.28C353.403 139.28 354.765 139.596 355.994 140.203C357.136 140.791 358.074 141.687 358.694 142.78C359.348 143.958 359.677 145.277 359.649 146.612C359.649 147.098 359.608 147.583 359.526 148.063ZM355.614 145.545C355.622 145.106 355.529 144.672 355.34 144.272C355.152 143.872 354.874 143.518 354.526 143.234C353.809 142.647 352.891 142.338 351.949 142.365C351.057 142.338 350.187 142.638 349.516 143.205C348.832 143.818 348.405 144.65 348.315 145.545H355.614Z" fill="#2F2E41"/>
<path d="M299.964 228.045C311.797 228.045 321.39 218.452 321.39 206.619C321.39 194.786 311.797 185.193 299.964 185.193C288.131 185.193 278.538 194.786 278.538 206.619C278.538 218.452 288.131 228.045 299.964 228.045Z" fill="white"/>
<path d="M361.947 228.045C373.358 228.045 382.608 218.452 382.608 206.619C382.608 194.786 373.358 185.193 361.947 185.193C350.536 185.193 341.286 194.786 341.286 206.619C341.286 218.452 350.536 228.045 361.947 228.045Z" fill="white"/>
<path d="M420.868 228.045C432.702 228.045 442.294 218.452 442.294 206.619C442.294 194.786 432.702 185.193 420.868 185.193C409.035 185.193 399.442 194.786 399.442 206.619C399.442 218.452 409.035 228.045 420.868 228.045Z" fill="white"/>
<path d="M299.964 290.792C311.797 290.792 321.39 281.2 321.39 269.366C321.39 257.533 311.797 247.94 299.964 247.94C288.131 247.94 278.538 257.533 278.538 269.366C278.538 281.2 288.131 290.792 299.964 290.792Z" fill="white"/>
<path d="M361.947 290.792C373.358 290.792 382.608 281.2 382.608 269.366C382.608 257.533 373.358 247.94 361.947 247.94C350.536 247.94 341.286 257.533 341.286 269.366C341.286 281.2 350.536 290.792 361.947 290.792Z" fill="white"/>
<path d="M422.399 289.262C434.232 289.262 443.825 279.669 443.825 267.836C443.825 256.003 434.232 246.41 422.399 246.41C410.565 246.41 400.973 256.003 400.973 267.836C400.973 279.669 410.565 289.262 422.399 289.262Z" fill="white"/>
<path d="M67.3389 140.271L84.8711 157.645C84.8711 157.645 102.452 136.362 111.721 125.506C111.721 125.506 91.3077 136.362 82.8786 148.528C82.8786 148.538 77.5457 136.802 67.3389 140.271Z" fill="#08B74F"/>
<path opacity="0.2" d="M273.947 35.2107L266.295 41.7944L273.947 48.9846" stroke="#08B74F" stroke-miterlimit="10"/>
<path opacity="0.19" d="M383.097 35.2107H301.005C298.74 35.2107 296.903 36.9323 296.903 39.056V43.6088C296.903 45.7325 298.74 47.4541 301.005 47.4541H383.097C385.362 47.4541 387.199 45.7325 387.199 43.6088V39.056C387.199 36.9323 385.362 35.2107 383.097 35.2107Z" fill="#08B74F"/>
<path opacity="0.19" d="M418.572 35.2107C418.995 35.2107 419.338 34.8681 419.338 34.4455C419.338 34.0228 418.995 33.6802 418.572 33.6802C418.15 33.6802 417.807 34.0228 417.807 34.4455C417.807 34.8681 418.15 35.2107 418.572 35.2107Z" fill="#08B74F"/>
<path opacity="0.19" d="M418.572 42.8628C418.995 42.8628 419.338 42.1776 419.338 41.3324C419.338 40.4872 418.995 39.802 418.572 39.802C418.15 39.802 417.807 40.4872 417.807 41.3324C417.807 42.1776 418.15 42.8628 418.572 42.8628Z" fill="#08B74F"/>
<path opacity="0.19" d="M418.572 48.9846C418.995 48.9846 419.338 48.642 419.338 48.2193C419.338 47.7967 418.995 47.4541 418.572 47.4541C418.15 47.4541 417.807 47.7967 417.807 48.2193C417.807 48.642 418.15 48.9846 418.572 48.9846Z" fill="#08B74F"/>
<g opacity="0.6">
<path fill-rule="evenodd" clip-rule="evenodd" d="M309.846 206.793C309.756 204.095 308.612 201.535 306.653 199.648C304.693 197.762 302.07 196.695 299.332 196.67C296.593 196.645 293.95 197.664 291.955 199.514C289.961 201.364 288.769 203.903 288.628 206.599V207.055C288.62 208.945 289.13 210.802 290.105 212.429L288.195 217.998L294.1 216.154C295.711 217.03 297.525 217.478 299.365 217.455C301.204 217.431 303.006 216.937 304.594 216.021C306.181 215.104 307.5 213.797 308.421 212.227C309.341 210.657 309.833 208.878 309.846 207.065C309.856 206.975 309.856 206.884 309.846 206.793ZM299.237 215.786C297.488 215.794 295.776 215.291 294.317 214.34L290.882 215.417L291.994 212.177C290.902 210.685 290.31 208.895 290.301 207.055C290.301 206.771 290.301 206.489 290.301 206.211C290.542 204.039 291.592 202.032 293.249 200.581C294.907 199.13 297.052 198.337 299.269 198.358C301.485 198.378 303.615 199.21 305.244 200.692C306.873 202.174 307.886 204.2 308.084 206.376V207.055C308.084 209.369 307.153 211.588 305.494 213.225C303.835 214.862 301.584 215.783 299.237 215.786Z" fill="#08B74F"/>
<path fill-rule="evenodd" clip-rule="evenodd" d="M304.099 209.151C303.833 209.024 302.563 208.404 302.317 208.326C302.071 208.248 301.914 208.2 301.737 208.452C301.479 208.79 301.203 209.114 300.91 209.422C300.84 209.5 300.743 209.55 300.638 209.563C300.533 209.575 300.426 209.55 300.339 209.49C299.577 209.188 298.872 208.761 298.253 208.229C297.687 207.713 297.199 207.118 296.806 206.463C296.753 206.381 296.735 206.281 296.755 206.185C296.775 206.089 296.832 206.005 296.914 205.949C297.042 205.833 297.18 205.649 297.308 205.503L297.407 205.377C297.476 205.284 297.532 205.183 297.574 205.076C297.613 205.008 297.633 204.931 297.633 204.853C297.633 204.775 297.613 204.698 297.574 204.63C297.505 204.504 296.983 203.253 296.767 202.738C296.55 202.224 296.334 202.321 296.176 202.321H295.684C295.552 202.326 295.422 202.356 295.302 202.411C295.182 202.466 295.074 202.544 294.986 202.641C294.696 202.916 294.466 203.246 294.311 203.612C294.155 203.977 294.076 204.37 294.08 204.766C294.088 205.058 294.131 205.347 294.208 205.629C294.415 206.266 294.731 206.864 295.143 207.395C296.223 209.074 297.761 210.419 299.581 211.275C302.229 212.245 302.229 211.944 302.711 211.906C303.074 211.839 303.418 211.696 303.721 211.487C304.023 211.278 304.276 211.007 304.463 210.693C304.632 210.312 304.687 209.891 304.62 209.48C304.474 209.333 304.295 209.221 304.099 209.151Z" fill="#08B74F"/>
</g>
<path opacity="0.6" d="M359.024 281.61H363.691V269.265H366.958L367.303 265.13H363.691V262.775C363.691 261.764 363.882 261.41 364.774 261.41H367.303V257.123H364.065C360.586 257.123 359.024 258.741 359.024 261.834V265.13H356.59V269.316H359.024V281.61Z" fill="#08B74F"/>
<g opacity="0.6">
<path d="M299.029 260.972C301.913 260.972 302.257 260.972 303.399 261.04C304.071 261.042 304.738 261.164 305.367 261.399C305.833 261.578 306.256 261.851 306.61 262.2C306.964 262.549 307.241 262.967 307.424 263.426C307.652 264.049 307.778 264.704 307.798 265.366C307.847 266.491 307.857 266.821 307.857 269.673C307.857 272.525 307.857 272.855 307.798 273.98C307.782 274.643 307.656 275.298 307.424 275.921C307.247 276.383 306.972 276.804 306.617 277.153C306.265 277.501 305.842 277.772 305.377 277.948C304.744 278.172 304.08 278.296 303.409 278.317C302.267 278.317 301.923 278.375 299.039 278.375C296.156 278.375 295.811 278.375 294.67 278.317C293.998 278.297 293.333 278.173 292.701 277.948C292.234 277.776 291.81 277.505 291.461 277.153C291.1 276.809 290.823 276.387 290.654 275.921C290.418 275.3 290.292 274.643 290.28 273.98C290.231 272.855 290.211 272.516 290.211 269.673C290.211 266.831 290.211 266.491 290.28 265.366C290.29 264.703 290.417 264.047 290.654 263.426C290.833 262.966 291.107 262.547 291.46 262.198C291.812 261.849 292.235 261.576 292.701 261.399C293.33 261.163 293.997 261.041 294.67 261.04C295.811 260.981 296.156 260.972 299.039 260.972M299.039 259.032C296.087 259.032 295.732 259.032 294.581 259.099C293.683 259.112 292.793 259.279 291.953 259.594C291.237 259.869 290.586 260.288 290.042 260.824C289.498 261.36 289.073 262.002 288.794 262.708C288.47 263.535 288.3 264.412 288.292 265.298C288.243 266.433 288.233 266.792 288.233 269.693C288.233 272.593 288.233 272.942 288.292 274.087C288.306 274.969 288.476 275.843 288.794 276.667C289.065 277.381 289.492 278.027 290.044 278.559C290.585 279.096 291.236 279.513 291.953 279.781C292.795 280.092 293.683 280.259 294.581 280.276C295.732 280.334 296.106 280.344 299.039 280.344C301.972 280.344 302.346 280.344 303.497 280.276C304.392 280.263 305.278 280.096 306.115 279.781C306.838 279.518 307.493 279.101 308.034 278.559C308.583 278.024 309.009 277.379 309.284 276.667C309.587 275.839 309.757 274.968 309.786 274.087C309.835 272.942 309.845 272.583 309.845 269.693C309.845 266.802 309.845 266.433 309.786 265.298C309.759 264.414 309.589 263.54 309.284 262.708C309.003 262.001 308.577 261.359 308.031 260.823C307.486 260.287 306.833 259.869 306.115 259.594C305.278 259.28 304.392 259.113 303.497 259.099C302.346 259.099 301.972 259.032 299.039 259.032Z" fill="#08B74F"/>
<path d="M299.029 264.212C297.931 264.212 296.858 264.533 295.945 265.134C295.033 265.735 294.321 266.589 293.901 267.589C293.481 268.589 293.371 269.689 293.585 270.75C293.799 271.812 294.328 272.786 295.104 273.552C295.88 274.317 296.869 274.838 297.946 275.049C299.023 275.26 300.139 275.152 301.153 274.738C302.167 274.324 303.034 273.622 303.644 272.723C304.254 271.823 304.579 270.765 304.579 269.683C304.581 268.964 304.438 268.252 304.16 267.588C303.881 266.923 303.472 266.32 302.957 265.811C302.441 265.303 301.829 264.9 301.155 264.626C300.481 264.351 299.758 264.21 299.029 264.212ZM299.029 273.233C298.317 273.233 297.62 273.025 297.028 272.635C296.436 272.245 295.974 271.69 295.701 271.042C295.429 270.393 295.357 269.679 295.496 268.99C295.635 268.302 295.978 267.669 296.482 267.172C296.986 266.676 297.628 266.338 298.326 266.201C299.025 266.064 299.749 266.134 300.407 266.403C301.066 266.671 301.628 267.127 302.024 267.71C302.42 268.294 302.631 268.981 302.631 269.683C302.631 270.149 302.538 270.611 302.357 271.042C302.176 271.472 301.91 271.864 301.576 272.193C301.241 272.523 300.844 272.785 300.407 272.963C299.97 273.142 299.502 273.233 299.029 273.233Z" fill="#08B74F"/>
<path d="M306.096 264.018C306.098 264.271 306.023 264.519 305.882 264.731C305.741 264.942 305.539 265.108 305.303 265.207C305.066 265.305 304.805 265.333 304.553 265.285C304.3 265.238 304.068 265.117 303.885 264.94C303.702 264.762 303.577 264.535 303.524 264.287C303.472 264.039 303.496 263.781 303.593 263.546C303.689 263.312 303.854 263.11 304.067 262.968C304.279 262.826 304.53 262.749 304.787 262.747C305.13 262.747 305.459 262.88 305.702 263.118C305.945 263.356 306.083 263.68 306.086 264.018" fill="#08B74F"/>
</g>
<path opacity="0.6" d="M410.155 213.884C412.083 215.083 414.316 215.745 416.607 215.798C418.898 215.851 421.161 215.293 423.146 214.185C425.132 213.077 426.764 211.462 427.865 209.516C428.965 207.571 429.491 205.37 429.385 203.154C430.244 202.55 430.987 201.804 431.581 200.952C430.776 201.291 429.925 201.516 429.054 201.621C429.971 201.091 430.659 200.257 430.989 199.274C430.124 199.761 429.183 200.108 428.202 200.302C427.538 199.622 426.662 199.172 425.708 199.022C424.754 198.872 423.776 199.03 422.924 199.471C422.072 199.913 421.393 200.613 420.994 201.465C420.594 202.316 420.495 203.271 420.712 204.183C418.971 204.096 417.269 203.657 415.714 202.893C414.16 202.129 412.788 201.058 411.689 199.749C411.128 200.683 410.956 201.789 411.207 202.841C411.459 203.893 412.115 204.814 413.042 205.415C412.341 205.392 411.655 205.213 411.037 204.891C411.026 205.88 411.371 206.843 412.013 207.613C412.655 208.383 413.554 208.913 414.556 209.111C413.901 209.274 413.217 209.298 412.551 209.179C412.841 210.014 413.39 210.743 414.124 211.264C414.859 211.785 415.741 212.073 416.652 212.09C414.816 213.494 412.48 214.14 410.155 213.884Z" fill="#08B74F"/>
<g opacity="0.6">
<path d="M356.424 204.077H352.34V217.066H356.424V204.077Z" fill="#08B74F"/>
<path d="M354.368 202.379C354.851 202.385 355.324 202.25 355.729 201.99C356.133 201.73 356.451 201.358 356.641 200.921C356.831 200.484 356.885 200.001 356.797 199.533C356.708 199.065 356.481 198.634 356.144 198.293C355.807 197.953 355.375 197.718 354.903 197.62C354.43 197.522 353.939 197.563 353.491 197.74C353.043 197.917 352.658 198.221 352.385 198.613C352.112 199.005 351.963 199.469 351.957 199.944C351.956 200.258 352.017 200.568 352.138 200.858C352.258 201.148 352.435 201.412 352.659 201.635C352.883 201.857 353.149 202.034 353.442 202.155C353.736 202.276 354.05 202.339 354.368 202.341V202.379Z" fill="#08B74F"/>
<path d="M362.95 210.247C362.95 208.423 363.796 207.336 365.43 207.336C367.064 207.336 367.654 208.384 367.654 210.247V217.037H371.718V208.879C371.718 205.396 369.75 203.708 366.916 203.708C366.127 203.701 365.349 203.895 364.659 204.272C363.969 204.65 363.39 205.198 362.979 205.862V204.106H359.043V217.105H362.979L362.95 210.247Z" fill="#08B74F"/>
</g>
<path opacity="0.6" fill-rule="evenodd" clip-rule="evenodd" d="M434.569 272.255C434.338 272.144 434.091 272.062 433.836 272.012C432.632 271.626 431.58 270.92 430.813 269.983C430.381 269.478 430.034 268.915 429.785 268.315C429.727 268.203 429.697 268.082 429.697 267.958C429.697 267.835 429.727 267.713 429.785 267.602C430.058 267.309 430.419 267.095 430.822 266.989C431.332 266.855 431.808 266.628 432.221 266.322C432.308 266.255 432.378 266.172 432.427 266.078C432.437 266.049 432.437 266.017 432.427 265.988C432.451 265.935 432.463 265.879 432.463 265.821C432.463 265.764 432.451 265.707 432.427 265.654C432.315 265.468 432.145 265.317 431.938 265.222C431.811 265.154 431.67 265.113 431.525 265.102C431.379 265.091 431.233 265.11 431.096 265.158C430.853 265.238 430.605 265.304 430.353 265.357C430.073 265.42 429.781 265.42 429.502 265.357C429.511 265.3 429.511 265.242 429.502 265.186V263.725C429.56 262.943 429.541 262.158 429.443 261.38C429.138 260.05 428.282 258.881 427.056 258.125C426.189 257.569 425.175 257.238 424.121 257.169C423.77 257.136 423.417 257.121 423.064 257.124C421.633 257.099 420.233 257.511 419.083 258.296C418.223 258.906 417.549 259.711 417.126 260.632C416.793 261.551 416.686 262.528 416.813 263.49C416.873 264.114 416.89 264.74 416.862 265.366C416.538 265.42 416.207 265.42 415.884 265.366C415.622 265.314 415.364 265.247 415.111 265.167C414.98 265.145 414.846 265.146 414.717 265.173C414.587 265.199 414.465 265.25 414.357 265.321C414.242 265.375 414.143 265.456 414.071 265.555C413.999 265.655 413.956 265.77 413.946 265.889V265.943C413.984 266.094 414.073 266.23 414.201 266.331L414.465 266.511C414.963 266.772 415.492 266.98 416.04 267.133C416.201 267.182 416.347 267.263 416.469 267.37C416.591 267.478 416.685 267.61 416.744 267.755C416.782 268.144 416.683 268.533 416.461 268.865C415.911 269.875 415.093 270.74 414.083 271.38C413.549 271.715 412.957 271.965 412.332 272.12C412.085 272.153 411.861 272.273 411.706 272.454V272.517C411.683 272.594 411.679 272.675 411.696 272.753C411.713 272.831 411.75 272.905 411.804 272.967C411.881 273.043 411.97 273.107 412.068 273.157C412.579 273.401 413.126 273.574 413.692 273.671C414.025 273.719 414.352 273.795 414.67 273.896L414.768 274.158C414.866 274.419 414.915 274.726 415.013 275.059C415.03 275.105 415.06 275.145 415.1 275.177C415.139 275.209 415.187 275.23 415.238 275.24C415.362 275.276 415.495 275.276 415.619 275.24C416.454 275.04 417.326 275.013 418.173 275.159C419.029 275.454 419.839 275.854 420.579 276.349C421.158 276.72 421.833 276.944 422.536 276.998C423.077 277.025 423.619 277.025 424.16 276.998C424.615 276.955 425.054 276.816 425.442 276.592C426.312 276.142 427.085 275.592 427.927 275.249C428.247 275.177 428.575 275.141 428.905 275.141C429.604 275.124 430.304 275.157 430.998 275.24H431.067C431.161 275.224 431.248 275.18 431.311 275.114C431.348 275.075 431.371 275.028 431.38 274.978V274.924C431.446 274.585 431.582 274.261 431.781 273.968C431.904 273.882 432.057 273.84 432.212 273.851C432.781 273.761 433.338 273.616 433.875 273.418C434.138 273.337 434.374 273.194 434.559 273.004C434.631 272.907 434.657 272.788 434.633 272.673C434.61 272.558 434.537 272.456 434.432 272.39L434.569 272.255Z" fill="#08B74F"/>
<g opacity="0.6">
<path d="M271.278 86.9505C271.677 87.1736 271.997 87.5123 272.194 87.9206C272.43 88.39 272.545 88.91 272.528 89.4339V93.159H271.721V89.4921C271.762 88.9167 271.571 88.3485 271.19 87.9109C271.004 87.7228 270.78 87.5761 270.532 87.4807C270.284 87.3853 270.019 87.3435 269.753 87.358C269.478 87.3471 269.203 87.3933 268.947 87.4935C268.691 87.5938 268.46 87.7459 268.267 87.94C267.868 88.4224 267.671 89.0364 267.716 89.657V93.1202H266.889V84.506H267.716V87.8527C267.917 87.473 268.234 87.1645 268.621 86.9699C269.032 86.7521 269.493 86.6418 269.96 86.6498C270.417 86.648 270.868 86.751 271.278 86.9505Z" fill="#08B74F"/>
<path d="M275.441 87.455V91.4323C275.41 91.7178 275.487 92.0045 275.657 92.2374C275.886 92.4059 276.171 92.4822 276.454 92.4508H277.212V93.1493H276.326C276.094 93.1706 275.859 93.1465 275.637 93.0782C275.414 93.01 275.207 92.899 275.027 92.7516C274.869 92.5718 274.748 92.3623 274.674 92.1356C274.599 91.9088 274.572 91.6696 274.594 91.4323V87.455H273.699V86.7662H274.594V85.1753H275.441V86.7662H277.212V87.455H275.441Z" fill="#08B74F"/>
<path d="M279.643 87.455V91.4323C279.61 91.7194 279.691 92.0081 279.87 92.2374C280.095 92.4044 280.377 92.4807 280.657 92.4508H281.415V93.1493H280.529C280.292 93.1889 280.049 93.1717 279.82 93.0992C279.591 93.0266 279.384 92.9007 279.215 92.7323C279.046 92.5638 278.921 92.3577 278.85 92.1315C278.779 91.9052 278.764 91.6653 278.807 91.4323V87.455H277.901V86.7662H278.807V85.1753H279.643V86.7662H281.415V87.455H279.643Z" fill="#08B74F"/>
<path d="M284.564 87.096C285.039 86.8077 285.59 86.6627 286.148 86.6789C286.7 86.6677 287.244 86.8052 287.723 87.0766C288.193 87.3467 288.576 87.7439 288.825 88.2213C289.1 88.7521 289.235 89.3425 289.219 89.9383C289.233 90.5339 289.098 91.1237 288.825 91.6553C288.576 92.1357 288.194 92.5362 287.723 92.8097C287.245 93.0845 286.701 93.2254 286.148 93.2172C285.589 93.2287 285.039 93.0805 284.564 92.7903C284.137 92.5366 283.795 92.1658 283.58 91.7232V96.1274H282.822V86.7662H283.639V88.1631C283.838 87.7283 284.159 87.3582 284.564 87.096ZM288.067 88.5705C287.876 88.2 287.578 87.893 287.211 87.6877C286.836 87.4874 286.417 87.3824 285.991 87.3824C285.564 87.3824 285.145 87.4874 284.77 87.6877C284.404 87.9052 284.104 88.2171 283.904 88.5899C283.697 89.0101 283.59 89.4711 283.59 89.9383C283.59 90.4055 283.697 90.8665 283.904 91.2867C284.102 91.6586 284.402 91.9679 284.77 92.1792C285.136 92.3932 285.555 92.5039 285.981 92.4993C286.412 92.5051 286.836 92.398 287.211 92.1889C287.579 91.9801 287.876 91.6699 288.067 91.2964C288.282 90.872 288.39 90.4028 288.382 89.9286C288.393 89.4572 288.284 88.9906 288.067 88.5705Z" fill="#08B74F"/>
<path d="M290.449 87.9399C290.361 87.8572 290.301 87.7502 290.277 87.6331C290.252 87.5161 290.264 87.3944 290.311 87.2841C290.358 87.1739 290.437 87.0802 290.539 87.0154C290.641 86.9506 290.761 86.9178 290.882 86.9213C291.04 86.9194 291.192 86.9787 291.305 87.0862C291.414 87.2026 291.474 87.355 291.474 87.5131C291.474 87.6712 291.414 87.8235 291.305 87.9399C291.251 87.9963 291.185 88.0409 291.112 88.071C291.039 88.101 290.961 88.1159 290.882 88.1145C290.801 88.1166 290.721 88.1022 290.647 88.0721C290.572 88.042 290.505 87.997 290.449 87.9399ZM290.449 93.0037C290.361 92.9209 290.301 92.814 290.277 92.6969C290.252 92.5799 290.264 92.4582 290.311 92.3479C290.358 92.2376 290.437 92.144 290.539 92.0792C290.641 92.0144 290.761 91.9816 290.882 91.9851C291.04 91.9832 291.192 92.0424 291.305 92.15C291.414 92.2664 291.474 92.4187 291.474 92.5769C291.474 92.735 291.414 92.8873 291.305 93.0037C291.251 93.0601 291.185 93.1047 291.112 93.1348C291.039 93.1648 290.961 93.1796 290.882 93.1783C290.801 93.1804 290.721 93.166 290.647 93.1359C290.572 93.1058 290.505 93.0608 290.449 93.0037Z" fill="#08B74F"/>
<path d="M296.6 82.1777L293.342 95.0602H292.525L295.763 82.1777H296.6Z" fill="#08B74F"/>
<path d="M301.806 82.1777L298.568 95.0602H297.751L300.989 82.1777H301.806Z" fill="#08B74F"/>
<path d="M311.843 86.7661L309.826 93.1201H308.999L307.218 87.7944L305.456 93.1201H304.61L302.592 86.7661H303.429L305.043 92.2956L306.844 86.7661H307.67L309.393 92.3053L310.987 86.7661H311.843Z" fill="#08B74F"/>
<path d="M321.468 86.7661L319.5 93.1201H318.673L316.892 87.7944L315.101 93.1201H314.264L312.296 86.7661H313.132L314.737 92.2956L316.547 86.7661H317.266L319.047 92.3053L320.641 86.7661H321.468Z" fill="#08B74F"/>
<path d="M331.093 86.7661L329.125 93.1201H328.298L326.517 87.7944L324.726 93.1201H323.889L321.921 86.7661H322.757L324.362 92.2956L326.172 86.7661H326.999L328.78 92.3053L330.375 86.7661H331.093Z" fill="#08B74F"/>
<path d="M331.93 93.0037C331.817 92.8896 331.753 92.7364 331.753 92.5769C331.753 92.4174 331.817 92.2642 331.93 92.1501C331.986 92.0964 332.052 92.0541 332.125 92.0258C332.197 91.9975 332.275 91.9837 332.353 91.9852C332.51 91.9833 332.662 92.0425 332.776 92.1501C332.861 92.2336 332.92 92.3402 332.944 92.4563C332.968 92.5725 332.957 92.6931 332.912 92.803C332.866 92.9129 332.789 93.0072 332.69 93.0739C332.59 93.1407 332.473 93.1771 332.353 93.1783C332.274 93.1803 332.195 93.1657 332.122 93.1356C332.049 93.1055 331.984 93.0606 331.93 93.0037Z" fill="#08B74F"/>
<path d="M334.076 93.0037C333.967 92.8873 333.907 92.735 333.907 92.5769C333.907 92.4188 333.967 92.2664 334.076 92.1501C334.192 92.041 334.348 91.9817 334.509 91.9851C334.585 91.9833 334.661 91.997 334.733 92.0254C334.804 92.0537 334.868 92.0962 334.922 92.1501C335.035 92.2642 335.098 92.4174 335.098 92.5769C335.098 92.7364 335.035 92.8896 334.922 93.0037C334.87 93.0608 334.806 93.1061 334.735 93.1362C334.664 93.1664 334.586 93.1808 334.509 93.1783C334.428 93.1804 334.348 93.166 334.273 93.1359C334.199 93.1059 334.132 93.0608 334.076 93.0037Z" fill="#08B74F"/>
<path d="M336.221 93.0037C336.112 92.8873 336.052 92.7349 336.052 92.5768C336.052 92.4187 336.112 92.2664 336.221 92.15C336.338 92.0427 336.493 91.9837 336.654 91.9851C336.811 91.9832 336.963 92.0424 337.077 92.15C337.185 92.2664 337.246 92.4187 337.246 92.5768C337.246 92.7349 337.185 92.8873 337.077 93.0037C337.022 93.06 336.957 93.1047 336.884 93.1347C336.811 93.1648 336.733 93.1796 336.654 93.1783C336.573 93.1798 336.493 93.1651 336.419 93.1351C336.344 93.105 336.277 93.0603 336.221 93.0037Z" fill="#08B74F"/>
</g>
<path d="M468.584 587.828L459.707 532.806L527.848 533.63L521.136 587.12" fill="#2F2E41"/>
<path d="M497.998 522.756C499.647 523.867 501.558 524.54 503.548 524.71C505.537 524.88 507.538 524.541 509.355 523.726C511.113 522.747 512.597 521.356 513.677 519.675C514.757 517.995 515.399 516.077 515.545 514.093C513.799 513.216 511.885 512.712 509.928 512.615C507.971 512.518 506.015 512.83 504.189 513.53C502.414 514.307 500.827 515.446 499.532 516.872C498.238 518.299 497.265 519.98 496.68 521.805" fill="#08B74F"/>
<path d="M529.147 534.61C530.796 535.721 532.707 536.394 534.697 536.564C536.686 536.734 538.687 536.395 540.504 535.58C542.263 534.603 543.748 533.212 544.828 531.531C545.909 529.85 546.55 527.932 546.694 525.947C544.948 525.07 543.034 524.566 541.077 524.469C539.12 524.372 537.164 524.684 535.338 525.384C533.562 526.165 531.975 527.306 530.679 528.734C529.383 530.161 528.408 531.843 527.819 533.669" fill="#08B74F"/>
<path d="M511.67 508.146C512.43 509.954 513.648 511.539 515.207 512.75C516.767 513.961 518.615 514.757 520.576 515.063C522.592 515.2 524.612 514.842 526.454 514.023C528.297 513.204 529.905 511.948 531.136 510.368C530.212 508.674 528.916 507.205 527.343 506.068C525.77 504.931 523.959 504.155 522.043 503.796C520.126 503.437 518.153 503.505 516.266 503.994C514.379 504.483 512.627 505.381 511.138 506.623" fill="#08B74F"/>
<path d="M523.036 521.853C521.051 521.757 519.073 522.163 517.292 523.032C515.511 523.902 513.985 525.206 512.86 526.82C511.87 528.554 511.332 530.502 511.292 532.491C511.253 534.48 511.714 536.448 512.633 538.219C516.096 538.063 519.353 536.557 521.69 534.034C524.026 531.511 525.25 528.176 525.092 524.764C525.05 523.84 524.908 522.923 524.669 522.028" fill="#08B74F"/>
<path d="M534.018 543.486C533.086 545.218 532.621 547.157 532.667 549.118C532.714 551.078 533.27 552.993 534.284 554.681C535.46 556.299 537.025 557.604 538.838 558.48C540.652 559.355 542.658 559.773 544.676 559.696C545.367 557.902 545.666 555.985 545.555 554.069C545.443 552.154 544.922 550.283 544.026 548.579C542.235 545.358 539.017 543.777 534.972 542.875" fill="#08B74F"/>
<path d="M552.126 546.067C551.354 545.325 550.436 544.747 549.429 544.369C548.241 543.963 546.995 543.747 545.739 543.729C544.055 543.729 542.372 543.826 540.7 544.02C538.622 544.285 536.51 544.103 534.51 543.486C532.233 542.584 530.402 540.844 529.402 538.636C528.321 536.272 527.582 533.771 527.208 531.205C526.821 528.524 525.93 525.938 524.58 523.58C522.961 521.366 521.013 519.404 518.803 517.76C516.716 516.187 514.864 514.332 513.302 512.25C510.857 508.517 509.877 504.033 510.546 499.639C510.949 496.694 512.1 493.898 513.892 491.51C514.382 490.871 514.928 490.277 515.526 489.734C515.722 489.53 515.939 489.348 516.176 489.191C516.023 489.424 515.845 489.638 515.644 489.831C515.096 490.408 514.593 491.024 514.138 491.675C512.096 494.651 510.98 498.152 510.929 501.746C510.879 505.339 511.895 508.869 513.853 511.901C515.401 513.921 517.226 515.72 519.276 517.246C521.54 518.912 523.531 520.911 525.18 523.173C526.596 525.601 527.521 528.275 527.906 531.05C528.264 533.56 528.976 536.009 530.022 538.325C530.93 540.402 532.62 542.05 534.736 542.924C536.642 543.518 538.653 543.716 540.641 543.506C542.328 543.342 544.024 543.281 545.719 543.321C547.019 543.363 548.301 543.629 549.508 544.107C550.271 544.402 550.966 544.844 551.555 545.407C551.708 545.554 551.85 545.713 551.978 545.882C552.096 545.989 552.135 546.047 552.126 546.067Z" fill="#08B74F"/>
<path d="M552.126 546.067C551.354 545.325 550.436 544.747 549.429 544.369C548.241 543.963 546.995 543.747 545.739 543.729C544.055 543.729 542.372 543.826 540.7 544.02C538.622 544.285 536.51 544.103 534.51 543.486C532.233 542.584 530.402 540.844 529.402 538.636C528.321 536.272 527.582 533.771 527.208 531.205C526.821 528.524 525.93 525.938 524.58 523.58C522.961 521.366 521.013 519.404 518.803 517.76C516.716 516.187 514.864 514.332 513.302 512.25C510.857 508.517 509.877 504.033 510.546 499.639C510.949 496.694 512.1 493.898 513.892 491.51C514.382 490.871 514.928 490.277 515.526 489.734C515.722 489.53 515.939 489.348 516.176 489.191C516.023 489.424 515.845 489.638 515.644 489.831C515.096 490.408 514.593 491.024 514.138 491.675C512.096 494.651 510.98 498.152 510.929 501.746C510.879 505.339 511.895 508.869 513.853 511.901C515.401 513.921 517.226 515.72 519.276 517.246C521.54 518.912 523.531 520.911 525.18 523.173C526.596 525.601 527.521 528.275 527.906 531.05C528.264 533.56 528.976 536.009 530.022 538.325C530.93 540.402 532.62 542.05 534.736 542.924C536.642 543.518 538.653 543.716 540.641 543.506C542.328 543.342 544.024 543.281 545.719 543.321C547.019 543.363 548.301 543.629 549.508 544.107C550.271 544.402 550.966 544.844 551.555 545.407C551.708 545.554 551.85 545.713 551.978 545.882C552.096 545.989 552.135 546.047 552.126 546.067Z" fill="#08B74F"/>
<path d="M422.025 551.703C422.177 548.88 421.612 546.064 420.381 543.511C419.15 540.958 417.293 538.748 414.977 537.08C412.661 535.413 409.96 534.341 407.118 533.963C404.276 533.584 401.384 533.91 398.702 534.911C400.724 539.359 403.876 543.219 407.853 546.116C411.83 549.013 416.498 550.851 421.405 551.45" fill="#08B74F"/>
<path d="M417.528 554.031C414.192 557.649 414.408 563.45 416.79 567.728C419.171 572.006 423.275 575.043 427.389 577.759C428.793 573.122 428.61 568.158 426.869 563.633C425.128 559.109 421.925 555.274 417.754 552.721" fill="#08B74F"/>
<path d="M433.677 537.122C433.932 539.682 434.696 542.168 435.926 544.437C437.156 546.706 438.826 548.714 440.843 550.346C442.86 551.978 445.184 553.203 447.681 553.95C450.178 554.697 452.8 554.952 455.397 554.7L456.243 554.593C454.954 549.306 452.809 543.99 448.665 540.411C444.522 536.831 437.998 535.493 433.421 538.471" fill="#08B74F"/>
<path d="M433.54 531.739C432.704 526.888 427.862 523.444 422.971 523.008C418.079 522.571 413.179 524.638 409.193 527.577C412.195 530.956 416.392 533.078 420.928 533.51C425.463 533.943 429.995 532.654 433.599 529.905" fill="#08B74F"/>
<path d="M408.177 572.588C403.493 576.517 402.332 583.54 404.241 589.283C406.15 595.026 410.736 599.624 415.844 603C417.812 597.286 419.052 591.175 418.019 585.228C416.985 579.282 413.344 573.587 407.754 571.143" fill="#08B74F"/>
<path d="M432.812 518.264C434.963 515.162 438.276 513.029 442.023 512.334C445.769 511.639 449.642 512.439 452.79 514.558C453.801 515.236 454.718 516.041 455.516 516.955C454.563 519.07 453.02 520.876 451.067 522.162C449.115 523.448 446.832 524.162 444.484 524.22C442.136 524.277 439.82 523.677 437.804 522.489C435.789 521.301 434.157 519.574 433.097 517.507" fill="#08B74F"/>
<path d="M438.548 504.392C436.196 505.094 433.727 505.333 431.281 505.094C428.836 504.855 426.462 504.142 424.296 502.998C422.129 501.854 420.213 500.3 418.657 498.425C417.1 496.55 415.934 494.392 415.225 492.072C415.007 491.378 414.833 490.672 414.703 489.957C418.446 489.509 422.233 489.561 425.961 490.113C429.701 490.677 433.171 492.372 435.891 494.963C437.124 496.169 438.014 497.673 438.472 499.324C438.93 500.975 438.939 502.716 438.499 504.373" fill="#08B74F"/>
<path d="M449.365 500.803C447.809 499.549 446.52 498.005 445.57 496.259C444.62 494.513 444.028 492.6 443.829 490.629C443.63 488.657 443.827 486.667 444.409 484.771C444.99 482.874 445.945 481.11 447.219 479.578C447.833 478.841 448.515 478.162 449.257 477.55C452.638 481.614 454.938 486.445 455.949 491.607C456.432 493.517 456.432 495.516 455.949 497.427C455.681 498.373 455.155 499.227 454.427 499.898C453.7 500.569 452.8 501.029 451.825 501.23" fill="#08B74F"/>
<g opacity="0.4">
<path d="M422.025 551.703C422.177 548.88 421.612 546.064 420.381 543.511C419.15 540.958 417.293 538.748 414.977 537.08C412.661 535.413 409.96 534.341 407.118 533.963C404.276 533.584 401.384 533.91 398.702 534.911C400.724 539.359 403.876 543.219 407.853 546.116C411.83 549.013 416.498 550.851 421.405 551.45" fill="black"/>
</g>
<g opacity="0.4">
<path d="M417.528 554.031C414.192 557.649 414.408 563.45 416.79 567.728C419.171 572.006 423.275 575.043 427.389 577.759C428.793 573.122 428.61 568.158 426.869 563.633C425.128 559.109 421.925 555.274 417.754 552.721" fill="black"/>
</g>
<g opacity="0.4">
<path d="M433.677 537.122C433.932 539.682 434.696 542.168 435.926 544.437C437.156 546.706 438.826 548.714 440.843 550.346C442.86 551.978 445.184 553.203 447.681 553.95C450.178 554.697 452.8 554.952 455.397 554.7L456.243 554.593C454.954 549.306 452.809 543.99 448.665 540.411C444.522 536.831 437.998 535.493 433.421 538.471" fill="black"/>
</g>
<g opacity="0.4">
<path d="M433.54 531.739C432.704 526.888 427.862 523.444 422.971 523.008C418.079 522.571 413.179 524.638 409.193 527.577C412.195 530.956 416.392 533.078 420.928 533.51C425.463 533.943 429.995 532.654 433.599 529.905" fill="black"/>
</g>
<g opacity="0.4">
<path d="M408.179 572.588C403.495 576.517 402.334 583.54 404.243 589.283C406.152 595.026 410.738 599.624 415.846 603C417.814 597.286 419.054 591.175 418.021 585.228C416.987 579.282 413.346 573.587 407.756 571.143" fill="black"/>
</g>
<g opacity="0.4">
<path d="M432.812 518.264C434.963 515.162 438.276 513.029 442.023 512.334C445.769 511.639 449.642 512.439 452.79 514.558C453.801 515.236 454.718 516.041 455.516 516.955C454.563 519.07 453.02 520.876 451.067 522.162C449.115 523.448 446.832 524.162 444.484 524.22C442.136 524.277 439.82 523.677 437.804 522.489C435.789 521.301 434.157 519.574 433.097 517.507" fill="black"/>
</g>
<g opacity="0.4">
<path d="M438.548 504.392C436.196 505.094 433.727 505.333 431.281 505.094C428.836 504.854 426.462 504.142 424.296 502.998C422.129 501.854 420.213 500.3 418.657 498.425C417.1 496.55 415.934 494.392 415.225 492.072C415.007 491.378 414.833 490.672 414.703 489.957C418.446 489.509 422.233 489.561 425.961 490.113C429.701 490.677 433.171 492.371 435.891 494.963C437.124 496.169 438.014 497.672 438.472 499.324C438.93 500.975 438.939 502.716 438.499 504.373" fill="black"/>
</g>
<g opacity="0.4">
<path d="M449.365 500.803C447.809 499.549 446.52 498.005 445.57 496.259C444.62 494.513 444.028 492.6 443.829 490.629C443.63 488.657 443.827 486.667 444.409 484.771C444.99 482.874 445.945 481.11 447.219 479.578C447.833 478.841 448.515 478.162 449.257 477.55C452.638 481.614 454.938 486.445 455.949 491.607C456.432 493.517 456.432 495.516 455.949 497.427C455.681 498.373 455.155 499.227 454.427 499.898C453.7 500.569 452.8 501.029 451.825 501.23" fill="black"/>
</g>
<path d="M468.052 534.581C468.033 534.455 468.033 534.328 468.052 534.202C468.045 533.833 468.068 533.463 468.121 533.096C468.121 532.126 468.279 530.691 468.298 528.896C468.525 523.693 467.667 518.5 465.779 513.637C464.397 510.326 462.267 507.369 459.55 504.994C456.41 502.26 452.341 500.791 448.153 500.88C445.929 500.911 443.742 501.452 441.766 502.462C439.723 503.533 438.02 505.142 436.846 507.108C434.376 511.134 433.746 516.169 434.002 521.097C434.258 526.025 434.897 531.05 434.346 535.861C434.081 538.225 433.451 540.535 432.476 542.71C431.517 544.825 430.056 546.682 428.215 548.123C426.429 549.382 424.457 550.363 422.369 551.033C420.451 551.664 418.604 552.49 416.858 553.497C413.775 555.383 411.276 558.068 409.635 561.258C408.278 563.888 407.567 566.795 407.558 569.746C407.545 571.977 407.915 574.194 408.651 576.304C409.3 578.103 410.166 579.819 411.229 581.416C411.137 581.328 411.052 581.234 410.973 581.135C410.737 580.845 410.52 580.54 410.324 580.223C409.507 579.036 408.845 577.751 408.356 576.401C407.555 574.27 407.138 572.018 407.125 569.746C407.089 566.718 407.784 563.726 409.153 561.015C410.818 557.724 413.363 554.944 416.514 552.973C419.889 550.762 424.387 550.18 427.772 547.56C431.158 544.941 433.008 540.362 433.529 535.745C434.051 531.127 433.362 526.151 433.175 521.087C432.988 516.023 433.559 510.843 436.127 506.652C437.382 504.575 439.193 502.88 441.363 501.753C443.435 500.695 445.731 500.133 448.065 500.114C452.391 500.05 456.583 501.595 459.805 504.441C462.581 506.884 464.744 509.929 466.123 513.336C467.25 516.133 467.972 519.072 468.269 522.067C468.49 524.323 468.552 526.592 468.456 528.857C468.439 530.283 468.328 531.705 468.121 533.116C468.106 533.484 468.06 533.851 467.983 534.212C468.025 534.331 468.048 534.455 468.052 534.581Z" fill="#08B74F"/>
<g opacity="0.4">
<path d="M468.052 534.581C468.032 534.455 468.032 534.328 468.052 534.202C468.045 533.833 468.068 533.463 468.121 533.096C468.121 532.126 468.278 530.691 468.298 528.896C468.524 523.693 467.667 518.5 465.779 513.637C464.397 510.326 462.266 507.369 459.549 504.994C456.41 502.26 452.341 500.791 448.153 500.88C445.928 500.911 443.741 501.452 441.766 502.462C439.722 503.533 438.019 505.142 436.845 507.108C434.375 511.134 433.745 516.169 434.001 521.097C434.257 526.025 434.897 531.05 434.346 535.861C434.081 538.225 433.45 540.535 432.476 542.71C431.517 544.825 430.055 546.682 428.215 548.123C426.428 549.382 424.457 550.363 422.369 551.033C420.45 551.664 418.604 552.49 416.858 553.497C413.774 555.383 411.276 558.068 409.634 561.258C408.278 563.888 407.567 566.795 407.558 569.746C407.545 571.977 407.914 574.194 408.65 576.304C409.3 578.103 410.165 579.819 411.229 581.416C411.137 581.328 411.051 581.234 410.973 581.135C410.736 580.845 410.519 580.54 410.323 580.223C409.506 579.036 408.845 577.751 408.355 576.401C407.554 574.27 407.138 572.018 407.125 569.746C407.088 566.718 407.783 563.726 409.152 561.015C410.818 557.724 413.363 554.944 416.513 552.973C419.889 550.762 424.386 550.18 427.772 547.56C431.157 544.941 433.007 540.362 433.529 535.745C434.05 531.127 433.362 526.151 433.175 521.087C432.988 516.023 433.558 510.843 436.127 506.652C437.381 504.575 439.193 502.88 441.362 501.753C443.435 500.695 445.731 500.133 448.064 500.114C452.39 500.05 456.582 501.595 459.805 504.441C462.581 506.884 464.743 509.929 466.123 513.336C467.249 516.133 467.971 519.072 468.268 522.067C468.489 524.323 468.552 526.592 468.455 528.857C468.439 530.283 468.327 531.705 468.121 533.116C468.105 533.484 468.059 533.851 467.983 534.212C468.025 534.331 468.048 534.455 468.052 534.581Z" fill="black"/>
</g>
<path d="M567.282 522.581C567.897 521.007 568.23 519.34 568.266 517.653C568.294 515.676 567.834 513.722 566.927 511.959C565.715 509.644 563.765 507.787 561.377 506.672C560 506.026 558.517 505.631 556.997 505.508C555.337 505.416 553.672 505.606 552.077 506.07C548.741 506.943 545.434 508.874 541.478 509.582C539.454 510.037 537.348 509.99 535.347 509.446C533.255 508.757 531.48 507.357 530.338 505.498C527.956 501.86 527.287 497.291 524.433 493.944C523.003 492.314 521.138 491.111 519.05 490.472C517.021 489.83 514.878 489.619 512.761 489.851C508.714 490.262 504.977 492.176 502.31 495.206C499.872 497.932 498.095 501.17 497.114 504.674C496.199 507.715 495.806 510.885 495.952 514.054C496.222 518.664 496.814 523.251 497.724 527.781L498.364 531.506C498.38 531.834 498.433 532.159 498.521 532.476V532.815C498.508 532.7 498.475 532.589 498.423 532.485L498.186 531.515C498.009 530.613 497.734 529.381 497.409 527.829C496.389 523.3 495.714 518.702 495.391 514.074C495.212 510.847 495.581 507.614 496.484 504.509C497.471 500.891 499.278 497.54 501.769 494.711C503.147 493.208 504.762 491.934 506.551 490.937C508.481 489.918 510.597 489.287 512.777 489.081C514.956 488.874 517.155 489.096 519.247 489.734C521.453 490.419 523.42 491.699 524.925 493.43C527.966 497.02 528.615 501.608 530.899 505.071C531.942 506.799 533.58 508.1 535.514 508.738C537.4 509.262 539.389 509.316 541.301 508.893C545.099 508.176 548.396 506.332 551.87 505.469C553.524 504.995 555.249 504.808 556.968 504.916C558.556 505.052 560.105 505.48 561.534 506.177C563.691 507.214 565.492 508.851 566.716 510.885C567.94 512.919 568.534 515.261 568.423 517.624C568.39 518.894 568.141 520.15 567.685 521.339C567.594 521.766 567.459 522.182 567.282 522.581Z" fill="#08B74F"/>
<path d="M527.415 498.193C529.231 499.273 531.283 499.908 533.4 500.045C535.516 500.182 537.635 499.816 539.579 498.979C541.334 497.998 542.817 496.606 543.896 494.926C544.976 493.246 545.619 491.33 545.769 489.346C544.023 488.47 542.109 487.966 540.152 487.867C538.196 487.769 536.24 488.077 534.412 488.774C532.64 489.552 531.055 490.692 529.762 492.118C528.469 493.545 527.498 495.225 526.913 497.049" fill="#08B74F"/>
<path d="M540.346 509.747C540.347 511.845 540.865 513.912 541.854 515.771C542.843 517.629 544.274 519.223 546.024 520.418C547.786 521.391 549.766 521.918 551.786 521.952C553.806 521.986 555.803 521.525 557.597 520.612C557.445 518.7 556.887 516.841 555.959 515.155C555.032 513.469 553.756 511.993 552.214 510.824C550.615 509.735 548.799 508.994 546.887 508.649C544.975 508.305 543.01 508.365 541.123 508.825" fill="#08B74F"/>
<path d="M562.754 507.196C564.677 508.074 566.785 508.487 568.903 508.399C571.021 508.311 573.086 507.726 574.928 506.691C576.564 505.531 577.885 503.991 578.774 502.208C579.663 500.424 580.093 498.453 580.025 496.467C578.44 495.818 576.74 495.484 575.023 495.484C573.307 495.484 571.607 495.817 570.021 496.465C568.435 497.112 566.995 498.062 565.781 499.259C564.568 500.456 563.606 501.878 562.951 503.441C562.59 504.296 562.326 505.188 562.164 506.1" fill="#08B74F"/>
<path d="M508.608 490.549C505.341 487.746 503.136 482.895 503.766 479.248C504.19 477.293 505.098 475.473 506.41 473.949C507.722 472.425 509.397 471.246 511.285 470.517C512.683 471.862 513.758 473.499 514.431 475.307C515.104 477.115 515.358 479.049 515.174 480.966C514.99 482.883 514.373 484.736 513.368 486.387C512.363 488.039 510.995 489.448 509.366 490.51" fill="#08B74F"/>
<path d="M421.09 474.727C421.116 474.624 421.159 474.526 421.218 474.436L421.671 473.602C422.084 472.894 422.724 471.856 423.639 470.575C426.223 466.919 429.538 463.822 433.382 461.476C436.066 459.874 439.041 458.8 442.14 458.314C445.721 457.798 449.376 458.179 452.769 459.42C456.575 460.744 459.792 463.338 461.862 466.753C463.948 470.352 464.618 474.572 465.798 478.617C466.371 480.589 467.226 482.471 468.338 484.205C469.518 485.846 470.984 487.268 472.668 488.405C474.282 489.579 475.984 490.656 477.529 491.888C479.031 493.103 480.355 494.517 481.466 496.088C483.49 499.042 484.88 502.373 485.55 505.876C486.143 508.898 486.325 511.984 486.091 515.053C485.719 519.463 484.925 523.829 483.719 528.091C483.306 529.595 482.962 530.778 482.735 531.554C482.638 531.962 482.507 532.361 482.342 532.747C482.387 532.33 482.473 531.917 482.597 531.515C482.794 530.662 483.08 529.488 483.434 528.023C484.526 523.756 485.244 519.403 485.579 515.014C485.769 511.996 485.557 508.966 484.949 506.002C484.285 502.599 482.918 499.367 480.934 496.505C479.856 494.979 478.568 493.608 477.106 492.431C475.6 491.228 473.898 490.181 472.254 488.978C470.502 487.793 468.973 486.316 467.737 484.612C466.58 482.808 465.694 480.847 465.11 478.792C463.879 474.679 463.2 470.517 461.173 467.083C459.201 463.794 456.123 461.289 452.473 460.002C449.212 458.801 445.7 458.411 442.248 458.867C439.239 459.31 436.346 460.332 433.736 461.874C429.899 464.142 426.554 467.136 423.895 470.682C422.91 471.924 422.271 472.933 421.818 473.592C421.597 473.984 421.354 474.362 421.09 474.727Z" fill="#08B74F"/>
<path d="M474.725 489.521C473.603 488.493 473.052 489.22 471.536 489.521C470.027 489.852 468.624 490.545 467.452 491.539C464.857 493.649 462.945 496.462 461.952 499.63C460.959 502.798 460.928 506.183 461.862 509.369C464.286 509.491 466.698 508.965 468.843 507.846C470.987 506.726 472.785 505.056 474.044 503.011C475.303 500.966 475.977 498.623 475.995 496.231C476.013 493.839 475.373 491.487 474.144 489.424" fill="#08B74F"/>
<path d="M428.314 468.79C427.743 467.394 426.897 467.82 425.48 467.394C423.971 467.046 422.399 467.072 420.903 467.471C417.647 468.283 414.701 470.014 412.429 472.453C410.156 474.891 408.655 477.93 408.11 481.198C410.235 482.293 412.618 482.81 415.013 482.694C417.409 482.578 419.729 481.834 421.735 480.539C423.742 479.244 425.361 477.444 426.425 475.326C427.49 473.208 427.962 470.848 427.792 468.49" fill="#08B74F"/>
<path d="M484.822 517.643C483.47 516.123 481.828 514.881 479.988 513.988C478.149 513.094 476.149 512.566 474.103 512.434C472.056 512.303 470.004 512.57 468.062 513.221C466.121 513.872 464.329 514.893 462.788 516.227C461.901 517 461.106 517.869 460.416 518.817C463.884 521.925 468.385 523.674 473.072 523.735C477.817 523.62 482.361 521.818 485.865 518.662" fill="#08B74F"/>
<path d="M481.014 496.641C485.18 496.759 489.224 495.243 492.259 492.426C495.293 489.61 497.071 485.722 497.202 481.615C497.242 480.45 497.143 479.284 496.907 478.142C494.434 477.604 491.859 477.728 489.452 478.503C487.044 479.277 484.89 480.673 483.215 482.545C481.539 484.417 480.403 486.698 479.924 489.15C479.445 491.601 479.641 494.134 480.492 496.486" fill="#08B74F"/>
<path d="M464.756 471.953C466.684 472.691 468.741 473.047 470.809 473.002C472.877 472.956 474.916 472.509 476.808 471.687C478.701 470.864 480.411 469.682 481.84 468.208C483.269 466.734 484.39 464.997 485.138 463.096C485.571 462.003 485.875 460.863 486.043 459.701C483.896 458.363 481.422 457.622 478.883 457.554C476.344 457.487 473.834 458.096 471.617 459.318C469.4 460.54 467.558 462.329 466.287 464.496C465.015 466.664 464.361 469.129 464.392 471.633" fill="#08B74F"/>
<path d="M459.254 463.94C457.326 463.202 455.269 462.846 453.201 462.891C451.133 462.937 449.095 463.384 447.202 464.206C445.31 465.029 443.6 466.211 442.171 467.685C440.741 469.159 439.621 470.896 438.873 472.797C438.44 473.89 438.136 475.03 437.968 476.192C440.119 477.524 442.594 478.263 445.134 478.33C447.674 478.398 450.186 477.792 452.407 476.575C454.628 475.359 456.477 473.578 457.761 471.416C459.045 469.255 459.717 466.794 459.707 464.289" fill="#08B74F"/>
<path d="M452.75 459.546C454.987 458.798 457.024 457.563 458.711 455.934C460.399 454.304 461.692 452.321 462.497 450.132C463.301 447.943 463.595 445.603 463.358 443.286C463.12 440.97 462.357 438.735 461.124 436.749C458.615 437.095 456.245 438.096 454.261 439.649C452.276 441.202 450.749 443.25 449.839 445.581C448.928 447.912 448.666 450.441 449.081 452.905C449.496 455.369 450.573 457.678 452.198 459.594" fill="#08B74F"/>
<path d="M436.05 460.351C436.855 458.164 437.151 455.827 436.917 453.511C436.682 451.196 435.923 448.963 434.695 446.976C433.466 444.989 431.8 443.3 429.82 442.034C427.84 440.767 425.597 439.956 423.256 439.659C421.941 441.802 421.237 444.256 421.218 446.761C421.199 449.265 421.866 451.729 423.149 453.891C424.431 456.053 426.282 457.834 428.506 459.046C430.73 460.258 433.244 460.857 435.784 460.778" fill="#08B74F"/>
<path d="M458.822 581.455L464.047 587.828H528.183L532.552 581.455H458.822Z" fill="#2F2E41"/>
<path opacity="0.2" d="M458.822 581.455L464.047 587.828H528.183L532.552 581.455H458.822Z" fill="black"/>
</svg>
